%TF.GenerationSoftware,KiCad,Pcbnew,10.0.3*%
%TF.CreationDate,2026-06-07T17:20:11-07:00*%
%TF.ProjectId,Lovers Rock,4c6f7665-7273-4205-926f-636b2e6b6963,rev?*%
%TF.SameCoordinates,Original*%
%TF.FileFunction,Soldermask,Top*%
%TF.FilePolarity,Negative*%
%FSLAX46Y46*%
G04 Gerber Fmt 4.6, Leading zero omitted, Abs format (unit mm)*
G04 Created by KiCad (PCBNEW 10.0.3) date 2026-06-07 17:20:11*
%MOMM*%
%LPD*%
G01*
G04 APERTURE LIST*
G04 APERTURE END LIST*
G36*
X206054850Y-119320964D02*
G01*
X206105040Y-119326787D01*
X206122189Y-119334359D01*
X206145671Y-119339030D01*
X206170810Y-119355827D01*
X206190696Y-119364608D01*
X206204277Y-119378189D01*
X206226777Y-119393223D01*
X206241810Y-119415722D01*
X206255391Y-119429303D01*
X206264170Y-119449186D01*
X206280970Y-119474329D01*
X206285641Y-119497812D01*
X206293212Y-119514959D01*
X206299033Y-119565139D01*
X206300000Y-119570000D01*
X206300000Y-120670000D01*
X206299032Y-120674863D01*
X206293212Y-120725040D01*
X206285641Y-120742185D01*
X206280970Y-120765671D01*
X206264169Y-120790815D01*
X206255391Y-120810696D01*
X206241812Y-120824274D01*
X206226777Y-120846777D01*
X206204274Y-120861812D01*
X206190696Y-120875391D01*
X206170815Y-120884169D01*
X206145671Y-120900970D01*
X206122185Y-120905641D01*
X206105040Y-120913212D01*
X206054861Y-120919032D01*
X206050000Y-120920000D01*
X204950000Y-120920000D01*
X204945138Y-120919032D01*
X204894959Y-120913212D01*
X204877812Y-120905641D01*
X204854329Y-120900970D01*
X204829186Y-120884170D01*
X204809303Y-120875391D01*
X204795722Y-120861810D01*
X204773223Y-120846777D01*
X204758189Y-120824277D01*
X204744608Y-120810696D01*
X204735827Y-120790810D01*
X204719030Y-120765671D01*
X204714359Y-120742189D01*
X204706787Y-120725040D01*
X204700964Y-120674849D01*
X204700000Y-120670000D01*
X204700000Y-119570000D01*
X204700964Y-119565150D01*
X204706787Y-119514959D01*
X204714359Y-119497808D01*
X204719030Y-119474329D01*
X204735826Y-119449191D01*
X204744608Y-119429303D01*
X204758191Y-119415719D01*
X204773223Y-119393223D01*
X204795719Y-119378191D01*
X204809303Y-119364608D01*
X204829191Y-119355826D01*
X204854329Y-119339030D01*
X204877808Y-119334359D01*
X204894959Y-119326787D01*
X204945151Y-119320964D01*
X204950000Y-119320000D01*
X206050000Y-119320000D01*
X206054850Y-119320964D01*
G37*
G36*
X199675000Y-120675000D02*
G01*
X198325000Y-120675000D01*
X198325000Y-119325000D01*
X199675000Y-119325000D01*
X199675000Y-120675000D01*
G37*
G36*
X203175000Y-120675000D02*
G01*
X201825000Y-120675000D01*
X201825000Y-119325000D01*
X203175000Y-119325000D01*
X203175000Y-120675000D01*
G37*
G36*
X210187416Y-119143937D02*
G01*
X210197120Y-119143937D01*
X210225076Y-119151427D01*
X210292888Y-119164916D01*
X210324895Y-119178174D01*
X210348414Y-119184476D01*
X210369502Y-119196651D01*
X210401506Y-119209908D01*
X210458988Y-119248316D01*
X210484061Y-119262792D01*
X210490923Y-119269654D01*
X210499253Y-119275220D01*
X210582387Y-119358354D01*
X210587952Y-119366683D01*
X210594816Y-119373547D01*
X210609293Y-119398622D01*
X210647699Y-119456101D01*
X210660954Y-119488102D01*
X210673132Y-119509194D01*
X210679434Y-119532716D01*
X210692691Y-119564719D01*
X210706178Y-119632526D01*
X210713671Y-119660488D01*
X210713671Y-119670192D01*
X210715626Y-119680021D01*
X210715626Y-119797586D01*
X210713671Y-119807414D01*
X210713671Y-119817120D01*
X210706177Y-119845084D01*
X210692691Y-119912888D01*
X210679435Y-119944888D01*
X210673132Y-119968414D01*
X210660953Y-119989508D01*
X210647699Y-120021506D01*
X210609297Y-120078977D01*
X210594816Y-120104061D01*
X210587950Y-120110926D01*
X210582387Y-120119253D01*
X210499253Y-120202387D01*
X210490926Y-120207950D01*
X210484061Y-120214816D01*
X210458977Y-120229297D01*
X210401506Y-120267699D01*
X210369508Y-120280953D01*
X210348414Y-120293132D01*
X210324888Y-120299435D01*
X210292888Y-120312691D01*
X210225082Y-120326178D01*
X210197120Y-120333671D01*
X210187415Y-120333671D01*
X210177587Y-120335626D01*
X210060021Y-120335626D01*
X210050193Y-120333671D01*
X210040488Y-120333671D01*
X210012526Y-120326178D01*
X209944719Y-120312691D01*
X209912716Y-120299434D01*
X209889194Y-120293132D01*
X209868102Y-120280954D01*
X209836101Y-120267699D01*
X209778622Y-120229293D01*
X209753547Y-120214816D01*
X209746683Y-120207952D01*
X209738354Y-120202387D01*
X209655220Y-120119253D01*
X209649654Y-120110923D01*
X209642792Y-120104061D01*
X209628316Y-120078988D01*
X209589908Y-120021506D01*
X209576651Y-119989502D01*
X209564476Y-119968414D01*
X209558174Y-119944895D01*
X209544916Y-119912888D01*
X209531428Y-119845078D01*
X209523937Y-119817120D01*
X209523937Y-119807414D01*
X209521982Y-119797586D01*
X209521982Y-119680021D01*
X209523937Y-119670192D01*
X209523937Y-119660488D01*
X209531427Y-119632532D01*
X209544916Y-119564719D01*
X209558175Y-119532709D01*
X209564476Y-119509194D01*
X209576649Y-119488108D01*
X209589908Y-119456101D01*
X209628320Y-119398611D01*
X209642792Y-119373547D01*
X209649652Y-119366686D01*
X209655220Y-119358354D01*
X209738354Y-119275220D01*
X209746686Y-119269652D01*
X209753547Y-119262792D01*
X209778611Y-119248320D01*
X209836101Y-119209908D01*
X209868108Y-119196649D01*
X209889194Y-119184476D01*
X209912709Y-119178175D01*
X209944719Y-119164916D01*
X210012532Y-119151427D01*
X210040488Y-119143937D01*
X210050192Y-119143937D01*
X210060021Y-119141982D01*
X210177587Y-119141982D01*
X210187416Y-119143937D01*
G37*
G36*
X216568612Y-118905133D02*
G01*
X216578316Y-118905133D01*
X216606272Y-118912623D01*
X216674084Y-118926112D01*
X216706091Y-118939370D01*
X216729610Y-118945672D01*
X216750698Y-118957847D01*
X216782702Y-118971104D01*
X216840184Y-119009512D01*
X216865257Y-119023988D01*
X216872119Y-119030850D01*
X216880449Y-119036416D01*
X216963583Y-119119550D01*
X216969148Y-119127879D01*
X216976012Y-119134743D01*
X216990489Y-119159818D01*
X217028895Y-119217297D01*
X217042150Y-119249298D01*
X217054328Y-119270390D01*
X217060630Y-119293912D01*
X217073887Y-119325915D01*
X217087374Y-119393722D01*
X217094867Y-119421684D01*
X217094867Y-119431388D01*
X217096822Y-119441217D01*
X217096822Y-119558782D01*
X217094867Y-119568610D01*
X217094867Y-119578316D01*
X217087373Y-119606280D01*
X217073887Y-119674084D01*
X217060631Y-119706084D01*
X217054328Y-119729610D01*
X217042149Y-119750704D01*
X217028895Y-119782702D01*
X216990493Y-119840173D01*
X216976012Y-119865257D01*
X216969146Y-119872122D01*
X216963583Y-119880449D01*
X216880449Y-119963583D01*
X216872122Y-119969146D01*
X216865257Y-119976012D01*
X216840173Y-119990493D01*
X216782702Y-120028895D01*
X216750704Y-120042149D01*
X216729610Y-120054328D01*
X216706084Y-120060631D01*
X216674084Y-120073887D01*
X216606278Y-120087374D01*
X216578316Y-120094867D01*
X216568611Y-120094867D01*
X216558783Y-120096822D01*
X216441217Y-120096822D01*
X216431389Y-120094867D01*
X216421684Y-120094867D01*
X216393722Y-120087374D01*
X216325915Y-120073887D01*
X216293912Y-120060630D01*
X216270390Y-120054328D01*
X216249298Y-120042150D01*
X216217297Y-120028895D01*
X216159818Y-119990489D01*
X216134743Y-119976012D01*
X216127879Y-119969148D01*
X216119550Y-119963583D01*
X216036416Y-119880449D01*
X216030850Y-119872119D01*
X216023988Y-119865257D01*
X216009512Y-119840184D01*
X215971104Y-119782702D01*
X215957847Y-119750698D01*
X215945672Y-119729610D01*
X215939370Y-119706091D01*
X215926112Y-119674084D01*
X215912624Y-119606274D01*
X215905133Y-119578316D01*
X215905133Y-119568610D01*
X215903178Y-119558782D01*
X215903178Y-119441217D01*
X215905133Y-119431388D01*
X215905133Y-119421684D01*
X215912623Y-119393728D01*
X215926112Y-119325915D01*
X215939371Y-119293905D01*
X215945672Y-119270390D01*
X215957845Y-119249304D01*
X215971104Y-119217297D01*
X216009516Y-119159807D01*
X216023988Y-119134743D01*
X216030848Y-119127882D01*
X216036416Y-119119550D01*
X216119550Y-119036416D01*
X216127882Y-119030848D01*
X216134743Y-119023988D01*
X216159807Y-119009516D01*
X216217297Y-118971104D01*
X216249304Y-118957845D01*
X216270390Y-118945672D01*
X216293905Y-118939371D01*
X216325915Y-118926112D01*
X216393728Y-118912623D01*
X216421684Y-118905133D01*
X216431388Y-118905133D01*
X216441217Y-118903178D01*
X216558783Y-118903178D01*
X216568612Y-118905133D01*
G37*
G36*
X119232228Y-117734448D02*
G01*
X119377117Y-117794463D01*
X119507515Y-117881592D01*
X119618408Y-117992485D01*
X119705537Y-118122883D01*
X119765552Y-118267772D01*
X119796148Y-118421586D01*
X119796148Y-118578414D01*
X119765552Y-118732228D01*
X119705537Y-118877117D01*
X119618408Y-119007515D01*
X119507515Y-119118408D01*
X119377117Y-119205537D01*
X119232228Y-119265552D01*
X119078414Y-119296148D01*
X118921586Y-119296148D01*
X118767772Y-119265552D01*
X118622883Y-119205537D01*
X118492485Y-119118408D01*
X118381592Y-119007515D01*
X118294463Y-118877117D01*
X118234448Y-118732228D01*
X118203852Y-118578414D01*
X118203852Y-118421586D01*
X118234448Y-118267772D01*
X118294463Y-118122883D01*
X118381592Y-117992485D01*
X118492485Y-117881592D01*
X118622883Y-117794463D01*
X118767772Y-117734448D01*
X118921586Y-117703852D01*
X119078414Y-117703852D01*
X119232228Y-117734448D01*
G37*
G36*
X124232228Y-117734448D02*
G01*
X124377117Y-117794463D01*
X124507515Y-117881592D01*
X124618408Y-117992485D01*
X124705537Y-118122883D01*
X124765552Y-118267772D01*
X124796148Y-118421586D01*
X124796148Y-118578414D01*
X124765552Y-118732228D01*
X124705537Y-118877117D01*
X124618408Y-119007515D01*
X124507515Y-119118408D01*
X124377117Y-119205537D01*
X124232228Y-119265552D01*
X124078414Y-119296148D01*
X123921586Y-119296148D01*
X123767772Y-119265552D01*
X123622883Y-119205537D01*
X123492485Y-119118408D01*
X123381592Y-119007515D01*
X123294463Y-118877117D01*
X123234448Y-118732228D01*
X123203852Y-118578414D01*
X123203852Y-118421586D01*
X123234448Y-118267772D01*
X123294463Y-118122883D01*
X123381592Y-117992485D01*
X123492485Y-117881592D01*
X123622883Y-117794463D01*
X123767772Y-117734448D01*
X123921586Y-117703852D01*
X124078414Y-117703852D01*
X124232228Y-117734448D01*
G37*
G36*
X126732228Y-117734448D02*
G01*
X126877117Y-117794463D01*
X127007515Y-117881592D01*
X127118408Y-117992485D01*
X127205537Y-118122883D01*
X127265552Y-118267772D01*
X127296148Y-118421586D01*
X127296148Y-118578414D01*
X127265552Y-118732228D01*
X127205537Y-118877117D01*
X127118408Y-119007515D01*
X127007515Y-119118408D01*
X126877117Y-119205537D01*
X126732228Y-119265552D01*
X126578414Y-119296148D01*
X126421586Y-119296148D01*
X126267772Y-119265552D01*
X126122883Y-119205537D01*
X125992485Y-119118408D01*
X125881592Y-119007515D01*
X125794463Y-118877117D01*
X125734448Y-118732228D01*
X125703852Y-118578414D01*
X125703852Y-118421586D01*
X125734448Y-118267772D01*
X125794463Y-118122883D01*
X125881592Y-117992485D01*
X125992485Y-117881592D01*
X126122883Y-117794463D01*
X126267772Y-117734448D01*
X126421586Y-117703852D01*
X126578414Y-117703852D01*
X126732228Y-117734448D01*
G37*
G36*
X131732228Y-117734448D02*
G01*
X131877117Y-117794463D01*
X132007515Y-117881592D01*
X132118408Y-117992485D01*
X132205537Y-118122883D01*
X132265552Y-118267772D01*
X132296148Y-118421586D01*
X132296148Y-118578414D01*
X132265552Y-118732228D01*
X132205537Y-118877117D01*
X132118408Y-119007515D01*
X132007515Y-119118408D01*
X131877117Y-119205537D01*
X131732228Y-119265552D01*
X131578414Y-119296148D01*
X131421586Y-119296148D01*
X131267772Y-119265552D01*
X131122883Y-119205537D01*
X130992485Y-119118408D01*
X130881592Y-119007515D01*
X130794463Y-118877117D01*
X130734448Y-118732228D01*
X130703852Y-118578414D01*
X130703852Y-118421586D01*
X130734448Y-118267772D01*
X130794463Y-118122883D01*
X130881592Y-117992485D01*
X130992485Y-117881592D01*
X131122883Y-117794463D01*
X131267772Y-117734448D01*
X131421586Y-117703852D01*
X131578414Y-117703852D01*
X131732228Y-117734448D01*
G37*
G36*
X134732228Y-117734448D02*
G01*
X134877117Y-117794463D01*
X135007515Y-117881592D01*
X135118408Y-117992485D01*
X135205537Y-118122883D01*
X135265552Y-118267772D01*
X135296148Y-118421586D01*
X135296148Y-118578414D01*
X135265552Y-118732228D01*
X135205537Y-118877117D01*
X135118408Y-119007515D01*
X135007515Y-119118408D01*
X134877117Y-119205537D01*
X134732228Y-119265552D01*
X134578414Y-119296148D01*
X134421586Y-119296148D01*
X134267772Y-119265552D01*
X134122883Y-119205537D01*
X133992485Y-119118408D01*
X133881592Y-119007515D01*
X133794463Y-118877117D01*
X133734448Y-118732228D01*
X133703852Y-118578414D01*
X133703852Y-118421586D01*
X133734448Y-118267772D01*
X133794463Y-118122883D01*
X133881592Y-117992485D01*
X133992485Y-117881592D01*
X134122883Y-117794463D01*
X134267772Y-117734448D01*
X134421586Y-117703852D01*
X134578414Y-117703852D01*
X134732228Y-117734448D01*
G37*
G36*
X142352228Y-117734448D02*
G01*
X142497117Y-117794463D01*
X142627515Y-117881592D01*
X142738408Y-117992485D01*
X142825537Y-118122883D01*
X142885552Y-118267772D01*
X142916148Y-118421586D01*
X142916148Y-118578414D01*
X142885552Y-118732228D01*
X142825537Y-118877117D01*
X142738408Y-119007515D01*
X142627515Y-119118408D01*
X142497117Y-119205537D01*
X142352228Y-119265552D01*
X142198414Y-119296148D01*
X142041586Y-119296148D01*
X141887772Y-119265552D01*
X141742883Y-119205537D01*
X141612485Y-119118408D01*
X141501592Y-119007515D01*
X141414463Y-118877117D01*
X141354448Y-118732228D01*
X141323852Y-118578414D01*
X141323852Y-118421586D01*
X141354448Y-118267772D01*
X141414463Y-118122883D01*
X141501592Y-117992485D01*
X141612485Y-117881592D01*
X141742883Y-117794463D01*
X141887772Y-117734448D01*
X142041586Y-117703852D01*
X142198414Y-117703852D01*
X142352228Y-117734448D01*
G37*
G36*
X145112228Y-117734448D02*
G01*
X145257117Y-117794463D01*
X145387515Y-117881592D01*
X145498408Y-117992485D01*
X145585537Y-118122883D01*
X145645552Y-118267772D01*
X145676148Y-118421586D01*
X145676148Y-118578414D01*
X145645552Y-118732228D01*
X145585537Y-118877117D01*
X145498408Y-119007515D01*
X145387515Y-119118408D01*
X145257117Y-119205537D01*
X145112228Y-119265552D01*
X144958414Y-119296148D01*
X144801586Y-119296148D01*
X144647772Y-119265552D01*
X144502883Y-119205537D01*
X144372485Y-119118408D01*
X144261592Y-119007515D01*
X144174463Y-118877117D01*
X144114448Y-118732228D01*
X144083852Y-118578414D01*
X144083852Y-118421586D01*
X144114448Y-118267772D01*
X144174463Y-118122883D01*
X144261592Y-117992485D01*
X144372485Y-117881592D01*
X144502883Y-117794463D01*
X144647772Y-117734448D01*
X144801586Y-117703852D01*
X144958414Y-117703852D01*
X145112228Y-117734448D01*
G37*
G36*
X152732228Y-117734448D02*
G01*
X152877117Y-117794463D01*
X153007515Y-117881592D01*
X153118408Y-117992485D01*
X153205537Y-118122883D01*
X153265552Y-118267772D01*
X153296148Y-118421586D01*
X153296148Y-118578414D01*
X153265552Y-118732228D01*
X153205537Y-118877117D01*
X153118408Y-119007515D01*
X153007515Y-119118408D01*
X152877117Y-119205537D01*
X152732228Y-119265552D01*
X152578414Y-119296148D01*
X152421586Y-119296148D01*
X152267772Y-119265552D01*
X152122883Y-119205537D01*
X151992485Y-119118408D01*
X151881592Y-119007515D01*
X151794463Y-118877117D01*
X151734448Y-118732228D01*
X151703852Y-118578414D01*
X151703852Y-118421586D01*
X151734448Y-118267772D01*
X151794463Y-118122883D01*
X151881592Y-117992485D01*
X151992485Y-117881592D01*
X152122883Y-117794463D01*
X152267772Y-117734448D01*
X152421586Y-117703852D01*
X152578414Y-117703852D01*
X152732228Y-117734448D01*
G37*
G36*
X157042228Y-117734448D02*
G01*
X157187117Y-117794463D01*
X157317515Y-117881592D01*
X157428408Y-117992485D01*
X157515537Y-118122883D01*
X157575552Y-118267772D01*
X157606148Y-118421586D01*
X157606148Y-118578414D01*
X157575552Y-118732228D01*
X157515537Y-118877117D01*
X157428408Y-119007515D01*
X157317515Y-119118408D01*
X157187117Y-119205537D01*
X157042228Y-119265552D01*
X156888414Y-119296148D01*
X156731586Y-119296148D01*
X156577772Y-119265552D01*
X156432883Y-119205537D01*
X156302485Y-119118408D01*
X156191592Y-119007515D01*
X156104463Y-118877117D01*
X156044448Y-118732228D01*
X156013852Y-118578414D01*
X156013852Y-118421586D01*
X156044448Y-118267772D01*
X156104463Y-118122883D01*
X156191592Y-117992485D01*
X156302485Y-117881592D01*
X156432883Y-117794463D01*
X156577772Y-117734448D01*
X156731586Y-117703852D01*
X156888414Y-117703852D01*
X157042228Y-117734448D01*
G37*
G36*
X162042228Y-117734448D02*
G01*
X162187117Y-117794463D01*
X162317515Y-117881592D01*
X162428408Y-117992485D01*
X162515537Y-118122883D01*
X162575552Y-118267772D01*
X162606148Y-118421586D01*
X162606148Y-118578414D01*
X162575552Y-118732228D01*
X162515537Y-118877117D01*
X162428408Y-119007515D01*
X162317515Y-119118408D01*
X162187117Y-119205537D01*
X162042228Y-119265552D01*
X161888414Y-119296148D01*
X161731586Y-119296148D01*
X161577772Y-119265552D01*
X161432883Y-119205537D01*
X161302485Y-119118408D01*
X161191592Y-119007515D01*
X161104463Y-118877117D01*
X161044448Y-118732228D01*
X161013852Y-118578414D01*
X161013852Y-118421586D01*
X161044448Y-118267772D01*
X161104463Y-118122883D01*
X161191592Y-117992485D01*
X161302485Y-117881592D01*
X161432883Y-117794463D01*
X161577772Y-117734448D01*
X161731586Y-117703852D01*
X161888414Y-117703852D01*
X162042228Y-117734448D01*
G37*
G36*
X165485000Y-119175000D02*
G01*
X164135000Y-119175000D01*
X164135000Y-117825000D01*
X165485000Y-117825000D01*
X165485000Y-119175000D01*
G37*
G36*
X168485000Y-119175000D02*
G01*
X167135000Y-119175000D01*
X167135000Y-117825000D01*
X168485000Y-117825000D01*
X168485000Y-119175000D01*
G37*
G36*
X210473654Y-117639768D02*
G01*
X210523844Y-117645591D01*
X210540993Y-117653163D01*
X210564475Y-117657834D01*
X210589614Y-117674631D01*
X210609500Y-117683412D01*
X210623081Y-117696993D01*
X210645581Y-117712027D01*
X210660614Y-117734526D01*
X210674195Y-117748107D01*
X210682974Y-117767990D01*
X210699774Y-117793133D01*
X210704445Y-117816616D01*
X210712016Y-117833763D01*
X210717837Y-117883943D01*
X210718804Y-117888804D01*
X210718804Y-118588804D01*
X210717836Y-118593667D01*
X210712016Y-118643844D01*
X210704445Y-118660989D01*
X210699774Y-118684475D01*
X210682973Y-118709619D01*
X210674195Y-118729500D01*
X210660616Y-118743078D01*
X210645581Y-118765581D01*
X210623078Y-118780616D01*
X210609500Y-118794195D01*
X210589619Y-118802973D01*
X210564475Y-118819774D01*
X210540989Y-118824445D01*
X210523844Y-118832016D01*
X210473665Y-118837836D01*
X210468804Y-118838804D01*
X209768804Y-118838804D01*
X209763942Y-118837836D01*
X209713763Y-118832016D01*
X209696616Y-118824445D01*
X209673133Y-118819774D01*
X209647990Y-118802974D01*
X209628107Y-118794195D01*
X209614526Y-118780614D01*
X209592027Y-118765581D01*
X209576993Y-118743081D01*
X209563412Y-118729500D01*
X209554631Y-118709614D01*
X209537834Y-118684475D01*
X209533163Y-118660993D01*
X209525591Y-118643844D01*
X209519768Y-118593653D01*
X209518804Y-118588804D01*
X209518804Y-117888804D01*
X209519768Y-117883954D01*
X209525591Y-117833763D01*
X209533163Y-117816612D01*
X209537834Y-117793133D01*
X209554630Y-117767995D01*
X209563412Y-117748107D01*
X209576995Y-117734523D01*
X209592027Y-117712027D01*
X209614523Y-117696995D01*
X209628107Y-117683412D01*
X209647995Y-117674630D01*
X209673133Y-117657834D01*
X209696612Y-117653163D01*
X209713763Y-117645591D01*
X209763955Y-117639768D01*
X209768804Y-117638804D01*
X210468804Y-117638804D01*
X210473654Y-117639768D01*
G37*
G36*
X216854850Y-117400964D02*
G01*
X216905040Y-117406787D01*
X216922189Y-117414359D01*
X216945671Y-117419030D01*
X216970810Y-117435827D01*
X216990696Y-117444608D01*
X217004277Y-117458189D01*
X217026777Y-117473223D01*
X217041810Y-117495722D01*
X217055391Y-117509303D01*
X217064170Y-117529186D01*
X217080970Y-117554329D01*
X217085641Y-117577812D01*
X217093212Y-117594959D01*
X217099033Y-117645139D01*
X217100000Y-117650000D01*
X217100000Y-118350000D01*
X217099032Y-118354863D01*
X217093212Y-118405040D01*
X217085641Y-118422185D01*
X217080970Y-118445671D01*
X217064169Y-118470815D01*
X217055391Y-118490696D01*
X217041812Y-118504274D01*
X217026777Y-118526777D01*
X217004274Y-118541812D01*
X216990696Y-118555391D01*
X216970815Y-118564169D01*
X216945671Y-118580970D01*
X216922185Y-118585641D01*
X216905040Y-118593212D01*
X216854861Y-118599032D01*
X216850000Y-118600000D01*
X216150000Y-118600000D01*
X216145138Y-118599032D01*
X216094959Y-118593212D01*
X216077812Y-118585641D01*
X216054329Y-118580970D01*
X216029186Y-118564170D01*
X216009303Y-118555391D01*
X215995722Y-118541810D01*
X215973223Y-118526777D01*
X215958189Y-118504277D01*
X215944608Y-118490696D01*
X215935827Y-118470810D01*
X215919030Y-118445671D01*
X215914359Y-118422189D01*
X215906787Y-118405040D01*
X215900964Y-118354849D01*
X215900000Y-118350000D01*
X215900000Y-117650000D01*
X215900964Y-117645150D01*
X215906787Y-117594959D01*
X215914359Y-117577808D01*
X215919030Y-117554329D01*
X215935826Y-117529191D01*
X215944608Y-117509303D01*
X215958191Y-117495719D01*
X215973223Y-117473223D01*
X215995719Y-117458191D01*
X216009303Y-117444608D01*
X216029191Y-117435826D01*
X216054329Y-117419030D01*
X216077808Y-117414359D01*
X216094959Y-117406787D01*
X216145151Y-117400964D01*
X216150000Y-117400000D01*
X216850000Y-117400000D01*
X216854850Y-117400964D01*
G37*
G36*
X168482607Y-116068728D02*
G01*
X167132607Y-116068728D01*
X167132607Y-114718728D01*
X168482607Y-114718728D01*
X168482607Y-116068728D01*
G37*
G36*
X145121898Y-114392962D02*
G01*
X145266787Y-114452977D01*
X145397185Y-114540106D01*
X145508078Y-114650999D01*
X145595207Y-114781397D01*
X145655222Y-114926286D01*
X145685818Y-115080100D01*
X145685818Y-115236928D01*
X145655222Y-115390742D01*
X145595207Y-115535631D01*
X145508078Y-115666029D01*
X145397185Y-115776922D01*
X145266787Y-115864051D01*
X145121898Y-115924066D01*
X144968084Y-115954662D01*
X144811256Y-115954662D01*
X144657442Y-115924066D01*
X144512553Y-115864051D01*
X144382155Y-115776922D01*
X144271262Y-115666029D01*
X144184133Y-115535631D01*
X144124118Y-115390742D01*
X144093522Y-115236928D01*
X144093522Y-115080100D01*
X144124118Y-114926286D01*
X144184133Y-114781397D01*
X144271262Y-114650999D01*
X144382155Y-114540106D01*
X144512553Y-114452977D01*
X144657442Y-114392962D01*
X144811256Y-114362366D01*
X144968084Y-114362366D01*
X145121898Y-114392962D01*
G37*
G36*
X152741898Y-114392962D02*
G01*
X152886787Y-114452977D01*
X153017185Y-114540106D01*
X153128078Y-114650999D01*
X153215207Y-114781397D01*
X153275222Y-114926286D01*
X153305818Y-115080100D01*
X153305818Y-115236928D01*
X153275222Y-115390742D01*
X153215207Y-115535631D01*
X153128078Y-115666029D01*
X153017185Y-115776922D01*
X152886787Y-115864051D01*
X152741898Y-115924066D01*
X152588084Y-115954662D01*
X152431256Y-115954662D01*
X152277442Y-115924066D01*
X152132553Y-115864051D01*
X152002155Y-115776922D01*
X151891262Y-115666029D01*
X151804133Y-115535631D01*
X151744118Y-115390742D01*
X151713522Y-115236928D01*
X151713522Y-115080100D01*
X151744118Y-114926286D01*
X151804133Y-114781397D01*
X151891262Y-114650999D01*
X152002155Y-114540106D01*
X152132553Y-114452977D01*
X152277442Y-114392962D01*
X152431256Y-114362366D01*
X152588084Y-114362366D01*
X152741898Y-114392962D01*
G37*
G36*
X200952919Y-114175405D02*
G01*
X201106864Y-114239171D01*
X201245411Y-114331745D01*
X201363236Y-114449570D01*
X201455810Y-114588117D01*
X201519576Y-114742062D01*
X201552084Y-114905489D01*
X201552084Y-115072119D01*
X201519576Y-115235546D01*
X201455810Y-115389491D01*
X201363236Y-115528038D01*
X201245411Y-115645863D01*
X201106864Y-115738437D01*
X200952919Y-115802203D01*
X200789492Y-115834711D01*
X200622862Y-115834711D01*
X200459435Y-115802203D01*
X200305490Y-115738437D01*
X200166943Y-115645863D01*
X200049118Y-115528038D01*
X199956544Y-115389491D01*
X199892778Y-115235546D01*
X199860270Y-115072119D01*
X199860270Y-114905489D01*
X199892778Y-114742062D01*
X199956544Y-114588117D01*
X200049118Y-114449570D01*
X200166943Y-114331745D01*
X200305490Y-114239171D01*
X200459435Y-114175405D01*
X200622862Y-114142897D01*
X200789492Y-114142897D01*
X200952919Y-114175405D01*
G37*
G36*
X157846878Y-114151902D02*
G01*
X157991767Y-114211917D01*
X158122165Y-114299046D01*
X158233058Y-114409939D01*
X158320187Y-114540337D01*
X158380202Y-114685226D01*
X158410798Y-114839040D01*
X158410798Y-114995868D01*
X158380202Y-115149682D01*
X158320187Y-115294571D01*
X158233058Y-115424969D01*
X158122165Y-115535862D01*
X157991767Y-115622991D01*
X157846878Y-115683006D01*
X157693064Y-115713602D01*
X157536236Y-115713602D01*
X157382422Y-115683006D01*
X157237533Y-115622991D01*
X157107135Y-115535862D01*
X156996242Y-115424969D01*
X156909113Y-115294571D01*
X156849098Y-115149682D01*
X156818502Y-114995868D01*
X156818502Y-114839040D01*
X156849098Y-114685226D01*
X156909113Y-114540337D01*
X156996242Y-114409939D01*
X157107135Y-114299046D01*
X157237533Y-114211917D01*
X157382422Y-114151902D01*
X157536236Y-114121306D01*
X157693064Y-114121306D01*
X157846878Y-114151902D01*
G37*
G36*
X162846878Y-114151902D02*
G01*
X162991767Y-114211917D01*
X163122165Y-114299046D01*
X163233058Y-114409939D01*
X163320187Y-114540337D01*
X163380202Y-114685226D01*
X163410798Y-114839040D01*
X163410798Y-114995868D01*
X163380202Y-115149682D01*
X163320187Y-115294571D01*
X163233058Y-115424969D01*
X163122165Y-115535862D01*
X162991767Y-115622991D01*
X162846878Y-115683006D01*
X162693064Y-115713602D01*
X162536236Y-115713602D01*
X162382422Y-115683006D01*
X162237533Y-115622991D01*
X162107135Y-115535862D01*
X161996242Y-115424969D01*
X161909113Y-115294571D01*
X161849098Y-115149682D01*
X161818502Y-114995868D01*
X161818502Y-114839040D01*
X161849098Y-114685226D01*
X161909113Y-114540337D01*
X161996242Y-114409939D01*
X162107135Y-114299046D01*
X162237533Y-114211917D01*
X162382422Y-114151902D01*
X162536236Y-114121306D01*
X162693064Y-114121306D01*
X162846878Y-114151902D01*
G37*
G36*
X134554850Y-113960662D02*
G01*
X134605040Y-113966485D01*
X134622189Y-113974057D01*
X134645671Y-113978728D01*
X134670810Y-113995525D01*
X134690696Y-114004306D01*
X134704277Y-114017887D01*
X134726777Y-114032921D01*
X134741810Y-114055420D01*
X134755391Y-114069001D01*
X134764170Y-114088884D01*
X134780970Y-114114027D01*
X134785641Y-114137510D01*
X134793212Y-114154657D01*
X134799033Y-114204837D01*
X134800000Y-114209698D01*
X134800000Y-115309698D01*
X134799032Y-115314561D01*
X134793212Y-115364738D01*
X134785641Y-115381883D01*
X134780970Y-115405369D01*
X134764169Y-115430513D01*
X134755391Y-115450394D01*
X134741812Y-115463972D01*
X134726777Y-115486475D01*
X134704274Y-115501510D01*
X134690696Y-115515089D01*
X134670815Y-115523867D01*
X134645671Y-115540668D01*
X134622185Y-115545339D01*
X134605040Y-115552910D01*
X134554861Y-115558730D01*
X134550000Y-115559698D01*
X133450000Y-115559698D01*
X133445138Y-115558730D01*
X133394959Y-115552910D01*
X133377812Y-115545339D01*
X133354329Y-115540668D01*
X133329186Y-115523868D01*
X133309303Y-115515089D01*
X133295722Y-115501508D01*
X133273223Y-115486475D01*
X133258189Y-115463975D01*
X133244608Y-115450394D01*
X133235827Y-115430508D01*
X133219030Y-115405369D01*
X133214359Y-115381887D01*
X133206787Y-115364738D01*
X133200964Y-115314547D01*
X133200000Y-115309698D01*
X133200000Y-114209698D01*
X133200964Y-114204848D01*
X133206787Y-114154657D01*
X133214359Y-114137506D01*
X133219030Y-114114027D01*
X133235826Y-114088889D01*
X133244608Y-114069001D01*
X133258191Y-114055417D01*
X133273223Y-114032921D01*
X133295719Y-114017889D01*
X133309303Y-114004306D01*
X133329191Y-113995524D01*
X133354329Y-113978728D01*
X133377808Y-113974057D01*
X133394959Y-113966485D01*
X133445151Y-113960662D01*
X133450000Y-113959698D01*
X134550000Y-113959698D01*
X134554850Y-113960662D01*
G37*
G36*
X141852228Y-113994146D02*
G01*
X141997117Y-114054161D01*
X142127515Y-114141290D01*
X142238408Y-114252183D01*
X142325537Y-114382581D01*
X142385552Y-114527470D01*
X142416148Y-114681284D01*
X142416148Y-114838112D01*
X142385552Y-114991926D01*
X142325537Y-115136815D01*
X142238408Y-115267213D01*
X142127515Y-115378106D01*
X141997117Y-115465235D01*
X141852228Y-115525250D01*
X141698414Y-115555846D01*
X141541586Y-115555846D01*
X141387772Y-115525250D01*
X141242883Y-115465235D01*
X141112485Y-115378106D01*
X141001592Y-115267213D01*
X140914463Y-115136815D01*
X140854448Y-114991926D01*
X140823852Y-114838112D01*
X140823852Y-114681284D01*
X140854448Y-114527470D01*
X140914463Y-114382581D01*
X141001592Y-114252183D01*
X141112485Y-114141290D01*
X141242883Y-114054161D01*
X141387772Y-113994146D01*
X141541586Y-113963550D01*
X141698414Y-113963550D01*
X141852228Y-113994146D01*
G37*
G36*
X209112228Y-113234448D02*
G01*
X209257117Y-113294463D01*
X209387515Y-113381592D01*
X209498408Y-113492485D01*
X209585537Y-113622883D01*
X209645552Y-113767772D01*
X209676148Y-113921586D01*
X209676148Y-114078414D01*
X209645552Y-114232228D01*
X209585537Y-114377117D01*
X209498408Y-114507515D01*
X209387515Y-114618408D01*
X209257117Y-114705537D01*
X209112228Y-114765552D01*
X208958414Y-114796148D01*
X208801586Y-114796148D01*
X208647772Y-114765552D01*
X208502883Y-114705537D01*
X208372485Y-114618408D01*
X208261592Y-114507515D01*
X208174463Y-114377117D01*
X208114448Y-114232228D01*
X208083852Y-114078414D01*
X208083852Y-113921586D01*
X208114448Y-113767772D01*
X208174463Y-113622883D01*
X208261592Y-113492485D01*
X208372485Y-113381592D01*
X208502883Y-113294463D01*
X208647772Y-113234448D01*
X208801586Y-113203852D01*
X208958414Y-113203852D01*
X209112228Y-113234448D01*
G37*
G36*
X216732228Y-113234448D02*
G01*
X216877117Y-113294463D01*
X217007515Y-113381592D01*
X217118408Y-113492485D01*
X217205537Y-113622883D01*
X217265552Y-113767772D01*
X217296148Y-113921586D01*
X217296148Y-114078414D01*
X217265552Y-114232228D01*
X217205537Y-114377117D01*
X217118408Y-114507515D01*
X217007515Y-114618408D01*
X216877117Y-114705537D01*
X216732228Y-114765552D01*
X216578414Y-114796148D01*
X216421586Y-114796148D01*
X216267772Y-114765552D01*
X216122883Y-114705537D01*
X215992485Y-114618408D01*
X215881592Y-114507515D01*
X215794463Y-114377117D01*
X215734448Y-114232228D01*
X215703852Y-114078414D01*
X215703852Y-113921586D01*
X215734448Y-113767772D01*
X215794463Y-113622883D01*
X215881592Y-113492485D01*
X215992485Y-113381592D01*
X216122883Y-113294463D01*
X216267772Y-113234448D01*
X216421586Y-113203852D01*
X216578414Y-113203852D01*
X216732228Y-113234448D01*
G37*
G36*
X119232228Y-113044448D02*
G01*
X119377117Y-113104463D01*
X119507515Y-113191592D01*
X119618408Y-113302485D01*
X119705537Y-113432883D01*
X119765552Y-113577772D01*
X119796148Y-113731586D01*
X119796148Y-113888414D01*
X119765552Y-114042228D01*
X119705537Y-114187117D01*
X119618408Y-114317515D01*
X119507515Y-114428408D01*
X119377117Y-114515537D01*
X119232228Y-114575552D01*
X119078414Y-114606148D01*
X118921586Y-114606148D01*
X118767772Y-114575552D01*
X118622883Y-114515537D01*
X118492485Y-114428408D01*
X118381592Y-114317515D01*
X118294463Y-114187117D01*
X118234448Y-114042228D01*
X118203852Y-113888414D01*
X118203852Y-113731586D01*
X118234448Y-113577772D01*
X118294463Y-113432883D01*
X118381592Y-113302485D01*
X118492485Y-113191592D01*
X118622883Y-113104463D01*
X118767772Y-113044448D01*
X118921586Y-113013852D01*
X119078414Y-113013852D01*
X119232228Y-113044448D01*
G37*
G36*
X172732228Y-112734448D02*
G01*
X172877117Y-112794463D01*
X173007515Y-112881592D01*
X173118408Y-112992485D01*
X173205537Y-113122883D01*
X173265552Y-113267772D01*
X173296148Y-113421586D01*
X173296148Y-113578414D01*
X173265552Y-113732228D01*
X173205537Y-113877117D01*
X173118408Y-114007515D01*
X173007515Y-114118408D01*
X172877117Y-114205537D01*
X172732228Y-114265552D01*
X172578414Y-114296148D01*
X172421586Y-114296148D01*
X172267772Y-114265552D01*
X172122883Y-114205537D01*
X171992485Y-114118408D01*
X171881592Y-114007515D01*
X171794463Y-113877117D01*
X171734448Y-113732228D01*
X171703852Y-113578414D01*
X171703852Y-113421586D01*
X171734448Y-113267772D01*
X171794463Y-113122883D01*
X171881592Y-112992485D01*
X171992485Y-112881592D01*
X172122883Y-112794463D01*
X172267772Y-112734448D01*
X172421586Y-112703852D01*
X172578414Y-112703852D01*
X172732228Y-112734448D01*
G37*
G36*
X177732228Y-112734448D02*
G01*
X177877117Y-112794463D01*
X178007515Y-112881592D01*
X178118408Y-112992485D01*
X178205537Y-113122883D01*
X178265552Y-113267772D01*
X178296148Y-113421586D01*
X178296148Y-113578414D01*
X178265552Y-113732228D01*
X178205537Y-113877117D01*
X178118408Y-114007515D01*
X178007515Y-114118408D01*
X177877117Y-114205537D01*
X177732228Y-114265552D01*
X177578414Y-114296148D01*
X177421586Y-114296148D01*
X177267772Y-114265552D01*
X177122883Y-114205537D01*
X176992485Y-114118408D01*
X176881592Y-114007515D01*
X176794463Y-113877117D01*
X176734448Y-113732228D01*
X176703852Y-113578414D01*
X176703852Y-113421586D01*
X176734448Y-113267772D01*
X176794463Y-113122883D01*
X176881592Y-112992485D01*
X176992485Y-112881592D01*
X177122883Y-112794463D01*
X177267772Y-112734448D01*
X177421586Y-112703852D01*
X177578414Y-112703852D01*
X177732228Y-112734448D01*
G37*
G36*
X201556177Y-113298804D02*
G01*
X199856177Y-113298804D01*
X199856177Y-111598804D01*
X201556177Y-111598804D01*
X201556177Y-113298804D01*
G37*
G36*
X205732228Y-111734448D02*
G01*
X205877117Y-111794463D01*
X206007515Y-111881592D01*
X206118408Y-111992485D01*
X206205537Y-112122883D01*
X206265552Y-112267772D01*
X206296148Y-112421586D01*
X206296148Y-112578414D01*
X206265552Y-112732228D01*
X206205537Y-112877117D01*
X206118408Y-113007515D01*
X206007515Y-113118408D01*
X205877117Y-113205537D01*
X205732228Y-113265552D01*
X205578414Y-113296148D01*
X205421586Y-113296148D01*
X205267772Y-113265552D01*
X205122883Y-113205537D01*
X204992485Y-113118408D01*
X204881592Y-113007515D01*
X204794463Y-112877117D01*
X204734448Y-112732228D01*
X204703852Y-112578414D01*
X204703852Y-112421586D01*
X204734448Y-112267772D01*
X204794463Y-112122883D01*
X204881592Y-111992485D01*
X204992485Y-111881592D01*
X205122883Y-111794463D01*
X205267772Y-111734448D01*
X205421586Y-111703852D01*
X205578414Y-111703852D01*
X205732228Y-111734448D01*
G37*
G36*
X142172957Y-111214932D02*
G01*
X142223147Y-111220755D01*
X142240296Y-111228327D01*
X142263778Y-111232998D01*
X142288917Y-111249795D01*
X142308803Y-111258576D01*
X142322384Y-111272157D01*
X142344884Y-111287191D01*
X142359917Y-111309690D01*
X142373498Y-111323271D01*
X142382277Y-111343154D01*
X142399077Y-111368297D01*
X142403748Y-111391780D01*
X142411319Y-111408927D01*
X142417140Y-111459107D01*
X142418107Y-111463968D01*
X142418107Y-112563968D01*
X142417139Y-112568831D01*
X142411319Y-112619008D01*
X142403748Y-112636153D01*
X142399077Y-112659639D01*
X142382276Y-112684783D01*
X142373498Y-112704664D01*
X142359919Y-112718242D01*
X142344884Y-112740745D01*
X142322381Y-112755780D01*
X142308803Y-112769359D01*
X142288922Y-112778137D01*
X142263778Y-112794938D01*
X142240292Y-112799609D01*
X142223147Y-112807180D01*
X142172968Y-112813000D01*
X142168107Y-112813968D01*
X141068107Y-112813968D01*
X141063245Y-112813000D01*
X141013066Y-112807180D01*
X140995919Y-112799609D01*
X140972436Y-112794938D01*
X140947293Y-112778138D01*
X140927410Y-112769359D01*
X140913829Y-112755778D01*
X140891330Y-112740745D01*
X140876296Y-112718245D01*
X140862715Y-112704664D01*
X140853934Y-112684778D01*
X140837137Y-112659639D01*
X140832466Y-112636157D01*
X140824894Y-112619008D01*
X140819071Y-112568817D01*
X140818107Y-112563968D01*
X140818107Y-111463968D01*
X140819071Y-111459118D01*
X140824894Y-111408927D01*
X140832466Y-111391776D01*
X140837137Y-111368297D01*
X140853933Y-111343159D01*
X140862715Y-111323271D01*
X140876298Y-111309687D01*
X140891330Y-111287191D01*
X140913826Y-111272159D01*
X140927410Y-111258576D01*
X140947298Y-111249794D01*
X140972436Y-111232998D01*
X140995915Y-111228327D01*
X141013066Y-111220755D01*
X141063258Y-111214932D01*
X141068107Y-111213968D01*
X142168107Y-111213968D01*
X142172957Y-111214932D01*
G37*
G36*
X134230335Y-111248416D02*
G01*
X134375224Y-111308431D01*
X134505622Y-111395560D01*
X134616515Y-111506453D01*
X134703644Y-111636851D01*
X134763659Y-111781740D01*
X134794255Y-111935554D01*
X134794255Y-112092382D01*
X134763659Y-112246196D01*
X134703644Y-112391085D01*
X134616515Y-112521483D01*
X134505622Y-112632376D01*
X134375224Y-112719505D01*
X134230335Y-112779520D01*
X134076521Y-112810116D01*
X133919693Y-112810116D01*
X133765879Y-112779520D01*
X133620990Y-112719505D01*
X133490592Y-112632376D01*
X133379699Y-112521483D01*
X133292570Y-112391085D01*
X133232555Y-112246196D01*
X133201959Y-112092382D01*
X133201959Y-111935554D01*
X133232555Y-111781740D01*
X133292570Y-111636851D01*
X133379699Y-111506453D01*
X133490592Y-111395560D01*
X133620990Y-111308431D01*
X133765879Y-111248416D01*
X133919693Y-111217820D01*
X134076521Y-111217820D01*
X134230335Y-111248416D01*
G37*
G36*
X153175000Y-112675000D02*
G01*
X151825000Y-112675000D01*
X151825000Y-111325000D01*
X153175000Y-111325000D01*
X153175000Y-112675000D01*
G37*
G36*
X144732228Y-111076895D02*
G01*
X144877117Y-111136910D01*
X145007515Y-111224039D01*
X145118408Y-111334932D01*
X145205537Y-111465330D01*
X145265552Y-111610219D01*
X145296148Y-111764033D01*
X145296148Y-111920861D01*
X145265552Y-112074675D01*
X145205537Y-112219564D01*
X145118408Y-112349962D01*
X145007515Y-112460855D01*
X144877117Y-112547984D01*
X144732228Y-112607999D01*
X144578414Y-112638595D01*
X144421586Y-112638595D01*
X144267772Y-112607999D01*
X144122883Y-112547984D01*
X143992485Y-112460855D01*
X143881592Y-112349962D01*
X143794463Y-112219564D01*
X143734448Y-112074675D01*
X143703852Y-111920861D01*
X143703852Y-111764033D01*
X143734448Y-111610219D01*
X143794463Y-111465330D01*
X143881592Y-111334932D01*
X143992485Y-111224039D01*
X144122883Y-111136910D01*
X144267772Y-111076895D01*
X144421586Y-111046299D01*
X144578414Y-111046299D01*
X144732228Y-111076895D01*
G37*
G36*
X149732228Y-111076895D02*
G01*
X149877117Y-111136910D01*
X150007515Y-111224039D01*
X150118408Y-111334932D01*
X150205537Y-111465330D01*
X150265552Y-111610219D01*
X150296148Y-111764033D01*
X150296148Y-111920861D01*
X150265552Y-112074675D01*
X150205537Y-112219564D01*
X150118408Y-112349962D01*
X150007515Y-112460855D01*
X149877117Y-112547984D01*
X149732228Y-112607999D01*
X149578414Y-112638595D01*
X149421586Y-112638595D01*
X149267772Y-112607999D01*
X149122883Y-112547984D01*
X148992485Y-112460855D01*
X148881592Y-112349962D01*
X148794463Y-112219564D01*
X148734448Y-112074675D01*
X148703852Y-111920861D01*
X148703852Y-111764033D01*
X148734448Y-111610219D01*
X148794463Y-111465330D01*
X148881592Y-111334932D01*
X148992485Y-111224039D01*
X149122883Y-111136910D01*
X149267772Y-111076895D01*
X149421586Y-111046299D01*
X149578414Y-111046299D01*
X149732228Y-111076895D01*
G37*
G36*
X157422228Y-110734448D02*
G01*
X157567117Y-110794463D01*
X157697515Y-110881592D01*
X157808408Y-110992485D01*
X157895537Y-111122883D01*
X157955552Y-111267772D01*
X157986148Y-111421586D01*
X157986148Y-111578414D01*
X157955552Y-111732228D01*
X157895537Y-111877117D01*
X157808408Y-112007515D01*
X157697515Y-112118408D01*
X157567117Y-112205537D01*
X157422228Y-112265552D01*
X157268414Y-112296148D01*
X157111586Y-112296148D01*
X156957772Y-112265552D01*
X156812883Y-112205537D01*
X156682485Y-112118408D01*
X156571592Y-112007515D01*
X156484463Y-111877117D01*
X156424448Y-111732228D01*
X156393852Y-111578414D01*
X156393852Y-111421586D01*
X156424448Y-111267772D01*
X156484463Y-111122883D01*
X156571592Y-110992485D01*
X156682485Y-110881592D01*
X156812883Y-110794463D01*
X156957772Y-110734448D01*
X157111586Y-110703852D01*
X157268414Y-110703852D01*
X157422228Y-110734448D01*
G37*
G36*
X165042228Y-110734448D02*
G01*
X165187117Y-110794463D01*
X165317515Y-110881592D01*
X165428408Y-110992485D01*
X165515537Y-111122883D01*
X165575552Y-111267772D01*
X165606148Y-111421586D01*
X165606148Y-111578414D01*
X165575552Y-111732228D01*
X165515537Y-111877117D01*
X165428408Y-112007515D01*
X165317515Y-112118408D01*
X165187117Y-112205537D01*
X165042228Y-112265552D01*
X164888414Y-112296148D01*
X164731586Y-112296148D01*
X164577772Y-112265552D01*
X164432883Y-112205537D01*
X164302485Y-112118408D01*
X164191592Y-112007515D01*
X164104463Y-111877117D01*
X164044448Y-111732228D01*
X164013852Y-111578414D01*
X164013852Y-111421586D01*
X164044448Y-111267772D01*
X164104463Y-111122883D01*
X164191592Y-110992485D01*
X164302485Y-110881592D01*
X164432883Y-110794463D01*
X164577772Y-110734448D01*
X164731586Y-110703852D01*
X164888414Y-110703852D01*
X165042228Y-110734448D01*
G37*
G36*
X209112228Y-110234448D02*
G01*
X209257117Y-110294463D01*
X209387515Y-110381592D01*
X209498408Y-110492485D01*
X209585537Y-110622883D01*
X209645552Y-110767772D01*
X209676148Y-110921586D01*
X209676148Y-111078414D01*
X209645552Y-111232228D01*
X209585537Y-111377117D01*
X209498408Y-111507515D01*
X209387515Y-111618408D01*
X209257117Y-111705537D01*
X209112228Y-111765552D01*
X208958414Y-111796148D01*
X208801586Y-111796148D01*
X208647772Y-111765552D01*
X208502883Y-111705537D01*
X208372485Y-111618408D01*
X208261592Y-111507515D01*
X208174463Y-111377117D01*
X208114448Y-111232228D01*
X208083852Y-111078414D01*
X208083852Y-110921586D01*
X208114448Y-110767772D01*
X208174463Y-110622883D01*
X208261592Y-110492485D01*
X208372485Y-110381592D01*
X208502883Y-110294463D01*
X208647772Y-110234448D01*
X208801586Y-110203852D01*
X208958414Y-110203852D01*
X209112228Y-110234448D01*
G37*
G36*
X216732228Y-110234448D02*
G01*
X216877117Y-110294463D01*
X217007515Y-110381592D01*
X217118408Y-110492485D01*
X217205537Y-110622883D01*
X217265552Y-110767772D01*
X217296148Y-110921586D01*
X217296148Y-111078414D01*
X217265552Y-111232228D01*
X217205537Y-111377117D01*
X217118408Y-111507515D01*
X217007515Y-111618408D01*
X216877117Y-111705537D01*
X216732228Y-111765552D01*
X216578414Y-111796148D01*
X216421586Y-111796148D01*
X216267772Y-111765552D01*
X216122883Y-111705537D01*
X215992485Y-111618408D01*
X215881592Y-111507515D01*
X215794463Y-111377117D01*
X215734448Y-111232228D01*
X215703852Y-111078414D01*
X215703852Y-110921586D01*
X215734448Y-110767772D01*
X215794463Y-110622883D01*
X215881592Y-110492485D01*
X215992485Y-110381592D01*
X216122883Y-110294463D01*
X216267772Y-110234448D01*
X216421586Y-110203852D01*
X216578414Y-110203852D01*
X216732228Y-110234448D01*
G37*
G36*
X122967912Y-110020748D02*
G01*
X123112801Y-110080763D01*
X123243199Y-110167892D01*
X123354092Y-110278785D01*
X123441221Y-110409183D01*
X123501236Y-110554072D01*
X123531832Y-110707886D01*
X123531832Y-110864714D01*
X123501236Y-111018528D01*
X123441221Y-111163417D01*
X123354092Y-111293815D01*
X123243199Y-111404708D01*
X123112801Y-111491837D01*
X122967912Y-111551852D01*
X122814098Y-111582448D01*
X122657270Y-111582448D01*
X122503456Y-111551852D01*
X122358567Y-111491837D01*
X122228169Y-111404708D01*
X122117276Y-111293815D01*
X122030147Y-111163417D01*
X121970132Y-111018528D01*
X121939536Y-110864714D01*
X121939536Y-110707886D01*
X121970132Y-110554072D01*
X122030147Y-110409183D01*
X122117276Y-110278785D01*
X122228169Y-110167892D01*
X122358567Y-110080763D01*
X122503456Y-110020748D01*
X122657270Y-109990152D01*
X122814098Y-109990152D01*
X122967912Y-110020748D01*
G37*
G36*
X182560150Y-108375237D02*
G01*
X182705039Y-108435252D01*
X182835437Y-108522381D01*
X182946330Y-108633274D01*
X183033459Y-108763672D01*
X183093474Y-108908561D01*
X183124070Y-109062375D01*
X183124070Y-109219203D01*
X183093474Y-109373017D01*
X183033459Y-109517906D01*
X182946330Y-109648304D01*
X182835437Y-109759197D01*
X182705039Y-109846326D01*
X182560150Y-109906341D01*
X182406336Y-109936937D01*
X182249508Y-109936937D01*
X182095694Y-109906341D01*
X181950805Y-109846326D01*
X181820407Y-109759197D01*
X181709514Y-109648304D01*
X181622385Y-109517906D01*
X181562370Y-109373017D01*
X181531774Y-109219203D01*
X181531774Y-109062375D01*
X181562370Y-108908561D01*
X181622385Y-108763672D01*
X181709514Y-108633274D01*
X181820407Y-108522381D01*
X181950805Y-108435252D01*
X182095694Y-108375237D01*
X182249508Y-108344641D01*
X182406336Y-108344641D01*
X182560150Y-108375237D01*
G37*
G36*
X187560150Y-108375237D02*
G01*
X187705039Y-108435252D01*
X187835437Y-108522381D01*
X187946330Y-108633274D01*
X188033459Y-108763672D01*
X188093474Y-108908561D01*
X188124070Y-109062375D01*
X188124070Y-109219203D01*
X188093474Y-109373017D01*
X188033459Y-109517906D01*
X187946330Y-109648304D01*
X187835437Y-109759197D01*
X187705039Y-109846326D01*
X187560150Y-109906341D01*
X187406336Y-109936937D01*
X187249508Y-109936937D01*
X187095694Y-109906341D01*
X186950805Y-109846326D01*
X186820407Y-109759197D01*
X186709514Y-109648304D01*
X186622385Y-109517906D01*
X186562370Y-109373017D01*
X186531774Y-109219203D01*
X186531774Y-109062375D01*
X186562370Y-108908561D01*
X186622385Y-108763672D01*
X186709514Y-108633274D01*
X186820407Y-108522381D01*
X186950805Y-108435252D01*
X187095694Y-108375237D01*
X187249508Y-108344641D01*
X187406336Y-108344641D01*
X187560150Y-108375237D01*
G37*
G36*
X136904823Y-108303978D02*
G01*
X137049712Y-108363993D01*
X137180110Y-108451122D01*
X137291003Y-108562015D01*
X137378132Y-108692413D01*
X137438147Y-108837302D01*
X137468743Y-108991116D01*
X137468743Y-109147944D01*
X137438147Y-109301758D01*
X137378132Y-109446647D01*
X137291003Y-109577045D01*
X137180110Y-109687938D01*
X137049712Y-109775067D01*
X136904823Y-109835082D01*
X136751009Y-109865678D01*
X136594181Y-109865678D01*
X136440367Y-109835082D01*
X136295478Y-109775067D01*
X136165080Y-109687938D01*
X136054187Y-109577045D01*
X135967058Y-109446647D01*
X135907043Y-109301758D01*
X135876447Y-109147944D01*
X135876447Y-108991116D01*
X135907043Y-108837302D01*
X135967058Y-108692413D01*
X136054187Y-108562015D01*
X136165080Y-108451122D01*
X136295478Y-108363993D01*
X136440367Y-108303978D01*
X136594181Y-108273382D01*
X136751009Y-108273382D01*
X136904823Y-108303978D01*
G37*
G36*
X141904823Y-108303978D02*
G01*
X142049712Y-108363993D01*
X142180110Y-108451122D01*
X142291003Y-108562015D01*
X142378132Y-108692413D01*
X142438147Y-108837302D01*
X142468743Y-108991116D01*
X142468743Y-109147944D01*
X142438147Y-109301758D01*
X142378132Y-109446647D01*
X142291003Y-109577045D01*
X142180110Y-109687938D01*
X142049712Y-109775067D01*
X141904823Y-109835082D01*
X141751009Y-109865678D01*
X141594181Y-109865678D01*
X141440367Y-109835082D01*
X141295478Y-109775067D01*
X141165080Y-109687938D01*
X141054187Y-109577045D01*
X140967058Y-109446647D01*
X140907043Y-109301758D01*
X140876447Y-109147944D01*
X140876447Y-108991116D01*
X140907043Y-108837302D01*
X140967058Y-108692413D01*
X141054187Y-108562015D01*
X141165080Y-108451122D01*
X141295478Y-108363993D01*
X141440367Y-108303978D01*
X141594181Y-108273382D01*
X141751009Y-108273382D01*
X141904823Y-108303978D01*
G37*
G36*
X126232228Y-108234448D02*
G01*
X126377117Y-108294463D01*
X126507515Y-108381592D01*
X126618408Y-108492485D01*
X126705537Y-108622883D01*
X126765552Y-108767772D01*
X126796148Y-108921586D01*
X126796148Y-109078414D01*
X126765552Y-109232228D01*
X126705537Y-109377117D01*
X126618408Y-109507515D01*
X126507515Y-109618408D01*
X126377117Y-109705537D01*
X126232228Y-109765552D01*
X126078414Y-109796148D01*
X125921586Y-109796148D01*
X125767772Y-109765552D01*
X125622883Y-109705537D01*
X125492485Y-109618408D01*
X125381592Y-109507515D01*
X125294463Y-109377117D01*
X125234448Y-109232228D01*
X125203852Y-109078414D01*
X125203852Y-108921586D01*
X125234448Y-108767772D01*
X125294463Y-108622883D01*
X125381592Y-108492485D01*
X125492485Y-108381592D01*
X125622883Y-108294463D01*
X125767772Y-108234448D01*
X125921586Y-108203852D01*
X126078414Y-108203852D01*
X126232228Y-108234448D01*
G37*
G36*
X131232228Y-108234448D02*
G01*
X131377117Y-108294463D01*
X131507515Y-108381592D01*
X131618408Y-108492485D01*
X131705537Y-108622883D01*
X131765552Y-108767772D01*
X131796148Y-108921586D01*
X131796148Y-109078414D01*
X131765552Y-109232228D01*
X131705537Y-109377117D01*
X131618408Y-109507515D01*
X131507515Y-109618408D01*
X131377117Y-109705537D01*
X131232228Y-109765552D01*
X131078414Y-109796148D01*
X130921586Y-109796148D01*
X130767772Y-109765552D01*
X130622883Y-109705537D01*
X130492485Y-109618408D01*
X130381592Y-109507515D01*
X130294463Y-109377117D01*
X130234448Y-109232228D01*
X130203852Y-109078414D01*
X130203852Y-108921586D01*
X130234448Y-108767772D01*
X130294463Y-108622883D01*
X130381592Y-108492485D01*
X130492485Y-108381592D01*
X130622883Y-108294463D01*
X130767772Y-108234448D01*
X130921586Y-108203852D01*
X131078414Y-108203852D01*
X131232228Y-108234448D01*
G37*
G36*
X152559240Y-108976166D02*
G01*
X150859240Y-108976166D01*
X150859240Y-107276166D01*
X152559240Y-107276166D01*
X152559240Y-108976166D01*
G37*
G36*
X149415982Y-107312767D02*
G01*
X149569927Y-107376533D01*
X149708474Y-107469107D01*
X149826299Y-107586932D01*
X149918873Y-107725479D01*
X149982639Y-107879424D01*
X150015147Y-108042851D01*
X150015147Y-108209481D01*
X149982639Y-108372908D01*
X149918873Y-108526853D01*
X149826299Y-108665400D01*
X149708474Y-108783225D01*
X149569927Y-108875799D01*
X149415982Y-108939565D01*
X149252555Y-108972073D01*
X149085925Y-108972073D01*
X148922498Y-108939565D01*
X148768553Y-108875799D01*
X148630006Y-108783225D01*
X148512181Y-108665400D01*
X148419607Y-108526853D01*
X148355841Y-108372908D01*
X148323333Y-108209481D01*
X148323333Y-108042851D01*
X148355841Y-107879424D01*
X148419607Y-107725479D01*
X148512181Y-107586932D01*
X148630006Y-107469107D01*
X148768553Y-107376533D01*
X148922498Y-107312767D01*
X149085925Y-107280259D01*
X149252555Y-107280259D01*
X149415982Y-107312767D01*
G37*
G36*
X156904092Y-106840068D02*
G01*
X157048981Y-106900083D01*
X157179379Y-106987212D01*
X157290272Y-107098105D01*
X157377401Y-107228503D01*
X157437416Y-107373392D01*
X157468012Y-107527206D01*
X157468012Y-107684034D01*
X157437416Y-107837848D01*
X157377401Y-107982737D01*
X157290272Y-108113135D01*
X157179379Y-108224028D01*
X157048981Y-108311157D01*
X156904092Y-108371172D01*
X156750278Y-108401768D01*
X156593450Y-108401768D01*
X156439636Y-108371172D01*
X156294747Y-108311157D01*
X156164349Y-108224028D01*
X156053456Y-108113135D01*
X155966327Y-107982737D01*
X155906312Y-107837848D01*
X155875716Y-107684034D01*
X155875716Y-107527206D01*
X155906312Y-107373392D01*
X155966327Y-107228503D01*
X156053456Y-107098105D01*
X156164349Y-106987212D01*
X156294747Y-106900083D01*
X156439636Y-106840068D01*
X156593450Y-106809472D01*
X156750278Y-106809472D01*
X156904092Y-106840068D01*
G37*
G36*
X161904092Y-106840068D02*
G01*
X162048981Y-106900083D01*
X162179379Y-106987212D01*
X162290272Y-107098105D01*
X162377401Y-107228503D01*
X162437416Y-107373392D01*
X162468012Y-107527206D01*
X162468012Y-107684034D01*
X162437416Y-107837848D01*
X162377401Y-107982737D01*
X162290272Y-108113135D01*
X162179379Y-108224028D01*
X162048981Y-108311157D01*
X161904092Y-108371172D01*
X161750278Y-108401768D01*
X161593450Y-108401768D01*
X161439636Y-108371172D01*
X161294747Y-108311157D01*
X161164349Y-108224028D01*
X161053456Y-108113135D01*
X160966327Y-107982737D01*
X160906312Y-107837848D01*
X160875716Y-107684034D01*
X160875716Y-107527206D01*
X160906312Y-107373392D01*
X160966327Y-107228503D01*
X161053456Y-107098105D01*
X161164349Y-106987212D01*
X161294747Y-106900083D01*
X161439636Y-106840068D01*
X161593450Y-106809472D01*
X161750278Y-106809472D01*
X161904092Y-106840068D01*
G37*
G36*
X165732228Y-106734448D02*
G01*
X165877117Y-106794463D01*
X166007515Y-106881592D01*
X166118408Y-106992485D01*
X166205537Y-107122883D01*
X166265552Y-107267772D01*
X166296148Y-107421586D01*
X166296148Y-107578414D01*
X166265552Y-107732228D01*
X166205537Y-107877117D01*
X166118408Y-108007515D01*
X166007515Y-108118408D01*
X165877117Y-108205537D01*
X165732228Y-108265552D01*
X165578414Y-108296148D01*
X165421586Y-108296148D01*
X165267772Y-108265552D01*
X165122883Y-108205537D01*
X164992485Y-108118408D01*
X164881592Y-108007515D01*
X164794463Y-107877117D01*
X164734448Y-107732228D01*
X164703852Y-107578414D01*
X164703852Y-107421586D01*
X164734448Y-107267772D01*
X164794463Y-107122883D01*
X164881592Y-106992485D01*
X164992485Y-106881592D01*
X165122883Y-106794463D01*
X165267772Y-106734448D01*
X165421586Y-106703852D01*
X165578414Y-106703852D01*
X165732228Y-106734448D01*
G37*
G36*
X145612329Y-106345246D02*
G01*
X145757218Y-106405261D01*
X145887616Y-106492390D01*
X145998509Y-106603283D01*
X146085638Y-106733681D01*
X146145653Y-106878570D01*
X146176249Y-107032384D01*
X146176249Y-107189212D01*
X146145653Y-107343026D01*
X146085638Y-107487915D01*
X145998509Y-107618313D01*
X145887616Y-107729206D01*
X145757218Y-107816335D01*
X145612329Y-107876350D01*
X145458515Y-107906946D01*
X145301687Y-107906946D01*
X145147873Y-107876350D01*
X145002984Y-107816335D01*
X144872586Y-107729206D01*
X144761693Y-107618313D01*
X144674564Y-107487915D01*
X144614549Y-107343026D01*
X144583953Y-107189212D01*
X144583953Y-107032384D01*
X144614549Y-106878570D01*
X144674564Y-106733681D01*
X144761693Y-106603283D01*
X144872586Y-106492390D01*
X145002984Y-106405261D01*
X145147873Y-106345246D01*
X145301687Y-106314650D01*
X145458515Y-106314650D01*
X145612329Y-106345246D01*
G37*
G36*
X199000372Y-105854448D02*
G01*
X199145261Y-105914463D01*
X199275659Y-106001592D01*
X199386552Y-106112485D01*
X199473681Y-106242883D01*
X199533696Y-106387772D01*
X199564292Y-106541586D01*
X199564292Y-106698414D01*
X199533696Y-106852228D01*
X199473681Y-106997117D01*
X199386552Y-107127515D01*
X199275659Y-107238408D01*
X199145261Y-107325537D01*
X199000372Y-107385552D01*
X198846558Y-107416148D01*
X198689730Y-107416148D01*
X198535916Y-107385552D01*
X198391027Y-107325537D01*
X198260629Y-107238408D01*
X198149736Y-107127515D01*
X198062607Y-106997117D01*
X198002592Y-106852228D01*
X197971996Y-106698414D01*
X197971996Y-106541586D01*
X198002592Y-106387772D01*
X198062607Y-106242883D01*
X198149736Y-106112485D01*
X198260629Y-106001592D01*
X198391027Y-105914463D01*
X198535916Y-105854448D01*
X198689730Y-105823852D01*
X198846558Y-105823852D01*
X199000372Y-105854448D01*
G37*
G36*
X202232228Y-105734448D02*
G01*
X202377117Y-105794463D01*
X202507515Y-105881592D01*
X202618408Y-105992485D01*
X202705537Y-106122883D01*
X202765552Y-106267772D01*
X202796148Y-106421586D01*
X202796148Y-106578414D01*
X202765552Y-106732228D01*
X202705537Y-106877117D01*
X202618408Y-107007515D01*
X202507515Y-107118408D01*
X202377117Y-107205537D01*
X202232228Y-107265552D01*
X202078414Y-107296148D01*
X201921586Y-107296148D01*
X201767772Y-107265552D01*
X201622883Y-107205537D01*
X201492485Y-107118408D01*
X201381592Y-107007515D01*
X201294463Y-106877117D01*
X201234448Y-106732228D01*
X201203852Y-106578414D01*
X201203852Y-106421586D01*
X201234448Y-106267772D01*
X201294463Y-106122883D01*
X201381592Y-105992485D01*
X201492485Y-105881592D01*
X201622883Y-105794463D01*
X201767772Y-105734448D01*
X201921586Y-105703852D01*
X202078414Y-105703852D01*
X202232228Y-105734448D01*
G37*
G36*
X205675000Y-107175000D02*
G01*
X204325000Y-107175000D01*
X204325000Y-105825000D01*
X205675000Y-105825000D01*
X205675000Y-107175000D01*
G37*
G36*
X119232228Y-105424448D02*
G01*
X119377117Y-105484463D01*
X119507515Y-105571592D01*
X119618408Y-105682485D01*
X119705537Y-105812883D01*
X119765552Y-105957772D01*
X119796148Y-106111586D01*
X119796148Y-106268414D01*
X119765552Y-106422228D01*
X119705537Y-106567117D01*
X119618408Y-106697515D01*
X119507515Y-106808408D01*
X119377117Y-106895537D01*
X119232228Y-106955552D01*
X119078414Y-106986148D01*
X118921586Y-106986148D01*
X118767772Y-106955552D01*
X118622883Y-106895537D01*
X118492485Y-106808408D01*
X118381592Y-106697515D01*
X118294463Y-106567117D01*
X118234448Y-106422228D01*
X118203852Y-106268414D01*
X118203852Y-106111586D01*
X118234448Y-105957772D01*
X118294463Y-105812883D01*
X118381592Y-105682485D01*
X118492485Y-105571592D01*
X118622883Y-105484463D01*
X118767772Y-105424448D01*
X118921586Y-105393852D01*
X119078414Y-105393852D01*
X119232228Y-105424448D01*
G37*
G36*
X195554850Y-105200964D02*
G01*
X195605040Y-105206787D01*
X195622189Y-105214359D01*
X195645671Y-105219030D01*
X195670810Y-105235827D01*
X195690696Y-105244608D01*
X195704277Y-105258189D01*
X195726777Y-105273223D01*
X195741810Y-105295722D01*
X195755391Y-105309303D01*
X195764170Y-105329186D01*
X195780970Y-105354329D01*
X195785641Y-105377812D01*
X195793212Y-105394959D01*
X195799033Y-105445139D01*
X195800000Y-105450000D01*
X195800000Y-106550000D01*
X195799032Y-106554863D01*
X195793212Y-106605040D01*
X195785641Y-106622185D01*
X195780970Y-106645671D01*
X195764169Y-106670815D01*
X195755391Y-106690696D01*
X195741812Y-106704274D01*
X195726777Y-106726777D01*
X195704274Y-106741812D01*
X195690696Y-106755391D01*
X195670815Y-106764169D01*
X195645671Y-106780970D01*
X195622185Y-106785641D01*
X195605040Y-106793212D01*
X195554861Y-106799032D01*
X195550000Y-106800000D01*
X194450000Y-106800000D01*
X194445138Y-106799032D01*
X194394959Y-106793212D01*
X194377812Y-106785641D01*
X194354329Y-106780970D01*
X194329186Y-106764170D01*
X194309303Y-106755391D01*
X194295722Y-106741810D01*
X194273223Y-106726777D01*
X194258189Y-106704277D01*
X194244608Y-106690696D01*
X194235827Y-106670810D01*
X194219030Y-106645671D01*
X194214359Y-106622189D01*
X194206787Y-106605040D01*
X194200964Y-106554849D01*
X194200000Y-106550000D01*
X194200000Y-105450000D01*
X194200964Y-105445150D01*
X194206787Y-105394959D01*
X194214359Y-105377808D01*
X194219030Y-105354329D01*
X194235826Y-105329191D01*
X194244608Y-105309303D01*
X194258191Y-105295719D01*
X194273223Y-105273223D01*
X194295719Y-105258191D01*
X194309303Y-105244608D01*
X194329191Y-105235826D01*
X194354329Y-105219030D01*
X194377808Y-105214359D01*
X194394959Y-105206787D01*
X194445151Y-105200964D01*
X194450000Y-105200000D01*
X195550000Y-105200000D01*
X195554850Y-105200964D01*
G37*
G36*
X169232228Y-105234448D02*
G01*
X169377117Y-105294463D01*
X169507515Y-105381592D01*
X169618408Y-105492485D01*
X169705537Y-105622883D01*
X169765552Y-105767772D01*
X169796148Y-105921586D01*
X169796148Y-106078414D01*
X169765552Y-106232228D01*
X169705537Y-106377117D01*
X169618408Y-106507515D01*
X169507515Y-106618408D01*
X169377117Y-106705537D01*
X169232228Y-106765552D01*
X169078414Y-106796148D01*
X168921586Y-106796148D01*
X168767772Y-106765552D01*
X168622883Y-106705537D01*
X168492485Y-106618408D01*
X168381592Y-106507515D01*
X168294463Y-106377117D01*
X168234448Y-106232228D01*
X168203852Y-106078414D01*
X168203852Y-105921586D01*
X168234448Y-105767772D01*
X168294463Y-105622883D01*
X168381592Y-105492485D01*
X168492485Y-105381592D01*
X168622883Y-105294463D01*
X168767772Y-105234448D01*
X168921586Y-105203852D01*
X169078414Y-105203852D01*
X169232228Y-105234448D01*
G37*
G36*
X174232228Y-105234448D02*
G01*
X174377117Y-105294463D01*
X174507515Y-105381592D01*
X174618408Y-105492485D01*
X174705537Y-105622883D01*
X174765552Y-105767772D01*
X174796148Y-105921586D01*
X174796148Y-106078414D01*
X174765552Y-106232228D01*
X174705537Y-106377117D01*
X174618408Y-106507515D01*
X174507515Y-106618408D01*
X174377117Y-106705537D01*
X174232228Y-106765552D01*
X174078414Y-106796148D01*
X173921586Y-106796148D01*
X173767772Y-106765552D01*
X173622883Y-106705537D01*
X173492485Y-106618408D01*
X173381592Y-106507515D01*
X173294463Y-106377117D01*
X173234448Y-106232228D01*
X173203852Y-106078414D01*
X173203852Y-105921586D01*
X173234448Y-105767772D01*
X173294463Y-105622883D01*
X173381592Y-105492485D01*
X173492485Y-105381592D01*
X173622883Y-105294463D01*
X173767772Y-105234448D01*
X173921586Y-105203852D01*
X174078414Y-105203852D01*
X174232228Y-105234448D01*
G37*
G36*
X187612228Y-105234448D02*
G01*
X187757117Y-105294463D01*
X187887515Y-105381592D01*
X187998408Y-105492485D01*
X188085537Y-105622883D01*
X188145552Y-105767772D01*
X188176148Y-105921586D01*
X188176148Y-106078414D01*
X188145552Y-106232228D01*
X188085537Y-106377117D01*
X187998408Y-106507515D01*
X187887515Y-106618408D01*
X187757117Y-106705537D01*
X187612228Y-106765552D01*
X187458414Y-106796148D01*
X187301586Y-106796148D01*
X187147772Y-106765552D01*
X187002883Y-106705537D01*
X186872485Y-106618408D01*
X186761592Y-106507515D01*
X186674463Y-106377117D01*
X186614448Y-106232228D01*
X186583852Y-106078414D01*
X186583852Y-105921586D01*
X186614448Y-105767772D01*
X186674463Y-105622883D01*
X186761592Y-105492485D01*
X186872485Y-105381592D01*
X187002883Y-105294463D01*
X187147772Y-105234448D01*
X187301586Y-105203852D01*
X187458414Y-105203852D01*
X187612228Y-105234448D01*
G37*
G36*
X212732228Y-105234448D02*
G01*
X212877117Y-105294463D01*
X213007515Y-105381592D01*
X213118408Y-105492485D01*
X213205537Y-105622883D01*
X213265552Y-105767772D01*
X213296148Y-105921586D01*
X213296148Y-106078414D01*
X213265552Y-106232228D01*
X213205537Y-106377117D01*
X213118408Y-106507515D01*
X213007515Y-106618408D01*
X212877117Y-106705537D01*
X212732228Y-106765552D01*
X212578414Y-106796148D01*
X212421586Y-106796148D01*
X212267772Y-106765552D01*
X212122883Y-106705537D01*
X211992485Y-106618408D01*
X211881592Y-106507515D01*
X211794463Y-106377117D01*
X211734448Y-106232228D01*
X211703852Y-106078414D01*
X211703852Y-105921586D01*
X211734448Y-105767772D01*
X211794463Y-105622883D01*
X211881592Y-105492485D01*
X211992485Y-105381592D01*
X212122883Y-105294463D01*
X212267772Y-105234448D01*
X212421586Y-105203852D01*
X212578414Y-105203852D01*
X212732228Y-105234448D01*
G37*
G36*
X122967912Y-105020748D02*
G01*
X123112801Y-105080763D01*
X123243199Y-105167892D01*
X123354092Y-105278785D01*
X123441221Y-105409183D01*
X123501236Y-105554072D01*
X123531832Y-105707886D01*
X123531832Y-105864714D01*
X123501236Y-106018528D01*
X123441221Y-106163417D01*
X123354092Y-106293815D01*
X123243199Y-106404708D01*
X123112801Y-106491837D01*
X122967912Y-106551852D01*
X122814098Y-106582448D01*
X122657270Y-106582448D01*
X122503456Y-106551852D01*
X122358567Y-106491837D01*
X122228169Y-106404708D01*
X122117276Y-106293815D01*
X122030147Y-106163417D01*
X121970132Y-106018528D01*
X121939536Y-105864714D01*
X121939536Y-105707886D01*
X121970132Y-105554072D01*
X122030147Y-105409183D01*
X122117276Y-105278785D01*
X122228169Y-105167892D01*
X122358567Y-105080763D01*
X122503456Y-105020748D01*
X122657270Y-104990152D01*
X122814098Y-104990152D01*
X122967912Y-105020748D01*
G37*
G36*
X139350000Y-106350000D02*
G01*
X137650000Y-106350000D01*
X137650000Y-104650000D01*
X139350000Y-104650000D01*
X139350000Y-106350000D01*
G37*
G36*
X141286742Y-104686601D02*
G01*
X141440687Y-104750367D01*
X141579234Y-104842941D01*
X141697059Y-104960766D01*
X141789633Y-105099313D01*
X141853399Y-105253258D01*
X141885907Y-105416685D01*
X141885907Y-105583315D01*
X141853399Y-105746742D01*
X141789633Y-105900687D01*
X141697059Y-106039234D01*
X141579234Y-106157059D01*
X141440687Y-106249633D01*
X141286742Y-106313399D01*
X141123315Y-106345907D01*
X140956685Y-106345907D01*
X140793258Y-106313399D01*
X140639313Y-106249633D01*
X140500766Y-106157059D01*
X140382941Y-106039234D01*
X140290367Y-105900687D01*
X140226601Y-105746742D01*
X140194093Y-105583315D01*
X140194093Y-105416685D01*
X140226601Y-105253258D01*
X140290367Y-105099313D01*
X140382941Y-104960766D01*
X140500766Y-104842941D01*
X140639313Y-104750367D01*
X140793258Y-104686601D01*
X140956685Y-104654093D01*
X141123315Y-104654093D01*
X141286742Y-104686601D01*
G37*
G36*
X126112228Y-104734448D02*
G01*
X126257117Y-104794463D01*
X126387515Y-104881592D01*
X126498408Y-104992485D01*
X126585537Y-105122883D01*
X126645552Y-105267772D01*
X126676148Y-105421586D01*
X126676148Y-105578414D01*
X126645552Y-105732228D01*
X126585537Y-105877117D01*
X126498408Y-106007515D01*
X126387515Y-106118408D01*
X126257117Y-106205537D01*
X126112228Y-106265552D01*
X125958414Y-106296148D01*
X125801586Y-106296148D01*
X125647772Y-106265552D01*
X125502883Y-106205537D01*
X125372485Y-106118408D01*
X125261592Y-106007515D01*
X125174463Y-105877117D01*
X125114448Y-105732228D01*
X125083852Y-105578414D01*
X125083852Y-105421586D01*
X125114448Y-105267772D01*
X125174463Y-105122883D01*
X125261592Y-104992485D01*
X125372485Y-104881592D01*
X125502883Y-104794463D01*
X125647772Y-104734448D01*
X125801586Y-104703852D01*
X125958414Y-104703852D01*
X126112228Y-104734448D01*
G37*
G36*
X133732228Y-104734448D02*
G01*
X133877117Y-104794463D01*
X134007515Y-104881592D01*
X134118408Y-104992485D01*
X134205537Y-105122883D01*
X134265552Y-105267772D01*
X134296148Y-105421586D01*
X134296148Y-105578414D01*
X134265552Y-105732228D01*
X134205537Y-105877117D01*
X134118408Y-106007515D01*
X134007515Y-106118408D01*
X133877117Y-106205537D01*
X133732228Y-106265552D01*
X133578414Y-106296148D01*
X133421586Y-106296148D01*
X133267772Y-106265552D01*
X133122883Y-106205537D01*
X132992485Y-106118408D01*
X132881592Y-106007515D01*
X132794463Y-105877117D01*
X132734448Y-105732228D01*
X132703852Y-105578414D01*
X132703852Y-105421586D01*
X132734448Y-105267772D01*
X132794463Y-105122883D01*
X132881592Y-104992485D01*
X132992485Y-104881592D01*
X133122883Y-104794463D01*
X133267772Y-104734448D01*
X133421586Y-104703852D01*
X133578414Y-104703852D01*
X133732228Y-104734448D01*
G37*
G36*
X183124980Y-104264095D02*
G01*
X183269869Y-104324110D01*
X183400267Y-104411239D01*
X183511160Y-104522132D01*
X183598289Y-104652530D01*
X183658304Y-104797419D01*
X183688900Y-104951233D01*
X183688900Y-105108061D01*
X183658304Y-105261875D01*
X183598289Y-105406764D01*
X183511160Y-105537162D01*
X183400267Y-105648055D01*
X183269869Y-105735184D01*
X183124980Y-105795199D01*
X182971166Y-105825795D01*
X182814338Y-105825795D01*
X182660524Y-105795199D01*
X182515635Y-105735184D01*
X182385237Y-105648055D01*
X182274344Y-105537162D01*
X182187215Y-105406764D01*
X182127200Y-105261875D01*
X182096604Y-105108061D01*
X182096604Y-104951233D01*
X182127200Y-104797419D01*
X182187215Y-104652530D01*
X182274344Y-104522132D01*
X182385237Y-104411239D01*
X182515635Y-104324110D01*
X182660524Y-104264095D01*
X182814338Y-104233499D01*
X182971166Y-104233499D01*
X183124980Y-104264095D01*
G37*
G36*
X179723469Y-103932920D02*
G01*
X179868358Y-103992935D01*
X179998756Y-104080064D01*
X180109649Y-104190957D01*
X180196778Y-104321355D01*
X180256793Y-104466244D01*
X180287389Y-104620058D01*
X180287389Y-104776886D01*
X180256793Y-104930700D01*
X180196778Y-105075589D01*
X180109649Y-105205987D01*
X179998756Y-105316880D01*
X179868358Y-105404009D01*
X179723469Y-105464024D01*
X179569655Y-105494620D01*
X179412827Y-105494620D01*
X179259013Y-105464024D01*
X179114124Y-105404009D01*
X178983726Y-105316880D01*
X178872833Y-105205987D01*
X178785704Y-105075589D01*
X178725689Y-104930700D01*
X178695093Y-104776886D01*
X178695093Y-104620058D01*
X178725689Y-104466244D01*
X178785704Y-104321355D01*
X178872833Y-104190957D01*
X178983726Y-104080064D01*
X179114124Y-103992935D01*
X179259013Y-103932920D01*
X179412827Y-103902324D01*
X179569655Y-103902324D01*
X179723469Y-103932920D01*
G37*
G36*
X149434850Y-103700964D02*
G01*
X149485040Y-103706787D01*
X149502189Y-103714359D01*
X149525671Y-103719030D01*
X149550810Y-103735827D01*
X149570696Y-103744608D01*
X149584277Y-103758189D01*
X149606777Y-103773223D01*
X149621810Y-103795722D01*
X149635391Y-103809303D01*
X149644170Y-103829186D01*
X149660970Y-103854329D01*
X149665641Y-103877812D01*
X149673212Y-103894959D01*
X149679033Y-103945139D01*
X149680000Y-103950000D01*
X149680000Y-105050000D01*
X149679032Y-105054863D01*
X149673212Y-105105040D01*
X149665641Y-105122185D01*
X149660970Y-105145671D01*
X149644169Y-105170815D01*
X149635391Y-105190696D01*
X149621812Y-105204274D01*
X149606777Y-105226777D01*
X149584274Y-105241812D01*
X149570696Y-105255391D01*
X149550815Y-105264169D01*
X149525671Y-105280970D01*
X149502185Y-105285641D01*
X149485040Y-105293212D01*
X149434861Y-105299032D01*
X149430000Y-105300000D01*
X148330000Y-105300000D01*
X148325138Y-105299032D01*
X148274959Y-105293212D01*
X148257812Y-105285641D01*
X148234329Y-105280970D01*
X148209186Y-105264170D01*
X148189303Y-105255391D01*
X148175722Y-105241810D01*
X148153223Y-105226777D01*
X148138189Y-105204277D01*
X148124608Y-105190696D01*
X148115827Y-105170810D01*
X148099030Y-105145671D01*
X148094359Y-105122189D01*
X148086787Y-105105040D01*
X148080964Y-105054849D01*
X148080000Y-105050000D01*
X148080000Y-103950000D01*
X148080964Y-103945150D01*
X148086787Y-103894959D01*
X148094359Y-103877808D01*
X148099030Y-103854329D01*
X148115826Y-103829191D01*
X148124608Y-103809303D01*
X148138191Y-103795719D01*
X148153223Y-103773223D01*
X148175719Y-103758191D01*
X148189303Y-103744608D01*
X148209191Y-103735826D01*
X148234329Y-103719030D01*
X148257808Y-103714359D01*
X148274959Y-103706787D01*
X148325151Y-103700964D01*
X148330000Y-103700000D01*
X149430000Y-103700000D01*
X149434850Y-103700964D01*
G37*
G36*
X151652228Y-103734448D02*
G01*
X151797117Y-103794463D01*
X151927515Y-103881592D01*
X152038408Y-103992485D01*
X152125537Y-104122883D01*
X152185552Y-104267772D01*
X152216148Y-104421586D01*
X152216148Y-104578414D01*
X152185552Y-104732228D01*
X152125537Y-104877117D01*
X152038408Y-105007515D01*
X151927515Y-105118408D01*
X151797117Y-105205537D01*
X151652228Y-105265552D01*
X151498414Y-105296148D01*
X151341586Y-105296148D01*
X151187772Y-105265552D01*
X151042883Y-105205537D01*
X150912485Y-105118408D01*
X150801592Y-105007515D01*
X150714463Y-104877117D01*
X150654448Y-104732228D01*
X150623852Y-104578414D01*
X150623852Y-104421586D01*
X150654448Y-104267772D01*
X150714463Y-104122883D01*
X150801592Y-103992485D01*
X150912485Y-103881592D01*
X151042883Y-103794463D01*
X151187772Y-103734448D01*
X151341586Y-103703852D01*
X151498414Y-103703852D01*
X151652228Y-103734448D01*
G37*
G36*
X154192228Y-103734448D02*
G01*
X154337117Y-103794463D01*
X154467515Y-103881592D01*
X154578408Y-103992485D01*
X154665537Y-104122883D01*
X154725552Y-104267772D01*
X154756148Y-104421586D01*
X154756148Y-104578414D01*
X154725552Y-104732228D01*
X154665537Y-104877117D01*
X154578408Y-105007515D01*
X154467515Y-105118408D01*
X154337117Y-105205537D01*
X154192228Y-105265552D01*
X154038414Y-105296148D01*
X153881586Y-105296148D01*
X153727772Y-105265552D01*
X153582883Y-105205537D01*
X153452485Y-105118408D01*
X153341592Y-105007515D01*
X153254463Y-104877117D01*
X153194448Y-104732228D01*
X153163852Y-104578414D01*
X153163852Y-104421586D01*
X153194448Y-104267772D01*
X153254463Y-104122883D01*
X153341592Y-103992485D01*
X153452485Y-103881592D01*
X153582883Y-103794463D01*
X153727772Y-103734448D01*
X153881586Y-103703852D01*
X154038414Y-103703852D01*
X154192228Y-103734448D01*
G37*
G36*
X156732228Y-103734448D02*
G01*
X156877117Y-103794463D01*
X157007515Y-103881592D01*
X157118408Y-103992485D01*
X157205537Y-104122883D01*
X157265552Y-104267772D01*
X157296148Y-104421586D01*
X157296148Y-104578414D01*
X157265552Y-104732228D01*
X157205537Y-104877117D01*
X157118408Y-105007515D01*
X157007515Y-105118408D01*
X156877117Y-105205537D01*
X156732228Y-105265552D01*
X156578414Y-105296148D01*
X156421586Y-105296148D01*
X156267772Y-105265552D01*
X156122883Y-105205537D01*
X155992485Y-105118408D01*
X155881592Y-105007515D01*
X155794463Y-104877117D01*
X155734448Y-104732228D01*
X155703852Y-104578414D01*
X155703852Y-104421586D01*
X155734448Y-104267772D01*
X155794463Y-104122883D01*
X155881592Y-103992485D01*
X155992485Y-103881592D01*
X156122883Y-103794463D01*
X156267772Y-103734448D01*
X156421586Y-103703852D01*
X156578414Y-103703852D01*
X156732228Y-103734448D01*
G37*
G36*
X160232228Y-103734448D02*
G01*
X160377117Y-103794463D01*
X160507515Y-103881592D01*
X160618408Y-103992485D01*
X160705537Y-104122883D01*
X160765552Y-104267772D01*
X160796148Y-104421586D01*
X160796148Y-104578414D01*
X160765552Y-104732228D01*
X160705537Y-104877117D01*
X160618408Y-105007515D01*
X160507515Y-105118408D01*
X160377117Y-105205537D01*
X160232228Y-105265552D01*
X160078414Y-105296148D01*
X159921586Y-105296148D01*
X159767772Y-105265552D01*
X159622883Y-105205537D01*
X159492485Y-105118408D01*
X159381592Y-105007515D01*
X159294463Y-104877117D01*
X159234448Y-104732228D01*
X159203852Y-104578414D01*
X159203852Y-104421586D01*
X159234448Y-104267772D01*
X159294463Y-104122883D01*
X159381592Y-103992485D01*
X159492485Y-103881592D01*
X159622883Y-103794463D01*
X159767772Y-103734448D01*
X159921586Y-103703852D01*
X160078414Y-103703852D01*
X160232228Y-103734448D01*
G37*
G36*
X187612228Y-102694448D02*
G01*
X187757117Y-102754463D01*
X187887515Y-102841592D01*
X187998408Y-102952485D01*
X188085537Y-103082883D01*
X188145552Y-103227772D01*
X188176148Y-103381586D01*
X188176148Y-103538414D01*
X188145552Y-103692228D01*
X188085537Y-103837117D01*
X187998408Y-103967515D01*
X187887515Y-104078408D01*
X187757117Y-104165537D01*
X187612228Y-104225552D01*
X187458414Y-104256148D01*
X187301586Y-104256148D01*
X187147772Y-104225552D01*
X187002883Y-104165537D01*
X186872485Y-104078408D01*
X186761592Y-103967515D01*
X186674463Y-103837117D01*
X186614448Y-103692228D01*
X186583852Y-103538414D01*
X186583852Y-103381586D01*
X186614448Y-103227772D01*
X186674463Y-103082883D01*
X186761592Y-102952485D01*
X186872485Y-102841592D01*
X187002883Y-102754463D01*
X187147772Y-102694448D01*
X187301586Y-102663852D01*
X187458414Y-102663852D01*
X187612228Y-102694448D01*
G37*
G36*
X195232228Y-102694448D02*
G01*
X195377117Y-102754463D01*
X195507515Y-102841592D01*
X195618408Y-102952485D01*
X195705537Y-103082883D01*
X195765552Y-103227772D01*
X195796148Y-103381586D01*
X195796148Y-103538414D01*
X195765552Y-103692228D01*
X195705537Y-103837117D01*
X195618408Y-103967515D01*
X195507515Y-104078408D01*
X195377117Y-104165537D01*
X195232228Y-104225552D01*
X195078414Y-104256148D01*
X194921586Y-104256148D01*
X194767772Y-104225552D01*
X194622883Y-104165537D01*
X194492485Y-104078408D01*
X194381592Y-103967515D01*
X194294463Y-103837117D01*
X194234448Y-103692228D01*
X194203852Y-103538414D01*
X194203852Y-103381586D01*
X194234448Y-103227772D01*
X194294463Y-103082883D01*
X194381592Y-102952485D01*
X194492485Y-102841592D01*
X194622883Y-102754463D01*
X194767772Y-102694448D01*
X194921586Y-102663852D01*
X195078414Y-102663852D01*
X195232228Y-102694448D01*
G37*
G36*
X119232228Y-102664448D02*
G01*
X119377117Y-102724463D01*
X119507515Y-102811592D01*
X119618408Y-102922485D01*
X119705537Y-103052883D01*
X119765552Y-103197772D01*
X119796148Y-103351586D01*
X119796148Y-103508414D01*
X119765552Y-103662228D01*
X119705537Y-103807117D01*
X119618408Y-103937515D01*
X119507515Y-104048408D01*
X119377117Y-104135537D01*
X119232228Y-104195552D01*
X119078414Y-104226148D01*
X118921586Y-104226148D01*
X118767772Y-104195552D01*
X118622883Y-104135537D01*
X118492485Y-104048408D01*
X118381592Y-103937515D01*
X118294463Y-103807117D01*
X118234448Y-103662228D01*
X118203852Y-103508414D01*
X118203852Y-103351586D01*
X118234448Y-103197772D01*
X118294463Y-103052883D01*
X118381592Y-102922485D01*
X118492485Y-102811592D01*
X118622883Y-102724463D01*
X118767772Y-102664448D01*
X118921586Y-102633852D01*
X119078414Y-102633852D01*
X119232228Y-102664448D01*
G37*
G36*
X126112228Y-102194448D02*
G01*
X126257117Y-102254463D01*
X126387515Y-102341592D01*
X126498408Y-102452485D01*
X126585537Y-102582883D01*
X126645552Y-102727772D01*
X126676148Y-102881586D01*
X126676148Y-103038414D01*
X126645552Y-103192228D01*
X126585537Y-103337117D01*
X126498408Y-103467515D01*
X126387515Y-103578408D01*
X126257117Y-103665537D01*
X126112228Y-103725552D01*
X125958414Y-103756148D01*
X125801586Y-103756148D01*
X125647772Y-103725552D01*
X125502883Y-103665537D01*
X125372485Y-103578408D01*
X125261592Y-103467515D01*
X125174463Y-103337117D01*
X125114448Y-103192228D01*
X125083852Y-103038414D01*
X125083852Y-102881586D01*
X125114448Y-102727772D01*
X125174463Y-102582883D01*
X125261592Y-102452485D01*
X125372485Y-102341592D01*
X125502883Y-102254463D01*
X125647772Y-102194448D01*
X125801586Y-102163852D01*
X125958414Y-102163852D01*
X126112228Y-102194448D01*
G37*
G36*
X133732228Y-102194448D02*
G01*
X133877117Y-102254463D01*
X134007515Y-102341592D01*
X134118408Y-102452485D01*
X134205537Y-102582883D01*
X134265552Y-102727772D01*
X134296148Y-102881586D01*
X134296148Y-103038414D01*
X134265552Y-103192228D01*
X134205537Y-103337117D01*
X134118408Y-103467515D01*
X134007515Y-103578408D01*
X133877117Y-103665537D01*
X133732228Y-103725552D01*
X133578414Y-103756148D01*
X133421586Y-103756148D01*
X133267772Y-103725552D01*
X133122883Y-103665537D01*
X132992485Y-103578408D01*
X132881592Y-103467515D01*
X132794463Y-103337117D01*
X132734448Y-103192228D01*
X132703852Y-103038414D01*
X132703852Y-102881586D01*
X132734448Y-102727772D01*
X132794463Y-102582883D01*
X132881592Y-102452485D01*
X132992485Y-102341592D01*
X133122883Y-102254463D01*
X133267772Y-102194448D01*
X133421586Y-102163852D01*
X133578414Y-102163852D01*
X133732228Y-102194448D01*
G37*
G36*
X165732228Y-101734448D02*
G01*
X165877117Y-101794463D01*
X166007515Y-101881592D01*
X166118408Y-101992485D01*
X166205537Y-102122883D01*
X166265552Y-102267772D01*
X166296148Y-102421586D01*
X166296148Y-102578414D01*
X166265552Y-102732228D01*
X166205537Y-102877117D01*
X166118408Y-103007515D01*
X166007515Y-103118408D01*
X165877117Y-103205537D01*
X165732228Y-103265552D01*
X165578414Y-103296148D01*
X165421586Y-103296148D01*
X165267772Y-103265552D01*
X165122883Y-103205537D01*
X164992485Y-103118408D01*
X164881592Y-103007515D01*
X164794463Y-102877117D01*
X164734448Y-102732228D01*
X164703852Y-102578414D01*
X164703852Y-102421586D01*
X164734448Y-102267772D01*
X164794463Y-102122883D01*
X164881592Y-101992485D01*
X164992485Y-101881592D01*
X165122883Y-101794463D01*
X165267772Y-101734448D01*
X165421586Y-101703852D01*
X165578414Y-101703852D01*
X165732228Y-101734448D01*
G37*
G36*
X176528385Y-101207578D02*
G01*
X176673274Y-101267593D01*
X176803672Y-101354722D01*
X176914565Y-101465615D01*
X177001694Y-101596013D01*
X177061709Y-101740902D01*
X177092305Y-101894716D01*
X177092305Y-102051544D01*
X177061709Y-102205358D01*
X177001694Y-102350247D01*
X176914565Y-102480645D01*
X176803672Y-102591538D01*
X176673274Y-102678667D01*
X176528385Y-102738682D01*
X176374571Y-102769278D01*
X176217743Y-102769278D01*
X176063929Y-102738682D01*
X175919040Y-102678667D01*
X175788642Y-102591538D01*
X175677749Y-102480645D01*
X175590620Y-102350247D01*
X175530605Y-102205358D01*
X175500009Y-102051544D01*
X175500009Y-101894716D01*
X175530605Y-101740902D01*
X175590620Y-101596013D01*
X175677749Y-101465615D01*
X175788642Y-101354722D01*
X175919040Y-101267593D01*
X176063929Y-101207578D01*
X176217743Y-101176982D01*
X176374571Y-101176982D01*
X176528385Y-101207578D01*
G37*
G36*
X207675000Y-102175000D02*
G01*
X206325000Y-102175000D01*
X206325000Y-100825000D01*
X207675000Y-100825000D01*
X207675000Y-102175000D01*
G37*
G36*
X171732228Y-100354448D02*
G01*
X171877117Y-100414463D01*
X172007515Y-100501592D01*
X172118408Y-100612485D01*
X172205537Y-100742883D01*
X172265552Y-100887772D01*
X172296148Y-101041586D01*
X172296148Y-101198414D01*
X172265552Y-101352228D01*
X172205537Y-101497117D01*
X172118408Y-101627515D01*
X172007515Y-101738408D01*
X171877117Y-101825537D01*
X171732228Y-101885552D01*
X171578414Y-101916148D01*
X171421586Y-101916148D01*
X171267772Y-101885552D01*
X171122883Y-101825537D01*
X170992485Y-101738408D01*
X170881592Y-101627515D01*
X170794463Y-101497117D01*
X170734448Y-101352228D01*
X170703852Y-101198414D01*
X170703852Y-101041586D01*
X170734448Y-100887772D01*
X170794463Y-100742883D01*
X170881592Y-100612485D01*
X170992485Y-100501592D01*
X171122883Y-100414463D01*
X171267772Y-100354448D01*
X171421586Y-100323852D01*
X171578414Y-100323852D01*
X171732228Y-100354448D01*
G37*
G36*
X212732228Y-100234448D02*
G01*
X212877117Y-100294463D01*
X213007515Y-100381592D01*
X213118408Y-100492485D01*
X213205537Y-100622883D01*
X213265552Y-100767772D01*
X213296148Y-100921586D01*
X213296148Y-101078414D01*
X213265552Y-101232228D01*
X213205537Y-101377117D01*
X213118408Y-101507515D01*
X213007515Y-101618408D01*
X212877117Y-101705537D01*
X212732228Y-101765552D01*
X212578414Y-101796148D01*
X212421586Y-101796148D01*
X212267772Y-101765552D01*
X212122883Y-101705537D01*
X211992485Y-101618408D01*
X211881592Y-101507515D01*
X211794463Y-101377117D01*
X211734448Y-101232228D01*
X211703852Y-101078414D01*
X211703852Y-100921586D01*
X211734448Y-100767772D01*
X211794463Y-100622883D01*
X211881592Y-100492485D01*
X211992485Y-100381592D01*
X212122883Y-100294463D01*
X212267772Y-100234448D01*
X212421586Y-100203852D01*
X212578414Y-100203852D01*
X212732228Y-100234448D01*
G37*
G36*
X187612228Y-100154448D02*
G01*
X187757117Y-100214463D01*
X187887515Y-100301592D01*
X187998408Y-100412485D01*
X188085537Y-100542883D01*
X188145552Y-100687772D01*
X188176148Y-100841586D01*
X188176148Y-100998414D01*
X188145552Y-101152228D01*
X188085537Y-101297117D01*
X187998408Y-101427515D01*
X187887515Y-101538408D01*
X187757117Y-101625537D01*
X187612228Y-101685552D01*
X187458414Y-101716148D01*
X187301586Y-101716148D01*
X187147772Y-101685552D01*
X187002883Y-101625537D01*
X186872485Y-101538408D01*
X186761592Y-101427515D01*
X186674463Y-101297117D01*
X186614448Y-101152228D01*
X186583852Y-100998414D01*
X186583852Y-100841586D01*
X186614448Y-100687772D01*
X186674463Y-100542883D01*
X186761592Y-100412485D01*
X186872485Y-100301592D01*
X187002883Y-100214463D01*
X187147772Y-100154448D01*
X187301586Y-100123852D01*
X187458414Y-100123852D01*
X187612228Y-100154448D01*
G37*
G36*
X195232228Y-100154448D02*
G01*
X195377117Y-100214463D01*
X195507515Y-100301592D01*
X195618408Y-100412485D01*
X195705537Y-100542883D01*
X195765552Y-100687772D01*
X195796148Y-100841586D01*
X195796148Y-100998414D01*
X195765552Y-101152228D01*
X195705537Y-101297117D01*
X195618408Y-101427515D01*
X195507515Y-101538408D01*
X195377117Y-101625537D01*
X195232228Y-101685552D01*
X195078414Y-101716148D01*
X194921586Y-101716148D01*
X194767772Y-101685552D01*
X194622883Y-101625537D01*
X194492485Y-101538408D01*
X194381592Y-101427515D01*
X194294463Y-101297117D01*
X194234448Y-101152228D01*
X194203852Y-100998414D01*
X194203852Y-100841586D01*
X194234448Y-100687772D01*
X194294463Y-100542883D01*
X194381592Y-100412485D01*
X194492485Y-100301592D01*
X194622883Y-100214463D01*
X194767772Y-100154448D01*
X194921586Y-100123852D01*
X195078414Y-100123852D01*
X195232228Y-100154448D01*
G37*
G36*
X126112228Y-99654448D02*
G01*
X126257117Y-99714463D01*
X126387515Y-99801592D01*
X126498408Y-99912485D01*
X126585537Y-100042883D01*
X126645552Y-100187772D01*
X126676148Y-100341586D01*
X126676148Y-100498414D01*
X126645552Y-100652228D01*
X126585537Y-100797117D01*
X126498408Y-100927515D01*
X126387515Y-101038408D01*
X126257117Y-101125537D01*
X126112228Y-101185552D01*
X125958414Y-101216148D01*
X125801586Y-101216148D01*
X125647772Y-101185552D01*
X125502883Y-101125537D01*
X125372485Y-101038408D01*
X125261592Y-100927515D01*
X125174463Y-100797117D01*
X125114448Y-100652228D01*
X125083852Y-100498414D01*
X125083852Y-100341586D01*
X125114448Y-100187772D01*
X125174463Y-100042883D01*
X125261592Y-99912485D01*
X125372485Y-99801592D01*
X125502883Y-99714463D01*
X125647772Y-99654448D01*
X125801586Y-99623852D01*
X125958414Y-99623852D01*
X126112228Y-99654448D01*
G37*
G36*
X133732228Y-99654448D02*
G01*
X133877117Y-99714463D01*
X134007515Y-99801592D01*
X134118408Y-99912485D01*
X134205537Y-100042883D01*
X134265552Y-100187772D01*
X134296148Y-100341586D01*
X134296148Y-100498414D01*
X134265552Y-100652228D01*
X134205537Y-100797117D01*
X134118408Y-100927515D01*
X134007515Y-101038408D01*
X133877117Y-101125537D01*
X133732228Y-101185552D01*
X133578414Y-101216148D01*
X133421586Y-101216148D01*
X133267772Y-101185552D01*
X133122883Y-101125537D01*
X132992485Y-101038408D01*
X132881592Y-100927515D01*
X132794463Y-100797117D01*
X132734448Y-100652228D01*
X132703852Y-100498414D01*
X132703852Y-100341586D01*
X132734448Y-100187772D01*
X132794463Y-100042883D01*
X132881592Y-99912485D01*
X132992485Y-99801592D01*
X133122883Y-99714463D01*
X133267772Y-99654448D01*
X133421586Y-99623852D01*
X133578414Y-99623852D01*
X133732228Y-99654448D01*
G37*
G36*
X145612329Y-98725246D02*
G01*
X145757218Y-98785261D01*
X145887616Y-98872390D01*
X145998509Y-98983283D01*
X146085638Y-99113681D01*
X146145653Y-99258570D01*
X146176249Y-99412384D01*
X146176249Y-99569212D01*
X146145653Y-99723026D01*
X146085638Y-99867915D01*
X145998509Y-99998313D01*
X145887616Y-100109206D01*
X145757218Y-100196335D01*
X145612329Y-100256350D01*
X145458515Y-100286946D01*
X145301687Y-100286946D01*
X145147873Y-100256350D01*
X145002984Y-100196335D01*
X144872586Y-100109206D01*
X144761693Y-99998313D01*
X144674564Y-99867915D01*
X144614549Y-99723026D01*
X144583953Y-99569212D01*
X144583953Y-99412384D01*
X144614549Y-99258570D01*
X144674564Y-99113681D01*
X144761693Y-98983283D01*
X144872586Y-98872390D01*
X145002984Y-98785261D01*
X145147873Y-98725246D01*
X145301687Y-98694650D01*
X145458515Y-98694650D01*
X145612329Y-98725246D01*
G37*
G36*
X199000372Y-98234448D02*
G01*
X199145261Y-98294463D01*
X199275659Y-98381592D01*
X199386552Y-98492485D01*
X199473681Y-98622883D01*
X199533696Y-98767772D01*
X199564292Y-98921586D01*
X199564292Y-99078414D01*
X199533696Y-99232228D01*
X199473681Y-99377117D01*
X199386552Y-99507515D01*
X199275659Y-99618408D01*
X199145261Y-99705537D01*
X199000372Y-99765552D01*
X198846558Y-99796148D01*
X198689730Y-99796148D01*
X198535916Y-99765552D01*
X198391027Y-99705537D01*
X198260629Y-99618408D01*
X198149736Y-99507515D01*
X198062607Y-99377117D01*
X198002592Y-99232228D01*
X197971996Y-99078414D01*
X197971996Y-98921586D01*
X198002592Y-98767772D01*
X198062607Y-98622883D01*
X198149736Y-98492485D01*
X198260629Y-98381592D01*
X198391027Y-98294463D01*
X198535916Y-98234448D01*
X198689730Y-98203852D01*
X198846558Y-98203852D01*
X199000372Y-98234448D01*
G37*
G36*
X202232228Y-98114448D02*
G01*
X202377117Y-98174463D01*
X202507515Y-98261592D01*
X202618408Y-98372485D01*
X202705537Y-98502883D01*
X202765552Y-98647772D01*
X202796148Y-98801586D01*
X202796148Y-98958414D01*
X202765552Y-99112228D01*
X202705537Y-99257117D01*
X202618408Y-99387515D01*
X202507515Y-99498408D01*
X202377117Y-99585537D01*
X202232228Y-99645552D01*
X202078414Y-99676148D01*
X201921586Y-99676148D01*
X201767772Y-99645552D01*
X201622883Y-99585537D01*
X201492485Y-99498408D01*
X201381592Y-99387515D01*
X201294463Y-99257117D01*
X201234448Y-99112228D01*
X201203852Y-98958414D01*
X201203852Y-98801586D01*
X201234448Y-98647772D01*
X201294463Y-98502883D01*
X201381592Y-98372485D01*
X201492485Y-98261592D01*
X201622883Y-98174463D01*
X201767772Y-98114448D01*
X201921586Y-98083852D01*
X202078414Y-98083852D01*
X202232228Y-98114448D01*
G37*
G36*
X163732228Y-97734448D02*
G01*
X163877117Y-97794463D01*
X164007515Y-97881592D01*
X164118408Y-97992485D01*
X164205537Y-98122883D01*
X164265552Y-98267772D01*
X164296148Y-98421586D01*
X164296148Y-98578414D01*
X164265552Y-98732228D01*
X164205537Y-98877117D01*
X164118408Y-99007515D01*
X164007515Y-99118408D01*
X163877117Y-99205537D01*
X163732228Y-99265552D01*
X163578414Y-99296148D01*
X163421586Y-99296148D01*
X163267772Y-99265552D01*
X163122883Y-99205537D01*
X162992485Y-99118408D01*
X162881592Y-99007515D01*
X162794463Y-98877117D01*
X162734448Y-98732228D01*
X162703852Y-98578414D01*
X162703852Y-98421586D01*
X162734448Y-98267772D01*
X162794463Y-98122883D01*
X162881592Y-97992485D01*
X162992485Y-97881592D01*
X163122883Y-97794463D01*
X163267772Y-97734448D01*
X163421586Y-97703852D01*
X163578414Y-97703852D01*
X163732228Y-97734448D01*
G37*
G36*
X167232228Y-97734448D02*
G01*
X167377117Y-97794463D01*
X167507515Y-97881592D01*
X167618408Y-97992485D01*
X167705537Y-98122883D01*
X167765552Y-98267772D01*
X167796148Y-98421586D01*
X167796148Y-98578414D01*
X167765552Y-98732228D01*
X167705537Y-98877117D01*
X167618408Y-99007515D01*
X167507515Y-99118408D01*
X167377117Y-99205537D01*
X167232228Y-99265552D01*
X167078414Y-99296148D01*
X166921586Y-99296148D01*
X166767772Y-99265552D01*
X166622883Y-99205537D01*
X166492485Y-99118408D01*
X166381592Y-99007515D01*
X166294463Y-98877117D01*
X166234448Y-98732228D01*
X166203852Y-98578414D01*
X166203852Y-98421586D01*
X166234448Y-98267772D01*
X166294463Y-98122883D01*
X166381592Y-97992485D01*
X166492485Y-97881592D01*
X166622883Y-97794463D01*
X166767772Y-97734448D01*
X166921586Y-97703852D01*
X167078414Y-97703852D01*
X167232228Y-97734448D01*
G37*
G36*
X187612228Y-97614448D02*
G01*
X187757117Y-97674463D01*
X187887515Y-97761592D01*
X187998408Y-97872485D01*
X188085537Y-98002883D01*
X188145552Y-98147772D01*
X188176148Y-98301586D01*
X188176148Y-98458414D01*
X188145552Y-98612228D01*
X188085537Y-98757117D01*
X187998408Y-98887515D01*
X187887515Y-98998408D01*
X187757117Y-99085537D01*
X187612228Y-99145552D01*
X187458414Y-99176148D01*
X187301586Y-99176148D01*
X187147772Y-99145552D01*
X187002883Y-99085537D01*
X186872485Y-98998408D01*
X186761592Y-98887515D01*
X186674463Y-98757117D01*
X186614448Y-98612228D01*
X186583852Y-98458414D01*
X186583852Y-98301586D01*
X186614448Y-98147772D01*
X186674463Y-98002883D01*
X186761592Y-97872485D01*
X186872485Y-97761592D01*
X187002883Y-97674463D01*
X187147772Y-97614448D01*
X187301586Y-97583852D01*
X187458414Y-97583852D01*
X187612228Y-97614448D01*
G37*
G36*
X195232228Y-97614448D02*
G01*
X195377117Y-97674463D01*
X195507515Y-97761592D01*
X195618408Y-97872485D01*
X195705537Y-98002883D01*
X195765552Y-98147772D01*
X195796148Y-98301586D01*
X195796148Y-98458414D01*
X195765552Y-98612228D01*
X195705537Y-98757117D01*
X195618408Y-98887515D01*
X195507515Y-98998408D01*
X195377117Y-99085537D01*
X195232228Y-99145552D01*
X195078414Y-99176148D01*
X194921586Y-99176148D01*
X194767772Y-99145552D01*
X194622883Y-99085537D01*
X194492485Y-98998408D01*
X194381592Y-98887515D01*
X194294463Y-98757117D01*
X194234448Y-98612228D01*
X194203852Y-98458414D01*
X194203852Y-98301586D01*
X194234448Y-98147772D01*
X194294463Y-98002883D01*
X194381592Y-97872485D01*
X194492485Y-97761592D01*
X194622883Y-97674463D01*
X194767772Y-97614448D01*
X194921586Y-97583852D01*
X195078414Y-97583852D01*
X195232228Y-97614448D01*
G37*
G36*
X207850000Y-98850000D02*
G01*
X206150000Y-98850000D01*
X206150000Y-97150000D01*
X207850000Y-97150000D01*
X207850000Y-98850000D01*
G37*
G36*
X209786742Y-97186601D02*
G01*
X209940687Y-97250367D01*
X210079234Y-97342941D01*
X210197059Y-97460766D01*
X210289633Y-97599313D01*
X210353399Y-97753258D01*
X210385907Y-97916685D01*
X210385907Y-98083315D01*
X210353399Y-98246742D01*
X210289633Y-98400687D01*
X210197059Y-98539234D01*
X210079234Y-98657059D01*
X209940687Y-98749633D01*
X209786742Y-98813399D01*
X209623315Y-98845907D01*
X209456685Y-98845907D01*
X209293258Y-98813399D01*
X209139313Y-98749633D01*
X209000766Y-98657059D01*
X208882941Y-98539234D01*
X208790367Y-98400687D01*
X208726601Y-98246742D01*
X208694093Y-98083315D01*
X208694093Y-97916685D01*
X208726601Y-97753258D01*
X208790367Y-97599313D01*
X208882941Y-97460766D01*
X209000766Y-97342941D01*
X209139313Y-97250367D01*
X209293258Y-97186601D01*
X209456685Y-97154093D01*
X209623315Y-97154093D01*
X209786742Y-97186601D01*
G37*
G36*
X212326742Y-97186601D02*
G01*
X212480687Y-97250367D01*
X212619234Y-97342941D01*
X212737059Y-97460766D01*
X212829633Y-97599313D01*
X212893399Y-97753258D01*
X212925907Y-97916685D01*
X212925907Y-98083315D01*
X212893399Y-98246742D01*
X212829633Y-98400687D01*
X212737059Y-98539234D01*
X212619234Y-98657059D01*
X212480687Y-98749633D01*
X212326742Y-98813399D01*
X212163315Y-98845907D01*
X211996685Y-98845907D01*
X211833258Y-98813399D01*
X211679313Y-98749633D01*
X211540766Y-98657059D01*
X211422941Y-98539234D01*
X211330367Y-98400687D01*
X211266601Y-98246742D01*
X211234093Y-98083315D01*
X211234093Y-97916685D01*
X211266601Y-97753258D01*
X211330367Y-97599313D01*
X211422941Y-97460766D01*
X211540766Y-97342941D01*
X211679313Y-97250367D01*
X211833258Y-97186601D01*
X211996685Y-97154093D01*
X212163315Y-97154093D01*
X212326742Y-97186601D01*
G37*
G36*
X126434850Y-97080964D02*
G01*
X126485040Y-97086787D01*
X126502189Y-97094359D01*
X126525671Y-97099030D01*
X126550810Y-97115827D01*
X126570696Y-97124608D01*
X126584277Y-97138189D01*
X126606777Y-97153223D01*
X126621810Y-97175722D01*
X126635391Y-97189303D01*
X126644170Y-97209186D01*
X126660970Y-97234329D01*
X126665641Y-97257812D01*
X126673212Y-97274959D01*
X126679033Y-97325139D01*
X126680000Y-97330000D01*
X126680000Y-98430000D01*
X126679032Y-98434863D01*
X126673212Y-98485040D01*
X126665641Y-98502185D01*
X126660970Y-98525671D01*
X126644169Y-98550815D01*
X126635391Y-98570696D01*
X126621812Y-98584274D01*
X126606777Y-98606777D01*
X126584274Y-98621812D01*
X126570696Y-98635391D01*
X126550815Y-98644169D01*
X126525671Y-98660970D01*
X126502185Y-98665641D01*
X126485040Y-98673212D01*
X126434861Y-98679032D01*
X126430000Y-98680000D01*
X125330000Y-98680000D01*
X125325138Y-98679032D01*
X125274959Y-98673212D01*
X125257812Y-98665641D01*
X125234329Y-98660970D01*
X125209186Y-98644170D01*
X125189303Y-98635391D01*
X125175722Y-98621810D01*
X125153223Y-98606777D01*
X125138189Y-98584277D01*
X125124608Y-98570696D01*
X125115827Y-98550810D01*
X125099030Y-98525671D01*
X125094359Y-98502189D01*
X125086787Y-98485040D01*
X125080964Y-98434849D01*
X125080000Y-98430000D01*
X125080000Y-97330000D01*
X125080964Y-97325150D01*
X125086787Y-97274959D01*
X125094359Y-97257808D01*
X125099030Y-97234329D01*
X125115826Y-97209191D01*
X125124608Y-97189303D01*
X125138191Y-97175719D01*
X125153223Y-97153223D01*
X125175719Y-97138191D01*
X125189303Y-97124608D01*
X125209191Y-97115826D01*
X125234329Y-97099030D01*
X125257808Y-97094359D01*
X125274959Y-97086787D01*
X125325151Y-97080964D01*
X125330000Y-97080000D01*
X126430000Y-97080000D01*
X126434850Y-97080964D01*
G37*
G36*
X133732228Y-97114448D02*
G01*
X133877117Y-97174463D01*
X134007515Y-97261592D01*
X134118408Y-97372485D01*
X134205537Y-97502883D01*
X134265552Y-97647772D01*
X134296148Y-97801586D01*
X134296148Y-97958414D01*
X134265552Y-98112228D01*
X134205537Y-98257117D01*
X134118408Y-98387515D01*
X134007515Y-98498408D01*
X133877117Y-98585537D01*
X133732228Y-98645552D01*
X133578414Y-98676148D01*
X133421586Y-98676148D01*
X133267772Y-98645552D01*
X133122883Y-98585537D01*
X132992485Y-98498408D01*
X132881592Y-98387515D01*
X132794463Y-98257117D01*
X132734448Y-98112228D01*
X132703852Y-97958414D01*
X132703852Y-97801586D01*
X132734448Y-97647772D01*
X132794463Y-97502883D01*
X132881592Y-97372485D01*
X132992485Y-97261592D01*
X133122883Y-97174463D01*
X133267772Y-97114448D01*
X133421586Y-97083852D01*
X133578414Y-97083852D01*
X133732228Y-97114448D01*
G37*
G36*
X136846780Y-97014234D02*
G01*
X136991669Y-97074249D01*
X137122067Y-97161378D01*
X137232960Y-97272271D01*
X137320089Y-97402669D01*
X137380104Y-97547558D01*
X137410700Y-97701372D01*
X137410700Y-97858200D01*
X137380104Y-98012014D01*
X137320089Y-98156903D01*
X137232960Y-98287301D01*
X137122067Y-98398194D01*
X136991669Y-98485323D01*
X136846780Y-98545338D01*
X136692966Y-98575934D01*
X136536138Y-98575934D01*
X136382324Y-98545338D01*
X136237435Y-98485323D01*
X136107037Y-98398194D01*
X135996144Y-98287301D01*
X135909015Y-98156903D01*
X135849000Y-98012014D01*
X135818404Y-97858200D01*
X135818404Y-97701372D01*
X135849000Y-97547558D01*
X135909015Y-97402669D01*
X135996144Y-97272271D01*
X136107037Y-97161378D01*
X136237435Y-97074249D01*
X136382324Y-97014234D01*
X136536138Y-96983638D01*
X136692966Y-96983638D01*
X136846780Y-97014234D01*
G37*
G36*
X183124980Y-96644095D02*
G01*
X183269869Y-96704110D01*
X183400267Y-96791239D01*
X183511160Y-96902132D01*
X183598289Y-97032530D01*
X183658304Y-97177419D01*
X183688900Y-97331233D01*
X183688900Y-97488061D01*
X183658304Y-97641875D01*
X183598289Y-97786764D01*
X183511160Y-97917162D01*
X183400267Y-98028055D01*
X183269869Y-98115184D01*
X183124980Y-98175199D01*
X182971166Y-98205795D01*
X182814338Y-98205795D01*
X182660524Y-98175199D01*
X182515635Y-98115184D01*
X182385237Y-98028055D01*
X182274344Y-97917162D01*
X182187215Y-97786764D01*
X182127200Y-97641875D01*
X182096604Y-97488061D01*
X182096604Y-97331233D01*
X182127200Y-97177419D01*
X182187215Y-97032530D01*
X182274344Y-96902132D01*
X182385237Y-96791239D01*
X182515635Y-96704110D01*
X182660524Y-96644095D01*
X182814338Y-96613499D01*
X182971166Y-96613499D01*
X183124980Y-96644095D01*
G37*
G36*
X179723469Y-96312920D02*
G01*
X179868358Y-96372935D01*
X179998756Y-96460064D01*
X180109649Y-96570957D01*
X180196778Y-96701355D01*
X180256793Y-96846244D01*
X180287389Y-97000058D01*
X180287389Y-97156886D01*
X180256793Y-97310700D01*
X180196778Y-97455589D01*
X180109649Y-97585987D01*
X179998756Y-97696880D01*
X179868358Y-97784009D01*
X179723469Y-97844024D01*
X179569655Y-97874620D01*
X179412827Y-97874620D01*
X179259013Y-97844024D01*
X179114124Y-97784009D01*
X178983726Y-97696880D01*
X178872833Y-97585987D01*
X178785704Y-97455589D01*
X178725689Y-97310700D01*
X178695093Y-97156886D01*
X178695093Y-97000058D01*
X178725689Y-96846244D01*
X178785704Y-96701355D01*
X178872833Y-96570957D01*
X178983726Y-96460064D01*
X179114124Y-96372935D01*
X179259013Y-96312920D01*
X179412827Y-96282324D01*
X179569655Y-96282324D01*
X179723469Y-96312920D01*
G37*
G36*
X176528385Y-96207578D02*
G01*
X176673274Y-96267593D01*
X176803672Y-96354722D01*
X176914565Y-96465615D01*
X177001694Y-96596013D01*
X177061709Y-96740902D01*
X177092305Y-96894716D01*
X177092305Y-97051544D01*
X177061709Y-97205358D01*
X177001694Y-97350247D01*
X176914565Y-97480645D01*
X176803672Y-97591538D01*
X176673274Y-97678667D01*
X176528385Y-97738682D01*
X176374571Y-97769278D01*
X176217743Y-97769278D01*
X176063929Y-97738682D01*
X175919040Y-97678667D01*
X175788642Y-97591538D01*
X175677749Y-97480645D01*
X175590620Y-97350247D01*
X175530605Y-97205358D01*
X175500009Y-97051544D01*
X175500009Y-96894716D01*
X175530605Y-96740902D01*
X175590620Y-96596013D01*
X175677749Y-96465615D01*
X175788642Y-96354722D01*
X175919040Y-96267593D01*
X176063929Y-96207578D01*
X176217743Y-96176982D01*
X176374571Y-96176982D01*
X176528385Y-96207578D01*
G37*
G36*
X149112228Y-96114448D02*
G01*
X149257117Y-96174463D01*
X149387515Y-96261592D01*
X149498408Y-96372485D01*
X149585537Y-96502883D01*
X149645552Y-96647772D01*
X149676148Y-96801586D01*
X149676148Y-96958414D01*
X149645552Y-97112228D01*
X149585537Y-97257117D01*
X149498408Y-97387515D01*
X149387515Y-97498408D01*
X149257117Y-97585537D01*
X149112228Y-97645552D01*
X148958414Y-97676148D01*
X148801586Y-97676148D01*
X148647772Y-97645552D01*
X148502883Y-97585537D01*
X148372485Y-97498408D01*
X148261592Y-97387515D01*
X148174463Y-97257117D01*
X148114448Y-97112228D01*
X148083852Y-96958414D01*
X148083852Y-96801586D01*
X148114448Y-96647772D01*
X148174463Y-96502883D01*
X148261592Y-96372485D01*
X148372485Y-96261592D01*
X148502883Y-96174463D01*
X148647772Y-96114448D01*
X148801586Y-96083852D01*
X148958414Y-96083852D01*
X149112228Y-96114448D01*
G37*
G36*
X151652228Y-96114448D02*
G01*
X151797117Y-96174463D01*
X151927515Y-96261592D01*
X152038408Y-96372485D01*
X152125537Y-96502883D01*
X152185552Y-96647772D01*
X152216148Y-96801586D01*
X152216148Y-96958414D01*
X152185552Y-97112228D01*
X152125537Y-97257117D01*
X152038408Y-97387515D01*
X151927515Y-97498408D01*
X151797117Y-97585537D01*
X151652228Y-97645552D01*
X151498414Y-97676148D01*
X151341586Y-97676148D01*
X151187772Y-97645552D01*
X151042883Y-97585537D01*
X150912485Y-97498408D01*
X150801592Y-97387515D01*
X150714463Y-97257117D01*
X150654448Y-97112228D01*
X150623852Y-96958414D01*
X150623852Y-96801586D01*
X150654448Y-96647772D01*
X150714463Y-96502883D01*
X150801592Y-96372485D01*
X150912485Y-96261592D01*
X151042883Y-96174463D01*
X151187772Y-96114448D01*
X151341586Y-96083852D01*
X151498414Y-96083852D01*
X151652228Y-96114448D01*
G37*
G36*
X154192228Y-96114448D02*
G01*
X154337117Y-96174463D01*
X154467515Y-96261592D01*
X154578408Y-96372485D01*
X154665537Y-96502883D01*
X154725552Y-96647772D01*
X154756148Y-96801586D01*
X154756148Y-96958414D01*
X154725552Y-97112228D01*
X154665537Y-97257117D01*
X154578408Y-97387515D01*
X154467515Y-97498408D01*
X154337117Y-97585537D01*
X154192228Y-97645552D01*
X154038414Y-97676148D01*
X153881586Y-97676148D01*
X153727772Y-97645552D01*
X153582883Y-97585537D01*
X153452485Y-97498408D01*
X153341592Y-97387515D01*
X153254463Y-97257117D01*
X153194448Y-97112228D01*
X153163852Y-96958414D01*
X153163852Y-96801586D01*
X153194448Y-96647772D01*
X153254463Y-96502883D01*
X153341592Y-96372485D01*
X153452485Y-96261592D01*
X153582883Y-96174463D01*
X153727772Y-96114448D01*
X153881586Y-96083852D01*
X154038414Y-96083852D01*
X154192228Y-96114448D01*
G37*
G36*
X156732228Y-96114448D02*
G01*
X156877117Y-96174463D01*
X157007515Y-96261592D01*
X157118408Y-96372485D01*
X157205537Y-96502883D01*
X157265552Y-96647772D01*
X157296148Y-96801586D01*
X157296148Y-96958414D01*
X157265552Y-97112228D01*
X157205537Y-97257117D01*
X157118408Y-97387515D01*
X157007515Y-97498408D01*
X156877117Y-97585537D01*
X156732228Y-97645552D01*
X156578414Y-97676148D01*
X156421586Y-97676148D01*
X156267772Y-97645552D01*
X156122883Y-97585537D01*
X155992485Y-97498408D01*
X155881592Y-97387515D01*
X155794463Y-97257117D01*
X155734448Y-97112228D01*
X155703852Y-96958414D01*
X155703852Y-96801586D01*
X155734448Y-96647772D01*
X155794463Y-96502883D01*
X155881592Y-96372485D01*
X155992485Y-96261592D01*
X156122883Y-96174463D01*
X156267772Y-96114448D01*
X156421586Y-96083852D01*
X156578414Y-96083852D01*
X156732228Y-96114448D01*
G37*
G36*
X160232228Y-96114448D02*
G01*
X160377117Y-96174463D01*
X160507515Y-96261592D01*
X160618408Y-96372485D01*
X160705537Y-96502883D01*
X160765552Y-96647772D01*
X160796148Y-96801586D01*
X160796148Y-96958414D01*
X160765552Y-97112228D01*
X160705537Y-97257117D01*
X160618408Y-97387515D01*
X160507515Y-97498408D01*
X160377117Y-97585537D01*
X160232228Y-97645552D01*
X160078414Y-97676148D01*
X159921586Y-97676148D01*
X159767772Y-97645552D01*
X159622883Y-97585537D01*
X159492485Y-97498408D01*
X159381592Y-97387515D01*
X159294463Y-97257117D01*
X159234448Y-97112228D01*
X159203852Y-96958414D01*
X159203852Y-96801586D01*
X159234448Y-96647772D01*
X159294463Y-96502883D01*
X159381592Y-96372485D01*
X159492485Y-96261592D01*
X159622883Y-96174463D01*
X159767772Y-96114448D01*
X159921586Y-96083852D01*
X160078414Y-96083852D01*
X160232228Y-96114448D01*
G37*
G36*
X141253239Y-95957174D02*
G01*
X141398128Y-96017189D01*
X141528526Y-96104318D01*
X141639419Y-96215211D01*
X141726548Y-96345609D01*
X141786563Y-96490498D01*
X141817159Y-96644312D01*
X141817159Y-96801140D01*
X141786563Y-96954954D01*
X141726548Y-97099843D01*
X141639419Y-97230241D01*
X141528526Y-97341134D01*
X141398128Y-97428263D01*
X141253239Y-97488278D01*
X141099425Y-97518874D01*
X140942597Y-97518874D01*
X140788783Y-97488278D01*
X140643894Y-97428263D01*
X140513496Y-97341134D01*
X140402603Y-97230241D01*
X140315474Y-97099843D01*
X140255459Y-96954954D01*
X140224863Y-96801140D01*
X140224863Y-96644312D01*
X140255459Y-96490498D01*
X140315474Y-96345609D01*
X140402603Y-96215211D01*
X140513496Y-96104318D01*
X140643894Y-96017189D01*
X140788783Y-95957174D01*
X140942597Y-95926578D01*
X141099425Y-95926578D01*
X141253239Y-95957174D01*
G37*
G36*
X146253239Y-95957174D02*
G01*
X146398128Y-96017189D01*
X146528526Y-96104318D01*
X146639419Y-96215211D01*
X146726548Y-96345609D01*
X146786563Y-96490498D01*
X146817159Y-96644312D01*
X146817159Y-96801140D01*
X146786563Y-96954954D01*
X146726548Y-97099843D01*
X146639419Y-97230241D01*
X146528526Y-97341134D01*
X146398128Y-97428263D01*
X146253239Y-97488278D01*
X146099425Y-97518874D01*
X145942597Y-97518874D01*
X145788783Y-97488278D01*
X145643894Y-97428263D01*
X145513496Y-97341134D01*
X145402603Y-97230241D01*
X145315474Y-97099843D01*
X145255459Y-96954954D01*
X145224863Y-96801140D01*
X145224863Y-96644312D01*
X145255459Y-96490498D01*
X145315474Y-96345609D01*
X145402603Y-96215211D01*
X145513496Y-96104318D01*
X145643894Y-96017189D01*
X145788783Y-95957174D01*
X145942597Y-95926578D01*
X146099425Y-95926578D01*
X146253239Y-95957174D01*
G37*
G36*
X198378245Y-95179372D02*
G01*
X198523134Y-95239387D01*
X198653532Y-95326516D01*
X198764425Y-95437409D01*
X198851554Y-95567807D01*
X198911569Y-95712696D01*
X198942165Y-95866510D01*
X198942165Y-96023338D01*
X198911569Y-96177152D01*
X198851554Y-96322041D01*
X198764425Y-96452439D01*
X198653532Y-96563332D01*
X198523134Y-96650461D01*
X198378245Y-96710476D01*
X198224431Y-96741072D01*
X198067603Y-96741072D01*
X197913789Y-96710476D01*
X197768900Y-96650461D01*
X197638502Y-96563332D01*
X197527609Y-96452439D01*
X197440480Y-96322041D01*
X197380465Y-96177152D01*
X197349869Y-96023338D01*
X197349869Y-95866510D01*
X197380465Y-95712696D01*
X197440480Y-95567807D01*
X197527609Y-95437409D01*
X197638502Y-95326516D01*
X197768900Y-95239387D01*
X197913789Y-95179372D01*
X198067603Y-95148776D01*
X198224431Y-95148776D01*
X198378245Y-95179372D01*
G37*
G36*
X119232228Y-95044448D02*
G01*
X119377117Y-95104463D01*
X119507515Y-95191592D01*
X119618408Y-95302485D01*
X119705537Y-95432883D01*
X119765552Y-95577772D01*
X119796148Y-95731586D01*
X119796148Y-95888414D01*
X119765552Y-96042228D01*
X119705537Y-96187117D01*
X119618408Y-96317515D01*
X119507515Y-96428408D01*
X119377117Y-96515537D01*
X119232228Y-96575552D01*
X119078414Y-96606148D01*
X118921586Y-96606148D01*
X118767772Y-96575552D01*
X118622883Y-96515537D01*
X118492485Y-96428408D01*
X118381592Y-96317515D01*
X118294463Y-96187117D01*
X118234448Y-96042228D01*
X118203852Y-95888414D01*
X118203852Y-95731586D01*
X118234448Y-95577772D01*
X118294463Y-95432883D01*
X118381592Y-95302485D01*
X118492485Y-95191592D01*
X118622883Y-95104463D01*
X118767772Y-95044448D01*
X118921586Y-95013852D01*
X119078414Y-95013852D01*
X119232228Y-95044448D01*
G37*
G36*
X187862868Y-94784271D02*
G01*
X188007757Y-94844286D01*
X188138155Y-94931415D01*
X188249048Y-95042308D01*
X188336177Y-95172706D01*
X188396192Y-95317595D01*
X188426788Y-95471409D01*
X188426788Y-95628237D01*
X188396192Y-95782051D01*
X188336177Y-95926940D01*
X188249048Y-96057338D01*
X188138155Y-96168231D01*
X188007757Y-96255360D01*
X187862868Y-96315375D01*
X187709054Y-96345971D01*
X187552226Y-96345971D01*
X187398412Y-96315375D01*
X187253523Y-96255360D01*
X187123125Y-96168231D01*
X187012232Y-96057338D01*
X186925103Y-95926940D01*
X186865088Y-95782051D01*
X186834492Y-95628237D01*
X186834492Y-95471409D01*
X186865088Y-95317595D01*
X186925103Y-95172706D01*
X187012232Y-95042308D01*
X187123125Y-94931415D01*
X187253523Y-94844286D01*
X187398412Y-94784271D01*
X187552226Y-94753675D01*
X187709054Y-94753675D01*
X187862868Y-94784271D01*
G37*
G36*
X190558941Y-94536498D02*
G01*
X190703830Y-94596513D01*
X190834228Y-94683642D01*
X190945121Y-94794535D01*
X191032250Y-94924933D01*
X191092265Y-95069822D01*
X191122861Y-95223636D01*
X191122861Y-95380464D01*
X191092265Y-95534278D01*
X191032250Y-95679167D01*
X190945121Y-95809565D01*
X190834228Y-95920458D01*
X190703830Y-96007587D01*
X190558941Y-96067602D01*
X190405127Y-96098198D01*
X190248299Y-96098198D01*
X190094485Y-96067602D01*
X189949596Y-96007587D01*
X189819198Y-95920458D01*
X189708305Y-95809565D01*
X189621176Y-95679167D01*
X189561161Y-95534278D01*
X189530565Y-95380464D01*
X189530565Y-95223636D01*
X189561161Y-95069822D01*
X189621176Y-94924933D01*
X189708305Y-94794535D01*
X189819198Y-94683642D01*
X189949596Y-94596513D01*
X190094485Y-94536498D01*
X190248299Y-94505902D01*
X190405127Y-94505902D01*
X190558941Y-94536498D01*
G37*
G36*
X195558941Y-94536498D02*
G01*
X195703830Y-94596513D01*
X195834228Y-94683642D01*
X195945121Y-94794535D01*
X196032250Y-94924933D01*
X196092265Y-95069822D01*
X196122861Y-95223636D01*
X196122861Y-95380464D01*
X196092265Y-95534278D01*
X196032250Y-95679167D01*
X195945121Y-95809565D01*
X195834228Y-95920458D01*
X195703830Y-96007587D01*
X195558941Y-96067602D01*
X195405127Y-96098198D01*
X195248299Y-96098198D01*
X195094485Y-96067602D01*
X194949596Y-96007587D01*
X194819198Y-95920458D01*
X194708305Y-95809565D01*
X194621176Y-95679167D01*
X194561161Y-95534278D01*
X194530565Y-95380464D01*
X194530565Y-95223636D01*
X194561161Y-95069822D01*
X194621176Y-94924933D01*
X194708305Y-94794535D01*
X194819198Y-94683642D01*
X194949596Y-94596513D01*
X195094485Y-94536498D01*
X195248299Y-94505902D01*
X195405127Y-94505902D01*
X195558941Y-94536498D01*
G37*
G36*
X212232228Y-94234448D02*
G01*
X212377117Y-94294463D01*
X212507515Y-94381592D01*
X212618408Y-94492485D01*
X212705537Y-94622883D01*
X212765552Y-94767772D01*
X212796148Y-94921586D01*
X212796148Y-95078414D01*
X212765552Y-95232228D01*
X212705537Y-95377117D01*
X212618408Y-95507515D01*
X212507515Y-95618408D01*
X212377117Y-95705537D01*
X212232228Y-95765552D01*
X212078414Y-95796148D01*
X211921586Y-95796148D01*
X211767772Y-95765552D01*
X211622883Y-95705537D01*
X211492485Y-95618408D01*
X211381592Y-95507515D01*
X211294463Y-95377117D01*
X211234448Y-95232228D01*
X211203852Y-95078414D01*
X211203852Y-94921586D01*
X211234448Y-94767772D01*
X211294463Y-94622883D01*
X211381592Y-94492485D01*
X211492485Y-94381592D01*
X211622883Y-94294463D01*
X211767772Y-94234448D01*
X211921586Y-94203852D01*
X212078414Y-94203852D01*
X212232228Y-94234448D01*
G37*
G36*
X201419256Y-93751262D02*
G01*
X201564145Y-93811277D01*
X201694543Y-93898406D01*
X201805436Y-94009299D01*
X201892565Y-94139697D01*
X201952580Y-94284586D01*
X201983176Y-94438400D01*
X201983176Y-94595228D01*
X201952580Y-94749042D01*
X201892565Y-94893931D01*
X201805436Y-95024329D01*
X201694543Y-95135222D01*
X201564145Y-95222351D01*
X201419256Y-95282366D01*
X201265442Y-95312962D01*
X201108614Y-95312962D01*
X200954800Y-95282366D01*
X200809911Y-95222351D01*
X200679513Y-95135222D01*
X200568620Y-95024329D01*
X200481491Y-94893931D01*
X200421476Y-94749042D01*
X200390880Y-94595228D01*
X200390880Y-94438400D01*
X200421476Y-94284586D01*
X200481491Y-94139697D01*
X200568620Y-94009299D01*
X200679513Y-93898406D01*
X200809911Y-93811277D01*
X200954800Y-93751262D01*
X201108614Y-93720666D01*
X201265442Y-93720666D01*
X201419256Y-93751262D01*
G37*
G36*
X209039256Y-93751262D02*
G01*
X209184145Y-93811277D01*
X209314543Y-93898406D01*
X209425436Y-94009299D01*
X209512565Y-94139697D01*
X209572580Y-94284586D01*
X209603176Y-94438400D01*
X209603176Y-94595228D01*
X209572580Y-94749042D01*
X209512565Y-94893931D01*
X209425436Y-95024329D01*
X209314543Y-95135222D01*
X209184145Y-95222351D01*
X209039256Y-95282366D01*
X208885442Y-95312962D01*
X208728614Y-95312962D01*
X208574800Y-95282366D01*
X208429911Y-95222351D01*
X208299513Y-95135222D01*
X208188620Y-95024329D01*
X208101491Y-94893931D01*
X208041476Y-94749042D01*
X208010880Y-94595228D01*
X208010880Y-94438400D01*
X208041476Y-94284586D01*
X208101491Y-94139697D01*
X208188620Y-94009299D01*
X208299513Y-93898406D01*
X208429911Y-93811277D01*
X208574800Y-93751262D01*
X208728614Y-93720666D01*
X208885442Y-93720666D01*
X209039256Y-93751262D01*
G37*
G36*
X179528385Y-93207578D02*
G01*
X179673274Y-93267593D01*
X179803672Y-93354722D01*
X179914565Y-93465615D01*
X180001694Y-93596013D01*
X180061709Y-93740902D01*
X180092305Y-93894716D01*
X180092305Y-94051544D01*
X180061709Y-94205358D01*
X180001694Y-94350247D01*
X179914565Y-94480645D01*
X179803672Y-94591538D01*
X179673274Y-94678667D01*
X179528385Y-94738682D01*
X179374571Y-94769278D01*
X179217743Y-94769278D01*
X179063929Y-94738682D01*
X178919040Y-94678667D01*
X178788642Y-94591538D01*
X178677749Y-94480645D01*
X178590620Y-94350247D01*
X178530605Y-94205358D01*
X178500009Y-94051544D01*
X178500009Y-93894716D01*
X178530605Y-93740902D01*
X178590620Y-93596013D01*
X178677749Y-93465615D01*
X178788642Y-93354722D01*
X178919040Y-93267593D01*
X179063929Y-93207578D01*
X179217743Y-93176982D01*
X179374571Y-93176982D01*
X179528385Y-93207578D01*
G37*
G36*
X184528385Y-93207578D02*
G01*
X184673274Y-93267593D01*
X184803672Y-93354722D01*
X184914565Y-93465615D01*
X185001694Y-93596013D01*
X185061709Y-93740902D01*
X185092305Y-93894716D01*
X185092305Y-94051544D01*
X185061709Y-94205358D01*
X185001694Y-94350247D01*
X184914565Y-94480645D01*
X184803672Y-94591538D01*
X184673274Y-94678667D01*
X184528385Y-94738682D01*
X184374571Y-94769278D01*
X184217743Y-94769278D01*
X184063929Y-94738682D01*
X183919040Y-94678667D01*
X183788642Y-94591538D01*
X183677749Y-94480645D01*
X183590620Y-94350247D01*
X183530605Y-94205358D01*
X183500009Y-94051544D01*
X183500009Y-93894716D01*
X183530605Y-93740902D01*
X183590620Y-93596013D01*
X183677749Y-93465615D01*
X183788642Y-93354722D01*
X183919040Y-93267593D01*
X184063929Y-93207578D01*
X184217743Y-93176982D01*
X184374571Y-93176982D01*
X184528385Y-93207578D01*
G37*
G36*
X163732228Y-92734448D02*
G01*
X163877117Y-92794463D01*
X164007515Y-92881592D01*
X164118408Y-92992485D01*
X164205537Y-93122883D01*
X164265552Y-93267772D01*
X164296148Y-93421586D01*
X164296148Y-93578414D01*
X164265552Y-93732228D01*
X164205537Y-93877117D01*
X164118408Y-94007515D01*
X164007515Y-94118408D01*
X163877117Y-94205537D01*
X163732228Y-94265552D01*
X163578414Y-94296148D01*
X163421586Y-94296148D01*
X163267772Y-94265552D01*
X163122883Y-94205537D01*
X162992485Y-94118408D01*
X162881592Y-94007515D01*
X162794463Y-93877117D01*
X162734448Y-93732228D01*
X162703852Y-93578414D01*
X162703852Y-93421586D01*
X162734448Y-93267772D01*
X162794463Y-93122883D01*
X162881592Y-92992485D01*
X162992485Y-92881592D01*
X163122883Y-92794463D01*
X163267772Y-92734448D01*
X163421586Y-92703852D01*
X163578414Y-92703852D01*
X163732228Y-92734448D01*
G37*
G36*
X167232228Y-92734448D02*
G01*
X167377117Y-92794463D01*
X167507515Y-92881592D01*
X167618408Y-92992485D01*
X167705537Y-93122883D01*
X167765552Y-93267772D01*
X167796148Y-93421586D01*
X167796148Y-93578414D01*
X167765552Y-93732228D01*
X167705537Y-93877117D01*
X167618408Y-94007515D01*
X167507515Y-94118408D01*
X167377117Y-94205537D01*
X167232228Y-94265552D01*
X167078414Y-94296148D01*
X166921586Y-94296148D01*
X166767772Y-94265552D01*
X166622883Y-94205537D01*
X166492485Y-94118408D01*
X166381592Y-94007515D01*
X166294463Y-93877117D01*
X166234448Y-93732228D01*
X166203852Y-93578414D01*
X166203852Y-93421586D01*
X166234448Y-93267772D01*
X166294463Y-93122883D01*
X166381592Y-92992485D01*
X166492485Y-92881592D01*
X166622883Y-92794463D01*
X166767772Y-92734448D01*
X166921586Y-92703852D01*
X167078414Y-92703852D01*
X167232228Y-92734448D01*
G37*
G36*
X171732228Y-92734448D02*
G01*
X171877117Y-92794463D01*
X172007515Y-92881592D01*
X172118408Y-92992485D01*
X172205537Y-93122883D01*
X172265552Y-93267772D01*
X172296148Y-93421586D01*
X172296148Y-93578414D01*
X172265552Y-93732228D01*
X172205537Y-93877117D01*
X172118408Y-94007515D01*
X172007515Y-94118408D01*
X171877117Y-94205537D01*
X171732228Y-94265552D01*
X171578414Y-94296148D01*
X171421586Y-94296148D01*
X171267772Y-94265552D01*
X171122883Y-94205537D01*
X170992485Y-94118408D01*
X170881592Y-94007515D01*
X170794463Y-93877117D01*
X170734448Y-93732228D01*
X170703852Y-93578414D01*
X170703852Y-93421586D01*
X170734448Y-93267772D01*
X170794463Y-93122883D01*
X170881592Y-92992485D01*
X170992485Y-92881592D01*
X171122883Y-92794463D01*
X171267772Y-92734448D01*
X171421586Y-92703852D01*
X171578414Y-92703852D01*
X171732228Y-92734448D01*
G37*
G36*
X150596880Y-92725922D02*
G01*
X150741769Y-92785937D01*
X150872167Y-92873066D01*
X150983060Y-92983959D01*
X151070189Y-93114357D01*
X151130204Y-93259246D01*
X151160800Y-93413060D01*
X151160800Y-93569888D01*
X151130204Y-93723702D01*
X151070189Y-93868591D01*
X150983060Y-93998989D01*
X150872167Y-94109882D01*
X150741769Y-94197011D01*
X150596880Y-94257026D01*
X150443066Y-94287622D01*
X150286238Y-94287622D01*
X150132424Y-94257026D01*
X149987535Y-94197011D01*
X149857137Y-94109882D01*
X149746244Y-93998989D01*
X149659115Y-93868591D01*
X149599100Y-93723702D01*
X149568504Y-93569888D01*
X149568504Y-93413060D01*
X149599100Y-93259246D01*
X149659115Y-93114357D01*
X149746244Y-92983959D01*
X149857137Y-92873066D01*
X149987535Y-92785937D01*
X150132424Y-92725922D01*
X150286238Y-92695326D01*
X150443066Y-92695326D01*
X150596880Y-92725922D01*
G37*
G36*
X158216880Y-92725922D02*
G01*
X158361769Y-92785937D01*
X158492167Y-92873066D01*
X158603060Y-92983959D01*
X158690189Y-93114357D01*
X158750204Y-93259246D01*
X158780800Y-93413060D01*
X158780800Y-93569888D01*
X158750204Y-93723702D01*
X158690189Y-93868591D01*
X158603060Y-93998989D01*
X158492167Y-94109882D01*
X158361769Y-94197011D01*
X158216880Y-94257026D01*
X158063066Y-94287622D01*
X157906238Y-94287622D01*
X157752424Y-94257026D01*
X157607535Y-94197011D01*
X157477137Y-94109882D01*
X157366244Y-93998989D01*
X157279115Y-93868591D01*
X157219100Y-93723702D01*
X157188504Y-93569888D01*
X157188504Y-93413060D01*
X157219100Y-93259246D01*
X157279115Y-93114357D01*
X157366244Y-92983959D01*
X157477137Y-92873066D01*
X157607535Y-92785937D01*
X157752424Y-92725922D01*
X157906238Y-92695326D01*
X158063066Y-92695326D01*
X158216880Y-92725922D01*
G37*
G36*
X125732228Y-92234448D02*
G01*
X125877117Y-92294463D01*
X126007515Y-92381592D01*
X126118408Y-92492485D01*
X126205537Y-92622883D01*
X126265552Y-92767772D01*
X126296148Y-92921586D01*
X126296148Y-93078414D01*
X126265552Y-93232228D01*
X126205537Y-93377117D01*
X126118408Y-93507515D01*
X126007515Y-93618408D01*
X125877117Y-93705537D01*
X125732228Y-93765552D01*
X125578414Y-93796148D01*
X125421586Y-93796148D01*
X125267772Y-93765552D01*
X125122883Y-93705537D01*
X124992485Y-93618408D01*
X124881592Y-93507515D01*
X124794463Y-93377117D01*
X124734448Y-93232228D01*
X124703852Y-93078414D01*
X124703852Y-92921586D01*
X124734448Y-92767772D01*
X124794463Y-92622883D01*
X124881592Y-92492485D01*
X124992485Y-92381592D01*
X125122883Y-92294463D01*
X125267772Y-92234448D01*
X125421586Y-92203852D01*
X125578414Y-92203852D01*
X125732228Y-92234448D01*
G37*
G36*
X130732228Y-92234448D02*
G01*
X130877117Y-92294463D01*
X131007515Y-92381592D01*
X131118408Y-92492485D01*
X131205537Y-92622883D01*
X131265552Y-92767772D01*
X131296148Y-92921586D01*
X131296148Y-93078414D01*
X131265552Y-93232228D01*
X131205537Y-93377117D01*
X131118408Y-93507515D01*
X131007515Y-93618408D01*
X130877117Y-93705537D01*
X130732228Y-93765552D01*
X130578414Y-93796148D01*
X130421586Y-93796148D01*
X130267772Y-93765552D01*
X130122883Y-93705537D01*
X129992485Y-93618408D01*
X129881592Y-93507515D01*
X129794463Y-93377117D01*
X129734448Y-93232228D01*
X129703852Y-93078414D01*
X129703852Y-92921586D01*
X129734448Y-92767772D01*
X129794463Y-92622883D01*
X129881592Y-92492485D01*
X129992485Y-92381592D01*
X130122883Y-92294463D01*
X130267772Y-92234448D01*
X130421586Y-92203852D01*
X130578414Y-92203852D01*
X130732228Y-92234448D01*
G37*
G36*
X119232228Y-92044448D02*
G01*
X119377117Y-92104463D01*
X119507515Y-92191592D01*
X119618408Y-92302485D01*
X119705537Y-92432883D01*
X119765552Y-92577772D01*
X119796148Y-92731586D01*
X119796148Y-92888414D01*
X119765552Y-93042228D01*
X119705537Y-93187117D01*
X119618408Y-93317515D01*
X119507515Y-93428408D01*
X119377117Y-93515537D01*
X119232228Y-93575552D01*
X119078414Y-93606148D01*
X118921586Y-93606148D01*
X118767772Y-93575552D01*
X118622883Y-93515537D01*
X118492485Y-93428408D01*
X118381592Y-93317515D01*
X118294463Y-93187117D01*
X118234448Y-93042228D01*
X118203852Y-92888414D01*
X118203852Y-92731586D01*
X118234448Y-92577772D01*
X118294463Y-92432883D01*
X118381592Y-92302485D01*
X118492485Y-92191592D01*
X118622883Y-92104463D01*
X118767772Y-92044448D01*
X118921586Y-92013852D01*
X119078414Y-92013852D01*
X119232228Y-92044448D01*
G37*
G36*
X136846780Y-92014234D02*
G01*
X136991669Y-92074249D01*
X137122067Y-92161378D01*
X137232960Y-92272271D01*
X137320089Y-92402669D01*
X137380104Y-92547558D01*
X137410700Y-92701372D01*
X137410700Y-92858200D01*
X137380104Y-93012014D01*
X137320089Y-93156903D01*
X137232960Y-93287301D01*
X137122067Y-93398194D01*
X136991669Y-93485323D01*
X136846780Y-93545338D01*
X136692966Y-93575934D01*
X136536138Y-93575934D01*
X136382324Y-93545338D01*
X136237435Y-93485323D01*
X136107037Y-93398194D01*
X135996144Y-93287301D01*
X135909015Y-93156903D01*
X135849000Y-93012014D01*
X135818404Y-92858200D01*
X135818404Y-92701372D01*
X135849000Y-92547558D01*
X135909015Y-92402669D01*
X135996144Y-92272271D01*
X136107037Y-92161378D01*
X136237435Y-92074249D01*
X136382324Y-92014234D01*
X136536138Y-91983638D01*
X136692966Y-91983638D01*
X136846780Y-92014234D01*
G37*
G36*
X215232228Y-91734448D02*
G01*
X215377117Y-91794463D01*
X215507515Y-91881592D01*
X215618408Y-91992485D01*
X215705537Y-92122883D01*
X215765552Y-92267772D01*
X215796148Y-92421586D01*
X215796148Y-92578414D01*
X215765552Y-92732228D01*
X215705537Y-92877117D01*
X215618408Y-93007515D01*
X215507515Y-93118408D01*
X215377117Y-93205537D01*
X215232228Y-93265552D01*
X215078414Y-93296148D01*
X214921586Y-93296148D01*
X214767772Y-93265552D01*
X214622883Y-93205537D01*
X214492485Y-93118408D01*
X214381592Y-93007515D01*
X214294463Y-92877117D01*
X214234448Y-92732228D01*
X214203852Y-92578414D01*
X214203852Y-92421586D01*
X214234448Y-92267772D01*
X214294463Y-92122883D01*
X214381592Y-91992485D01*
X214492485Y-91881592D01*
X214622883Y-91794463D01*
X214767772Y-91734448D01*
X214921586Y-91703852D01*
X215078414Y-91703852D01*
X215232228Y-91734448D01*
G37*
G36*
X201732228Y-90734448D02*
G01*
X201877117Y-90794463D01*
X202007515Y-90881592D01*
X202118408Y-90992485D01*
X202205537Y-91122883D01*
X202265552Y-91267772D01*
X202296148Y-91421586D01*
X202296148Y-91578414D01*
X202265552Y-91732228D01*
X202205537Y-91877117D01*
X202118408Y-92007515D01*
X202007515Y-92118408D01*
X201877117Y-92205537D01*
X201732228Y-92265552D01*
X201578414Y-92296148D01*
X201421586Y-92296148D01*
X201267772Y-92265552D01*
X201122883Y-92205537D01*
X200992485Y-92118408D01*
X200881592Y-92007515D01*
X200794463Y-91877117D01*
X200734448Y-91732228D01*
X200703852Y-91578414D01*
X200703852Y-91421586D01*
X200734448Y-91267772D01*
X200794463Y-91122883D01*
X200881592Y-90992485D01*
X200992485Y-90881592D01*
X201122883Y-90794463D01*
X201267772Y-90734448D01*
X201421586Y-90703852D01*
X201578414Y-90703852D01*
X201732228Y-90734448D01*
G37*
G36*
X205232228Y-90734448D02*
G01*
X205377117Y-90794463D01*
X205507515Y-90881592D01*
X205618408Y-90992485D01*
X205705537Y-91122883D01*
X205765552Y-91267772D01*
X205796148Y-91421586D01*
X205796148Y-91578414D01*
X205765552Y-91732228D01*
X205705537Y-91877117D01*
X205618408Y-92007515D01*
X205507515Y-92118408D01*
X205377117Y-92205537D01*
X205232228Y-92265552D01*
X205078414Y-92296148D01*
X204921586Y-92296148D01*
X204767772Y-92265552D01*
X204622883Y-92205537D01*
X204492485Y-92118408D01*
X204381592Y-92007515D01*
X204294463Y-91877117D01*
X204234448Y-91732228D01*
X204203852Y-91578414D01*
X204203852Y-91421586D01*
X204234448Y-91267772D01*
X204294463Y-91122883D01*
X204381592Y-90992485D01*
X204492485Y-90881592D01*
X204622883Y-90794463D01*
X204767772Y-90734448D01*
X204921586Y-90703852D01*
X205078414Y-90703852D01*
X205232228Y-90734448D01*
G37*
G36*
X208732228Y-90734448D02*
G01*
X208877117Y-90794463D01*
X209007515Y-90881592D01*
X209118408Y-90992485D01*
X209205537Y-91122883D01*
X209265552Y-91267772D01*
X209296148Y-91421586D01*
X209296148Y-91578414D01*
X209265552Y-91732228D01*
X209205537Y-91877117D01*
X209118408Y-92007515D01*
X209007515Y-92118408D01*
X208877117Y-92205537D01*
X208732228Y-92265552D01*
X208578414Y-92296148D01*
X208421586Y-92296148D01*
X208267772Y-92265552D01*
X208122883Y-92205537D01*
X207992485Y-92118408D01*
X207881592Y-92007515D01*
X207794463Y-91877117D01*
X207734448Y-91732228D01*
X207703852Y-91578414D01*
X207703852Y-91421586D01*
X207734448Y-91267772D01*
X207794463Y-91122883D01*
X207881592Y-90992485D01*
X207992485Y-90881592D01*
X208122883Y-90794463D01*
X208267772Y-90734448D01*
X208421586Y-90703852D01*
X208578414Y-90703852D01*
X208732228Y-90734448D01*
G37*
G36*
X198378245Y-90179372D02*
G01*
X198523134Y-90239387D01*
X198653532Y-90326516D01*
X198764425Y-90437409D01*
X198851554Y-90567807D01*
X198911569Y-90712696D01*
X198942165Y-90866510D01*
X198942165Y-91023338D01*
X198911569Y-91177152D01*
X198851554Y-91322041D01*
X198764425Y-91452439D01*
X198653532Y-91563332D01*
X198523134Y-91650461D01*
X198378245Y-91710476D01*
X198224431Y-91741072D01*
X198067603Y-91741072D01*
X197913789Y-91710476D01*
X197768900Y-91650461D01*
X197638502Y-91563332D01*
X197527609Y-91452439D01*
X197440480Y-91322041D01*
X197380465Y-91177152D01*
X197349869Y-91023338D01*
X197349869Y-90866510D01*
X197380465Y-90712696D01*
X197440480Y-90567807D01*
X197527609Y-90437409D01*
X197638502Y-90326516D01*
X197768900Y-90239387D01*
X197913789Y-90179372D01*
X198067603Y-90148776D01*
X198224431Y-90148776D01*
X198378245Y-90179372D01*
G37*
G36*
X140232228Y-89734448D02*
G01*
X140377117Y-89794463D01*
X140507515Y-89881592D01*
X140618408Y-89992485D01*
X140705537Y-90122883D01*
X140765552Y-90267772D01*
X140796148Y-90421586D01*
X140796148Y-90578414D01*
X140765552Y-90732228D01*
X140705537Y-90877117D01*
X140618408Y-91007515D01*
X140507515Y-91118408D01*
X140377117Y-91205537D01*
X140232228Y-91265552D01*
X140078414Y-91296148D01*
X139921586Y-91296148D01*
X139767772Y-91265552D01*
X139622883Y-91205537D01*
X139492485Y-91118408D01*
X139381592Y-91007515D01*
X139294463Y-90877117D01*
X139234448Y-90732228D01*
X139203852Y-90578414D01*
X139203852Y-90421586D01*
X139234448Y-90267772D01*
X139294463Y-90122883D01*
X139381592Y-89992485D01*
X139492485Y-89881592D01*
X139622883Y-89794463D01*
X139767772Y-89734448D01*
X139921586Y-89703852D01*
X140078414Y-89703852D01*
X140232228Y-89734448D01*
G37*
G36*
X158232228Y-89234448D02*
G01*
X158377117Y-89294463D01*
X158507515Y-89381592D01*
X158618408Y-89492485D01*
X158705537Y-89622883D01*
X158765552Y-89767772D01*
X158796148Y-89921586D01*
X158796148Y-90078414D01*
X158765552Y-90232228D01*
X158705537Y-90377117D01*
X158618408Y-90507515D01*
X158507515Y-90618408D01*
X158377117Y-90705537D01*
X158232228Y-90765552D01*
X158078414Y-90796148D01*
X157921586Y-90796148D01*
X157767772Y-90765552D01*
X157622883Y-90705537D01*
X157492485Y-90618408D01*
X157381592Y-90507515D01*
X157294463Y-90377117D01*
X157234448Y-90232228D01*
X157203852Y-90078414D01*
X157203852Y-89921586D01*
X157234448Y-89767772D01*
X157294463Y-89622883D01*
X157381592Y-89492485D01*
X157492485Y-89381592D01*
X157622883Y-89294463D01*
X157767772Y-89234448D01*
X157921586Y-89203852D01*
X158078414Y-89203852D01*
X158232228Y-89234448D01*
G37*
G36*
X165852228Y-89234448D02*
G01*
X165997117Y-89294463D01*
X166127515Y-89381592D01*
X166238408Y-89492485D01*
X166325537Y-89622883D01*
X166385552Y-89767772D01*
X166416148Y-89921586D01*
X166416148Y-90078414D01*
X166385552Y-90232228D01*
X166325537Y-90377117D01*
X166238408Y-90507515D01*
X166127515Y-90618408D01*
X165997117Y-90705537D01*
X165852228Y-90765552D01*
X165698414Y-90796148D01*
X165541586Y-90796148D01*
X165387772Y-90765552D01*
X165242883Y-90705537D01*
X165112485Y-90618408D01*
X165001592Y-90507515D01*
X164914463Y-90377117D01*
X164854448Y-90232228D01*
X164823852Y-90078414D01*
X164823852Y-89921586D01*
X164854448Y-89767772D01*
X164914463Y-89622883D01*
X165001592Y-89492485D01*
X165112485Y-89381592D01*
X165242883Y-89294463D01*
X165387772Y-89234448D01*
X165541586Y-89203852D01*
X165698414Y-89203852D01*
X165852228Y-89234448D01*
G37*
G36*
X172232228Y-89234448D02*
G01*
X172377117Y-89294463D01*
X172507515Y-89381592D01*
X172618408Y-89492485D01*
X172705537Y-89622883D01*
X172765552Y-89767772D01*
X172796148Y-89921586D01*
X172796148Y-90078414D01*
X172765552Y-90232228D01*
X172705537Y-90377117D01*
X172618408Y-90507515D01*
X172507515Y-90618408D01*
X172377117Y-90705537D01*
X172232228Y-90765552D01*
X172078414Y-90796148D01*
X171921586Y-90796148D01*
X171767772Y-90765552D01*
X171622883Y-90705537D01*
X171492485Y-90618408D01*
X171381592Y-90507515D01*
X171294463Y-90377117D01*
X171234448Y-90232228D01*
X171203852Y-90078414D01*
X171203852Y-89921586D01*
X171234448Y-89767772D01*
X171294463Y-89622883D01*
X171381592Y-89492485D01*
X171492485Y-89381592D01*
X171622883Y-89294463D01*
X171767772Y-89234448D01*
X171921586Y-89203852D01*
X172078414Y-89203852D01*
X172232228Y-89234448D01*
G37*
G36*
X179852228Y-89234448D02*
G01*
X179997117Y-89294463D01*
X180127515Y-89381592D01*
X180238408Y-89492485D01*
X180325537Y-89622883D01*
X180385552Y-89767772D01*
X180416148Y-89921586D01*
X180416148Y-90078414D01*
X180385552Y-90232228D01*
X180325537Y-90377117D01*
X180238408Y-90507515D01*
X180127515Y-90618408D01*
X179997117Y-90705537D01*
X179852228Y-90765552D01*
X179698414Y-90796148D01*
X179541586Y-90796148D01*
X179387772Y-90765552D01*
X179242883Y-90705537D01*
X179112485Y-90618408D01*
X179001592Y-90507515D01*
X178914463Y-90377117D01*
X178854448Y-90232228D01*
X178823852Y-90078414D01*
X178823852Y-89921586D01*
X178854448Y-89767772D01*
X178914463Y-89622883D01*
X179001592Y-89492485D01*
X179112485Y-89381592D01*
X179242883Y-89294463D01*
X179387772Y-89234448D01*
X179541586Y-89203852D01*
X179698414Y-89203852D01*
X179852228Y-89234448D01*
G37*
G36*
X152674850Y-87700964D02*
G01*
X152725040Y-87706787D01*
X152742189Y-87714359D01*
X152765671Y-87719030D01*
X152790810Y-87735827D01*
X152810696Y-87744608D01*
X152824277Y-87758189D01*
X152846777Y-87773223D01*
X152861810Y-87795722D01*
X152875391Y-87809303D01*
X152884170Y-87829186D01*
X152900970Y-87854329D01*
X152905641Y-87877812D01*
X152913212Y-87894959D01*
X152919033Y-87945139D01*
X152920000Y-87950000D01*
X152920000Y-89050000D01*
X152919032Y-89054863D01*
X152913212Y-89105040D01*
X152905641Y-89122185D01*
X152900970Y-89145671D01*
X152884169Y-89170815D01*
X152875391Y-89190696D01*
X152861812Y-89204274D01*
X152846777Y-89226777D01*
X152824274Y-89241812D01*
X152810696Y-89255391D01*
X152790815Y-89264169D01*
X152765671Y-89280970D01*
X152742185Y-89285641D01*
X152725040Y-89293212D01*
X152674861Y-89299032D01*
X152670000Y-89300000D01*
X151570000Y-89300000D01*
X151565138Y-89299032D01*
X151514959Y-89293212D01*
X151497812Y-89285641D01*
X151474329Y-89280970D01*
X151449186Y-89264170D01*
X151429303Y-89255391D01*
X151415722Y-89241810D01*
X151393223Y-89226777D01*
X151378189Y-89204277D01*
X151364608Y-89190696D01*
X151355827Y-89170810D01*
X151339030Y-89145671D01*
X151334359Y-89122189D01*
X151326787Y-89105040D01*
X151320964Y-89054849D01*
X151320000Y-89050000D01*
X151320000Y-87950000D01*
X151320964Y-87945150D01*
X151326787Y-87894959D01*
X151334359Y-87877808D01*
X151339030Y-87854329D01*
X151355826Y-87829191D01*
X151364608Y-87809303D01*
X151378191Y-87795719D01*
X151393223Y-87773223D01*
X151415719Y-87758191D01*
X151429303Y-87744608D01*
X151449191Y-87735826D01*
X151474329Y-87719030D01*
X151497808Y-87714359D01*
X151514959Y-87706787D01*
X151565151Y-87700964D01*
X151570000Y-87700000D01*
X152670000Y-87700000D01*
X152674850Y-87700964D01*
G37*
G36*
X125732228Y-87734448D02*
G01*
X125877117Y-87794463D01*
X126007515Y-87881592D01*
X126118408Y-87992485D01*
X126205537Y-88122883D01*
X126265552Y-88267772D01*
X126296148Y-88421586D01*
X126296148Y-88578414D01*
X126265552Y-88732228D01*
X126205537Y-88877117D01*
X126118408Y-89007515D01*
X126007515Y-89118408D01*
X125877117Y-89205537D01*
X125732228Y-89265552D01*
X125578414Y-89296148D01*
X125421586Y-89296148D01*
X125267772Y-89265552D01*
X125122883Y-89205537D01*
X124992485Y-89118408D01*
X124881592Y-89007515D01*
X124794463Y-88877117D01*
X124734448Y-88732228D01*
X124703852Y-88578414D01*
X124703852Y-88421586D01*
X124734448Y-88267772D01*
X124794463Y-88122883D01*
X124881592Y-87992485D01*
X124992485Y-87881592D01*
X125122883Y-87794463D01*
X125267772Y-87734448D01*
X125421586Y-87703852D01*
X125578414Y-87703852D01*
X125732228Y-87734448D01*
G37*
G36*
X133352228Y-87734448D02*
G01*
X133497117Y-87794463D01*
X133627515Y-87881592D01*
X133738408Y-87992485D01*
X133825537Y-88122883D01*
X133885552Y-88267772D01*
X133916148Y-88421586D01*
X133916148Y-88578414D01*
X133885552Y-88732228D01*
X133825537Y-88877117D01*
X133738408Y-89007515D01*
X133627515Y-89118408D01*
X133497117Y-89205537D01*
X133352228Y-89265552D01*
X133198414Y-89296148D01*
X133041586Y-89296148D01*
X132887772Y-89265552D01*
X132742883Y-89205537D01*
X132612485Y-89118408D01*
X132501592Y-89007515D01*
X132414463Y-88877117D01*
X132354448Y-88732228D01*
X132323852Y-88578414D01*
X132323852Y-88421586D01*
X132354448Y-88267772D01*
X132414463Y-88122883D01*
X132501592Y-87992485D01*
X132612485Y-87881592D01*
X132742883Y-87794463D01*
X132887772Y-87734448D01*
X133041586Y-87703852D01*
X133198414Y-87703852D01*
X133352228Y-87734448D01*
G37*
G36*
X144732228Y-87734448D02*
G01*
X144877117Y-87794463D01*
X145007515Y-87881592D01*
X145118408Y-87992485D01*
X145205537Y-88122883D01*
X145265552Y-88267772D01*
X145296148Y-88421586D01*
X145296148Y-88578414D01*
X145265552Y-88732228D01*
X145205537Y-88877117D01*
X145118408Y-89007515D01*
X145007515Y-89118408D01*
X144877117Y-89205537D01*
X144732228Y-89265552D01*
X144578414Y-89296148D01*
X144421586Y-89296148D01*
X144267772Y-89265552D01*
X144122883Y-89205537D01*
X143992485Y-89118408D01*
X143881592Y-89007515D01*
X143794463Y-88877117D01*
X143734448Y-88732228D01*
X143703852Y-88578414D01*
X143703852Y-88421586D01*
X143734448Y-88267772D01*
X143794463Y-88122883D01*
X143881592Y-87992485D01*
X143992485Y-87881592D01*
X144122883Y-87794463D01*
X144267772Y-87734448D01*
X144421586Y-87703852D01*
X144578414Y-87703852D01*
X144732228Y-87734448D01*
G37*
G36*
X187862868Y-87164271D02*
G01*
X188007757Y-87224286D01*
X188138155Y-87311415D01*
X188249048Y-87422308D01*
X188336177Y-87552706D01*
X188396192Y-87697595D01*
X188426788Y-87851409D01*
X188426788Y-88008237D01*
X188396192Y-88162051D01*
X188336177Y-88306940D01*
X188249048Y-88437338D01*
X188138155Y-88548231D01*
X188007757Y-88635360D01*
X187862868Y-88695375D01*
X187709054Y-88725971D01*
X187552226Y-88725971D01*
X187398412Y-88695375D01*
X187253523Y-88635360D01*
X187123125Y-88548231D01*
X187012232Y-88437338D01*
X186925103Y-88306940D01*
X186865088Y-88162051D01*
X186834492Y-88008237D01*
X186834492Y-87851409D01*
X186865088Y-87697595D01*
X186925103Y-87552706D01*
X187012232Y-87422308D01*
X187123125Y-87311415D01*
X187253523Y-87224286D01*
X187398412Y-87164271D01*
X187552226Y-87133675D01*
X187709054Y-87133675D01*
X187862868Y-87164271D01*
G37*
G36*
X184965612Y-88626768D02*
G01*
X183615612Y-88626768D01*
X183615612Y-87276768D01*
X184965612Y-87276768D01*
X184965612Y-88626768D01*
G37*
G36*
X119232228Y-87044448D02*
G01*
X119377117Y-87104463D01*
X119507515Y-87191592D01*
X119618408Y-87302485D01*
X119705537Y-87432883D01*
X119765552Y-87577772D01*
X119796148Y-87731586D01*
X119796148Y-87888414D01*
X119765552Y-88042228D01*
X119705537Y-88187117D01*
X119618408Y-88317515D01*
X119507515Y-88428408D01*
X119377117Y-88515537D01*
X119232228Y-88575552D01*
X119078414Y-88606148D01*
X118921586Y-88606148D01*
X118767772Y-88575552D01*
X118622883Y-88515537D01*
X118492485Y-88428408D01*
X118381592Y-88317515D01*
X118294463Y-88187117D01*
X118234448Y-88042228D01*
X118203852Y-87888414D01*
X118203852Y-87731586D01*
X118234448Y-87577772D01*
X118294463Y-87432883D01*
X118381592Y-87302485D01*
X118492485Y-87191592D01*
X118622883Y-87104463D01*
X118767772Y-87044448D01*
X118921586Y-87013852D01*
X119078414Y-87013852D01*
X119232228Y-87044448D01*
G37*
G36*
X215232228Y-86734448D02*
G01*
X215377117Y-86794463D01*
X215507515Y-86881592D01*
X215618408Y-86992485D01*
X215705537Y-87122883D01*
X215765552Y-87267772D01*
X215796148Y-87421586D01*
X215796148Y-87578414D01*
X215765552Y-87732228D01*
X215705537Y-87877117D01*
X215618408Y-88007515D01*
X215507515Y-88118408D01*
X215377117Y-88205537D01*
X215232228Y-88265552D01*
X215078414Y-88296148D01*
X214921586Y-88296148D01*
X214767772Y-88265552D01*
X214622883Y-88205537D01*
X214492485Y-88118408D01*
X214381592Y-88007515D01*
X214294463Y-87877117D01*
X214234448Y-87732228D01*
X214203852Y-87578414D01*
X214203852Y-87421586D01*
X214234448Y-87267772D01*
X214294463Y-87122883D01*
X214381592Y-86992485D01*
X214492485Y-86881592D01*
X214622883Y-86794463D01*
X214767772Y-86734448D01*
X214921586Y-86703852D01*
X215078414Y-86703852D01*
X215232228Y-86734448D01*
G37*
G36*
X212232228Y-86614448D02*
G01*
X212377117Y-86674463D01*
X212507515Y-86761592D01*
X212618408Y-86872485D01*
X212705537Y-87002883D01*
X212765552Y-87147772D01*
X212796148Y-87301586D01*
X212796148Y-87458414D01*
X212765552Y-87612228D01*
X212705537Y-87757117D01*
X212618408Y-87887515D01*
X212507515Y-87998408D01*
X212377117Y-88085537D01*
X212232228Y-88145552D01*
X212078414Y-88176148D01*
X211921586Y-88176148D01*
X211767772Y-88145552D01*
X211622883Y-88085537D01*
X211492485Y-87998408D01*
X211381592Y-87887515D01*
X211294463Y-87757117D01*
X211234448Y-87612228D01*
X211203852Y-87458414D01*
X211203852Y-87301586D01*
X211234448Y-87147772D01*
X211294463Y-87002883D01*
X211381592Y-86872485D01*
X211492485Y-86761592D01*
X211622883Y-86674463D01*
X211767772Y-86614448D01*
X211921586Y-86583852D01*
X212078414Y-86583852D01*
X212232228Y-86614448D01*
G37*
G36*
X201732228Y-85734448D02*
G01*
X201877117Y-85794463D01*
X202007515Y-85881592D01*
X202118408Y-85992485D01*
X202205537Y-86122883D01*
X202265552Y-86267772D01*
X202296148Y-86421586D01*
X202296148Y-86578414D01*
X202265552Y-86732228D01*
X202205537Y-86877117D01*
X202118408Y-87007515D01*
X202007515Y-87118408D01*
X201877117Y-87205537D01*
X201732228Y-87265552D01*
X201578414Y-87296148D01*
X201421586Y-87296148D01*
X201267772Y-87265552D01*
X201122883Y-87205537D01*
X200992485Y-87118408D01*
X200881592Y-87007515D01*
X200794463Y-86877117D01*
X200734448Y-86732228D01*
X200703852Y-86578414D01*
X200703852Y-86421586D01*
X200734448Y-86267772D01*
X200794463Y-86122883D01*
X200881592Y-85992485D01*
X200992485Y-85881592D01*
X201122883Y-85794463D01*
X201267772Y-85734448D01*
X201421586Y-85703852D01*
X201578414Y-85703852D01*
X201732228Y-85734448D01*
G37*
G36*
X205232228Y-85734448D02*
G01*
X205377117Y-85794463D01*
X205507515Y-85881592D01*
X205618408Y-85992485D01*
X205705537Y-86122883D01*
X205765552Y-86267772D01*
X205796148Y-86421586D01*
X205796148Y-86578414D01*
X205765552Y-86732228D01*
X205705537Y-86877117D01*
X205618408Y-87007515D01*
X205507515Y-87118408D01*
X205377117Y-87205537D01*
X205232228Y-87265552D01*
X205078414Y-87296148D01*
X204921586Y-87296148D01*
X204767772Y-87265552D01*
X204622883Y-87205537D01*
X204492485Y-87118408D01*
X204381592Y-87007515D01*
X204294463Y-86877117D01*
X204234448Y-86732228D01*
X204203852Y-86578414D01*
X204203852Y-86421586D01*
X204234448Y-86267772D01*
X204294463Y-86122883D01*
X204381592Y-85992485D01*
X204492485Y-85881592D01*
X204622883Y-85794463D01*
X204767772Y-85734448D01*
X204921586Y-85703852D01*
X205078414Y-85703852D01*
X205232228Y-85734448D01*
G37*
G36*
X208732228Y-85734448D02*
G01*
X208877117Y-85794463D01*
X209007515Y-85881592D01*
X209118408Y-85992485D01*
X209205537Y-86122883D01*
X209265552Y-86267772D01*
X209296148Y-86421586D01*
X209296148Y-86578414D01*
X209265552Y-86732228D01*
X209205537Y-86877117D01*
X209118408Y-87007515D01*
X209007515Y-87118408D01*
X208877117Y-87205537D01*
X208732228Y-87265552D01*
X208578414Y-87296148D01*
X208421586Y-87296148D01*
X208267772Y-87265552D01*
X208122883Y-87205537D01*
X207992485Y-87118408D01*
X207881592Y-87007515D01*
X207794463Y-86877117D01*
X207734448Y-86732228D01*
X207703852Y-86578414D01*
X207703852Y-86421586D01*
X207734448Y-86267772D01*
X207794463Y-86122883D01*
X207881592Y-85992485D01*
X207992485Y-85881592D01*
X208122883Y-85794463D01*
X208267772Y-85734448D01*
X208421586Y-85703852D01*
X208578414Y-85703852D01*
X208732228Y-85734448D01*
G37*
G36*
X145037780Y-84845460D02*
G01*
X145087970Y-84851283D01*
X145105119Y-84858855D01*
X145128601Y-84863526D01*
X145153740Y-84880323D01*
X145173626Y-84889104D01*
X145187207Y-84902685D01*
X145209707Y-84917719D01*
X145224740Y-84940218D01*
X145238321Y-84953799D01*
X145247100Y-84973682D01*
X145263900Y-84998825D01*
X145268571Y-85022308D01*
X145276142Y-85039455D01*
X145281963Y-85089635D01*
X145282930Y-85094496D01*
X145282930Y-86194496D01*
X145281962Y-86199359D01*
X145276142Y-86249536D01*
X145268571Y-86266681D01*
X145263900Y-86290167D01*
X145247099Y-86315311D01*
X145238321Y-86335192D01*
X145224742Y-86348770D01*
X145209707Y-86371273D01*
X145187204Y-86386308D01*
X145173626Y-86399887D01*
X145153745Y-86408665D01*
X145128601Y-86425466D01*
X145105115Y-86430137D01*
X145087970Y-86437708D01*
X145037791Y-86443528D01*
X145032930Y-86444496D01*
X143932930Y-86444496D01*
X143928068Y-86443528D01*
X143877889Y-86437708D01*
X143860742Y-86430137D01*
X143837259Y-86425466D01*
X143812116Y-86408666D01*
X143792233Y-86399887D01*
X143778652Y-86386306D01*
X143756153Y-86371273D01*
X143741119Y-86348773D01*
X143727538Y-86335192D01*
X143718757Y-86315306D01*
X143701960Y-86290167D01*
X143697289Y-86266685D01*
X143689717Y-86249536D01*
X143683894Y-86199345D01*
X143682930Y-86194496D01*
X143682930Y-85094496D01*
X143683894Y-85089646D01*
X143689717Y-85039455D01*
X143697289Y-85022304D01*
X143701960Y-84998825D01*
X143718756Y-84973687D01*
X143727538Y-84953799D01*
X143741121Y-84940215D01*
X143756153Y-84917719D01*
X143778649Y-84902687D01*
X143792233Y-84889104D01*
X143812121Y-84880322D01*
X143837259Y-84863526D01*
X143860738Y-84858855D01*
X143877889Y-84851283D01*
X143928081Y-84845460D01*
X143932930Y-84844496D01*
X145032930Y-84844496D01*
X145037780Y-84845460D01*
G37*
G36*
X152335158Y-84878944D02*
G01*
X152480047Y-84938959D01*
X152610445Y-85026088D01*
X152721338Y-85136981D01*
X152808467Y-85267379D01*
X152868482Y-85412268D01*
X152899078Y-85566082D01*
X152899078Y-85722910D01*
X152868482Y-85876724D01*
X152808467Y-86021613D01*
X152721338Y-86152011D01*
X152610445Y-86262904D01*
X152480047Y-86350033D01*
X152335158Y-86410048D01*
X152181344Y-86440644D01*
X152024516Y-86440644D01*
X151870702Y-86410048D01*
X151725813Y-86350033D01*
X151595415Y-86262904D01*
X151484522Y-86152011D01*
X151397393Y-86021613D01*
X151337378Y-85876724D01*
X151306782Y-85722910D01*
X151306782Y-85566082D01*
X151337378Y-85412268D01*
X151397393Y-85267379D01*
X151484522Y-85136981D01*
X151595415Y-85026088D01*
X151725813Y-84938959D01*
X151870702Y-84878944D01*
X152024516Y-84848348D01*
X152181344Y-84848348D01*
X152335158Y-84878944D01*
G37*
G36*
X140232228Y-84734448D02*
G01*
X140377117Y-84794463D01*
X140507515Y-84881592D01*
X140618408Y-84992485D01*
X140705537Y-85122883D01*
X140765552Y-85267772D01*
X140796148Y-85421586D01*
X140796148Y-85578414D01*
X140765552Y-85732228D01*
X140705537Y-85877117D01*
X140618408Y-86007515D01*
X140507515Y-86118408D01*
X140377117Y-86205537D01*
X140232228Y-86265552D01*
X140078414Y-86296148D01*
X139921586Y-86296148D01*
X139767772Y-86265552D01*
X139622883Y-86205537D01*
X139492485Y-86118408D01*
X139381592Y-86007515D01*
X139294463Y-85877117D01*
X139234448Y-85732228D01*
X139203852Y-85578414D01*
X139203852Y-85421586D01*
X139234448Y-85267772D01*
X139294463Y-85122883D01*
X139381592Y-84992485D01*
X139492485Y-84881592D01*
X139622883Y-84794463D01*
X139767772Y-84734448D01*
X139921586Y-84703852D01*
X140078414Y-84703852D01*
X140232228Y-84734448D01*
G37*
G36*
X155232228Y-84734448D02*
G01*
X155377117Y-84794463D01*
X155507515Y-84881592D01*
X155618408Y-84992485D01*
X155705537Y-85122883D01*
X155765552Y-85267772D01*
X155796148Y-85421586D01*
X155796148Y-85578414D01*
X155765552Y-85732228D01*
X155705537Y-85877117D01*
X155618408Y-86007515D01*
X155507515Y-86118408D01*
X155377117Y-86205537D01*
X155232228Y-86265552D01*
X155078414Y-86296148D01*
X154921586Y-86296148D01*
X154767772Y-86265552D01*
X154622883Y-86205537D01*
X154492485Y-86118408D01*
X154381592Y-86007515D01*
X154294463Y-85877117D01*
X154234448Y-85732228D01*
X154203852Y-85578414D01*
X154203852Y-85421586D01*
X154234448Y-85267772D01*
X154294463Y-85122883D01*
X154381592Y-84992485D01*
X154492485Y-84881592D01*
X154622883Y-84794463D01*
X154767772Y-84734448D01*
X154921586Y-84703852D01*
X155078414Y-84703852D01*
X155232228Y-84734448D01*
G37*
G36*
X160232228Y-84734448D02*
G01*
X160377117Y-84794463D01*
X160507515Y-84881592D01*
X160618408Y-84992485D01*
X160705537Y-85122883D01*
X160765552Y-85267772D01*
X160796148Y-85421586D01*
X160796148Y-85578414D01*
X160765552Y-85732228D01*
X160705537Y-85877117D01*
X160618408Y-86007515D01*
X160507515Y-86118408D01*
X160377117Y-86205537D01*
X160232228Y-86265552D01*
X160078414Y-86296148D01*
X159921586Y-86296148D01*
X159767772Y-86265552D01*
X159622883Y-86205537D01*
X159492485Y-86118408D01*
X159381592Y-86007515D01*
X159294463Y-85877117D01*
X159234448Y-85732228D01*
X159203852Y-85578414D01*
X159203852Y-85421586D01*
X159234448Y-85267772D01*
X159294463Y-85122883D01*
X159381592Y-84992485D01*
X159492485Y-84881592D01*
X159622883Y-84794463D01*
X159767772Y-84734448D01*
X159921586Y-84703852D01*
X160078414Y-84703852D01*
X160232228Y-84734448D01*
G37*
G36*
X189236952Y-84217832D02*
G01*
X189381841Y-84277847D01*
X189512239Y-84364976D01*
X189623132Y-84475869D01*
X189710261Y-84606267D01*
X189770276Y-84751156D01*
X189800872Y-84904970D01*
X189800872Y-85061798D01*
X189770276Y-85215612D01*
X189710261Y-85360501D01*
X189623132Y-85490899D01*
X189512239Y-85601792D01*
X189381841Y-85688921D01*
X189236952Y-85748936D01*
X189083138Y-85779532D01*
X188926310Y-85779532D01*
X188772496Y-85748936D01*
X188627607Y-85688921D01*
X188497209Y-85601792D01*
X188386316Y-85490899D01*
X188299187Y-85360501D01*
X188239172Y-85215612D01*
X188208576Y-85061798D01*
X188208576Y-84904970D01*
X188239172Y-84751156D01*
X188299187Y-84606267D01*
X188386316Y-84475869D01*
X188497209Y-84364976D01*
X188627607Y-84277847D01*
X188772496Y-84217832D01*
X188926310Y-84187236D01*
X189083138Y-84187236D01*
X189236952Y-84217832D01*
G37*
G36*
X196856952Y-84217832D02*
G01*
X197001841Y-84277847D01*
X197132239Y-84364976D01*
X197243132Y-84475869D01*
X197330261Y-84606267D01*
X197390276Y-84751156D01*
X197420872Y-84904970D01*
X197420872Y-85061798D01*
X197390276Y-85215612D01*
X197330261Y-85360501D01*
X197243132Y-85490899D01*
X197132239Y-85601792D01*
X197001841Y-85688921D01*
X196856952Y-85748936D01*
X196703138Y-85779532D01*
X196546310Y-85779532D01*
X196392496Y-85748936D01*
X196247607Y-85688921D01*
X196117209Y-85601792D01*
X196006316Y-85490899D01*
X195919187Y-85360501D01*
X195859172Y-85215612D01*
X195828576Y-85061798D01*
X195828576Y-84904970D01*
X195859172Y-84751156D01*
X195919187Y-84606267D01*
X196006316Y-84475869D01*
X196117209Y-84364976D01*
X196247607Y-84277847D01*
X196392496Y-84217832D01*
X196546310Y-84187236D01*
X196703138Y-84187236D01*
X196856952Y-84217832D01*
G37*
G36*
X174022840Y-84186216D02*
G01*
X174167729Y-84246231D01*
X174298127Y-84333360D01*
X174409020Y-84444253D01*
X174496149Y-84574651D01*
X174556164Y-84719540D01*
X174586760Y-84873354D01*
X174586760Y-85030182D01*
X174556164Y-85183996D01*
X174496149Y-85328885D01*
X174409020Y-85459283D01*
X174298127Y-85570176D01*
X174167729Y-85657305D01*
X174022840Y-85717320D01*
X173869026Y-85747916D01*
X173712198Y-85747916D01*
X173558384Y-85717320D01*
X173413495Y-85657305D01*
X173283097Y-85570176D01*
X173172204Y-85459283D01*
X173085075Y-85328885D01*
X173025060Y-85183996D01*
X172994464Y-85030182D01*
X172994464Y-84873354D01*
X173025060Y-84719540D01*
X173085075Y-84574651D01*
X173172204Y-84444253D01*
X173283097Y-84333360D01*
X173413495Y-84246231D01*
X173558384Y-84186216D01*
X173712198Y-84155620D01*
X173869026Y-84155620D01*
X174022840Y-84186216D01*
G37*
G36*
X181642840Y-84186216D02*
G01*
X181787729Y-84246231D01*
X181918127Y-84333360D01*
X182029020Y-84444253D01*
X182116149Y-84574651D01*
X182176164Y-84719540D01*
X182206760Y-84873354D01*
X182206760Y-85030182D01*
X182176164Y-85183996D01*
X182116149Y-85328885D01*
X182029020Y-85459283D01*
X181918127Y-85570176D01*
X181787729Y-85657305D01*
X181642840Y-85717320D01*
X181489026Y-85747916D01*
X181332198Y-85747916D01*
X181178384Y-85717320D01*
X181033495Y-85657305D01*
X180903097Y-85570176D01*
X180792204Y-85459283D01*
X180705075Y-85328885D01*
X180645060Y-85183996D01*
X180614464Y-85030182D01*
X180614464Y-84873354D01*
X180645060Y-84719540D01*
X180705075Y-84574651D01*
X180792204Y-84444253D01*
X180903097Y-84333360D01*
X181033495Y-84246231D01*
X181178384Y-84186216D01*
X181332198Y-84155620D01*
X181489026Y-84155620D01*
X181642840Y-84186216D01*
G37*
G36*
X133675000Y-85675000D02*
G01*
X132325000Y-85675000D01*
X132325000Y-84325000D01*
X133675000Y-84325000D01*
X133675000Y-85675000D01*
G37*
G36*
X166175000Y-85675000D02*
G01*
X164825000Y-85675000D01*
X164825000Y-84325000D01*
X166175000Y-84325000D01*
X166175000Y-85675000D01*
G37*
G36*
X169465612Y-85626768D02*
G01*
X168115612Y-85626768D01*
X168115612Y-84276768D01*
X169465612Y-84276768D01*
X169465612Y-85626768D01*
G37*
G36*
X184965612Y-85626768D02*
G01*
X183615612Y-85626768D01*
X183615612Y-84276768D01*
X184965612Y-84276768D01*
X184965612Y-85626768D01*
G37*
G36*
X170986554Y-84305833D02*
G01*
X171108805Y-84356471D01*
X171218827Y-84429986D01*
X171312394Y-84523553D01*
X171385909Y-84633575D01*
X171436547Y-84755826D01*
X171462362Y-84885606D01*
X171462362Y-85017930D01*
X171436547Y-85147710D01*
X171385909Y-85269961D01*
X171312394Y-85379983D01*
X171218827Y-85473550D01*
X171108805Y-85547065D01*
X170986554Y-85597703D01*
X170856774Y-85623518D01*
X170724450Y-85623518D01*
X170594670Y-85597703D01*
X170472419Y-85547065D01*
X170362397Y-85473550D01*
X170268830Y-85379983D01*
X170195315Y-85269961D01*
X170144677Y-85147710D01*
X170118862Y-85017930D01*
X170118862Y-84885606D01*
X170144677Y-84755826D01*
X170195315Y-84633575D01*
X170268830Y-84523553D01*
X170362397Y-84429986D01*
X170472419Y-84356471D01*
X170594670Y-84305833D01*
X170724450Y-84280018D01*
X170856774Y-84280018D01*
X170986554Y-84305833D01*
G37*
G36*
X186486554Y-84305833D02*
G01*
X186608805Y-84356471D01*
X186718827Y-84429986D01*
X186812394Y-84523553D01*
X186885909Y-84633575D01*
X186936547Y-84755826D01*
X186962362Y-84885606D01*
X186962362Y-85017930D01*
X186936547Y-85147710D01*
X186885909Y-85269961D01*
X186812394Y-85379983D01*
X186718827Y-85473550D01*
X186608805Y-85547065D01*
X186486554Y-85597703D01*
X186356774Y-85623518D01*
X186224450Y-85623518D01*
X186094670Y-85597703D01*
X185972419Y-85547065D01*
X185862397Y-85473550D01*
X185768830Y-85379983D01*
X185695315Y-85269961D01*
X185644677Y-85147710D01*
X185618862Y-85017930D01*
X185618862Y-84885606D01*
X185644677Y-84755826D01*
X185695315Y-84633575D01*
X185768830Y-84523553D01*
X185862397Y-84429986D01*
X185972419Y-84356471D01*
X186094670Y-84305833D01*
X186224450Y-84280018D01*
X186356774Y-84280018D01*
X186486554Y-84305833D01*
G37*
G36*
X215708006Y-84877476D02*
G01*
X214358006Y-84877476D01*
X214358006Y-83527476D01*
X215708006Y-83527476D01*
X215708006Y-84877476D01*
G37*
G36*
X207200000Y-83200000D02*
G01*
X205850000Y-83200000D01*
X205850000Y-81850000D01*
X207200000Y-81850000D01*
X207200000Y-83200000D01*
G37*
G36*
X204041277Y-83160485D02*
G01*
X202691277Y-83160485D01*
X202691277Y-81810485D01*
X204041277Y-81810485D01*
X204041277Y-83160485D01*
G37*
G36*
X121402408Y-83125709D02*
G01*
X120052408Y-83125709D01*
X120052408Y-81775709D01*
X121402408Y-81775709D01*
X121402408Y-83125709D01*
G37*
G36*
X118250429Y-83123618D02*
G01*
X116900429Y-83123618D01*
X116900429Y-81773618D01*
X118250429Y-81773618D01*
X118250429Y-83123618D01*
G37*
M02*
