%TF.GenerationSoftware,KiCad,Pcbnew,10.0.3*%
%TF.CreationDate,2026-06-07T17:20:11-07:00*%
%TF.ProjectId,Lovers Rock,4c6f7665-7273-4205-926f-636b2e6b6963,rev?*%
%TF.SameCoordinates,Original*%
%TF.FileFunction,Legend,Top*%
%TF.FilePolarity,Positive*%
%FSLAX46Y46*%
G04 Gerber Fmt 4.6, Leading zero omitted, Abs format (unit mm)*
G04 Created by KiCad (PCBNEW 10.0.3) date 2026-06-07 17:20:11*
%MOMM*%
%LPD*%
G01*
G04 APERTURE LIST*
%ADD10C,0.150000*%
%ADD11C,0.300000*%
%ADD12C,0.120000*%
G04 APERTURE END LIST*
D10*
X170712256Y-116814148D02*
X170759875Y-116671291D01*
X170759875Y-116671291D02*
X170759875Y-116433196D01*
X170759875Y-116433196D02*
X170712256Y-116337958D01*
X170712256Y-116337958D02*
X170664636Y-116290339D01*
X170664636Y-116290339D02*
X170569398Y-116242720D01*
X170569398Y-116242720D02*
X170474160Y-116242720D01*
X170474160Y-116242720D02*
X170378922Y-116290339D01*
X170378922Y-116290339D02*
X170331303Y-116337958D01*
X170331303Y-116337958D02*
X170283684Y-116433196D01*
X170283684Y-116433196D02*
X170236065Y-116623672D01*
X170236065Y-116623672D02*
X170188446Y-116718910D01*
X170188446Y-116718910D02*
X170140827Y-116766529D01*
X170140827Y-116766529D02*
X170045589Y-116814148D01*
X170045589Y-116814148D02*
X169950351Y-116814148D01*
X169950351Y-116814148D02*
X169855113Y-116766529D01*
X169855113Y-116766529D02*
X169807494Y-116718910D01*
X169807494Y-116718910D02*
X169759875Y-116623672D01*
X169759875Y-116623672D02*
X169759875Y-116385577D01*
X169759875Y-116385577D02*
X169807494Y-116242720D01*
X169855113Y-115861767D02*
X169807494Y-115814148D01*
X169807494Y-115814148D02*
X169759875Y-115718910D01*
X169759875Y-115718910D02*
X169759875Y-115480815D01*
X169759875Y-115480815D02*
X169807494Y-115385577D01*
X169807494Y-115385577D02*
X169855113Y-115337958D01*
X169855113Y-115337958D02*
X169950351Y-115290339D01*
X169950351Y-115290339D02*
X170045589Y-115290339D01*
X170045589Y-115290339D02*
X170188446Y-115337958D01*
X170188446Y-115337958D02*
X170759875Y-115909386D01*
X170759875Y-115909386D02*
X170759875Y-115290339D01*
X170759875Y-114099862D02*
X169759875Y-114099862D01*
X169759875Y-114099862D02*
X169759875Y-113718910D01*
X169759875Y-113718910D02*
X169807494Y-113623672D01*
X169807494Y-113623672D02*
X169855113Y-113576053D01*
X169855113Y-113576053D02*
X169950351Y-113528434D01*
X169950351Y-113528434D02*
X170093208Y-113528434D01*
X170093208Y-113528434D02*
X170188446Y-113576053D01*
X170188446Y-113576053D02*
X170236065Y-113623672D01*
X170236065Y-113623672D02*
X170283684Y-113718910D01*
X170283684Y-113718910D02*
X170283684Y-114099862D01*
X170664636Y-112528434D02*
X170712256Y-112576053D01*
X170712256Y-112576053D02*
X170759875Y-112718910D01*
X170759875Y-112718910D02*
X170759875Y-112814148D01*
X170759875Y-112814148D02*
X170712256Y-112957005D01*
X170712256Y-112957005D02*
X170617017Y-113052243D01*
X170617017Y-113052243D02*
X170521779Y-113099862D01*
X170521779Y-113099862D02*
X170331303Y-113147481D01*
X170331303Y-113147481D02*
X170188446Y-113147481D01*
X170188446Y-113147481D02*
X169997970Y-113099862D01*
X169997970Y-113099862D02*
X169902732Y-113052243D01*
X169902732Y-113052243D02*
X169807494Y-112957005D01*
X169807494Y-112957005D02*
X169759875Y-112814148D01*
X169759875Y-112814148D02*
X169759875Y-112718910D01*
X169759875Y-112718910D02*
X169807494Y-112576053D01*
X169807494Y-112576053D02*
X169855113Y-112528434D01*
X170236065Y-111766529D02*
X170283684Y-111623672D01*
X170283684Y-111623672D02*
X170331303Y-111576053D01*
X170331303Y-111576053D02*
X170426541Y-111528434D01*
X170426541Y-111528434D02*
X170569398Y-111528434D01*
X170569398Y-111528434D02*
X170664636Y-111576053D01*
X170664636Y-111576053D02*
X170712256Y-111623672D01*
X170712256Y-111623672D02*
X170759875Y-111718910D01*
X170759875Y-111718910D02*
X170759875Y-112099862D01*
X170759875Y-112099862D02*
X169759875Y-112099862D01*
X169759875Y-112099862D02*
X169759875Y-111766529D01*
X169759875Y-111766529D02*
X169807494Y-111671291D01*
X169807494Y-111671291D02*
X169855113Y-111623672D01*
X169855113Y-111623672D02*
X169950351Y-111576053D01*
X169950351Y-111576053D02*
X170045589Y-111576053D01*
X170045589Y-111576053D02*
X170140827Y-111623672D01*
X170140827Y-111623672D02*
X170188446Y-111671291D01*
X170188446Y-111671291D02*
X170236065Y-111766529D01*
X170236065Y-111766529D02*
X170236065Y-112099862D01*
X172369819Y-116766529D02*
X171369819Y-116766529D01*
X171703152Y-116290339D02*
X172369819Y-116290339D01*
X171798390Y-116290339D02*
X171750771Y-116242720D01*
X171750771Y-116242720D02*
X171703152Y-116147482D01*
X171703152Y-116147482D02*
X171703152Y-116004625D01*
X171703152Y-116004625D02*
X171750771Y-115909387D01*
X171750771Y-115909387D02*
X171846009Y-115861768D01*
X171846009Y-115861768D02*
X172369819Y-115861768D01*
X164269454Y-121017867D02*
X164412311Y-121065486D01*
X164412311Y-121065486D02*
X164650406Y-121065486D01*
X164650406Y-121065486D02*
X164745644Y-121017867D01*
X164745644Y-121017867D02*
X164793263Y-120970247D01*
X164793263Y-120970247D02*
X164840882Y-120875009D01*
X164840882Y-120875009D02*
X164840882Y-120779771D01*
X164840882Y-120779771D02*
X164793263Y-120684533D01*
X164793263Y-120684533D02*
X164745644Y-120636914D01*
X164745644Y-120636914D02*
X164650406Y-120589295D01*
X164650406Y-120589295D02*
X164459930Y-120541676D01*
X164459930Y-120541676D02*
X164364692Y-120494057D01*
X164364692Y-120494057D02*
X164317073Y-120446438D01*
X164317073Y-120446438D02*
X164269454Y-120351200D01*
X164269454Y-120351200D02*
X164269454Y-120255962D01*
X164269454Y-120255962D02*
X164317073Y-120160724D01*
X164317073Y-120160724D02*
X164364692Y-120113105D01*
X164364692Y-120113105D02*
X164459930Y-120065486D01*
X164459930Y-120065486D02*
X164698025Y-120065486D01*
X164698025Y-120065486D02*
X164840882Y-120113105D01*
X165793263Y-121065486D02*
X165221835Y-121065486D01*
X165507549Y-121065486D02*
X165507549Y-120065486D01*
X165507549Y-120065486D02*
X165412311Y-120208343D01*
X165412311Y-120208343D02*
X165317073Y-120303581D01*
X165317073Y-120303581D02*
X165221835Y-120351200D01*
X164317073Y-122675430D02*
X164317073Y-121675430D01*
X164317073Y-121675430D02*
X164698025Y-121675430D01*
X164698025Y-121675430D02*
X164793263Y-121723049D01*
X164793263Y-121723049D02*
X164840882Y-121770668D01*
X164840882Y-121770668D02*
X164888501Y-121865906D01*
X164888501Y-121865906D02*
X164888501Y-122008763D01*
X164888501Y-122008763D02*
X164840882Y-122104001D01*
X164840882Y-122104001D02*
X164793263Y-122151620D01*
X164793263Y-122151620D02*
X164698025Y-122199239D01*
X164698025Y-122199239D02*
X164317073Y-122199239D01*
X165888501Y-122580191D02*
X165840882Y-122627811D01*
X165840882Y-122627811D02*
X165698025Y-122675430D01*
X165698025Y-122675430D02*
X165602787Y-122675430D01*
X165602787Y-122675430D02*
X165459930Y-122627811D01*
X165459930Y-122627811D02*
X165364692Y-122532572D01*
X165364692Y-122532572D02*
X165317073Y-122437334D01*
X165317073Y-122437334D02*
X165269454Y-122246858D01*
X165269454Y-122246858D02*
X165269454Y-122104001D01*
X165269454Y-122104001D02*
X165317073Y-121913525D01*
X165317073Y-121913525D02*
X165364692Y-121818287D01*
X165364692Y-121818287D02*
X165459930Y-121723049D01*
X165459930Y-121723049D02*
X165602787Y-121675430D01*
X165602787Y-121675430D02*
X165698025Y-121675430D01*
X165698025Y-121675430D02*
X165840882Y-121723049D01*
X165840882Y-121723049D02*
X165888501Y-121770668D01*
X166650406Y-122151620D02*
X166793263Y-122199239D01*
X166793263Y-122199239D02*
X166840882Y-122246858D01*
X166840882Y-122246858D02*
X166888501Y-122342096D01*
X166888501Y-122342096D02*
X166888501Y-122484953D01*
X166888501Y-122484953D02*
X166840882Y-122580191D01*
X166840882Y-122580191D02*
X166793263Y-122627811D01*
X166793263Y-122627811D02*
X166698025Y-122675430D01*
X166698025Y-122675430D02*
X166317073Y-122675430D01*
X166317073Y-122675430D02*
X166317073Y-121675430D01*
X166317073Y-121675430D02*
X166650406Y-121675430D01*
X166650406Y-121675430D02*
X166745644Y-121723049D01*
X166745644Y-121723049D02*
X166793263Y-121770668D01*
X166793263Y-121770668D02*
X166840882Y-121865906D01*
X166840882Y-121865906D02*
X166840882Y-121961144D01*
X166840882Y-121961144D02*
X166793263Y-122056382D01*
X166793263Y-122056382D02*
X166745644Y-122104001D01*
X166745644Y-122104001D02*
X166650406Y-122151620D01*
X166650406Y-122151620D02*
X166317073Y-122151620D01*
X168269454Y-121675430D02*
X168459930Y-121675430D01*
X168459930Y-121675430D02*
X168555168Y-121723049D01*
X168555168Y-121723049D02*
X168650406Y-121818287D01*
X168650406Y-121818287D02*
X168698025Y-122008763D01*
X168698025Y-122008763D02*
X168698025Y-122342096D01*
X168698025Y-122342096D02*
X168650406Y-122532572D01*
X168650406Y-122532572D02*
X168555168Y-122627811D01*
X168555168Y-122627811D02*
X168459930Y-122675430D01*
X168459930Y-122675430D02*
X168269454Y-122675430D01*
X168269454Y-122675430D02*
X168174216Y-122627811D01*
X168174216Y-122627811D02*
X168078978Y-122532572D01*
X168078978Y-122532572D02*
X168031359Y-122342096D01*
X168031359Y-122342096D02*
X168031359Y-122008763D01*
X168031359Y-122008763D02*
X168078978Y-121818287D01*
X168078978Y-121818287D02*
X168174216Y-121723049D01*
X168174216Y-121723049D02*
X168269454Y-121675430D01*
X169555168Y-122008763D02*
X169555168Y-122675430D01*
X169126597Y-122008763D02*
X169126597Y-122532572D01*
X169126597Y-122532572D02*
X169174216Y-122627811D01*
X169174216Y-122627811D02*
X169269454Y-122675430D01*
X169269454Y-122675430D02*
X169412311Y-122675430D01*
X169412311Y-122675430D02*
X169507549Y-122627811D01*
X169507549Y-122627811D02*
X169555168Y-122580191D01*
X169888502Y-122008763D02*
X170269454Y-122008763D01*
X170031359Y-121675430D02*
X170031359Y-122532572D01*
X170031359Y-122532572D02*
X170078978Y-122627811D01*
X170078978Y-122627811D02*
X170174216Y-122675430D01*
X170174216Y-122675430D02*
X170269454Y-122675430D01*
X198311591Y-116339238D02*
X197311591Y-116339238D01*
X197311591Y-116339238D02*
X197311591Y-116101143D01*
X197311591Y-116101143D02*
X197359210Y-115958286D01*
X197359210Y-115958286D02*
X197454448Y-115863048D01*
X197454448Y-115863048D02*
X197549686Y-115815429D01*
X197549686Y-115815429D02*
X197740162Y-115767810D01*
X197740162Y-115767810D02*
X197883019Y-115767810D01*
X197883019Y-115767810D02*
X198073495Y-115815429D01*
X198073495Y-115815429D02*
X198168733Y-115863048D01*
X198168733Y-115863048D02*
X198263972Y-115958286D01*
X198263972Y-115958286D02*
X198311591Y-116101143D01*
X198311591Y-116101143D02*
X198311591Y-116339238D01*
X198216352Y-114767810D02*
X198263972Y-114815429D01*
X198263972Y-114815429D02*
X198311591Y-114958286D01*
X198311591Y-114958286D02*
X198311591Y-115053524D01*
X198311591Y-115053524D02*
X198263972Y-115196381D01*
X198263972Y-115196381D02*
X198168733Y-115291619D01*
X198168733Y-115291619D02*
X198073495Y-115339238D01*
X198073495Y-115339238D02*
X197883019Y-115386857D01*
X197883019Y-115386857D02*
X197740162Y-115386857D01*
X197740162Y-115386857D02*
X197549686Y-115339238D01*
X197549686Y-115339238D02*
X197454448Y-115291619D01*
X197454448Y-115291619D02*
X197359210Y-115196381D01*
X197359210Y-115196381D02*
X197311591Y-115053524D01*
X197311591Y-115053524D02*
X197311591Y-114958286D01*
X197311591Y-114958286D02*
X197359210Y-114815429D01*
X197359210Y-114815429D02*
X197406829Y-114767810D01*
X197311591Y-113291619D02*
X198025876Y-113291619D01*
X198025876Y-113291619D02*
X198168733Y-113339238D01*
X198168733Y-113339238D02*
X198263972Y-113434476D01*
X198263972Y-113434476D02*
X198311591Y-113577333D01*
X198311591Y-113577333D02*
X198311591Y-113672571D01*
X198311591Y-112386857D02*
X197787781Y-112386857D01*
X197787781Y-112386857D02*
X197692543Y-112434476D01*
X197692543Y-112434476D02*
X197644924Y-112529714D01*
X197644924Y-112529714D02*
X197644924Y-112720190D01*
X197644924Y-112720190D02*
X197692543Y-112815428D01*
X198263972Y-112386857D02*
X198311591Y-112482095D01*
X198311591Y-112482095D02*
X198311591Y-112720190D01*
X198311591Y-112720190D02*
X198263972Y-112815428D01*
X198263972Y-112815428D02*
X198168733Y-112863047D01*
X198168733Y-112863047D02*
X198073495Y-112863047D01*
X198073495Y-112863047D02*
X197978257Y-112815428D01*
X197978257Y-112815428D02*
X197930638Y-112720190D01*
X197930638Y-112720190D02*
X197930638Y-112482095D01*
X197930638Y-112482095D02*
X197883019Y-112386857D01*
X198263972Y-111482095D02*
X198311591Y-111577333D01*
X198311591Y-111577333D02*
X198311591Y-111767809D01*
X198311591Y-111767809D02*
X198263972Y-111863047D01*
X198263972Y-111863047D02*
X198216352Y-111910666D01*
X198216352Y-111910666D02*
X198121114Y-111958285D01*
X198121114Y-111958285D02*
X197835400Y-111958285D01*
X197835400Y-111958285D02*
X197740162Y-111910666D01*
X197740162Y-111910666D02*
X197692543Y-111863047D01*
X197692543Y-111863047D02*
X197644924Y-111767809D01*
X197644924Y-111767809D02*
X197644924Y-111577333D01*
X197644924Y-111577333D02*
X197692543Y-111482095D01*
X198311591Y-111053523D02*
X197311591Y-111053523D01*
X197930638Y-110958285D02*
X198311591Y-110672571D01*
X197644924Y-110672571D02*
X198025876Y-111053523D01*
D11*
X178209678Y-118274689D02*
X177495392Y-118274689D01*
X177495392Y-118274689D02*
X177495392Y-116774689D01*
X178923964Y-118274689D02*
X178781107Y-118203261D01*
X178781107Y-118203261D02*
X178709678Y-118131832D01*
X178709678Y-118131832D02*
X178638250Y-117988975D01*
X178638250Y-117988975D02*
X178638250Y-117560403D01*
X178638250Y-117560403D02*
X178709678Y-117417546D01*
X178709678Y-117417546D02*
X178781107Y-117346118D01*
X178781107Y-117346118D02*
X178923964Y-117274689D01*
X178923964Y-117274689D02*
X179138250Y-117274689D01*
X179138250Y-117274689D02*
X179281107Y-117346118D01*
X179281107Y-117346118D02*
X179352536Y-117417546D01*
X179352536Y-117417546D02*
X179423964Y-117560403D01*
X179423964Y-117560403D02*
X179423964Y-117988975D01*
X179423964Y-117988975D02*
X179352536Y-118131832D01*
X179352536Y-118131832D02*
X179281107Y-118203261D01*
X179281107Y-118203261D02*
X179138250Y-118274689D01*
X179138250Y-118274689D02*
X178923964Y-118274689D01*
X179923964Y-117274689D02*
X180281107Y-118274689D01*
X180281107Y-118274689D02*
X180638250Y-117274689D01*
X181781107Y-118203261D02*
X181638250Y-118274689D01*
X181638250Y-118274689D02*
X181352536Y-118274689D01*
X181352536Y-118274689D02*
X181209678Y-118203261D01*
X181209678Y-118203261D02*
X181138250Y-118060403D01*
X181138250Y-118060403D02*
X181138250Y-117488975D01*
X181138250Y-117488975D02*
X181209678Y-117346118D01*
X181209678Y-117346118D02*
X181352536Y-117274689D01*
X181352536Y-117274689D02*
X181638250Y-117274689D01*
X181638250Y-117274689D02*
X181781107Y-117346118D01*
X181781107Y-117346118D02*
X181852536Y-117488975D01*
X181852536Y-117488975D02*
X181852536Y-117631832D01*
X181852536Y-117631832D02*
X181138250Y-117774689D01*
X182495392Y-118274689D02*
X182495392Y-117274689D01*
X182495392Y-117560403D02*
X182566821Y-117417546D01*
X182566821Y-117417546D02*
X182638250Y-117346118D01*
X182638250Y-117346118D02*
X182781107Y-117274689D01*
X182781107Y-117274689D02*
X182923964Y-117274689D01*
X183352535Y-118203261D02*
X183495392Y-118274689D01*
X183495392Y-118274689D02*
X183781106Y-118274689D01*
X183781106Y-118274689D02*
X183923963Y-118203261D01*
X183923963Y-118203261D02*
X183995392Y-118060403D01*
X183995392Y-118060403D02*
X183995392Y-117988975D01*
X183995392Y-117988975D02*
X183923963Y-117846118D01*
X183923963Y-117846118D02*
X183781106Y-117774689D01*
X183781106Y-117774689D02*
X183566821Y-117774689D01*
X183566821Y-117774689D02*
X183423963Y-117703261D01*
X183423963Y-117703261D02*
X183352535Y-117560403D01*
X183352535Y-117560403D02*
X183352535Y-117488975D01*
X183352535Y-117488975D02*
X183423963Y-117346118D01*
X183423963Y-117346118D02*
X183566821Y-117274689D01*
X183566821Y-117274689D02*
X183781106Y-117274689D01*
X183781106Y-117274689D02*
X183923963Y-117346118D01*
X186638249Y-118274689D02*
X186138249Y-117560403D01*
X185781106Y-118274689D02*
X185781106Y-116774689D01*
X185781106Y-116774689D02*
X186352535Y-116774689D01*
X186352535Y-116774689D02*
X186495392Y-116846118D01*
X186495392Y-116846118D02*
X186566821Y-116917546D01*
X186566821Y-116917546D02*
X186638249Y-117060403D01*
X186638249Y-117060403D02*
X186638249Y-117274689D01*
X186638249Y-117274689D02*
X186566821Y-117417546D01*
X186566821Y-117417546D02*
X186495392Y-117488975D01*
X186495392Y-117488975D02*
X186352535Y-117560403D01*
X186352535Y-117560403D02*
X185781106Y-117560403D01*
X187495392Y-118274689D02*
X187352535Y-118203261D01*
X187352535Y-118203261D02*
X187281106Y-118131832D01*
X187281106Y-118131832D02*
X187209678Y-117988975D01*
X187209678Y-117988975D02*
X187209678Y-117560403D01*
X187209678Y-117560403D02*
X187281106Y-117417546D01*
X187281106Y-117417546D02*
X187352535Y-117346118D01*
X187352535Y-117346118D02*
X187495392Y-117274689D01*
X187495392Y-117274689D02*
X187709678Y-117274689D01*
X187709678Y-117274689D02*
X187852535Y-117346118D01*
X187852535Y-117346118D02*
X187923964Y-117417546D01*
X187923964Y-117417546D02*
X187995392Y-117560403D01*
X187995392Y-117560403D02*
X187995392Y-117988975D01*
X187995392Y-117988975D02*
X187923964Y-118131832D01*
X187923964Y-118131832D02*
X187852535Y-118203261D01*
X187852535Y-118203261D02*
X187709678Y-118274689D01*
X187709678Y-118274689D02*
X187495392Y-118274689D01*
X189281107Y-118203261D02*
X189138249Y-118274689D01*
X189138249Y-118274689D02*
X188852535Y-118274689D01*
X188852535Y-118274689D02*
X188709678Y-118203261D01*
X188709678Y-118203261D02*
X188638249Y-118131832D01*
X188638249Y-118131832D02*
X188566821Y-117988975D01*
X188566821Y-117988975D02*
X188566821Y-117560403D01*
X188566821Y-117560403D02*
X188638249Y-117417546D01*
X188638249Y-117417546D02*
X188709678Y-117346118D01*
X188709678Y-117346118D02*
X188852535Y-117274689D01*
X188852535Y-117274689D02*
X189138249Y-117274689D01*
X189138249Y-117274689D02*
X189281107Y-117346118D01*
X189923963Y-118274689D02*
X189923963Y-116774689D01*
X190066821Y-117703261D02*
X190495392Y-118274689D01*
X190495392Y-117274689D02*
X189923963Y-117846118D01*
X177495392Y-120689605D02*
X177495392Y-119189605D01*
X177495392Y-119189605D02*
X178066821Y-119189605D01*
X178066821Y-119189605D02*
X178209678Y-119261034D01*
X178209678Y-119261034D02*
X178281107Y-119332462D01*
X178281107Y-119332462D02*
X178352535Y-119475319D01*
X178352535Y-119475319D02*
X178352535Y-119689605D01*
X178352535Y-119689605D02*
X178281107Y-119832462D01*
X178281107Y-119832462D02*
X178209678Y-119903891D01*
X178209678Y-119903891D02*
X178066821Y-119975319D01*
X178066821Y-119975319D02*
X177495392Y-119975319D01*
X179852535Y-120546748D02*
X179781107Y-120618177D01*
X179781107Y-120618177D02*
X179566821Y-120689605D01*
X179566821Y-120689605D02*
X179423964Y-120689605D01*
X179423964Y-120689605D02*
X179209678Y-120618177D01*
X179209678Y-120618177D02*
X179066821Y-120475319D01*
X179066821Y-120475319D02*
X178995392Y-120332462D01*
X178995392Y-120332462D02*
X178923964Y-120046748D01*
X178923964Y-120046748D02*
X178923964Y-119832462D01*
X178923964Y-119832462D02*
X178995392Y-119546748D01*
X178995392Y-119546748D02*
X179066821Y-119403891D01*
X179066821Y-119403891D02*
X179209678Y-119261034D01*
X179209678Y-119261034D02*
X179423964Y-119189605D01*
X179423964Y-119189605D02*
X179566821Y-119189605D01*
X179566821Y-119189605D02*
X179781107Y-119261034D01*
X179781107Y-119261034D02*
X179852535Y-119332462D01*
X180995392Y-119903891D02*
X181209678Y-119975319D01*
X181209678Y-119975319D02*
X181281107Y-120046748D01*
X181281107Y-120046748D02*
X181352535Y-120189605D01*
X181352535Y-120189605D02*
X181352535Y-120403891D01*
X181352535Y-120403891D02*
X181281107Y-120546748D01*
X181281107Y-120546748D02*
X181209678Y-120618177D01*
X181209678Y-120618177D02*
X181066821Y-120689605D01*
X181066821Y-120689605D02*
X180495392Y-120689605D01*
X180495392Y-120689605D02*
X180495392Y-119189605D01*
X180495392Y-119189605D02*
X180995392Y-119189605D01*
X180995392Y-119189605D02*
X181138250Y-119261034D01*
X181138250Y-119261034D02*
X181209678Y-119332462D01*
X181209678Y-119332462D02*
X181281107Y-119475319D01*
X181281107Y-119475319D02*
X181281107Y-119618177D01*
X181281107Y-119618177D02*
X181209678Y-119761034D01*
X181209678Y-119761034D02*
X181138250Y-119832462D01*
X181138250Y-119832462D02*
X180995392Y-119903891D01*
X180995392Y-119903891D02*
X180495392Y-119903891D01*
D10*
X122476190Y-80759875D02*
X122476190Y-81474160D01*
X122476190Y-81474160D02*
X122428571Y-81617017D01*
X122428571Y-81617017D02*
X122333333Y-81712256D01*
X122333333Y-81712256D02*
X122190476Y-81759875D01*
X122190476Y-81759875D02*
X122095238Y-81759875D01*
X123380952Y-81759875D02*
X123380952Y-81236065D01*
X123380952Y-81236065D02*
X123333333Y-81140827D01*
X123333333Y-81140827D02*
X123238095Y-81093208D01*
X123238095Y-81093208D02*
X123047619Y-81093208D01*
X123047619Y-81093208D02*
X122952381Y-81140827D01*
X123380952Y-81712256D02*
X123285714Y-81759875D01*
X123285714Y-81759875D02*
X123047619Y-81759875D01*
X123047619Y-81759875D02*
X122952381Y-81712256D01*
X122952381Y-81712256D02*
X122904762Y-81617017D01*
X122904762Y-81617017D02*
X122904762Y-81521779D01*
X122904762Y-81521779D02*
X122952381Y-81426541D01*
X122952381Y-81426541D02*
X123047619Y-81378922D01*
X123047619Y-81378922D02*
X123285714Y-81378922D01*
X123285714Y-81378922D02*
X123380952Y-81331303D01*
X124285714Y-81712256D02*
X124190476Y-81759875D01*
X124190476Y-81759875D02*
X124000000Y-81759875D01*
X124000000Y-81759875D02*
X123904762Y-81712256D01*
X123904762Y-81712256D02*
X123857143Y-81664636D01*
X123857143Y-81664636D02*
X123809524Y-81569398D01*
X123809524Y-81569398D02*
X123809524Y-81283684D01*
X123809524Y-81283684D02*
X123857143Y-81188446D01*
X123857143Y-81188446D02*
X123904762Y-81140827D01*
X123904762Y-81140827D02*
X124000000Y-81093208D01*
X124000000Y-81093208D02*
X124190476Y-81093208D01*
X124190476Y-81093208D02*
X124285714Y-81140827D01*
X124714286Y-81759875D02*
X124714286Y-80759875D01*
X124809524Y-81378922D02*
X125095238Y-81759875D01*
X125095238Y-81093208D02*
X124714286Y-81474160D01*
X123547619Y-83369819D02*
X123547619Y-82369819D01*
X124023809Y-82703152D02*
X124023809Y-83369819D01*
X124023809Y-82798390D02*
X124071428Y-82750771D01*
X124071428Y-82750771D02*
X124166666Y-82703152D01*
X124166666Y-82703152D02*
X124309523Y-82703152D01*
X124309523Y-82703152D02*
X124404761Y-82750771D01*
X124404761Y-82750771D02*
X124452380Y-82846009D01*
X124452380Y-82846009D02*
X124452380Y-83369819D01*
X199027255Y-80759875D02*
X199217731Y-80759875D01*
X199217731Y-80759875D02*
X199312969Y-80807494D01*
X199312969Y-80807494D02*
X199408207Y-80902732D01*
X199408207Y-80902732D02*
X199455826Y-81093208D01*
X199455826Y-81093208D02*
X199455826Y-81426541D01*
X199455826Y-81426541D02*
X199408207Y-81617017D01*
X199408207Y-81617017D02*
X199312969Y-81712256D01*
X199312969Y-81712256D02*
X199217731Y-81759875D01*
X199217731Y-81759875D02*
X199027255Y-81759875D01*
X199027255Y-81759875D02*
X198932017Y-81712256D01*
X198932017Y-81712256D02*
X198836779Y-81617017D01*
X198836779Y-81617017D02*
X198789160Y-81426541D01*
X198789160Y-81426541D02*
X198789160Y-81093208D01*
X198789160Y-81093208D02*
X198836779Y-80902732D01*
X198836779Y-80902732D02*
X198932017Y-80807494D01*
X198932017Y-80807494D02*
X199027255Y-80759875D01*
X200312969Y-81093208D02*
X200312969Y-81759875D01*
X199884398Y-81093208D02*
X199884398Y-81617017D01*
X199884398Y-81617017D02*
X199932017Y-81712256D01*
X199932017Y-81712256D02*
X200027255Y-81759875D01*
X200027255Y-81759875D02*
X200170112Y-81759875D01*
X200170112Y-81759875D02*
X200265350Y-81712256D01*
X200265350Y-81712256D02*
X200312969Y-81664636D01*
X200646303Y-81093208D02*
X201027255Y-81093208D01*
X200789160Y-80759875D02*
X200789160Y-81617017D01*
X200789160Y-81617017D02*
X200836779Y-81712256D01*
X200836779Y-81712256D02*
X200932017Y-81759875D01*
X200932017Y-81759875D02*
X201027255Y-81759875D01*
X199360588Y-82417438D02*
X199265350Y-82369819D01*
X199265350Y-82369819D02*
X199122493Y-82369819D01*
X199122493Y-82369819D02*
X198979636Y-82417438D01*
X198979636Y-82417438D02*
X198884398Y-82512676D01*
X198884398Y-82512676D02*
X198836779Y-82607914D01*
X198836779Y-82607914D02*
X198789160Y-82798390D01*
X198789160Y-82798390D02*
X198789160Y-82941247D01*
X198789160Y-82941247D02*
X198836779Y-83131723D01*
X198836779Y-83131723D02*
X198884398Y-83226961D01*
X198884398Y-83226961D02*
X198979636Y-83322200D01*
X198979636Y-83322200D02*
X199122493Y-83369819D01*
X199122493Y-83369819D02*
X199217731Y-83369819D01*
X199217731Y-83369819D02*
X199360588Y-83322200D01*
X199360588Y-83322200D02*
X199408207Y-83274580D01*
X199408207Y-83274580D02*
X199408207Y-82941247D01*
X199408207Y-82941247D02*
X199217731Y-82941247D01*
X199836779Y-83369819D02*
X199836779Y-82369819D01*
X199836779Y-82369819D02*
X200408207Y-83369819D01*
X200408207Y-83369819D02*
X200408207Y-82369819D01*
X200884398Y-83369819D02*
X200884398Y-82369819D01*
X200884398Y-82369819D02*
X201122493Y-82369819D01*
X201122493Y-82369819D02*
X201265350Y-82417438D01*
X201265350Y-82417438D02*
X201360588Y-82512676D01*
X201360588Y-82512676D02*
X201408207Y-82607914D01*
X201408207Y-82607914D02*
X201455826Y-82798390D01*
X201455826Y-82798390D02*
X201455826Y-82941247D01*
X201455826Y-82941247D02*
X201408207Y-83131723D01*
X201408207Y-83131723D02*
X201360588Y-83226961D01*
X201360588Y-83226961D02*
X201265350Y-83322200D01*
X201265350Y-83322200D02*
X201122493Y-83369819D01*
X201122493Y-83369819D02*
X200884398Y-83369819D01*
X208357142Y-80759875D02*
X208357142Y-81474160D01*
X208357142Y-81474160D02*
X208309523Y-81617017D01*
X208309523Y-81617017D02*
X208214285Y-81712256D01*
X208214285Y-81712256D02*
X208071428Y-81759875D01*
X208071428Y-81759875D02*
X207976190Y-81759875D01*
X209261904Y-81759875D02*
X209261904Y-81236065D01*
X209261904Y-81236065D02*
X209214285Y-81140827D01*
X209214285Y-81140827D02*
X209119047Y-81093208D01*
X209119047Y-81093208D02*
X208928571Y-81093208D01*
X208928571Y-81093208D02*
X208833333Y-81140827D01*
X209261904Y-81712256D02*
X209166666Y-81759875D01*
X209166666Y-81759875D02*
X208928571Y-81759875D01*
X208928571Y-81759875D02*
X208833333Y-81712256D01*
X208833333Y-81712256D02*
X208785714Y-81617017D01*
X208785714Y-81617017D02*
X208785714Y-81521779D01*
X208785714Y-81521779D02*
X208833333Y-81426541D01*
X208833333Y-81426541D02*
X208928571Y-81378922D01*
X208928571Y-81378922D02*
X209166666Y-81378922D01*
X209166666Y-81378922D02*
X209261904Y-81331303D01*
X210166666Y-81712256D02*
X210071428Y-81759875D01*
X210071428Y-81759875D02*
X209880952Y-81759875D01*
X209880952Y-81759875D02*
X209785714Y-81712256D01*
X209785714Y-81712256D02*
X209738095Y-81664636D01*
X209738095Y-81664636D02*
X209690476Y-81569398D01*
X209690476Y-81569398D02*
X209690476Y-81283684D01*
X209690476Y-81283684D02*
X209738095Y-81188446D01*
X209738095Y-81188446D02*
X209785714Y-81140827D01*
X209785714Y-81140827D02*
X209880952Y-81093208D01*
X209880952Y-81093208D02*
X210071428Y-81093208D01*
X210071428Y-81093208D02*
X210166666Y-81140827D01*
X210595238Y-81759875D02*
X210595238Y-80759875D01*
X210690476Y-81378922D02*
X210976190Y-81759875D01*
X210976190Y-81093208D02*
X210595238Y-81474160D01*
X208666666Y-82369819D02*
X208857142Y-82369819D01*
X208857142Y-82369819D02*
X208952380Y-82417438D01*
X208952380Y-82417438D02*
X209047618Y-82512676D01*
X209047618Y-82512676D02*
X209095237Y-82703152D01*
X209095237Y-82703152D02*
X209095237Y-83036485D01*
X209095237Y-83036485D02*
X209047618Y-83226961D01*
X209047618Y-83226961D02*
X208952380Y-83322200D01*
X208952380Y-83322200D02*
X208857142Y-83369819D01*
X208857142Y-83369819D02*
X208666666Y-83369819D01*
X208666666Y-83369819D02*
X208571428Y-83322200D01*
X208571428Y-83322200D02*
X208476190Y-83226961D01*
X208476190Y-83226961D02*
X208428571Y-83036485D01*
X208428571Y-83036485D02*
X208428571Y-82703152D01*
X208428571Y-82703152D02*
X208476190Y-82512676D01*
X208476190Y-82512676D02*
X208571428Y-82417438D01*
X208571428Y-82417438D02*
X208666666Y-82369819D01*
X209952380Y-82703152D02*
X209952380Y-83369819D01*
X209523809Y-82703152D02*
X209523809Y-83226961D01*
X209523809Y-83226961D02*
X209571428Y-83322200D01*
X209571428Y-83322200D02*
X209666666Y-83369819D01*
X209666666Y-83369819D02*
X209809523Y-83369819D01*
X209809523Y-83369819D02*
X209904761Y-83322200D01*
X209904761Y-83322200D02*
X209952380Y-83274580D01*
X210285714Y-82703152D02*
X210666666Y-82703152D01*
X210428571Y-82369819D02*
X210428571Y-83226961D01*
X210428571Y-83226961D02*
X210476190Y-83322200D01*
X210476190Y-83322200D02*
X210571428Y-83369819D01*
X210571428Y-83369819D02*
X210666666Y-83369819D01*
X113738095Y-80807494D02*
X113642857Y-80759875D01*
X113642857Y-80759875D02*
X113500000Y-80759875D01*
X113500000Y-80759875D02*
X113357143Y-80807494D01*
X113357143Y-80807494D02*
X113261905Y-80902732D01*
X113261905Y-80902732D02*
X113214286Y-80997970D01*
X113214286Y-80997970D02*
X113166667Y-81188446D01*
X113166667Y-81188446D02*
X113166667Y-81331303D01*
X113166667Y-81331303D02*
X113214286Y-81521779D01*
X113214286Y-81521779D02*
X113261905Y-81617017D01*
X113261905Y-81617017D02*
X113357143Y-81712256D01*
X113357143Y-81712256D02*
X113500000Y-81759875D01*
X113500000Y-81759875D02*
X113595238Y-81759875D01*
X113595238Y-81759875D02*
X113738095Y-81712256D01*
X113738095Y-81712256D02*
X113785714Y-81664636D01*
X113785714Y-81664636D02*
X113785714Y-81331303D01*
X113785714Y-81331303D02*
X113595238Y-81331303D01*
X114214286Y-81759875D02*
X114214286Y-80759875D01*
X114214286Y-80759875D02*
X114785714Y-81759875D01*
X114785714Y-81759875D02*
X114785714Y-80759875D01*
X115261905Y-81759875D02*
X115261905Y-80759875D01*
X115261905Y-80759875D02*
X115500000Y-80759875D01*
X115500000Y-80759875D02*
X115642857Y-80807494D01*
X115642857Y-80807494D02*
X115738095Y-80902732D01*
X115738095Y-80902732D02*
X115785714Y-80997970D01*
X115785714Y-80997970D02*
X115833333Y-81188446D01*
X115833333Y-81188446D02*
X115833333Y-81331303D01*
X115833333Y-81331303D02*
X115785714Y-81521779D01*
X115785714Y-81521779D02*
X115738095Y-81617017D01*
X115738095Y-81617017D02*
X115642857Y-81712256D01*
X115642857Y-81712256D02*
X115500000Y-81759875D01*
X115500000Y-81759875D02*
X115261905Y-81759875D01*
X114047619Y-83369819D02*
X114047619Y-82369819D01*
X114523809Y-82703152D02*
X114523809Y-83369819D01*
X114523809Y-82798390D02*
X114571428Y-82750771D01*
X114571428Y-82750771D02*
X114666666Y-82703152D01*
X114666666Y-82703152D02*
X114809523Y-82703152D01*
X114809523Y-82703152D02*
X114904761Y-82750771D01*
X114904761Y-82750771D02*
X114952380Y-82846009D01*
X114952380Y-82846009D02*
X114952380Y-83369819D01*
X160468364Y-88252229D02*
X160135031Y-87776038D01*
X159896936Y-88252229D02*
X159896936Y-87252229D01*
X159896936Y-87252229D02*
X160277888Y-87252229D01*
X160277888Y-87252229D02*
X160373126Y-87299848D01*
X160373126Y-87299848D02*
X160420745Y-87347467D01*
X160420745Y-87347467D02*
X160468364Y-87442705D01*
X160468364Y-87442705D02*
X160468364Y-87585562D01*
X160468364Y-87585562D02*
X160420745Y-87680800D01*
X160420745Y-87680800D02*
X160373126Y-87728419D01*
X160373126Y-87728419D02*
X160277888Y-87776038D01*
X160277888Y-87776038D02*
X159896936Y-87776038D01*
X161420745Y-88252229D02*
X160849317Y-88252229D01*
X161135031Y-88252229D02*
X161135031Y-87252229D01*
X161135031Y-87252229D02*
X161039793Y-87395086D01*
X161039793Y-87395086D02*
X160944555Y-87490324D01*
X160944555Y-87490324D02*
X160849317Y-87537943D01*
X162039793Y-87252229D02*
X162135031Y-87252229D01*
X162135031Y-87252229D02*
X162230269Y-87299848D01*
X162230269Y-87299848D02*
X162277888Y-87347467D01*
X162277888Y-87347467D02*
X162325507Y-87442705D01*
X162325507Y-87442705D02*
X162373126Y-87633181D01*
X162373126Y-87633181D02*
X162373126Y-87871276D01*
X162373126Y-87871276D02*
X162325507Y-88061752D01*
X162325507Y-88061752D02*
X162277888Y-88156990D01*
X162277888Y-88156990D02*
X162230269Y-88204610D01*
X162230269Y-88204610D02*
X162135031Y-88252229D01*
X162135031Y-88252229D02*
X162039793Y-88252229D01*
X162039793Y-88252229D02*
X161944555Y-88204610D01*
X161944555Y-88204610D02*
X161896936Y-88156990D01*
X161896936Y-88156990D02*
X161849317Y-88061752D01*
X161849317Y-88061752D02*
X161801698Y-87871276D01*
X161801698Y-87871276D02*
X161801698Y-87633181D01*
X161801698Y-87633181D02*
X161849317Y-87442705D01*
X161849317Y-87442705D02*
X161896936Y-87347467D01*
X161896936Y-87347467D02*
X161944555Y-87299848D01*
X161944555Y-87299848D02*
X162039793Y-87252229D01*
X185826113Y-103455848D02*
X185349922Y-103789181D01*
X185826113Y-104027276D02*
X184826113Y-104027276D01*
X184826113Y-104027276D02*
X184826113Y-103646324D01*
X184826113Y-103646324D02*
X184873732Y-103551086D01*
X184873732Y-103551086D02*
X184921351Y-103503467D01*
X184921351Y-103503467D02*
X185016589Y-103455848D01*
X185016589Y-103455848D02*
X185159446Y-103455848D01*
X185159446Y-103455848D02*
X185254684Y-103503467D01*
X185254684Y-103503467D02*
X185302303Y-103551086D01*
X185302303Y-103551086D02*
X185349922Y-103646324D01*
X185349922Y-103646324D02*
X185349922Y-104027276D01*
X184921351Y-103074895D02*
X184873732Y-103027276D01*
X184873732Y-103027276D02*
X184826113Y-102932038D01*
X184826113Y-102932038D02*
X184826113Y-102693943D01*
X184826113Y-102693943D02*
X184873732Y-102598705D01*
X184873732Y-102598705D02*
X184921351Y-102551086D01*
X184921351Y-102551086D02*
X185016589Y-102503467D01*
X185016589Y-102503467D02*
X185111827Y-102503467D01*
X185111827Y-102503467D02*
X185254684Y-102551086D01*
X185254684Y-102551086D02*
X185826113Y-103122514D01*
X185826113Y-103122514D02*
X185826113Y-102503467D01*
X184826113Y-101884419D02*
X184826113Y-101789181D01*
X184826113Y-101789181D02*
X184873732Y-101693943D01*
X184873732Y-101693943D02*
X184921351Y-101646324D01*
X184921351Y-101646324D02*
X185016589Y-101598705D01*
X185016589Y-101598705D02*
X185207065Y-101551086D01*
X185207065Y-101551086D02*
X185445160Y-101551086D01*
X185445160Y-101551086D02*
X185635636Y-101598705D01*
X185635636Y-101598705D02*
X185730874Y-101646324D01*
X185730874Y-101646324D02*
X185778494Y-101693943D01*
X185778494Y-101693943D02*
X185826113Y-101789181D01*
X185826113Y-101789181D02*
X185826113Y-101884419D01*
X185826113Y-101884419D02*
X185778494Y-101979657D01*
X185778494Y-101979657D02*
X185730874Y-102027276D01*
X185730874Y-102027276D02*
X185635636Y-102074895D01*
X185635636Y-102074895D02*
X185445160Y-102122514D01*
X185445160Y-102122514D02*
X185207065Y-102122514D01*
X185207065Y-102122514D02*
X185016589Y-102074895D01*
X185016589Y-102074895D02*
X184921351Y-102027276D01*
X184921351Y-102027276D02*
X184873732Y-101979657D01*
X184873732Y-101979657D02*
X184826113Y-101884419D01*
X220109580Y-119392857D02*
X220157200Y-119440476D01*
X220157200Y-119440476D02*
X220204819Y-119583333D01*
X220204819Y-119583333D02*
X220204819Y-119678571D01*
X220204819Y-119678571D02*
X220157200Y-119821428D01*
X220157200Y-119821428D02*
X220061961Y-119916666D01*
X220061961Y-119916666D02*
X219966723Y-119964285D01*
X219966723Y-119964285D02*
X219776247Y-120011904D01*
X219776247Y-120011904D02*
X219633390Y-120011904D01*
X219633390Y-120011904D02*
X219442914Y-119964285D01*
X219442914Y-119964285D02*
X219347676Y-119916666D01*
X219347676Y-119916666D02*
X219252438Y-119821428D01*
X219252438Y-119821428D02*
X219204819Y-119678571D01*
X219204819Y-119678571D02*
X219204819Y-119583333D01*
X219204819Y-119583333D02*
X219252438Y-119440476D01*
X219252438Y-119440476D02*
X219300057Y-119392857D01*
X220204819Y-118440476D02*
X220204819Y-119011904D01*
X220204819Y-118726190D02*
X219204819Y-118726190D01*
X219204819Y-118726190D02*
X219347676Y-118821428D01*
X219347676Y-118821428D02*
X219442914Y-118916666D01*
X219442914Y-118916666D02*
X219490533Y-119011904D01*
X219538152Y-117583333D02*
X220204819Y-117583333D01*
X219157200Y-117821428D02*
X219871485Y-118059523D01*
X219871485Y-118059523D02*
X219871485Y-117440476D01*
X198147476Y-117301190D02*
X198147476Y-118015475D01*
X198147476Y-118015475D02*
X198099857Y-118158332D01*
X198099857Y-118158332D02*
X198004619Y-118253571D01*
X198004619Y-118253571D02*
X197861762Y-118301190D01*
X197861762Y-118301190D02*
X197766524Y-118301190D01*
X199147476Y-118301190D02*
X198576048Y-118301190D01*
X198861762Y-118301190D02*
X198861762Y-117301190D01*
X198861762Y-117301190D02*
X198766524Y-117444047D01*
X198766524Y-117444047D02*
X198671286Y-117539285D01*
X198671286Y-117539285D02*
X198576048Y-117586904D01*
X200004619Y-117634523D02*
X200004619Y-118301190D01*
X199766524Y-117253571D02*
X199528429Y-117967856D01*
X199528429Y-117967856D02*
X200147476Y-117967856D01*
X167761905Y-87954819D02*
X167761905Y-86954819D01*
X167761905Y-86954819D02*
X168000000Y-86954819D01*
X168000000Y-86954819D02*
X168142857Y-87002438D01*
X168142857Y-87002438D02*
X168238095Y-87097676D01*
X168238095Y-87097676D02*
X168285714Y-87192914D01*
X168285714Y-87192914D02*
X168333333Y-87383390D01*
X168333333Y-87383390D02*
X168333333Y-87526247D01*
X168333333Y-87526247D02*
X168285714Y-87716723D01*
X168285714Y-87716723D02*
X168238095Y-87811961D01*
X168238095Y-87811961D02*
X168142857Y-87907200D01*
X168142857Y-87907200D02*
X168000000Y-87954819D01*
X168000000Y-87954819D02*
X167761905Y-87954819D01*
X168809524Y-87954819D02*
X169000000Y-87954819D01*
X169000000Y-87954819D02*
X169095238Y-87907200D01*
X169095238Y-87907200D02*
X169142857Y-87859580D01*
X169142857Y-87859580D02*
X169238095Y-87716723D01*
X169238095Y-87716723D02*
X169285714Y-87526247D01*
X169285714Y-87526247D02*
X169285714Y-87145295D01*
X169285714Y-87145295D02*
X169238095Y-87050057D01*
X169238095Y-87050057D02*
X169190476Y-87002438D01*
X169190476Y-87002438D02*
X169095238Y-86954819D01*
X169095238Y-86954819D02*
X168904762Y-86954819D01*
X168904762Y-86954819D02*
X168809524Y-87002438D01*
X168809524Y-87002438D02*
X168761905Y-87050057D01*
X168761905Y-87050057D02*
X168714286Y-87145295D01*
X168714286Y-87145295D02*
X168714286Y-87383390D01*
X168714286Y-87383390D02*
X168761905Y-87478628D01*
X168761905Y-87478628D02*
X168809524Y-87526247D01*
X168809524Y-87526247D02*
X168904762Y-87573866D01*
X168904762Y-87573866D02*
X169095238Y-87573866D01*
X169095238Y-87573866D02*
X169190476Y-87526247D01*
X169190476Y-87526247D02*
X169238095Y-87478628D01*
X169238095Y-87478628D02*
X169285714Y-87383390D01*
X203642857Y-84859580D02*
X203595238Y-84907200D01*
X203595238Y-84907200D02*
X203452381Y-84954819D01*
X203452381Y-84954819D02*
X203357143Y-84954819D01*
X203357143Y-84954819D02*
X203214286Y-84907200D01*
X203214286Y-84907200D02*
X203119048Y-84811961D01*
X203119048Y-84811961D02*
X203071429Y-84716723D01*
X203071429Y-84716723D02*
X203023810Y-84526247D01*
X203023810Y-84526247D02*
X203023810Y-84383390D01*
X203023810Y-84383390D02*
X203071429Y-84192914D01*
X203071429Y-84192914D02*
X203119048Y-84097676D01*
X203119048Y-84097676D02*
X203214286Y-84002438D01*
X203214286Y-84002438D02*
X203357143Y-83954819D01*
X203357143Y-83954819D02*
X203452381Y-83954819D01*
X203452381Y-83954819D02*
X203595238Y-84002438D01*
X203595238Y-84002438D02*
X203642857Y-84050057D01*
X204071429Y-84954819D02*
X204071429Y-84288152D01*
X204071429Y-83954819D02*
X204023810Y-84002438D01*
X204023810Y-84002438D02*
X204071429Y-84050057D01*
X204071429Y-84050057D02*
X204119048Y-84002438D01*
X204119048Y-84002438D02*
X204071429Y-83954819D01*
X204071429Y-83954819D02*
X204071429Y-84050057D01*
X204547619Y-84288152D02*
X204547619Y-84954819D01*
X204547619Y-84383390D02*
X204595238Y-84335771D01*
X204595238Y-84335771D02*
X204690476Y-84288152D01*
X204690476Y-84288152D02*
X204833333Y-84288152D01*
X204833333Y-84288152D02*
X204928571Y-84335771D01*
X204928571Y-84335771D02*
X204976190Y-84431009D01*
X204976190Y-84431009D02*
X204976190Y-84954819D01*
X205500000Y-84954819D02*
X205690476Y-84954819D01*
X205690476Y-84954819D02*
X205785714Y-84907200D01*
X205785714Y-84907200D02*
X205833333Y-84859580D01*
X205833333Y-84859580D02*
X205928571Y-84716723D01*
X205928571Y-84716723D02*
X205976190Y-84526247D01*
X205976190Y-84526247D02*
X205976190Y-84145295D01*
X205976190Y-84145295D02*
X205928571Y-84050057D01*
X205928571Y-84050057D02*
X205880952Y-84002438D01*
X205880952Y-84002438D02*
X205785714Y-83954819D01*
X205785714Y-83954819D02*
X205595238Y-83954819D01*
X205595238Y-83954819D02*
X205500000Y-84002438D01*
X205500000Y-84002438D02*
X205452381Y-84050057D01*
X205452381Y-84050057D02*
X205404762Y-84145295D01*
X205404762Y-84145295D02*
X205404762Y-84383390D01*
X205404762Y-84383390D02*
X205452381Y-84478628D01*
X205452381Y-84478628D02*
X205500000Y-84526247D01*
X205500000Y-84526247D02*
X205595238Y-84573866D01*
X205595238Y-84573866D02*
X205785714Y-84573866D01*
X205785714Y-84573866D02*
X205880952Y-84526247D01*
X205880952Y-84526247D02*
X205928571Y-84478628D01*
X205928571Y-84478628D02*
X205976190Y-84383390D01*
X175167142Y-88084819D02*
X174833809Y-87608628D01*
X174595714Y-88084819D02*
X174595714Y-87084819D01*
X174595714Y-87084819D02*
X174976666Y-87084819D01*
X174976666Y-87084819D02*
X175071904Y-87132438D01*
X175071904Y-87132438D02*
X175119523Y-87180057D01*
X175119523Y-87180057D02*
X175167142Y-87275295D01*
X175167142Y-87275295D02*
X175167142Y-87418152D01*
X175167142Y-87418152D02*
X175119523Y-87513390D01*
X175119523Y-87513390D02*
X175071904Y-87561009D01*
X175071904Y-87561009D02*
X174976666Y-87608628D01*
X174976666Y-87608628D02*
X174595714Y-87608628D01*
X176119523Y-88084819D02*
X175548095Y-88084819D01*
X175833809Y-88084819D02*
X175833809Y-87084819D01*
X175833809Y-87084819D02*
X175738571Y-87227676D01*
X175738571Y-87227676D02*
X175643333Y-87322914D01*
X175643333Y-87322914D02*
X175548095Y-87370533D01*
X177071904Y-88084819D02*
X176500476Y-88084819D01*
X176786190Y-88084819D02*
X176786190Y-87084819D01*
X176786190Y-87084819D02*
X176690952Y-87227676D01*
X176690952Y-87227676D02*
X176595714Y-87322914D01*
X176595714Y-87322914D02*
X176500476Y-87370533D01*
X118833333Y-112454819D02*
X118500000Y-111978628D01*
X118261905Y-112454819D02*
X118261905Y-111454819D01*
X118261905Y-111454819D02*
X118642857Y-111454819D01*
X118642857Y-111454819D02*
X118738095Y-111502438D01*
X118738095Y-111502438D02*
X118785714Y-111550057D01*
X118785714Y-111550057D02*
X118833333Y-111645295D01*
X118833333Y-111645295D02*
X118833333Y-111788152D01*
X118833333Y-111788152D02*
X118785714Y-111883390D01*
X118785714Y-111883390D02*
X118738095Y-111931009D01*
X118738095Y-111931009D02*
X118642857Y-111978628D01*
X118642857Y-111978628D02*
X118261905Y-111978628D01*
X119166667Y-111454819D02*
X119785714Y-111454819D01*
X119785714Y-111454819D02*
X119452381Y-111835771D01*
X119452381Y-111835771D02*
X119595238Y-111835771D01*
X119595238Y-111835771D02*
X119690476Y-111883390D01*
X119690476Y-111883390D02*
X119738095Y-111931009D01*
X119738095Y-111931009D02*
X119785714Y-112026247D01*
X119785714Y-112026247D02*
X119785714Y-112264342D01*
X119785714Y-112264342D02*
X119738095Y-112359580D01*
X119738095Y-112359580D02*
X119690476Y-112407200D01*
X119690476Y-112407200D02*
X119595238Y-112454819D01*
X119595238Y-112454819D02*
X119309524Y-112454819D01*
X119309524Y-112454819D02*
X119214286Y-112407200D01*
X119214286Y-112407200D02*
X119166667Y-112359580D01*
X128333333Y-111859580D02*
X128285714Y-111907200D01*
X128285714Y-111907200D02*
X128142857Y-111954819D01*
X128142857Y-111954819D02*
X128047619Y-111954819D01*
X128047619Y-111954819D02*
X127904762Y-111907200D01*
X127904762Y-111907200D02*
X127809524Y-111811961D01*
X127809524Y-111811961D02*
X127761905Y-111716723D01*
X127761905Y-111716723D02*
X127714286Y-111526247D01*
X127714286Y-111526247D02*
X127714286Y-111383390D01*
X127714286Y-111383390D02*
X127761905Y-111192914D01*
X127761905Y-111192914D02*
X127809524Y-111097676D01*
X127809524Y-111097676D02*
X127904762Y-111002438D01*
X127904762Y-111002438D02*
X128047619Y-110954819D01*
X128047619Y-110954819D02*
X128142857Y-110954819D01*
X128142857Y-110954819D02*
X128285714Y-111002438D01*
X128285714Y-111002438D02*
X128333333Y-111050057D01*
X129285714Y-111954819D02*
X128714286Y-111954819D01*
X129000000Y-111954819D02*
X129000000Y-110954819D01*
X129000000Y-110954819D02*
X128904762Y-111097676D01*
X128904762Y-111097676D02*
X128809524Y-111192914D01*
X128809524Y-111192914D02*
X128714286Y-111240533D01*
X185954819Y-91642857D02*
X185478628Y-91976190D01*
X185954819Y-92214285D02*
X184954819Y-92214285D01*
X184954819Y-92214285D02*
X184954819Y-91833333D01*
X184954819Y-91833333D02*
X185002438Y-91738095D01*
X185002438Y-91738095D02*
X185050057Y-91690476D01*
X185050057Y-91690476D02*
X185145295Y-91642857D01*
X185145295Y-91642857D02*
X185288152Y-91642857D01*
X185288152Y-91642857D02*
X185383390Y-91690476D01*
X185383390Y-91690476D02*
X185431009Y-91738095D01*
X185431009Y-91738095D02*
X185478628Y-91833333D01*
X185478628Y-91833333D02*
X185478628Y-92214285D01*
X185050057Y-91261904D02*
X185002438Y-91214285D01*
X185002438Y-91214285D02*
X184954819Y-91119047D01*
X184954819Y-91119047D02*
X184954819Y-90880952D01*
X184954819Y-90880952D02*
X185002438Y-90785714D01*
X185002438Y-90785714D02*
X185050057Y-90738095D01*
X185050057Y-90738095D02*
X185145295Y-90690476D01*
X185145295Y-90690476D02*
X185240533Y-90690476D01*
X185240533Y-90690476D02*
X185383390Y-90738095D01*
X185383390Y-90738095D02*
X185954819Y-91309523D01*
X185954819Y-91309523D02*
X185954819Y-90690476D01*
X185954819Y-89738095D02*
X185954819Y-90309523D01*
X185954819Y-90023809D02*
X184954819Y-90023809D01*
X184954819Y-90023809D02*
X185097676Y-90119047D01*
X185097676Y-90119047D02*
X185192914Y-90214285D01*
X185192914Y-90214285D02*
X185240533Y-90309523D01*
X163602992Y-109655798D02*
X163555373Y-109703418D01*
X163555373Y-109703418D02*
X163412516Y-109751037D01*
X163412516Y-109751037D02*
X163317278Y-109751037D01*
X163317278Y-109751037D02*
X163174421Y-109703418D01*
X163174421Y-109703418D02*
X163079183Y-109608179D01*
X163079183Y-109608179D02*
X163031564Y-109512941D01*
X163031564Y-109512941D02*
X162983945Y-109322465D01*
X162983945Y-109322465D02*
X162983945Y-109179608D01*
X162983945Y-109179608D02*
X163031564Y-108989132D01*
X163031564Y-108989132D02*
X163079183Y-108893894D01*
X163079183Y-108893894D02*
X163174421Y-108798656D01*
X163174421Y-108798656D02*
X163317278Y-108751037D01*
X163317278Y-108751037D02*
X163412516Y-108751037D01*
X163412516Y-108751037D02*
X163555373Y-108798656D01*
X163555373Y-108798656D02*
X163602992Y-108846275D01*
X164555373Y-109751037D02*
X163983945Y-109751037D01*
X164269659Y-109751037D02*
X164269659Y-108751037D01*
X164269659Y-108751037D02*
X164174421Y-108893894D01*
X164174421Y-108893894D02*
X164079183Y-108989132D01*
X164079183Y-108989132D02*
X163983945Y-109036751D01*
X164888707Y-108751037D02*
X165507754Y-108751037D01*
X165507754Y-108751037D02*
X165174421Y-109131989D01*
X165174421Y-109131989D02*
X165317278Y-109131989D01*
X165317278Y-109131989D02*
X165412516Y-109179608D01*
X165412516Y-109179608D02*
X165460135Y-109227227D01*
X165460135Y-109227227D02*
X165507754Y-109322465D01*
X165507754Y-109322465D02*
X165507754Y-109560560D01*
X165507754Y-109560560D02*
X165460135Y-109655798D01*
X165460135Y-109655798D02*
X165412516Y-109703418D01*
X165412516Y-109703418D02*
X165317278Y-109751037D01*
X165317278Y-109751037D02*
X165031564Y-109751037D01*
X165031564Y-109751037D02*
X164936326Y-109703418D01*
X164936326Y-109703418D02*
X164888707Y-109655798D01*
X167264819Y-111666666D02*
X166788628Y-111999999D01*
X167264819Y-112238094D02*
X166264819Y-112238094D01*
X166264819Y-112238094D02*
X166264819Y-111857142D01*
X166264819Y-111857142D02*
X166312438Y-111761904D01*
X166312438Y-111761904D02*
X166360057Y-111714285D01*
X166360057Y-111714285D02*
X166455295Y-111666666D01*
X166455295Y-111666666D02*
X166598152Y-111666666D01*
X166598152Y-111666666D02*
X166693390Y-111714285D01*
X166693390Y-111714285D02*
X166741009Y-111761904D01*
X166741009Y-111761904D02*
X166788628Y-111857142D01*
X166788628Y-111857142D02*
X166788628Y-112238094D01*
X166693390Y-111095237D02*
X166645771Y-111190475D01*
X166645771Y-111190475D02*
X166598152Y-111238094D01*
X166598152Y-111238094D02*
X166502914Y-111285713D01*
X166502914Y-111285713D02*
X166455295Y-111285713D01*
X166455295Y-111285713D02*
X166360057Y-111238094D01*
X166360057Y-111238094D02*
X166312438Y-111190475D01*
X166312438Y-111190475D02*
X166264819Y-111095237D01*
X166264819Y-111095237D02*
X166264819Y-110904761D01*
X166264819Y-110904761D02*
X166312438Y-110809523D01*
X166312438Y-110809523D02*
X166360057Y-110761904D01*
X166360057Y-110761904D02*
X166455295Y-110714285D01*
X166455295Y-110714285D02*
X166502914Y-110714285D01*
X166502914Y-110714285D02*
X166598152Y-110761904D01*
X166598152Y-110761904D02*
X166645771Y-110809523D01*
X166645771Y-110809523D02*
X166693390Y-110904761D01*
X166693390Y-110904761D02*
X166693390Y-111095237D01*
X166693390Y-111095237D02*
X166741009Y-111190475D01*
X166741009Y-111190475D02*
X166788628Y-111238094D01*
X166788628Y-111238094D02*
X166883866Y-111285713D01*
X166883866Y-111285713D02*
X167074342Y-111285713D01*
X167074342Y-111285713D02*
X167169580Y-111238094D01*
X167169580Y-111238094D02*
X167217200Y-111190475D01*
X167217200Y-111190475D02*
X167264819Y-111095237D01*
X167264819Y-111095237D02*
X167264819Y-110904761D01*
X167264819Y-110904761D02*
X167217200Y-110809523D01*
X167217200Y-110809523D02*
X167169580Y-110761904D01*
X167169580Y-110761904D02*
X167074342Y-110714285D01*
X167074342Y-110714285D02*
X166883866Y-110714285D01*
X166883866Y-110714285D02*
X166788628Y-110761904D01*
X166788628Y-110761904D02*
X166741009Y-110809523D01*
X166741009Y-110809523D02*
X166693390Y-110904761D01*
X127860808Y-95542231D02*
X127813189Y-95589851D01*
X127813189Y-95589851D02*
X127670332Y-95637470D01*
X127670332Y-95637470D02*
X127575094Y-95637470D01*
X127575094Y-95637470D02*
X127432237Y-95589851D01*
X127432237Y-95589851D02*
X127336999Y-95494612D01*
X127336999Y-95494612D02*
X127289380Y-95399374D01*
X127289380Y-95399374D02*
X127241761Y-95208898D01*
X127241761Y-95208898D02*
X127241761Y-95066041D01*
X127241761Y-95066041D02*
X127289380Y-94875565D01*
X127289380Y-94875565D02*
X127336999Y-94780327D01*
X127336999Y-94780327D02*
X127432237Y-94685089D01*
X127432237Y-94685089D02*
X127575094Y-94637470D01*
X127575094Y-94637470D02*
X127670332Y-94637470D01*
X127670332Y-94637470D02*
X127813189Y-94685089D01*
X127813189Y-94685089D02*
X127860808Y-94732708D01*
X128289380Y-95637470D02*
X128289380Y-94970803D01*
X128289380Y-94637470D02*
X128241761Y-94685089D01*
X128241761Y-94685089D02*
X128289380Y-94732708D01*
X128289380Y-94732708D02*
X128336999Y-94685089D01*
X128336999Y-94685089D02*
X128289380Y-94637470D01*
X128289380Y-94637470D02*
X128289380Y-94732708D01*
X128765570Y-94970803D02*
X128765570Y-95637470D01*
X128765570Y-95066041D02*
X128813189Y-95018422D01*
X128813189Y-95018422D02*
X128908427Y-94970803D01*
X128908427Y-94970803D02*
X129051284Y-94970803D01*
X129051284Y-94970803D02*
X129146522Y-95018422D01*
X129146522Y-95018422D02*
X129194141Y-95113660D01*
X129194141Y-95113660D02*
X129194141Y-95637470D01*
X130194141Y-95637470D02*
X129622713Y-95637470D01*
X129908427Y-95637470D02*
X129908427Y-94637470D01*
X129908427Y-94637470D02*
X129813189Y-94780327D01*
X129813189Y-94780327D02*
X129717951Y-94875565D01*
X129717951Y-94875565D02*
X129622713Y-94923184D01*
X159877768Y-95307913D02*
X159830149Y-95355533D01*
X159830149Y-95355533D02*
X159687292Y-95403152D01*
X159687292Y-95403152D02*
X159592054Y-95403152D01*
X159592054Y-95403152D02*
X159449197Y-95355533D01*
X159449197Y-95355533D02*
X159353959Y-95260294D01*
X159353959Y-95260294D02*
X159306340Y-95165056D01*
X159306340Y-95165056D02*
X159258721Y-94974580D01*
X159258721Y-94974580D02*
X159258721Y-94831723D01*
X159258721Y-94831723D02*
X159306340Y-94641247D01*
X159306340Y-94641247D02*
X159353959Y-94546009D01*
X159353959Y-94546009D02*
X159449197Y-94450771D01*
X159449197Y-94450771D02*
X159592054Y-94403152D01*
X159592054Y-94403152D02*
X159687292Y-94403152D01*
X159687292Y-94403152D02*
X159830149Y-94450771D01*
X159830149Y-94450771D02*
X159877768Y-94498390D01*
X160830149Y-95403152D02*
X160258721Y-95403152D01*
X160544435Y-95403152D02*
X160544435Y-94403152D01*
X160544435Y-94403152D02*
X160449197Y-94546009D01*
X160449197Y-94546009D02*
X160353959Y-94641247D01*
X160353959Y-94641247D02*
X160258721Y-94688866D01*
X161734911Y-94403152D02*
X161258721Y-94403152D01*
X161258721Y-94403152D02*
X161211102Y-94879342D01*
X161211102Y-94879342D02*
X161258721Y-94831723D01*
X161258721Y-94831723D02*
X161353959Y-94784104D01*
X161353959Y-94784104D02*
X161592054Y-94784104D01*
X161592054Y-94784104D02*
X161687292Y-94831723D01*
X161687292Y-94831723D02*
X161734911Y-94879342D01*
X161734911Y-94879342D02*
X161782530Y-94974580D01*
X161782530Y-94974580D02*
X161782530Y-95212675D01*
X161782530Y-95212675D02*
X161734911Y-95307913D01*
X161734911Y-95307913D02*
X161687292Y-95355533D01*
X161687292Y-95355533D02*
X161592054Y-95403152D01*
X161592054Y-95403152D02*
X161353959Y-95403152D01*
X161353959Y-95403152D02*
X161258721Y-95355533D01*
X161258721Y-95355533D02*
X161211102Y-95307913D01*
X202660996Y-114132137D02*
X203375281Y-114132137D01*
X203375281Y-114132137D02*
X203518138Y-114179756D01*
X203518138Y-114179756D02*
X203613377Y-114274994D01*
X203613377Y-114274994D02*
X203660996Y-114417851D01*
X203660996Y-114417851D02*
X203660996Y-114513089D01*
X202660996Y-113751184D02*
X202660996Y-113132137D01*
X202660996Y-113132137D02*
X203041948Y-113465470D01*
X203041948Y-113465470D02*
X203041948Y-113322613D01*
X203041948Y-113322613D02*
X203089567Y-113227375D01*
X203089567Y-113227375D02*
X203137186Y-113179756D01*
X203137186Y-113179756D02*
X203232424Y-113132137D01*
X203232424Y-113132137D02*
X203470519Y-113132137D01*
X203470519Y-113132137D02*
X203565757Y-113179756D01*
X203565757Y-113179756D02*
X203613377Y-113227375D01*
X203613377Y-113227375D02*
X203660996Y-113322613D01*
X203660996Y-113322613D02*
X203660996Y-113608327D01*
X203660996Y-113608327D02*
X203613377Y-113703565D01*
X203613377Y-113703565D02*
X203565757Y-113751184D01*
X134005928Y-108929110D02*
X133958309Y-108976730D01*
X133958309Y-108976730D02*
X133815452Y-109024349D01*
X133815452Y-109024349D02*
X133720214Y-109024349D01*
X133720214Y-109024349D02*
X133577357Y-108976730D01*
X133577357Y-108976730D02*
X133482119Y-108881491D01*
X133482119Y-108881491D02*
X133434500Y-108786253D01*
X133434500Y-108786253D02*
X133386881Y-108595777D01*
X133386881Y-108595777D02*
X133386881Y-108452920D01*
X133386881Y-108452920D02*
X133434500Y-108262444D01*
X133434500Y-108262444D02*
X133482119Y-108167206D01*
X133482119Y-108167206D02*
X133577357Y-108071968D01*
X133577357Y-108071968D02*
X133720214Y-108024349D01*
X133720214Y-108024349D02*
X133815452Y-108024349D01*
X133815452Y-108024349D02*
X133958309Y-108071968D01*
X133958309Y-108071968D02*
X134005928Y-108119587D01*
X134386881Y-108119587D02*
X134434500Y-108071968D01*
X134434500Y-108071968D02*
X134529738Y-108024349D01*
X134529738Y-108024349D02*
X134767833Y-108024349D01*
X134767833Y-108024349D02*
X134863071Y-108071968D01*
X134863071Y-108071968D02*
X134910690Y-108119587D01*
X134910690Y-108119587D02*
X134958309Y-108214825D01*
X134958309Y-108214825D02*
X134958309Y-108310063D01*
X134958309Y-108310063D02*
X134910690Y-108452920D01*
X134910690Y-108452920D02*
X134339262Y-109024349D01*
X134339262Y-109024349D02*
X134958309Y-109024349D01*
X197018338Y-88680076D02*
X196970719Y-88727696D01*
X196970719Y-88727696D02*
X196827862Y-88775315D01*
X196827862Y-88775315D02*
X196732624Y-88775315D01*
X196732624Y-88775315D02*
X196589767Y-88727696D01*
X196589767Y-88727696D02*
X196494529Y-88632457D01*
X196494529Y-88632457D02*
X196446910Y-88537219D01*
X196446910Y-88537219D02*
X196399291Y-88346743D01*
X196399291Y-88346743D02*
X196399291Y-88203886D01*
X196399291Y-88203886D02*
X196446910Y-88013410D01*
X196446910Y-88013410D02*
X196494529Y-87918172D01*
X196494529Y-87918172D02*
X196589767Y-87822934D01*
X196589767Y-87822934D02*
X196732624Y-87775315D01*
X196732624Y-87775315D02*
X196827862Y-87775315D01*
X196827862Y-87775315D02*
X196970719Y-87822934D01*
X196970719Y-87822934D02*
X197018338Y-87870553D01*
X197446910Y-88775315D02*
X197446910Y-88108648D01*
X197446910Y-87775315D02*
X197399291Y-87822934D01*
X197399291Y-87822934D02*
X197446910Y-87870553D01*
X197446910Y-87870553D02*
X197494529Y-87822934D01*
X197494529Y-87822934D02*
X197446910Y-87775315D01*
X197446910Y-87775315D02*
X197446910Y-87870553D01*
X197923100Y-88108648D02*
X197923100Y-88775315D01*
X197923100Y-88203886D02*
X197970719Y-88156267D01*
X197970719Y-88156267D02*
X198065957Y-88108648D01*
X198065957Y-88108648D02*
X198208814Y-88108648D01*
X198208814Y-88108648D02*
X198304052Y-88156267D01*
X198304052Y-88156267D02*
X198351671Y-88251505D01*
X198351671Y-88251505D02*
X198351671Y-88775315D01*
X198732624Y-87775315D02*
X199399290Y-87775315D01*
X199399290Y-87775315D02*
X198970719Y-88775315D01*
X137943664Y-88787444D02*
X137991284Y-88835063D01*
X137991284Y-88835063D02*
X138038903Y-88977920D01*
X138038903Y-88977920D02*
X138038903Y-89073158D01*
X138038903Y-89073158D02*
X137991284Y-89216015D01*
X137991284Y-89216015D02*
X137896045Y-89311253D01*
X137896045Y-89311253D02*
X137800807Y-89358872D01*
X137800807Y-89358872D02*
X137610331Y-89406491D01*
X137610331Y-89406491D02*
X137467474Y-89406491D01*
X137467474Y-89406491D02*
X137276998Y-89358872D01*
X137276998Y-89358872D02*
X137181760Y-89311253D01*
X137181760Y-89311253D02*
X137086522Y-89216015D01*
X137086522Y-89216015D02*
X137038903Y-89073158D01*
X137038903Y-89073158D02*
X137038903Y-88977920D01*
X137038903Y-88977920D02*
X137086522Y-88835063D01*
X137086522Y-88835063D02*
X137134141Y-88787444D01*
X138038903Y-88358872D02*
X137372236Y-88358872D01*
X137038903Y-88358872D02*
X137086522Y-88406491D01*
X137086522Y-88406491D02*
X137134141Y-88358872D01*
X137134141Y-88358872D02*
X137086522Y-88311253D01*
X137086522Y-88311253D02*
X137038903Y-88358872D01*
X137038903Y-88358872D02*
X137134141Y-88358872D01*
X137372236Y-87882682D02*
X138038903Y-87882682D01*
X137467474Y-87882682D02*
X137419855Y-87835063D01*
X137419855Y-87835063D02*
X137372236Y-87739825D01*
X137372236Y-87739825D02*
X137372236Y-87596968D01*
X137372236Y-87596968D02*
X137419855Y-87501730D01*
X137419855Y-87501730D02*
X137515093Y-87454111D01*
X137515093Y-87454111D02*
X138038903Y-87454111D01*
X137372236Y-86549349D02*
X138038903Y-86549349D01*
X136991284Y-86787444D02*
X137705569Y-87025539D01*
X137705569Y-87025539D02*
X137705569Y-86406492D01*
X200142857Y-84859580D02*
X200095238Y-84907200D01*
X200095238Y-84907200D02*
X199952381Y-84954819D01*
X199952381Y-84954819D02*
X199857143Y-84954819D01*
X199857143Y-84954819D02*
X199714286Y-84907200D01*
X199714286Y-84907200D02*
X199619048Y-84811961D01*
X199619048Y-84811961D02*
X199571429Y-84716723D01*
X199571429Y-84716723D02*
X199523810Y-84526247D01*
X199523810Y-84526247D02*
X199523810Y-84383390D01*
X199523810Y-84383390D02*
X199571429Y-84192914D01*
X199571429Y-84192914D02*
X199619048Y-84097676D01*
X199619048Y-84097676D02*
X199714286Y-84002438D01*
X199714286Y-84002438D02*
X199857143Y-83954819D01*
X199857143Y-83954819D02*
X199952381Y-83954819D01*
X199952381Y-83954819D02*
X200095238Y-84002438D01*
X200095238Y-84002438D02*
X200142857Y-84050057D01*
X200571429Y-84954819D02*
X200571429Y-84288152D01*
X200571429Y-83954819D02*
X200523810Y-84002438D01*
X200523810Y-84002438D02*
X200571429Y-84050057D01*
X200571429Y-84050057D02*
X200619048Y-84002438D01*
X200619048Y-84002438D02*
X200571429Y-83954819D01*
X200571429Y-83954819D02*
X200571429Y-84050057D01*
X201047619Y-84288152D02*
X201047619Y-84954819D01*
X201047619Y-84383390D02*
X201095238Y-84335771D01*
X201095238Y-84335771D02*
X201190476Y-84288152D01*
X201190476Y-84288152D02*
X201333333Y-84288152D01*
X201333333Y-84288152D02*
X201428571Y-84335771D01*
X201428571Y-84335771D02*
X201476190Y-84431009D01*
X201476190Y-84431009D02*
X201476190Y-84954819D01*
X202428571Y-83954819D02*
X201952381Y-83954819D01*
X201952381Y-83954819D02*
X201904762Y-84431009D01*
X201904762Y-84431009D02*
X201952381Y-84383390D01*
X201952381Y-84383390D02*
X202047619Y-84335771D01*
X202047619Y-84335771D02*
X202285714Y-84335771D01*
X202285714Y-84335771D02*
X202380952Y-84383390D01*
X202380952Y-84383390D02*
X202428571Y-84431009D01*
X202428571Y-84431009D02*
X202476190Y-84526247D01*
X202476190Y-84526247D02*
X202476190Y-84764342D01*
X202476190Y-84764342D02*
X202428571Y-84859580D01*
X202428571Y-84859580D02*
X202380952Y-84907200D01*
X202380952Y-84907200D02*
X202285714Y-84954819D01*
X202285714Y-84954819D02*
X202047619Y-84954819D01*
X202047619Y-84954819D02*
X201952381Y-84907200D01*
X201952381Y-84907200D02*
X201904762Y-84859580D01*
X212523333Y-116735402D02*
X212190000Y-116259211D01*
X211951905Y-116735402D02*
X211951905Y-115735402D01*
X211951905Y-115735402D02*
X212332857Y-115735402D01*
X212332857Y-115735402D02*
X212428095Y-115783021D01*
X212428095Y-115783021D02*
X212475714Y-115830640D01*
X212475714Y-115830640D02*
X212523333Y-115925878D01*
X212523333Y-115925878D02*
X212523333Y-116068735D01*
X212523333Y-116068735D02*
X212475714Y-116163973D01*
X212475714Y-116163973D02*
X212428095Y-116211592D01*
X212428095Y-116211592D02*
X212332857Y-116259211D01*
X212332857Y-116259211D02*
X211951905Y-116259211D01*
X212904286Y-115830640D02*
X212951905Y-115783021D01*
X212951905Y-115783021D02*
X213047143Y-115735402D01*
X213047143Y-115735402D02*
X213285238Y-115735402D01*
X213285238Y-115735402D02*
X213380476Y-115783021D01*
X213380476Y-115783021D02*
X213428095Y-115830640D01*
X213428095Y-115830640D02*
X213475714Y-115925878D01*
X213475714Y-115925878D02*
X213475714Y-116021116D01*
X213475714Y-116021116D02*
X213428095Y-116163973D01*
X213428095Y-116163973D02*
X212856667Y-116735402D01*
X212856667Y-116735402D02*
X213475714Y-116735402D01*
X184661255Y-107000369D02*
X184613636Y-107047989D01*
X184613636Y-107047989D02*
X184470779Y-107095608D01*
X184470779Y-107095608D02*
X184375541Y-107095608D01*
X184375541Y-107095608D02*
X184232684Y-107047989D01*
X184232684Y-107047989D02*
X184137446Y-106952750D01*
X184137446Y-106952750D02*
X184089827Y-106857512D01*
X184089827Y-106857512D02*
X184042208Y-106667036D01*
X184042208Y-106667036D02*
X184042208Y-106524179D01*
X184042208Y-106524179D02*
X184089827Y-106333703D01*
X184089827Y-106333703D02*
X184137446Y-106238465D01*
X184137446Y-106238465D02*
X184232684Y-106143227D01*
X184232684Y-106143227D02*
X184375541Y-106095608D01*
X184375541Y-106095608D02*
X184470779Y-106095608D01*
X184470779Y-106095608D02*
X184613636Y-106143227D01*
X184613636Y-106143227D02*
X184661255Y-106190846D01*
X185232684Y-106524179D02*
X185137446Y-106476560D01*
X185137446Y-106476560D02*
X185089827Y-106428941D01*
X185089827Y-106428941D02*
X185042208Y-106333703D01*
X185042208Y-106333703D02*
X185042208Y-106286084D01*
X185042208Y-106286084D02*
X185089827Y-106190846D01*
X185089827Y-106190846D02*
X185137446Y-106143227D01*
X185137446Y-106143227D02*
X185232684Y-106095608D01*
X185232684Y-106095608D02*
X185423160Y-106095608D01*
X185423160Y-106095608D02*
X185518398Y-106143227D01*
X185518398Y-106143227D02*
X185566017Y-106190846D01*
X185566017Y-106190846D02*
X185613636Y-106286084D01*
X185613636Y-106286084D02*
X185613636Y-106333703D01*
X185613636Y-106333703D02*
X185566017Y-106428941D01*
X185566017Y-106428941D02*
X185518398Y-106476560D01*
X185518398Y-106476560D02*
X185423160Y-106524179D01*
X185423160Y-106524179D02*
X185232684Y-106524179D01*
X185232684Y-106524179D02*
X185137446Y-106571798D01*
X185137446Y-106571798D02*
X185089827Y-106619417D01*
X185089827Y-106619417D02*
X185042208Y-106714655D01*
X185042208Y-106714655D02*
X185042208Y-106905131D01*
X185042208Y-106905131D02*
X185089827Y-107000369D01*
X185089827Y-107000369D02*
X185137446Y-107047989D01*
X185137446Y-107047989D02*
X185232684Y-107095608D01*
X185232684Y-107095608D02*
X185423160Y-107095608D01*
X185423160Y-107095608D02*
X185518398Y-107047989D01*
X185518398Y-107047989D02*
X185566017Y-107000369D01*
X185566017Y-107000369D02*
X185613636Y-106905131D01*
X185613636Y-106905131D02*
X185613636Y-106714655D01*
X185613636Y-106714655D02*
X185566017Y-106619417D01*
X185566017Y-106619417D02*
X185518398Y-106571798D01*
X185518398Y-106571798D02*
X185423160Y-106524179D01*
X206954819Y-106333333D02*
X207669104Y-106333333D01*
X207669104Y-106333333D02*
X207811961Y-106380952D01*
X207811961Y-106380952D02*
X207907200Y-106476190D01*
X207907200Y-106476190D02*
X207954819Y-106619047D01*
X207954819Y-106619047D02*
X207954819Y-106714285D01*
X207954819Y-105809523D02*
X207954819Y-105619047D01*
X207954819Y-105619047D02*
X207907200Y-105523809D01*
X207907200Y-105523809D02*
X207859580Y-105476190D01*
X207859580Y-105476190D02*
X207716723Y-105380952D01*
X207716723Y-105380952D02*
X207526247Y-105333333D01*
X207526247Y-105333333D02*
X207145295Y-105333333D01*
X207145295Y-105333333D02*
X207050057Y-105380952D01*
X207050057Y-105380952D02*
X207002438Y-105428571D01*
X207002438Y-105428571D02*
X206954819Y-105523809D01*
X206954819Y-105523809D02*
X206954819Y-105714285D01*
X206954819Y-105714285D02*
X207002438Y-105809523D01*
X207002438Y-105809523D02*
X207050057Y-105857142D01*
X207050057Y-105857142D02*
X207145295Y-105904761D01*
X207145295Y-105904761D02*
X207383390Y-105904761D01*
X207383390Y-105904761D02*
X207478628Y-105857142D01*
X207478628Y-105857142D02*
X207526247Y-105809523D01*
X207526247Y-105809523D02*
X207573866Y-105714285D01*
X207573866Y-105714285D02*
X207573866Y-105523809D01*
X207573866Y-105523809D02*
X207526247Y-105428571D01*
X207526247Y-105428571D02*
X207478628Y-105380952D01*
X207478628Y-105380952D02*
X207383390Y-105333333D01*
X121824819Y-99786666D02*
X121348628Y-100119999D01*
X121824819Y-100358094D02*
X120824819Y-100358094D01*
X120824819Y-100358094D02*
X120824819Y-99977142D01*
X120824819Y-99977142D02*
X120872438Y-99881904D01*
X120872438Y-99881904D02*
X120920057Y-99834285D01*
X120920057Y-99834285D02*
X121015295Y-99786666D01*
X121015295Y-99786666D02*
X121158152Y-99786666D01*
X121158152Y-99786666D02*
X121253390Y-99834285D01*
X121253390Y-99834285D02*
X121301009Y-99881904D01*
X121301009Y-99881904D02*
X121348628Y-99977142D01*
X121348628Y-99977142D02*
X121348628Y-100358094D01*
X121824819Y-98834285D02*
X121824819Y-99405713D01*
X121824819Y-99119999D02*
X120824819Y-99119999D01*
X120824819Y-99119999D02*
X120967676Y-99215237D01*
X120967676Y-99215237D02*
X121062914Y-99310475D01*
X121062914Y-99310475D02*
X121110533Y-99405713D01*
X197857142Y-108954819D02*
X197523809Y-108478628D01*
X197285714Y-108954819D02*
X197285714Y-107954819D01*
X197285714Y-107954819D02*
X197666666Y-107954819D01*
X197666666Y-107954819D02*
X197761904Y-108002438D01*
X197761904Y-108002438D02*
X197809523Y-108050057D01*
X197809523Y-108050057D02*
X197857142Y-108145295D01*
X197857142Y-108145295D02*
X197857142Y-108288152D01*
X197857142Y-108288152D02*
X197809523Y-108383390D01*
X197809523Y-108383390D02*
X197761904Y-108431009D01*
X197761904Y-108431009D02*
X197666666Y-108478628D01*
X197666666Y-108478628D02*
X197285714Y-108478628D01*
X198238095Y-108050057D02*
X198285714Y-108002438D01*
X198285714Y-108002438D02*
X198380952Y-107954819D01*
X198380952Y-107954819D02*
X198619047Y-107954819D01*
X198619047Y-107954819D02*
X198714285Y-108002438D01*
X198714285Y-108002438D02*
X198761904Y-108050057D01*
X198761904Y-108050057D02*
X198809523Y-108145295D01*
X198809523Y-108145295D02*
X198809523Y-108240533D01*
X198809523Y-108240533D02*
X198761904Y-108383390D01*
X198761904Y-108383390D02*
X198190476Y-108954819D01*
X198190476Y-108954819D02*
X198809523Y-108954819D01*
X199714285Y-107954819D02*
X199238095Y-107954819D01*
X199238095Y-107954819D02*
X199190476Y-108431009D01*
X199190476Y-108431009D02*
X199238095Y-108383390D01*
X199238095Y-108383390D02*
X199333333Y-108335771D01*
X199333333Y-108335771D02*
X199571428Y-108335771D01*
X199571428Y-108335771D02*
X199666666Y-108383390D01*
X199666666Y-108383390D02*
X199714285Y-108431009D01*
X199714285Y-108431009D02*
X199761904Y-108526247D01*
X199761904Y-108526247D02*
X199761904Y-108764342D01*
X199761904Y-108764342D02*
X199714285Y-108859580D01*
X199714285Y-108859580D02*
X199666666Y-108907200D01*
X199666666Y-108907200D02*
X199571428Y-108954819D01*
X199571428Y-108954819D02*
X199333333Y-108954819D01*
X199333333Y-108954819D02*
X199238095Y-108907200D01*
X199238095Y-108907200D02*
X199190476Y-108859580D01*
X121859580Y-91167142D02*
X121907200Y-91214761D01*
X121907200Y-91214761D02*
X121954819Y-91357618D01*
X121954819Y-91357618D02*
X121954819Y-91452856D01*
X121954819Y-91452856D02*
X121907200Y-91595713D01*
X121907200Y-91595713D02*
X121811961Y-91690951D01*
X121811961Y-91690951D02*
X121716723Y-91738570D01*
X121716723Y-91738570D02*
X121526247Y-91786189D01*
X121526247Y-91786189D02*
X121383390Y-91786189D01*
X121383390Y-91786189D02*
X121192914Y-91738570D01*
X121192914Y-91738570D02*
X121097676Y-91690951D01*
X121097676Y-91690951D02*
X121002438Y-91595713D01*
X121002438Y-91595713D02*
X120954819Y-91452856D01*
X120954819Y-91452856D02*
X120954819Y-91357618D01*
X120954819Y-91357618D02*
X121002438Y-91214761D01*
X121002438Y-91214761D02*
X121050057Y-91167142D01*
X121954819Y-90738570D02*
X121288152Y-90738570D01*
X120954819Y-90738570D02*
X121002438Y-90786189D01*
X121002438Y-90786189D02*
X121050057Y-90738570D01*
X121050057Y-90738570D02*
X121002438Y-90690951D01*
X121002438Y-90690951D02*
X120954819Y-90738570D01*
X120954819Y-90738570D02*
X121050057Y-90738570D01*
X121288152Y-90262380D02*
X121954819Y-90262380D01*
X121383390Y-90262380D02*
X121335771Y-90214761D01*
X121335771Y-90214761D02*
X121288152Y-90119523D01*
X121288152Y-90119523D02*
X121288152Y-89976666D01*
X121288152Y-89976666D02*
X121335771Y-89881428D01*
X121335771Y-89881428D02*
X121431009Y-89833809D01*
X121431009Y-89833809D02*
X121954819Y-89833809D01*
X121050057Y-89405237D02*
X121002438Y-89357618D01*
X121002438Y-89357618D02*
X120954819Y-89262380D01*
X120954819Y-89262380D02*
X120954819Y-89024285D01*
X120954819Y-89024285D02*
X121002438Y-88929047D01*
X121002438Y-88929047D02*
X121050057Y-88881428D01*
X121050057Y-88881428D02*
X121145295Y-88833809D01*
X121145295Y-88833809D02*
X121240533Y-88833809D01*
X121240533Y-88833809D02*
X121383390Y-88881428D01*
X121383390Y-88881428D02*
X121954819Y-89452856D01*
X121954819Y-89452856D02*
X121954819Y-88833809D01*
X217859580Y-90642857D02*
X217907200Y-90690476D01*
X217907200Y-90690476D02*
X217954819Y-90833333D01*
X217954819Y-90833333D02*
X217954819Y-90928571D01*
X217954819Y-90928571D02*
X217907200Y-91071428D01*
X217907200Y-91071428D02*
X217811961Y-91166666D01*
X217811961Y-91166666D02*
X217716723Y-91214285D01*
X217716723Y-91214285D02*
X217526247Y-91261904D01*
X217526247Y-91261904D02*
X217383390Y-91261904D01*
X217383390Y-91261904D02*
X217192914Y-91214285D01*
X217192914Y-91214285D02*
X217097676Y-91166666D01*
X217097676Y-91166666D02*
X217002438Y-91071428D01*
X217002438Y-91071428D02*
X216954819Y-90928571D01*
X216954819Y-90928571D02*
X216954819Y-90833333D01*
X216954819Y-90833333D02*
X217002438Y-90690476D01*
X217002438Y-90690476D02*
X217050057Y-90642857D01*
X217954819Y-89690476D02*
X217954819Y-90261904D01*
X217954819Y-89976190D02*
X216954819Y-89976190D01*
X216954819Y-89976190D02*
X217097676Y-90071428D01*
X217097676Y-90071428D02*
X217192914Y-90166666D01*
X217192914Y-90166666D02*
X217240533Y-90261904D01*
X217954819Y-88738095D02*
X217954819Y-89309523D01*
X217954819Y-89023809D02*
X216954819Y-89023809D01*
X216954819Y-89023809D02*
X217097676Y-89119047D01*
X217097676Y-89119047D02*
X217192914Y-89214285D01*
X217192914Y-89214285D02*
X217240533Y-89309523D01*
X201357142Y-108954819D02*
X201023809Y-108478628D01*
X200785714Y-108954819D02*
X200785714Y-107954819D01*
X200785714Y-107954819D02*
X201166666Y-107954819D01*
X201166666Y-107954819D02*
X201261904Y-108002438D01*
X201261904Y-108002438D02*
X201309523Y-108050057D01*
X201309523Y-108050057D02*
X201357142Y-108145295D01*
X201357142Y-108145295D02*
X201357142Y-108288152D01*
X201357142Y-108288152D02*
X201309523Y-108383390D01*
X201309523Y-108383390D02*
X201261904Y-108431009D01*
X201261904Y-108431009D02*
X201166666Y-108478628D01*
X201166666Y-108478628D02*
X200785714Y-108478628D01*
X202309523Y-108954819D02*
X201738095Y-108954819D01*
X202023809Y-108954819D02*
X202023809Y-107954819D01*
X202023809Y-107954819D02*
X201928571Y-108097676D01*
X201928571Y-108097676D02*
X201833333Y-108192914D01*
X201833333Y-108192914D02*
X201738095Y-108240533D01*
X203166666Y-107954819D02*
X202976190Y-107954819D01*
X202976190Y-107954819D02*
X202880952Y-108002438D01*
X202880952Y-108002438D02*
X202833333Y-108050057D01*
X202833333Y-108050057D02*
X202738095Y-108192914D01*
X202738095Y-108192914D02*
X202690476Y-108383390D01*
X202690476Y-108383390D02*
X202690476Y-108764342D01*
X202690476Y-108764342D02*
X202738095Y-108859580D01*
X202738095Y-108859580D02*
X202785714Y-108907200D01*
X202785714Y-108907200D02*
X202880952Y-108954819D01*
X202880952Y-108954819D02*
X203071428Y-108954819D01*
X203071428Y-108954819D02*
X203166666Y-108907200D01*
X203166666Y-108907200D02*
X203214285Y-108859580D01*
X203214285Y-108859580D02*
X203261904Y-108764342D01*
X203261904Y-108764342D02*
X203261904Y-108526247D01*
X203261904Y-108526247D02*
X203214285Y-108431009D01*
X203214285Y-108431009D02*
X203166666Y-108383390D01*
X203166666Y-108383390D02*
X203071428Y-108335771D01*
X203071428Y-108335771D02*
X202880952Y-108335771D01*
X202880952Y-108335771D02*
X202785714Y-108383390D01*
X202785714Y-108383390D02*
X202738095Y-108431009D01*
X202738095Y-108431009D02*
X202690476Y-108526247D01*
X173903352Y-116062632D02*
X173855733Y-116110252D01*
X173855733Y-116110252D02*
X173712876Y-116157871D01*
X173712876Y-116157871D02*
X173617638Y-116157871D01*
X173617638Y-116157871D02*
X173474781Y-116110252D01*
X173474781Y-116110252D02*
X173379543Y-116015013D01*
X173379543Y-116015013D02*
X173331924Y-115919775D01*
X173331924Y-115919775D02*
X173284305Y-115729299D01*
X173284305Y-115729299D02*
X173284305Y-115586442D01*
X173284305Y-115586442D02*
X173331924Y-115395966D01*
X173331924Y-115395966D02*
X173379543Y-115300728D01*
X173379543Y-115300728D02*
X173474781Y-115205490D01*
X173474781Y-115205490D02*
X173617638Y-115157871D01*
X173617638Y-115157871D02*
X173712876Y-115157871D01*
X173712876Y-115157871D02*
X173855733Y-115205490D01*
X173855733Y-115205490D02*
X173903352Y-115253109D01*
X174331924Y-116157871D02*
X174331924Y-115491204D01*
X174331924Y-115157871D02*
X174284305Y-115205490D01*
X174284305Y-115205490D02*
X174331924Y-115253109D01*
X174331924Y-115253109D02*
X174379543Y-115205490D01*
X174379543Y-115205490D02*
X174331924Y-115157871D01*
X174331924Y-115157871D02*
X174331924Y-115253109D01*
X174808114Y-115491204D02*
X174808114Y-116157871D01*
X174808114Y-115586442D02*
X174855733Y-115538823D01*
X174855733Y-115538823D02*
X174950971Y-115491204D01*
X174950971Y-115491204D02*
X175093828Y-115491204D01*
X175093828Y-115491204D02*
X175189066Y-115538823D01*
X175189066Y-115538823D02*
X175236685Y-115634061D01*
X175236685Y-115634061D02*
X175236685Y-116157871D01*
X176236685Y-116157871D02*
X175665257Y-116157871D01*
X175950971Y-116157871D02*
X175950971Y-115157871D01*
X175950971Y-115157871D02*
X175855733Y-115300728D01*
X175855733Y-115300728D02*
X175760495Y-115395966D01*
X175760495Y-115395966D02*
X175665257Y-115443585D01*
X176855733Y-115157871D02*
X176950971Y-115157871D01*
X176950971Y-115157871D02*
X177046209Y-115205490D01*
X177046209Y-115205490D02*
X177093828Y-115253109D01*
X177093828Y-115253109D02*
X177141447Y-115348347D01*
X177141447Y-115348347D02*
X177189066Y-115538823D01*
X177189066Y-115538823D02*
X177189066Y-115776918D01*
X177189066Y-115776918D02*
X177141447Y-115967394D01*
X177141447Y-115967394D02*
X177093828Y-116062632D01*
X177093828Y-116062632D02*
X177046209Y-116110252D01*
X177046209Y-116110252D02*
X176950971Y-116157871D01*
X176950971Y-116157871D02*
X176855733Y-116157871D01*
X176855733Y-116157871D02*
X176760495Y-116110252D01*
X176760495Y-116110252D02*
X176712876Y-116062632D01*
X176712876Y-116062632D02*
X176665257Y-115967394D01*
X176665257Y-115967394D02*
X176617638Y-115776918D01*
X176617638Y-115776918D02*
X176617638Y-115538823D01*
X176617638Y-115538823D02*
X176665257Y-115348347D01*
X176665257Y-115348347D02*
X176712876Y-115253109D01*
X176712876Y-115253109D02*
X176760495Y-115205490D01*
X176760495Y-115205490D02*
X176855733Y-115157871D01*
X146297377Y-91132652D02*
X146297377Y-90132652D01*
X146297377Y-90132652D02*
X146535472Y-90132652D01*
X146535472Y-90132652D02*
X146678329Y-90180271D01*
X146678329Y-90180271D02*
X146773567Y-90275509D01*
X146773567Y-90275509D02*
X146821186Y-90370747D01*
X146821186Y-90370747D02*
X146868805Y-90561223D01*
X146868805Y-90561223D02*
X146868805Y-90704080D01*
X146868805Y-90704080D02*
X146821186Y-90894556D01*
X146821186Y-90894556D02*
X146773567Y-90989794D01*
X146773567Y-90989794D02*
X146678329Y-91085033D01*
X146678329Y-91085033D02*
X146535472Y-91132652D01*
X146535472Y-91132652D02*
X146297377Y-91132652D01*
X147202139Y-90132652D02*
X147821186Y-90132652D01*
X147821186Y-90132652D02*
X147487853Y-90513604D01*
X147487853Y-90513604D02*
X147630710Y-90513604D01*
X147630710Y-90513604D02*
X147725948Y-90561223D01*
X147725948Y-90561223D02*
X147773567Y-90608842D01*
X147773567Y-90608842D02*
X147821186Y-90704080D01*
X147821186Y-90704080D02*
X147821186Y-90942175D01*
X147821186Y-90942175D02*
X147773567Y-91037413D01*
X147773567Y-91037413D02*
X147725948Y-91085033D01*
X147725948Y-91085033D02*
X147630710Y-91132652D01*
X147630710Y-91132652D02*
X147344996Y-91132652D01*
X147344996Y-91132652D02*
X147249758Y-91085033D01*
X147249758Y-91085033D02*
X147202139Y-91037413D01*
X177859580Y-94642857D02*
X177907200Y-94690476D01*
X177907200Y-94690476D02*
X177954819Y-94833333D01*
X177954819Y-94833333D02*
X177954819Y-94928571D01*
X177954819Y-94928571D02*
X177907200Y-95071428D01*
X177907200Y-95071428D02*
X177811961Y-95166666D01*
X177811961Y-95166666D02*
X177716723Y-95214285D01*
X177716723Y-95214285D02*
X177526247Y-95261904D01*
X177526247Y-95261904D02*
X177383390Y-95261904D01*
X177383390Y-95261904D02*
X177192914Y-95214285D01*
X177192914Y-95214285D02*
X177097676Y-95166666D01*
X177097676Y-95166666D02*
X177002438Y-95071428D01*
X177002438Y-95071428D02*
X176954819Y-94928571D01*
X176954819Y-94928571D02*
X176954819Y-94833333D01*
X176954819Y-94833333D02*
X177002438Y-94690476D01*
X177002438Y-94690476D02*
X177050057Y-94642857D01*
X177954819Y-93690476D02*
X177954819Y-94261904D01*
X177954819Y-93976190D02*
X176954819Y-93976190D01*
X176954819Y-93976190D02*
X177097676Y-94071428D01*
X177097676Y-94071428D02*
X177192914Y-94166666D01*
X177192914Y-94166666D02*
X177240533Y-94261904D01*
X177954819Y-93214285D02*
X177954819Y-93023809D01*
X177954819Y-93023809D02*
X177907200Y-92928571D01*
X177907200Y-92928571D02*
X177859580Y-92880952D01*
X177859580Y-92880952D02*
X177716723Y-92785714D01*
X177716723Y-92785714D02*
X177526247Y-92738095D01*
X177526247Y-92738095D02*
X177145295Y-92738095D01*
X177145295Y-92738095D02*
X177050057Y-92785714D01*
X177050057Y-92785714D02*
X177002438Y-92833333D01*
X177002438Y-92833333D02*
X176954819Y-92928571D01*
X176954819Y-92928571D02*
X176954819Y-93119047D01*
X176954819Y-93119047D02*
X177002438Y-93214285D01*
X177002438Y-93214285D02*
X177050057Y-93261904D01*
X177050057Y-93261904D02*
X177145295Y-93309523D01*
X177145295Y-93309523D02*
X177383390Y-93309523D01*
X177383390Y-93309523D02*
X177478628Y-93261904D01*
X177478628Y-93261904D02*
X177526247Y-93214285D01*
X177526247Y-93214285D02*
X177573866Y-93119047D01*
X177573866Y-93119047D02*
X177573866Y-92928571D01*
X177573866Y-92928571D02*
X177526247Y-92833333D01*
X177526247Y-92833333D02*
X177478628Y-92785714D01*
X177478628Y-92785714D02*
X177383390Y-92738095D01*
X174155737Y-100115987D02*
X174203357Y-100163606D01*
X174203357Y-100163606D02*
X174250976Y-100306463D01*
X174250976Y-100306463D02*
X174250976Y-100401701D01*
X174250976Y-100401701D02*
X174203357Y-100544558D01*
X174203357Y-100544558D02*
X174108118Y-100639796D01*
X174108118Y-100639796D02*
X174012880Y-100687415D01*
X174012880Y-100687415D02*
X173822404Y-100735034D01*
X173822404Y-100735034D02*
X173679547Y-100735034D01*
X173679547Y-100735034D02*
X173489071Y-100687415D01*
X173489071Y-100687415D02*
X173393833Y-100639796D01*
X173393833Y-100639796D02*
X173298595Y-100544558D01*
X173298595Y-100544558D02*
X173250976Y-100401701D01*
X173250976Y-100401701D02*
X173250976Y-100306463D01*
X173250976Y-100306463D02*
X173298595Y-100163606D01*
X173298595Y-100163606D02*
X173346214Y-100115987D01*
X174250976Y-99163606D02*
X174250976Y-99735034D01*
X174250976Y-99449320D02*
X173250976Y-99449320D01*
X173250976Y-99449320D02*
X173393833Y-99544558D01*
X173393833Y-99544558D02*
X173489071Y-99639796D01*
X173489071Y-99639796D02*
X173536690Y-99735034D01*
X173679547Y-98592177D02*
X173631928Y-98687415D01*
X173631928Y-98687415D02*
X173584309Y-98735034D01*
X173584309Y-98735034D02*
X173489071Y-98782653D01*
X173489071Y-98782653D02*
X173441452Y-98782653D01*
X173441452Y-98782653D02*
X173346214Y-98735034D01*
X173346214Y-98735034D02*
X173298595Y-98687415D01*
X173298595Y-98687415D02*
X173250976Y-98592177D01*
X173250976Y-98592177D02*
X173250976Y-98401701D01*
X173250976Y-98401701D02*
X173298595Y-98306463D01*
X173298595Y-98306463D02*
X173346214Y-98258844D01*
X173346214Y-98258844D02*
X173441452Y-98211225D01*
X173441452Y-98211225D02*
X173489071Y-98211225D01*
X173489071Y-98211225D02*
X173584309Y-98258844D01*
X173584309Y-98258844D02*
X173631928Y-98306463D01*
X173631928Y-98306463D02*
X173679547Y-98401701D01*
X173679547Y-98401701D02*
X173679547Y-98592177D01*
X173679547Y-98592177D02*
X173727166Y-98687415D01*
X173727166Y-98687415D02*
X173774785Y-98735034D01*
X173774785Y-98735034D02*
X173870023Y-98782653D01*
X173870023Y-98782653D02*
X174060499Y-98782653D01*
X174060499Y-98782653D02*
X174155737Y-98735034D01*
X174155737Y-98735034D02*
X174203357Y-98687415D01*
X174203357Y-98687415D02*
X174250976Y-98592177D01*
X174250976Y-98592177D02*
X174250976Y-98401701D01*
X174250976Y-98401701D02*
X174203357Y-98306463D01*
X174203357Y-98306463D02*
X174155737Y-98258844D01*
X174155737Y-98258844D02*
X174060499Y-98211225D01*
X174060499Y-98211225D02*
X173870023Y-98211225D01*
X173870023Y-98211225D02*
X173774785Y-98258844D01*
X173774785Y-98258844D02*
X173727166Y-98306463D01*
X173727166Y-98306463D02*
X173679547Y-98401701D01*
X192357142Y-87954819D02*
X192023809Y-87478628D01*
X191785714Y-87954819D02*
X191785714Y-86954819D01*
X191785714Y-86954819D02*
X192166666Y-86954819D01*
X192166666Y-86954819D02*
X192261904Y-87002438D01*
X192261904Y-87002438D02*
X192309523Y-87050057D01*
X192309523Y-87050057D02*
X192357142Y-87145295D01*
X192357142Y-87145295D02*
X192357142Y-87288152D01*
X192357142Y-87288152D02*
X192309523Y-87383390D01*
X192309523Y-87383390D02*
X192261904Y-87431009D01*
X192261904Y-87431009D02*
X192166666Y-87478628D01*
X192166666Y-87478628D02*
X191785714Y-87478628D01*
X192738095Y-87050057D02*
X192785714Y-87002438D01*
X192785714Y-87002438D02*
X192880952Y-86954819D01*
X192880952Y-86954819D02*
X193119047Y-86954819D01*
X193119047Y-86954819D02*
X193214285Y-87002438D01*
X193214285Y-87002438D02*
X193261904Y-87050057D01*
X193261904Y-87050057D02*
X193309523Y-87145295D01*
X193309523Y-87145295D02*
X193309523Y-87240533D01*
X193309523Y-87240533D02*
X193261904Y-87383390D01*
X193261904Y-87383390D02*
X192690476Y-87954819D01*
X192690476Y-87954819D02*
X193309523Y-87954819D01*
X193880952Y-87383390D02*
X193785714Y-87335771D01*
X193785714Y-87335771D02*
X193738095Y-87288152D01*
X193738095Y-87288152D02*
X193690476Y-87192914D01*
X193690476Y-87192914D02*
X193690476Y-87145295D01*
X193690476Y-87145295D02*
X193738095Y-87050057D01*
X193738095Y-87050057D02*
X193785714Y-87002438D01*
X193785714Y-87002438D02*
X193880952Y-86954819D01*
X193880952Y-86954819D02*
X194071428Y-86954819D01*
X194071428Y-86954819D02*
X194166666Y-87002438D01*
X194166666Y-87002438D02*
X194214285Y-87050057D01*
X194214285Y-87050057D02*
X194261904Y-87145295D01*
X194261904Y-87145295D02*
X194261904Y-87192914D01*
X194261904Y-87192914D02*
X194214285Y-87288152D01*
X194214285Y-87288152D02*
X194166666Y-87335771D01*
X194166666Y-87335771D02*
X194071428Y-87383390D01*
X194071428Y-87383390D02*
X193880952Y-87383390D01*
X193880952Y-87383390D02*
X193785714Y-87431009D01*
X193785714Y-87431009D02*
X193738095Y-87478628D01*
X193738095Y-87478628D02*
X193690476Y-87573866D01*
X193690476Y-87573866D02*
X193690476Y-87764342D01*
X193690476Y-87764342D02*
X193738095Y-87859580D01*
X193738095Y-87859580D02*
X193785714Y-87907200D01*
X193785714Y-87907200D02*
X193880952Y-87954819D01*
X193880952Y-87954819D02*
X194071428Y-87954819D01*
X194071428Y-87954819D02*
X194166666Y-87907200D01*
X194166666Y-87907200D02*
X194214285Y-87859580D01*
X194214285Y-87859580D02*
X194261904Y-87764342D01*
X194261904Y-87764342D02*
X194261904Y-87573866D01*
X194261904Y-87573866D02*
X194214285Y-87478628D01*
X194214285Y-87478628D02*
X194166666Y-87431009D01*
X194166666Y-87431009D02*
X194071428Y-87383390D01*
X137833333Y-121454819D02*
X137500000Y-120978628D01*
X137261905Y-121454819D02*
X137261905Y-120454819D01*
X137261905Y-120454819D02*
X137642857Y-120454819D01*
X137642857Y-120454819D02*
X137738095Y-120502438D01*
X137738095Y-120502438D02*
X137785714Y-120550057D01*
X137785714Y-120550057D02*
X137833333Y-120645295D01*
X137833333Y-120645295D02*
X137833333Y-120788152D01*
X137833333Y-120788152D02*
X137785714Y-120883390D01*
X137785714Y-120883390D02*
X137738095Y-120931009D01*
X137738095Y-120931009D02*
X137642857Y-120978628D01*
X137642857Y-120978628D02*
X137261905Y-120978628D01*
X138738095Y-120454819D02*
X138261905Y-120454819D01*
X138261905Y-120454819D02*
X138214286Y-120931009D01*
X138214286Y-120931009D02*
X138261905Y-120883390D01*
X138261905Y-120883390D02*
X138357143Y-120835771D01*
X138357143Y-120835771D02*
X138595238Y-120835771D01*
X138595238Y-120835771D02*
X138690476Y-120883390D01*
X138690476Y-120883390D02*
X138738095Y-120931009D01*
X138738095Y-120931009D02*
X138785714Y-121026247D01*
X138785714Y-121026247D02*
X138785714Y-121264342D01*
X138785714Y-121264342D02*
X138738095Y-121359580D01*
X138738095Y-121359580D02*
X138690476Y-121407200D01*
X138690476Y-121407200D02*
X138595238Y-121454819D01*
X138595238Y-121454819D02*
X138357143Y-121454819D01*
X138357143Y-121454819D02*
X138261905Y-121407200D01*
X138261905Y-121407200D02*
X138214286Y-121359580D01*
X145557871Y-109820230D02*
X145510252Y-109867850D01*
X145510252Y-109867850D02*
X145367395Y-109915469D01*
X145367395Y-109915469D02*
X145272157Y-109915469D01*
X145272157Y-109915469D02*
X145129300Y-109867850D01*
X145129300Y-109867850D02*
X145034062Y-109772611D01*
X145034062Y-109772611D02*
X144986443Y-109677373D01*
X144986443Y-109677373D02*
X144938824Y-109486897D01*
X144938824Y-109486897D02*
X144938824Y-109344040D01*
X144938824Y-109344040D02*
X144986443Y-109153564D01*
X144986443Y-109153564D02*
X145034062Y-109058326D01*
X145034062Y-109058326D02*
X145129300Y-108963088D01*
X145129300Y-108963088D02*
X145272157Y-108915469D01*
X145272157Y-108915469D02*
X145367395Y-108915469D01*
X145367395Y-108915469D02*
X145510252Y-108963088D01*
X145510252Y-108963088D02*
X145557871Y-109010707D01*
X146462633Y-108915469D02*
X145986443Y-108915469D01*
X145986443Y-108915469D02*
X145938824Y-109391659D01*
X145938824Y-109391659D02*
X145986443Y-109344040D01*
X145986443Y-109344040D02*
X146081681Y-109296421D01*
X146081681Y-109296421D02*
X146319776Y-109296421D01*
X146319776Y-109296421D02*
X146415014Y-109344040D01*
X146415014Y-109344040D02*
X146462633Y-109391659D01*
X146462633Y-109391659D02*
X146510252Y-109486897D01*
X146510252Y-109486897D02*
X146510252Y-109724992D01*
X146510252Y-109724992D02*
X146462633Y-109820230D01*
X146462633Y-109820230D02*
X146415014Y-109867850D01*
X146415014Y-109867850D02*
X146319776Y-109915469D01*
X146319776Y-109915469D02*
X146081681Y-109915469D01*
X146081681Y-109915469D02*
X145986443Y-109867850D01*
X145986443Y-109867850D02*
X145938824Y-109820230D01*
X153357142Y-91577397D02*
X153023809Y-91101206D01*
X152785714Y-91577397D02*
X152785714Y-90577397D01*
X152785714Y-90577397D02*
X153166666Y-90577397D01*
X153166666Y-90577397D02*
X153261904Y-90625016D01*
X153261904Y-90625016D02*
X153309523Y-90672635D01*
X153309523Y-90672635D02*
X153357142Y-90767873D01*
X153357142Y-90767873D02*
X153357142Y-90910730D01*
X153357142Y-90910730D02*
X153309523Y-91005968D01*
X153309523Y-91005968D02*
X153261904Y-91053587D01*
X153261904Y-91053587D02*
X153166666Y-91101206D01*
X153166666Y-91101206D02*
X152785714Y-91101206D01*
X154309523Y-91577397D02*
X153738095Y-91577397D01*
X154023809Y-91577397D02*
X154023809Y-90577397D01*
X154023809Y-90577397D02*
X153928571Y-90720254D01*
X153928571Y-90720254D02*
X153833333Y-90815492D01*
X153833333Y-90815492D02*
X153738095Y-90863111D01*
X154690476Y-90672635D02*
X154738095Y-90625016D01*
X154738095Y-90625016D02*
X154833333Y-90577397D01*
X154833333Y-90577397D02*
X155071428Y-90577397D01*
X155071428Y-90577397D02*
X155166666Y-90625016D01*
X155166666Y-90625016D02*
X155214285Y-90672635D01*
X155214285Y-90672635D02*
X155261904Y-90767873D01*
X155261904Y-90767873D02*
X155261904Y-90863111D01*
X155261904Y-90863111D02*
X155214285Y-91005968D01*
X155214285Y-91005968D02*
X154642857Y-91577397D01*
X154642857Y-91577397D02*
X155261904Y-91577397D01*
X164690476Y-86954819D02*
X164690476Y-87669104D01*
X164690476Y-87669104D02*
X164642857Y-87811961D01*
X164642857Y-87811961D02*
X164547619Y-87907200D01*
X164547619Y-87907200D02*
X164404762Y-87954819D01*
X164404762Y-87954819D02*
X164309524Y-87954819D01*
X165690476Y-87954819D02*
X165119048Y-87954819D01*
X165404762Y-87954819D02*
X165404762Y-86954819D01*
X165404762Y-86954819D02*
X165309524Y-87097676D01*
X165309524Y-87097676D02*
X165214286Y-87192914D01*
X165214286Y-87192914D02*
X165119048Y-87240533D01*
X166595238Y-86954819D02*
X166119048Y-86954819D01*
X166119048Y-86954819D02*
X166071429Y-87431009D01*
X166071429Y-87431009D02*
X166119048Y-87383390D01*
X166119048Y-87383390D02*
X166214286Y-87335771D01*
X166214286Y-87335771D02*
X166452381Y-87335771D01*
X166452381Y-87335771D02*
X166547619Y-87383390D01*
X166547619Y-87383390D02*
X166595238Y-87431009D01*
X166595238Y-87431009D02*
X166642857Y-87526247D01*
X166642857Y-87526247D02*
X166642857Y-87764342D01*
X166642857Y-87764342D02*
X166595238Y-87859580D01*
X166595238Y-87859580D02*
X166547619Y-87907200D01*
X166547619Y-87907200D02*
X166452381Y-87954819D01*
X166452381Y-87954819D02*
X166214286Y-87954819D01*
X166214286Y-87954819D02*
X166119048Y-87907200D01*
X166119048Y-87907200D02*
X166071429Y-87859580D01*
X120857142Y-121359580D02*
X120809523Y-121407200D01*
X120809523Y-121407200D02*
X120666666Y-121454819D01*
X120666666Y-121454819D02*
X120571428Y-121454819D01*
X120571428Y-121454819D02*
X120428571Y-121407200D01*
X120428571Y-121407200D02*
X120333333Y-121311961D01*
X120333333Y-121311961D02*
X120285714Y-121216723D01*
X120285714Y-121216723D02*
X120238095Y-121026247D01*
X120238095Y-121026247D02*
X120238095Y-120883390D01*
X120238095Y-120883390D02*
X120285714Y-120692914D01*
X120285714Y-120692914D02*
X120333333Y-120597676D01*
X120333333Y-120597676D02*
X120428571Y-120502438D01*
X120428571Y-120502438D02*
X120571428Y-120454819D01*
X120571428Y-120454819D02*
X120666666Y-120454819D01*
X120666666Y-120454819D02*
X120809523Y-120502438D01*
X120809523Y-120502438D02*
X120857142Y-120550057D01*
X121809523Y-121454819D02*
X121238095Y-121454819D01*
X121523809Y-121454819D02*
X121523809Y-120454819D01*
X121523809Y-120454819D02*
X121428571Y-120597676D01*
X121428571Y-120597676D02*
X121333333Y-120692914D01*
X121333333Y-120692914D02*
X121238095Y-120740533D01*
X122428571Y-120454819D02*
X122523809Y-120454819D01*
X122523809Y-120454819D02*
X122619047Y-120502438D01*
X122619047Y-120502438D02*
X122666666Y-120550057D01*
X122666666Y-120550057D02*
X122714285Y-120645295D01*
X122714285Y-120645295D02*
X122761904Y-120835771D01*
X122761904Y-120835771D02*
X122761904Y-121073866D01*
X122761904Y-121073866D02*
X122714285Y-121264342D01*
X122714285Y-121264342D02*
X122666666Y-121359580D01*
X122666666Y-121359580D02*
X122619047Y-121407200D01*
X122619047Y-121407200D02*
X122523809Y-121454819D01*
X122523809Y-121454819D02*
X122428571Y-121454819D01*
X122428571Y-121454819D02*
X122333333Y-121407200D01*
X122333333Y-121407200D02*
X122285714Y-121359580D01*
X122285714Y-121359580D02*
X122238095Y-121264342D01*
X122238095Y-121264342D02*
X122190476Y-121073866D01*
X122190476Y-121073866D02*
X122190476Y-120835771D01*
X122190476Y-120835771D02*
X122238095Y-120645295D01*
X122238095Y-120645295D02*
X122285714Y-120550057D01*
X122285714Y-120550057D02*
X122333333Y-120502438D01*
X122333333Y-120502438D02*
X122428571Y-120454819D01*
X184534554Y-83298772D02*
X184534554Y-82298772D01*
X184534554Y-82298772D02*
X184772649Y-82298772D01*
X184772649Y-82298772D02*
X184915506Y-82346391D01*
X184915506Y-82346391D02*
X185010744Y-82441629D01*
X185010744Y-82441629D02*
X185058363Y-82536867D01*
X185058363Y-82536867D02*
X185105982Y-82727343D01*
X185105982Y-82727343D02*
X185105982Y-82870200D01*
X185105982Y-82870200D02*
X185058363Y-83060676D01*
X185058363Y-83060676D02*
X185010744Y-83155914D01*
X185010744Y-83155914D02*
X184915506Y-83251153D01*
X184915506Y-83251153D02*
X184772649Y-83298772D01*
X184772649Y-83298772D02*
X184534554Y-83298772D01*
X185677411Y-82727343D02*
X185582173Y-82679724D01*
X185582173Y-82679724D02*
X185534554Y-82632105D01*
X185534554Y-82632105D02*
X185486935Y-82536867D01*
X185486935Y-82536867D02*
X185486935Y-82489248D01*
X185486935Y-82489248D02*
X185534554Y-82394010D01*
X185534554Y-82394010D02*
X185582173Y-82346391D01*
X185582173Y-82346391D02*
X185677411Y-82298772D01*
X185677411Y-82298772D02*
X185867887Y-82298772D01*
X185867887Y-82298772D02*
X185963125Y-82346391D01*
X185963125Y-82346391D02*
X186010744Y-82394010D01*
X186010744Y-82394010D02*
X186058363Y-82489248D01*
X186058363Y-82489248D02*
X186058363Y-82536867D01*
X186058363Y-82536867D02*
X186010744Y-82632105D01*
X186010744Y-82632105D02*
X185963125Y-82679724D01*
X185963125Y-82679724D02*
X185867887Y-82727343D01*
X185867887Y-82727343D02*
X185677411Y-82727343D01*
X185677411Y-82727343D02*
X185582173Y-82774962D01*
X185582173Y-82774962D02*
X185534554Y-82822581D01*
X185534554Y-82822581D02*
X185486935Y-82917819D01*
X185486935Y-82917819D02*
X185486935Y-83108295D01*
X185486935Y-83108295D02*
X185534554Y-83203533D01*
X185534554Y-83203533D02*
X185582173Y-83251153D01*
X185582173Y-83251153D02*
X185677411Y-83298772D01*
X185677411Y-83298772D02*
X185867887Y-83298772D01*
X185867887Y-83298772D02*
X185963125Y-83251153D01*
X185963125Y-83251153D02*
X186010744Y-83203533D01*
X186010744Y-83203533D02*
X186058363Y-83108295D01*
X186058363Y-83108295D02*
X186058363Y-82917819D01*
X186058363Y-82917819D02*
X186010744Y-82822581D01*
X186010744Y-82822581D02*
X185963125Y-82774962D01*
X185963125Y-82774962D02*
X185867887Y-82727343D01*
X146361909Y-83969595D02*
X146361909Y-82969595D01*
X146361909Y-82969595D02*
X146600004Y-82969595D01*
X146600004Y-82969595D02*
X146742861Y-83017214D01*
X146742861Y-83017214D02*
X146838099Y-83112452D01*
X146838099Y-83112452D02*
X146885718Y-83207690D01*
X146885718Y-83207690D02*
X146933337Y-83398166D01*
X146933337Y-83398166D02*
X146933337Y-83541023D01*
X146933337Y-83541023D02*
X146885718Y-83731499D01*
X146885718Y-83731499D02*
X146838099Y-83826737D01*
X146838099Y-83826737D02*
X146742861Y-83921976D01*
X146742861Y-83921976D02*
X146600004Y-83969595D01*
X146600004Y-83969595D02*
X146361909Y-83969595D01*
X147790480Y-83302928D02*
X147790480Y-83969595D01*
X147552385Y-82921976D02*
X147314290Y-83636261D01*
X147314290Y-83636261D02*
X147933337Y-83636261D01*
X128333333Y-121359580D02*
X128285714Y-121407200D01*
X128285714Y-121407200D02*
X128142857Y-121454819D01*
X128142857Y-121454819D02*
X128047619Y-121454819D01*
X128047619Y-121454819D02*
X127904762Y-121407200D01*
X127904762Y-121407200D02*
X127809524Y-121311961D01*
X127809524Y-121311961D02*
X127761905Y-121216723D01*
X127761905Y-121216723D02*
X127714286Y-121026247D01*
X127714286Y-121026247D02*
X127714286Y-120883390D01*
X127714286Y-120883390D02*
X127761905Y-120692914D01*
X127761905Y-120692914D02*
X127809524Y-120597676D01*
X127809524Y-120597676D02*
X127904762Y-120502438D01*
X127904762Y-120502438D02*
X128047619Y-120454819D01*
X128047619Y-120454819D02*
X128142857Y-120454819D01*
X128142857Y-120454819D02*
X128285714Y-120502438D01*
X128285714Y-120502438D02*
X128333333Y-120550057D01*
X128666667Y-120454819D02*
X129285714Y-120454819D01*
X129285714Y-120454819D02*
X128952381Y-120835771D01*
X128952381Y-120835771D02*
X129095238Y-120835771D01*
X129095238Y-120835771D02*
X129190476Y-120883390D01*
X129190476Y-120883390D02*
X129238095Y-120931009D01*
X129238095Y-120931009D02*
X129285714Y-121026247D01*
X129285714Y-121026247D02*
X129285714Y-121264342D01*
X129285714Y-121264342D02*
X129238095Y-121359580D01*
X129238095Y-121359580D02*
X129190476Y-121407200D01*
X129190476Y-121407200D02*
X129095238Y-121454819D01*
X129095238Y-121454819D02*
X128809524Y-121454819D01*
X128809524Y-121454819D02*
X128714286Y-121407200D01*
X128714286Y-121407200D02*
X128666667Y-121359580D01*
X156274489Y-115325180D02*
X155798298Y-115658513D01*
X156274489Y-115896608D02*
X155274489Y-115896608D01*
X155274489Y-115896608D02*
X155274489Y-115515656D01*
X155274489Y-115515656D02*
X155322108Y-115420418D01*
X155322108Y-115420418D02*
X155369727Y-115372799D01*
X155369727Y-115372799D02*
X155464965Y-115325180D01*
X155464965Y-115325180D02*
X155607822Y-115325180D01*
X155607822Y-115325180D02*
X155703060Y-115372799D01*
X155703060Y-115372799D02*
X155750679Y-115420418D01*
X155750679Y-115420418D02*
X155798298Y-115515656D01*
X155798298Y-115515656D02*
X155798298Y-115896608D01*
X155274489Y-114991846D02*
X155274489Y-114325180D01*
X155274489Y-114325180D02*
X156274489Y-114753751D01*
X191238095Y-107954819D02*
X191238095Y-108764342D01*
X191238095Y-108764342D02*
X191285714Y-108859580D01*
X191285714Y-108859580D02*
X191333333Y-108907200D01*
X191333333Y-108907200D02*
X191428571Y-108954819D01*
X191428571Y-108954819D02*
X191619047Y-108954819D01*
X191619047Y-108954819D02*
X191714285Y-108907200D01*
X191714285Y-108907200D02*
X191761904Y-108859580D01*
X191761904Y-108859580D02*
X191809523Y-108764342D01*
X191809523Y-108764342D02*
X191809523Y-107954819D01*
X192190476Y-107954819D02*
X192809523Y-107954819D01*
X192809523Y-107954819D02*
X192476190Y-108335771D01*
X192476190Y-108335771D02*
X192619047Y-108335771D01*
X192619047Y-108335771D02*
X192714285Y-108383390D01*
X192714285Y-108383390D02*
X192761904Y-108431009D01*
X192761904Y-108431009D02*
X192809523Y-108526247D01*
X192809523Y-108526247D02*
X192809523Y-108764342D01*
X192809523Y-108764342D02*
X192761904Y-108859580D01*
X192761904Y-108859580D02*
X192714285Y-108907200D01*
X192714285Y-108907200D02*
X192619047Y-108954819D01*
X192619047Y-108954819D02*
X192333333Y-108954819D01*
X192333333Y-108954819D02*
X192238095Y-108907200D01*
X192238095Y-108907200D02*
X192190476Y-108859580D01*
X170225078Y-108666098D02*
X170177459Y-108713718D01*
X170177459Y-108713718D02*
X170034602Y-108761337D01*
X170034602Y-108761337D02*
X169939364Y-108761337D01*
X169939364Y-108761337D02*
X169796507Y-108713718D01*
X169796507Y-108713718D02*
X169701269Y-108618479D01*
X169701269Y-108618479D02*
X169653650Y-108523241D01*
X169653650Y-108523241D02*
X169606031Y-108332765D01*
X169606031Y-108332765D02*
X169606031Y-108189908D01*
X169606031Y-108189908D02*
X169653650Y-107999432D01*
X169653650Y-107999432D02*
X169701269Y-107904194D01*
X169701269Y-107904194D02*
X169796507Y-107808956D01*
X169796507Y-107808956D02*
X169939364Y-107761337D01*
X169939364Y-107761337D02*
X170034602Y-107761337D01*
X170034602Y-107761337D02*
X170177459Y-107808956D01*
X170177459Y-107808956D02*
X170225078Y-107856575D01*
X170653650Y-108761337D02*
X170653650Y-108094670D01*
X170653650Y-107761337D02*
X170606031Y-107808956D01*
X170606031Y-107808956D02*
X170653650Y-107856575D01*
X170653650Y-107856575D02*
X170701269Y-107808956D01*
X170701269Y-107808956D02*
X170653650Y-107761337D01*
X170653650Y-107761337D02*
X170653650Y-107856575D01*
X171129840Y-108094670D02*
X171129840Y-108761337D01*
X171129840Y-108189908D02*
X171177459Y-108142289D01*
X171177459Y-108142289D02*
X171272697Y-108094670D01*
X171272697Y-108094670D02*
X171415554Y-108094670D01*
X171415554Y-108094670D02*
X171510792Y-108142289D01*
X171510792Y-108142289D02*
X171558411Y-108237527D01*
X171558411Y-108237527D02*
X171558411Y-108761337D01*
X172558411Y-108761337D02*
X171986983Y-108761337D01*
X172272697Y-108761337D02*
X172272697Y-107761337D01*
X172272697Y-107761337D02*
X172177459Y-107904194D01*
X172177459Y-107904194D02*
X172082221Y-107999432D01*
X172082221Y-107999432D02*
X171986983Y-108047051D01*
X173510792Y-108761337D02*
X172939364Y-108761337D01*
X173225078Y-108761337D02*
X173225078Y-107761337D01*
X173225078Y-107761337D02*
X173129840Y-107904194D01*
X173129840Y-107904194D02*
X173034602Y-107999432D01*
X173034602Y-107999432D02*
X172939364Y-108047051D01*
X213728384Y-119631661D02*
X213776004Y-119679280D01*
X213776004Y-119679280D02*
X213823623Y-119822137D01*
X213823623Y-119822137D02*
X213823623Y-119917375D01*
X213823623Y-119917375D02*
X213776004Y-120060232D01*
X213776004Y-120060232D02*
X213680765Y-120155470D01*
X213680765Y-120155470D02*
X213585527Y-120203089D01*
X213585527Y-120203089D02*
X213395051Y-120250708D01*
X213395051Y-120250708D02*
X213252194Y-120250708D01*
X213252194Y-120250708D02*
X213061718Y-120203089D01*
X213061718Y-120203089D02*
X212966480Y-120155470D01*
X212966480Y-120155470D02*
X212871242Y-120060232D01*
X212871242Y-120060232D02*
X212823623Y-119917375D01*
X212823623Y-119917375D02*
X212823623Y-119822137D01*
X212823623Y-119822137D02*
X212871242Y-119679280D01*
X212871242Y-119679280D02*
X212918861Y-119631661D01*
X213823623Y-118679280D02*
X213823623Y-119250708D01*
X213823623Y-118964994D02*
X212823623Y-118964994D01*
X212823623Y-118964994D02*
X212966480Y-119060232D01*
X212966480Y-119060232D02*
X213061718Y-119155470D01*
X213061718Y-119155470D02*
X213109337Y-119250708D01*
X212918861Y-118298327D02*
X212871242Y-118250708D01*
X212871242Y-118250708D02*
X212823623Y-118155470D01*
X212823623Y-118155470D02*
X212823623Y-117917375D01*
X212823623Y-117917375D02*
X212871242Y-117822137D01*
X212871242Y-117822137D02*
X212918861Y-117774518D01*
X212918861Y-117774518D02*
X213014099Y-117726899D01*
X213014099Y-117726899D02*
X213109337Y-117726899D01*
X213109337Y-117726899D02*
X213252194Y-117774518D01*
X213252194Y-117774518D02*
X213823623Y-118345946D01*
X213823623Y-118345946D02*
X213823623Y-117726899D01*
X207857142Y-84859580D02*
X207809523Y-84907200D01*
X207809523Y-84907200D02*
X207666666Y-84954819D01*
X207666666Y-84954819D02*
X207571428Y-84954819D01*
X207571428Y-84954819D02*
X207428571Y-84907200D01*
X207428571Y-84907200D02*
X207333333Y-84811961D01*
X207333333Y-84811961D02*
X207285714Y-84716723D01*
X207285714Y-84716723D02*
X207238095Y-84526247D01*
X207238095Y-84526247D02*
X207238095Y-84383390D01*
X207238095Y-84383390D02*
X207285714Y-84192914D01*
X207285714Y-84192914D02*
X207333333Y-84097676D01*
X207333333Y-84097676D02*
X207428571Y-84002438D01*
X207428571Y-84002438D02*
X207571428Y-83954819D01*
X207571428Y-83954819D02*
X207666666Y-83954819D01*
X207666666Y-83954819D02*
X207809523Y-84002438D01*
X207809523Y-84002438D02*
X207857142Y-84050057D01*
X208809523Y-84954819D02*
X208238095Y-84954819D01*
X208523809Y-84954819D02*
X208523809Y-83954819D01*
X208523809Y-83954819D02*
X208428571Y-84097676D01*
X208428571Y-84097676D02*
X208333333Y-84192914D01*
X208333333Y-84192914D02*
X208238095Y-84240533D01*
X209142857Y-83954819D02*
X209809523Y-83954819D01*
X209809523Y-83954819D02*
X209380952Y-84954819D01*
X138040651Y-103147872D02*
X138040651Y-102147872D01*
X138040651Y-102147872D02*
X138421603Y-102147872D01*
X138421603Y-102147872D02*
X138516841Y-102195491D01*
X138516841Y-102195491D02*
X138564460Y-102243110D01*
X138564460Y-102243110D02*
X138612079Y-102338348D01*
X138612079Y-102338348D02*
X138612079Y-102481205D01*
X138612079Y-102481205D02*
X138564460Y-102576443D01*
X138564460Y-102576443D02*
X138516841Y-102624062D01*
X138516841Y-102624062D02*
X138421603Y-102671681D01*
X138421603Y-102671681D02*
X138040651Y-102671681D01*
X139183508Y-103147872D02*
X139088270Y-103100253D01*
X139088270Y-103100253D02*
X139040651Y-103052633D01*
X139040651Y-103052633D02*
X138993032Y-102957395D01*
X138993032Y-102957395D02*
X138993032Y-102671681D01*
X138993032Y-102671681D02*
X139040651Y-102576443D01*
X139040651Y-102576443D02*
X139088270Y-102528824D01*
X139088270Y-102528824D02*
X139183508Y-102481205D01*
X139183508Y-102481205D02*
X139326365Y-102481205D01*
X139326365Y-102481205D02*
X139421603Y-102528824D01*
X139421603Y-102528824D02*
X139469222Y-102576443D01*
X139469222Y-102576443D02*
X139516841Y-102671681D01*
X139516841Y-102671681D02*
X139516841Y-102957395D01*
X139516841Y-102957395D02*
X139469222Y-103052633D01*
X139469222Y-103052633D02*
X139421603Y-103100253D01*
X139421603Y-103100253D02*
X139326365Y-103147872D01*
X139326365Y-103147872D02*
X139183508Y-103147872D01*
X139802556Y-102481205D02*
X140183508Y-102481205D01*
X139945413Y-102147872D02*
X139945413Y-103005014D01*
X139945413Y-103005014D02*
X139993032Y-103100253D01*
X139993032Y-103100253D02*
X140088270Y-103147872D01*
X140088270Y-103147872D02*
X140183508Y-103147872D01*
X141802556Y-103147872D02*
X141231128Y-103147872D01*
X141516842Y-103147872D02*
X141516842Y-102147872D01*
X141516842Y-102147872D02*
X141421604Y-102290729D01*
X141421604Y-102290729D02*
X141326366Y-102385967D01*
X141326366Y-102385967D02*
X141231128Y-102433586D01*
X143333333Y-94859580D02*
X143285714Y-94907200D01*
X143285714Y-94907200D02*
X143142857Y-94954819D01*
X143142857Y-94954819D02*
X143047619Y-94954819D01*
X143047619Y-94954819D02*
X142904762Y-94907200D01*
X142904762Y-94907200D02*
X142809524Y-94811961D01*
X142809524Y-94811961D02*
X142761905Y-94716723D01*
X142761905Y-94716723D02*
X142714286Y-94526247D01*
X142714286Y-94526247D02*
X142714286Y-94383390D01*
X142714286Y-94383390D02*
X142761905Y-94192914D01*
X142761905Y-94192914D02*
X142809524Y-94097676D01*
X142809524Y-94097676D02*
X142904762Y-94002438D01*
X142904762Y-94002438D02*
X143047619Y-93954819D01*
X143047619Y-93954819D02*
X143142857Y-93954819D01*
X143142857Y-93954819D02*
X143285714Y-94002438D01*
X143285714Y-94002438D02*
X143333333Y-94050057D01*
X143666667Y-93954819D02*
X144333333Y-93954819D01*
X144333333Y-93954819D02*
X143904762Y-94954819D01*
X125666667Y-85454819D02*
X125666667Y-84454819D01*
X125666667Y-84454819D02*
X126047619Y-84454819D01*
X126047619Y-84454819D02*
X126142857Y-84502438D01*
X126142857Y-84502438D02*
X126190476Y-84550057D01*
X126190476Y-84550057D02*
X126238095Y-84645295D01*
X126238095Y-84645295D02*
X126238095Y-84788152D01*
X126238095Y-84788152D02*
X126190476Y-84883390D01*
X126190476Y-84883390D02*
X126142857Y-84931009D01*
X126142857Y-84931009D02*
X126047619Y-84978628D01*
X126047619Y-84978628D02*
X125666667Y-84978628D01*
X127238095Y-85359580D02*
X127190476Y-85407200D01*
X127190476Y-85407200D02*
X127047619Y-85454819D01*
X127047619Y-85454819D02*
X126952381Y-85454819D01*
X126952381Y-85454819D02*
X126809524Y-85407200D01*
X126809524Y-85407200D02*
X126714286Y-85311961D01*
X126714286Y-85311961D02*
X126666667Y-85216723D01*
X126666667Y-85216723D02*
X126619048Y-85026247D01*
X126619048Y-85026247D02*
X126619048Y-84883390D01*
X126619048Y-84883390D02*
X126666667Y-84692914D01*
X126666667Y-84692914D02*
X126714286Y-84597676D01*
X126714286Y-84597676D02*
X126809524Y-84502438D01*
X126809524Y-84502438D02*
X126952381Y-84454819D01*
X126952381Y-84454819D02*
X127047619Y-84454819D01*
X127047619Y-84454819D02*
X127190476Y-84502438D01*
X127190476Y-84502438D02*
X127238095Y-84550057D01*
X128000000Y-84931009D02*
X128142857Y-84978628D01*
X128142857Y-84978628D02*
X128190476Y-85026247D01*
X128190476Y-85026247D02*
X128238095Y-85121485D01*
X128238095Y-85121485D02*
X128238095Y-85264342D01*
X128238095Y-85264342D02*
X128190476Y-85359580D01*
X128190476Y-85359580D02*
X128142857Y-85407200D01*
X128142857Y-85407200D02*
X128047619Y-85454819D01*
X128047619Y-85454819D02*
X127666667Y-85454819D01*
X127666667Y-85454819D02*
X127666667Y-84454819D01*
X127666667Y-84454819D02*
X128000000Y-84454819D01*
X128000000Y-84454819D02*
X128095238Y-84502438D01*
X128095238Y-84502438D02*
X128142857Y-84550057D01*
X128142857Y-84550057D02*
X128190476Y-84645295D01*
X128190476Y-84645295D02*
X128190476Y-84740533D01*
X128190476Y-84740533D02*
X128142857Y-84835771D01*
X128142857Y-84835771D02*
X128095238Y-84883390D01*
X128095238Y-84883390D02*
X128000000Y-84931009D01*
X128000000Y-84931009D02*
X127666667Y-84931009D01*
X129428572Y-85454819D02*
X129428572Y-84454819D01*
X129904762Y-84788152D02*
X129904762Y-85454819D01*
X129904762Y-84883390D02*
X129952381Y-84835771D01*
X129952381Y-84835771D02*
X130047619Y-84788152D01*
X130047619Y-84788152D02*
X130190476Y-84788152D01*
X130190476Y-84788152D02*
X130285714Y-84835771D01*
X130285714Y-84835771D02*
X130333333Y-84931009D01*
X130333333Y-84931009D02*
X130333333Y-85454819D01*
X201663149Y-117266553D02*
X201663149Y-117980838D01*
X201663149Y-117980838D02*
X201615530Y-118123695D01*
X201615530Y-118123695D02*
X201520292Y-118218934D01*
X201520292Y-118218934D02*
X201377435Y-118266553D01*
X201377435Y-118266553D02*
X201282197Y-118266553D01*
X202663149Y-118266553D02*
X202091721Y-118266553D01*
X202377435Y-118266553D02*
X202377435Y-117266553D01*
X202377435Y-117266553D02*
X202282197Y-117409410D01*
X202282197Y-117409410D02*
X202186959Y-117504648D01*
X202186959Y-117504648D02*
X202091721Y-117552267D01*
X203044102Y-117361791D02*
X203091721Y-117314172D01*
X203091721Y-117314172D02*
X203186959Y-117266553D01*
X203186959Y-117266553D02*
X203425054Y-117266553D01*
X203425054Y-117266553D02*
X203520292Y-117314172D01*
X203520292Y-117314172D02*
X203567911Y-117361791D01*
X203567911Y-117361791D02*
X203615530Y-117457029D01*
X203615530Y-117457029D02*
X203615530Y-117552267D01*
X203615530Y-117552267D02*
X203567911Y-117695124D01*
X203567911Y-117695124D02*
X202996483Y-118266553D01*
X202996483Y-118266553D02*
X203615530Y-118266553D01*
X167626925Y-91976149D02*
X167579306Y-92023769D01*
X167579306Y-92023769D02*
X167436449Y-92071388D01*
X167436449Y-92071388D02*
X167341211Y-92071388D01*
X167341211Y-92071388D02*
X167198354Y-92023769D01*
X167198354Y-92023769D02*
X167103116Y-91928530D01*
X167103116Y-91928530D02*
X167055497Y-91833292D01*
X167055497Y-91833292D02*
X167007878Y-91642816D01*
X167007878Y-91642816D02*
X167007878Y-91499959D01*
X167007878Y-91499959D02*
X167055497Y-91309483D01*
X167055497Y-91309483D02*
X167103116Y-91214245D01*
X167103116Y-91214245D02*
X167198354Y-91119007D01*
X167198354Y-91119007D02*
X167341211Y-91071388D01*
X167341211Y-91071388D02*
X167436449Y-91071388D01*
X167436449Y-91071388D02*
X167579306Y-91119007D01*
X167579306Y-91119007D02*
X167626925Y-91166626D01*
X168579306Y-92071388D02*
X168007878Y-92071388D01*
X168293592Y-92071388D02*
X168293592Y-91071388D01*
X168293592Y-91071388D02*
X168198354Y-91214245D01*
X168198354Y-91214245D02*
X168103116Y-91309483D01*
X168103116Y-91309483D02*
X168007878Y-91357102D01*
X169436449Y-91071388D02*
X169245973Y-91071388D01*
X169245973Y-91071388D02*
X169150735Y-91119007D01*
X169150735Y-91119007D02*
X169103116Y-91166626D01*
X169103116Y-91166626D02*
X169007878Y-91309483D01*
X169007878Y-91309483D02*
X168960259Y-91499959D01*
X168960259Y-91499959D02*
X168960259Y-91880911D01*
X168960259Y-91880911D02*
X169007878Y-91976149D01*
X169007878Y-91976149D02*
X169055497Y-92023769D01*
X169055497Y-92023769D02*
X169150735Y-92071388D01*
X169150735Y-92071388D02*
X169341211Y-92071388D01*
X169341211Y-92071388D02*
X169436449Y-92023769D01*
X169436449Y-92023769D02*
X169484068Y-91976149D01*
X169484068Y-91976149D02*
X169531687Y-91880911D01*
X169531687Y-91880911D02*
X169531687Y-91642816D01*
X169531687Y-91642816D02*
X169484068Y-91547578D01*
X169484068Y-91547578D02*
X169436449Y-91499959D01*
X169436449Y-91499959D02*
X169341211Y-91452340D01*
X169341211Y-91452340D02*
X169150735Y-91452340D01*
X169150735Y-91452340D02*
X169055497Y-91499959D01*
X169055497Y-91499959D02*
X169007878Y-91547578D01*
X169007878Y-91547578D02*
X168960259Y-91642816D01*
X154757629Y-108548411D02*
X154281438Y-108881744D01*
X154757629Y-109119839D02*
X153757629Y-109119839D01*
X153757629Y-109119839D02*
X153757629Y-108738887D01*
X153757629Y-108738887D02*
X153805248Y-108643649D01*
X153805248Y-108643649D02*
X153852867Y-108596030D01*
X153852867Y-108596030D02*
X153948105Y-108548411D01*
X153948105Y-108548411D02*
X154090962Y-108548411D01*
X154090962Y-108548411D02*
X154186200Y-108596030D01*
X154186200Y-108596030D02*
X154233819Y-108643649D01*
X154233819Y-108643649D02*
X154281438Y-108738887D01*
X154281438Y-108738887D02*
X154281438Y-109119839D01*
X153757629Y-108262696D02*
X154757629Y-107929363D01*
X154757629Y-107929363D02*
X153757629Y-107596030D01*
X153852867Y-107310315D02*
X153805248Y-107262696D01*
X153805248Y-107262696D02*
X153757629Y-107167458D01*
X153757629Y-107167458D02*
X153757629Y-106929363D01*
X153757629Y-106929363D02*
X153805248Y-106834125D01*
X153805248Y-106834125D02*
X153852867Y-106786506D01*
X153852867Y-106786506D02*
X153948105Y-106738887D01*
X153948105Y-106738887D02*
X154043343Y-106738887D01*
X154043343Y-106738887D02*
X154186200Y-106786506D01*
X154186200Y-106786506D02*
X154757629Y-107357934D01*
X154757629Y-107357934D02*
X154757629Y-106738887D01*
X164597325Y-100934240D02*
X164549706Y-100981860D01*
X164549706Y-100981860D02*
X164406849Y-101029479D01*
X164406849Y-101029479D02*
X164311611Y-101029479D01*
X164311611Y-101029479D02*
X164168754Y-100981860D01*
X164168754Y-100981860D02*
X164073516Y-100886621D01*
X164073516Y-100886621D02*
X164025897Y-100791383D01*
X164025897Y-100791383D02*
X163978278Y-100600907D01*
X163978278Y-100600907D02*
X163978278Y-100458050D01*
X163978278Y-100458050D02*
X164025897Y-100267574D01*
X164025897Y-100267574D02*
X164073516Y-100172336D01*
X164073516Y-100172336D02*
X164168754Y-100077098D01*
X164168754Y-100077098D02*
X164311611Y-100029479D01*
X164311611Y-100029479D02*
X164406849Y-100029479D01*
X164406849Y-100029479D02*
X164549706Y-100077098D01*
X164549706Y-100077098D02*
X164597325Y-100124717D01*
X165025897Y-101029479D02*
X165025897Y-100362812D01*
X165025897Y-100029479D02*
X164978278Y-100077098D01*
X164978278Y-100077098D02*
X165025897Y-100124717D01*
X165025897Y-100124717D02*
X165073516Y-100077098D01*
X165073516Y-100077098D02*
X165025897Y-100029479D01*
X165025897Y-100029479D02*
X165025897Y-100124717D01*
X165502087Y-100362812D02*
X165502087Y-101029479D01*
X165502087Y-100458050D02*
X165549706Y-100410431D01*
X165549706Y-100410431D02*
X165644944Y-100362812D01*
X165644944Y-100362812D02*
X165787801Y-100362812D01*
X165787801Y-100362812D02*
X165883039Y-100410431D01*
X165883039Y-100410431D02*
X165930658Y-100505669D01*
X165930658Y-100505669D02*
X165930658Y-101029479D01*
X166835420Y-100029479D02*
X166644944Y-100029479D01*
X166644944Y-100029479D02*
X166549706Y-100077098D01*
X166549706Y-100077098D02*
X166502087Y-100124717D01*
X166502087Y-100124717D02*
X166406849Y-100267574D01*
X166406849Y-100267574D02*
X166359230Y-100458050D01*
X166359230Y-100458050D02*
X166359230Y-100839002D01*
X166359230Y-100839002D02*
X166406849Y-100934240D01*
X166406849Y-100934240D02*
X166454468Y-100981860D01*
X166454468Y-100981860D02*
X166549706Y-101029479D01*
X166549706Y-101029479D02*
X166740182Y-101029479D01*
X166740182Y-101029479D02*
X166835420Y-100981860D01*
X166835420Y-100981860D02*
X166883039Y-100934240D01*
X166883039Y-100934240D02*
X166930658Y-100839002D01*
X166930658Y-100839002D02*
X166930658Y-100600907D01*
X166930658Y-100600907D02*
X166883039Y-100505669D01*
X166883039Y-100505669D02*
X166835420Y-100458050D01*
X166835420Y-100458050D02*
X166740182Y-100410431D01*
X166740182Y-100410431D02*
X166549706Y-100410431D01*
X166549706Y-100410431D02*
X166454468Y-100458050D01*
X166454468Y-100458050D02*
X166406849Y-100505669D01*
X166406849Y-100505669D02*
X166359230Y-100600907D01*
X169764819Y-120309523D02*
X170479104Y-120309523D01*
X170479104Y-120309523D02*
X170621961Y-120357142D01*
X170621961Y-120357142D02*
X170717200Y-120452380D01*
X170717200Y-120452380D02*
X170764819Y-120595237D01*
X170764819Y-120595237D02*
X170764819Y-120690475D01*
X170764819Y-119309523D02*
X170764819Y-119880951D01*
X170764819Y-119595237D02*
X169764819Y-119595237D01*
X169764819Y-119595237D02*
X169907676Y-119690475D01*
X169907676Y-119690475D02*
X170002914Y-119785713D01*
X170002914Y-119785713D02*
X170050533Y-119880951D01*
X170764819Y-118357142D02*
X170764819Y-118928570D01*
X170764819Y-118642856D02*
X169764819Y-118642856D01*
X169764819Y-118642856D02*
X169907676Y-118738094D01*
X169907676Y-118738094D02*
X170002914Y-118833332D01*
X170002914Y-118833332D02*
X170050533Y-118928570D01*
X212618844Y-109156387D02*
X212285511Y-108680196D01*
X212047416Y-109156387D02*
X212047416Y-108156387D01*
X212047416Y-108156387D02*
X212428368Y-108156387D01*
X212428368Y-108156387D02*
X212523606Y-108204006D01*
X212523606Y-108204006D02*
X212571225Y-108251625D01*
X212571225Y-108251625D02*
X212618844Y-108346863D01*
X212618844Y-108346863D02*
X212618844Y-108489720D01*
X212618844Y-108489720D02*
X212571225Y-108584958D01*
X212571225Y-108584958D02*
X212523606Y-108632577D01*
X212523606Y-108632577D02*
X212428368Y-108680196D01*
X212428368Y-108680196D02*
X212047416Y-108680196D01*
X213475987Y-108489720D02*
X213475987Y-109156387D01*
X213237892Y-108108768D02*
X212999797Y-108823053D01*
X212999797Y-108823053D02*
X213618844Y-108823053D01*
X206666666Y-103454819D02*
X206666666Y-104169104D01*
X206666666Y-104169104D02*
X206619047Y-104311961D01*
X206619047Y-104311961D02*
X206523809Y-104407200D01*
X206523809Y-104407200D02*
X206380952Y-104454819D01*
X206380952Y-104454819D02*
X206285714Y-104454819D01*
X207619047Y-103454819D02*
X207142857Y-103454819D01*
X207142857Y-103454819D02*
X207095238Y-103931009D01*
X207095238Y-103931009D02*
X207142857Y-103883390D01*
X207142857Y-103883390D02*
X207238095Y-103835771D01*
X207238095Y-103835771D02*
X207476190Y-103835771D01*
X207476190Y-103835771D02*
X207571428Y-103883390D01*
X207571428Y-103883390D02*
X207619047Y-103931009D01*
X207619047Y-103931009D02*
X207666666Y-104026247D01*
X207666666Y-104026247D02*
X207666666Y-104264342D01*
X207666666Y-104264342D02*
X207619047Y-104359580D01*
X207619047Y-104359580D02*
X207571428Y-104407200D01*
X207571428Y-104407200D02*
X207476190Y-104454819D01*
X207476190Y-104454819D02*
X207238095Y-104454819D01*
X207238095Y-104454819D02*
X207142857Y-104407200D01*
X207142857Y-104407200D02*
X207095238Y-104359580D01*
X127236053Y-91103969D02*
X126902720Y-90627778D01*
X126664625Y-91103969D02*
X126664625Y-90103969D01*
X126664625Y-90103969D02*
X127045577Y-90103969D01*
X127045577Y-90103969D02*
X127140815Y-90151588D01*
X127140815Y-90151588D02*
X127188434Y-90199207D01*
X127188434Y-90199207D02*
X127236053Y-90294445D01*
X127236053Y-90294445D02*
X127236053Y-90437302D01*
X127236053Y-90437302D02*
X127188434Y-90532540D01*
X127188434Y-90532540D02*
X127140815Y-90580159D01*
X127140815Y-90580159D02*
X127045577Y-90627778D01*
X127045577Y-90627778D02*
X126664625Y-90627778D01*
X127664625Y-90437302D02*
X127664625Y-91437302D01*
X127664625Y-90484921D02*
X127759863Y-90437302D01*
X127759863Y-90437302D02*
X127950339Y-90437302D01*
X127950339Y-90437302D02*
X128045577Y-90484921D01*
X128045577Y-90484921D02*
X128093196Y-90532540D01*
X128093196Y-90532540D02*
X128140815Y-90627778D01*
X128140815Y-90627778D02*
X128140815Y-90913492D01*
X128140815Y-90913492D02*
X128093196Y-91008730D01*
X128093196Y-91008730D02*
X128045577Y-91056350D01*
X128045577Y-91056350D02*
X127950339Y-91103969D01*
X127950339Y-91103969D02*
X127759863Y-91103969D01*
X127759863Y-91103969D02*
X127664625Y-91056350D01*
X128997958Y-90437302D02*
X128997958Y-91103969D01*
X128569387Y-90437302D02*
X128569387Y-90961111D01*
X128569387Y-90961111D02*
X128617006Y-91056350D01*
X128617006Y-91056350D02*
X128712244Y-91103969D01*
X128712244Y-91103969D02*
X128855101Y-91103969D01*
X128855101Y-91103969D02*
X128950339Y-91056350D01*
X128950339Y-91056350D02*
X128997958Y-91008730D01*
X129617006Y-91103969D02*
X129521768Y-91056350D01*
X129521768Y-91056350D02*
X129474149Y-90961111D01*
X129474149Y-90961111D02*
X129474149Y-90103969D01*
X130140816Y-91103969D02*
X130045578Y-91056350D01*
X130045578Y-91056350D02*
X129997959Y-90961111D01*
X129997959Y-90961111D02*
X129997959Y-90103969D01*
X131045578Y-91103969D02*
X130474150Y-91103969D01*
X130759864Y-91103969D02*
X130759864Y-90103969D01*
X130759864Y-90103969D02*
X130664626Y-90246826D01*
X130664626Y-90246826D02*
X130569388Y-90342064D01*
X130569388Y-90342064D02*
X130474150Y-90389683D01*
X157013306Y-83558905D02*
X156965687Y-83606525D01*
X156965687Y-83606525D02*
X156822830Y-83654144D01*
X156822830Y-83654144D02*
X156727592Y-83654144D01*
X156727592Y-83654144D02*
X156584735Y-83606525D01*
X156584735Y-83606525D02*
X156489497Y-83511286D01*
X156489497Y-83511286D02*
X156441878Y-83416048D01*
X156441878Y-83416048D02*
X156394259Y-83225572D01*
X156394259Y-83225572D02*
X156394259Y-83082715D01*
X156394259Y-83082715D02*
X156441878Y-82892239D01*
X156441878Y-82892239D02*
X156489497Y-82797001D01*
X156489497Y-82797001D02*
X156584735Y-82701763D01*
X156584735Y-82701763D02*
X156727592Y-82654144D01*
X156727592Y-82654144D02*
X156822830Y-82654144D01*
X156822830Y-82654144D02*
X156965687Y-82701763D01*
X156965687Y-82701763D02*
X157013306Y-82749382D01*
X157394259Y-82749382D02*
X157441878Y-82701763D01*
X157441878Y-82701763D02*
X157537116Y-82654144D01*
X157537116Y-82654144D02*
X157775211Y-82654144D01*
X157775211Y-82654144D02*
X157870449Y-82701763D01*
X157870449Y-82701763D02*
X157918068Y-82749382D01*
X157918068Y-82749382D02*
X157965687Y-82844620D01*
X157965687Y-82844620D02*
X157965687Y-82939858D01*
X157965687Y-82939858D02*
X157918068Y-83082715D01*
X157918068Y-83082715D02*
X157346640Y-83654144D01*
X157346640Y-83654144D02*
X157965687Y-83654144D01*
X158918068Y-83654144D02*
X158346640Y-83654144D01*
X158632354Y-83654144D02*
X158632354Y-82654144D01*
X158632354Y-82654144D02*
X158537116Y-82797001D01*
X158537116Y-82797001D02*
X158441878Y-82892239D01*
X158441878Y-82892239D02*
X158346640Y-82939858D01*
X192183855Y-93161630D02*
X192136236Y-93209250D01*
X192136236Y-93209250D02*
X191993379Y-93256869D01*
X191993379Y-93256869D02*
X191898141Y-93256869D01*
X191898141Y-93256869D02*
X191755284Y-93209250D01*
X191755284Y-93209250D02*
X191660046Y-93114011D01*
X191660046Y-93114011D02*
X191612427Y-93018773D01*
X191612427Y-93018773D02*
X191564808Y-92828297D01*
X191564808Y-92828297D02*
X191564808Y-92685440D01*
X191564808Y-92685440D02*
X191612427Y-92494964D01*
X191612427Y-92494964D02*
X191660046Y-92399726D01*
X191660046Y-92399726D02*
X191755284Y-92304488D01*
X191755284Y-92304488D02*
X191898141Y-92256869D01*
X191898141Y-92256869D02*
X191993379Y-92256869D01*
X191993379Y-92256869D02*
X192136236Y-92304488D01*
X192136236Y-92304488D02*
X192183855Y-92352107D01*
X192564808Y-92352107D02*
X192612427Y-92304488D01*
X192612427Y-92304488D02*
X192707665Y-92256869D01*
X192707665Y-92256869D02*
X192945760Y-92256869D01*
X192945760Y-92256869D02*
X193040998Y-92304488D01*
X193040998Y-92304488D02*
X193088617Y-92352107D01*
X193088617Y-92352107D02*
X193136236Y-92447345D01*
X193136236Y-92447345D02*
X193136236Y-92542583D01*
X193136236Y-92542583D02*
X193088617Y-92685440D01*
X193088617Y-92685440D02*
X192517189Y-93256869D01*
X192517189Y-93256869D02*
X193136236Y-93256869D01*
X193755284Y-92256869D02*
X193850522Y-92256869D01*
X193850522Y-92256869D02*
X193945760Y-92304488D01*
X193945760Y-92304488D02*
X193993379Y-92352107D01*
X193993379Y-92352107D02*
X194040998Y-92447345D01*
X194040998Y-92447345D02*
X194088617Y-92637821D01*
X194088617Y-92637821D02*
X194088617Y-92875916D01*
X194088617Y-92875916D02*
X194040998Y-93066392D01*
X194040998Y-93066392D02*
X193993379Y-93161630D01*
X193993379Y-93161630D02*
X193945760Y-93209250D01*
X193945760Y-93209250D02*
X193850522Y-93256869D01*
X193850522Y-93256869D02*
X193755284Y-93256869D01*
X193755284Y-93256869D02*
X193660046Y-93209250D01*
X193660046Y-93209250D02*
X193612427Y-93161630D01*
X193612427Y-93161630D02*
X193564808Y-93066392D01*
X193564808Y-93066392D02*
X193517189Y-92875916D01*
X193517189Y-92875916D02*
X193517189Y-92637821D01*
X193517189Y-92637821D02*
X193564808Y-92447345D01*
X193564808Y-92447345D02*
X193612427Y-92352107D01*
X193612427Y-92352107D02*
X193660046Y-92304488D01*
X193660046Y-92304488D02*
X193755284Y-92256869D01*
X178953490Y-106940105D02*
X178620157Y-106463914D01*
X178382062Y-106940105D02*
X178382062Y-105940105D01*
X178382062Y-105940105D02*
X178763014Y-105940105D01*
X178763014Y-105940105D02*
X178858252Y-105987724D01*
X178858252Y-105987724D02*
X178905871Y-106035343D01*
X178905871Y-106035343D02*
X178953490Y-106130581D01*
X178953490Y-106130581D02*
X178953490Y-106273438D01*
X178953490Y-106273438D02*
X178905871Y-106368676D01*
X178905871Y-106368676D02*
X178858252Y-106416295D01*
X178858252Y-106416295D02*
X178763014Y-106463914D01*
X178763014Y-106463914D02*
X178382062Y-106463914D01*
X179334443Y-106035343D02*
X179382062Y-105987724D01*
X179382062Y-105987724D02*
X179477300Y-105940105D01*
X179477300Y-105940105D02*
X179715395Y-105940105D01*
X179715395Y-105940105D02*
X179810633Y-105987724D01*
X179810633Y-105987724D02*
X179858252Y-106035343D01*
X179858252Y-106035343D02*
X179905871Y-106130581D01*
X179905871Y-106130581D02*
X179905871Y-106225819D01*
X179905871Y-106225819D02*
X179858252Y-106368676D01*
X179858252Y-106368676D02*
X179286824Y-106940105D01*
X179286824Y-106940105D02*
X179905871Y-106940105D01*
X180286824Y-106035343D02*
X180334443Y-105987724D01*
X180334443Y-105987724D02*
X180429681Y-105940105D01*
X180429681Y-105940105D02*
X180667776Y-105940105D01*
X180667776Y-105940105D02*
X180763014Y-105987724D01*
X180763014Y-105987724D02*
X180810633Y-106035343D01*
X180810633Y-106035343D02*
X180858252Y-106130581D01*
X180858252Y-106130581D02*
X180858252Y-106225819D01*
X180858252Y-106225819D02*
X180810633Y-106368676D01*
X180810633Y-106368676D02*
X180239205Y-106940105D01*
X180239205Y-106940105D02*
X180858252Y-106940105D01*
X121694567Y-112982094D02*
X121646948Y-113029714D01*
X121646948Y-113029714D02*
X121504091Y-113077333D01*
X121504091Y-113077333D02*
X121408853Y-113077333D01*
X121408853Y-113077333D02*
X121265996Y-113029714D01*
X121265996Y-113029714D02*
X121170758Y-112934475D01*
X121170758Y-112934475D02*
X121123139Y-112839237D01*
X121123139Y-112839237D02*
X121075520Y-112648761D01*
X121075520Y-112648761D02*
X121075520Y-112505904D01*
X121075520Y-112505904D02*
X121123139Y-112315428D01*
X121123139Y-112315428D02*
X121170758Y-112220190D01*
X121170758Y-112220190D02*
X121265996Y-112124952D01*
X121265996Y-112124952D02*
X121408853Y-112077333D01*
X121408853Y-112077333D02*
X121504091Y-112077333D01*
X121504091Y-112077333D02*
X121646948Y-112124952D01*
X121646948Y-112124952D02*
X121694567Y-112172571D01*
X122170758Y-113077333D02*
X122361234Y-113077333D01*
X122361234Y-113077333D02*
X122456472Y-113029714D01*
X122456472Y-113029714D02*
X122504091Y-112982094D01*
X122504091Y-112982094D02*
X122599329Y-112839237D01*
X122599329Y-112839237D02*
X122646948Y-112648761D01*
X122646948Y-112648761D02*
X122646948Y-112267809D01*
X122646948Y-112267809D02*
X122599329Y-112172571D01*
X122599329Y-112172571D02*
X122551710Y-112124952D01*
X122551710Y-112124952D02*
X122456472Y-112077333D01*
X122456472Y-112077333D02*
X122265996Y-112077333D01*
X122265996Y-112077333D02*
X122170758Y-112124952D01*
X122170758Y-112124952D02*
X122123139Y-112172571D01*
X122123139Y-112172571D02*
X122075520Y-112267809D01*
X122075520Y-112267809D02*
X122075520Y-112505904D01*
X122075520Y-112505904D02*
X122123139Y-112601142D01*
X122123139Y-112601142D02*
X122170758Y-112648761D01*
X122170758Y-112648761D02*
X122265996Y-112696380D01*
X122265996Y-112696380D02*
X122456472Y-112696380D01*
X122456472Y-112696380D02*
X122551710Y-112648761D01*
X122551710Y-112648761D02*
X122599329Y-112601142D01*
X122599329Y-112601142D02*
X122646948Y-112505904D01*
X200857142Y-97341633D02*
X200523809Y-96865442D01*
X200285714Y-97341633D02*
X200285714Y-96341633D01*
X200285714Y-96341633D02*
X200666666Y-96341633D01*
X200666666Y-96341633D02*
X200761904Y-96389252D01*
X200761904Y-96389252D02*
X200809523Y-96436871D01*
X200809523Y-96436871D02*
X200857142Y-96532109D01*
X200857142Y-96532109D02*
X200857142Y-96674966D01*
X200857142Y-96674966D02*
X200809523Y-96770204D01*
X200809523Y-96770204D02*
X200761904Y-96817823D01*
X200761904Y-96817823D02*
X200666666Y-96865442D01*
X200666666Y-96865442D02*
X200285714Y-96865442D01*
X201238095Y-96436871D02*
X201285714Y-96389252D01*
X201285714Y-96389252D02*
X201380952Y-96341633D01*
X201380952Y-96341633D02*
X201619047Y-96341633D01*
X201619047Y-96341633D02*
X201714285Y-96389252D01*
X201714285Y-96389252D02*
X201761904Y-96436871D01*
X201761904Y-96436871D02*
X201809523Y-96532109D01*
X201809523Y-96532109D02*
X201809523Y-96627347D01*
X201809523Y-96627347D02*
X201761904Y-96770204D01*
X201761904Y-96770204D02*
X201190476Y-97341633D01*
X201190476Y-97341633D02*
X201809523Y-97341633D01*
X202666666Y-96674966D02*
X202666666Y-97341633D01*
X202428571Y-96294014D02*
X202190476Y-97008299D01*
X202190476Y-97008299D02*
X202809523Y-97008299D01*
X165006578Y-115720378D02*
X165054198Y-115767997D01*
X165054198Y-115767997D02*
X165101817Y-115910854D01*
X165101817Y-115910854D02*
X165101817Y-116006092D01*
X165101817Y-116006092D02*
X165054198Y-116148949D01*
X165054198Y-116148949D02*
X164958959Y-116244187D01*
X164958959Y-116244187D02*
X164863721Y-116291806D01*
X164863721Y-116291806D02*
X164673245Y-116339425D01*
X164673245Y-116339425D02*
X164530388Y-116339425D01*
X164530388Y-116339425D02*
X164339912Y-116291806D01*
X164339912Y-116291806D02*
X164244674Y-116244187D01*
X164244674Y-116244187D02*
X164149436Y-116148949D01*
X164149436Y-116148949D02*
X164101817Y-116006092D01*
X164101817Y-116006092D02*
X164101817Y-115910854D01*
X164101817Y-115910854D02*
X164149436Y-115767997D01*
X164149436Y-115767997D02*
X164197055Y-115720378D01*
X165101817Y-115291806D02*
X164435150Y-115291806D01*
X164101817Y-115291806D02*
X164149436Y-115339425D01*
X164149436Y-115339425D02*
X164197055Y-115291806D01*
X164197055Y-115291806D02*
X164149436Y-115244187D01*
X164149436Y-115244187D02*
X164101817Y-115291806D01*
X164101817Y-115291806D02*
X164197055Y-115291806D01*
X164435150Y-114815616D02*
X165101817Y-114815616D01*
X164530388Y-114815616D02*
X164482769Y-114767997D01*
X164482769Y-114767997D02*
X164435150Y-114672759D01*
X164435150Y-114672759D02*
X164435150Y-114529902D01*
X164435150Y-114529902D02*
X164482769Y-114434664D01*
X164482769Y-114434664D02*
X164578007Y-114387045D01*
X164578007Y-114387045D02*
X165101817Y-114387045D01*
X164101817Y-114006092D02*
X164101817Y-113387045D01*
X164101817Y-113387045D02*
X164482769Y-113720378D01*
X164482769Y-113720378D02*
X164482769Y-113577521D01*
X164482769Y-113577521D02*
X164530388Y-113482283D01*
X164530388Y-113482283D02*
X164578007Y-113434664D01*
X164578007Y-113434664D02*
X164673245Y-113387045D01*
X164673245Y-113387045D02*
X164911340Y-113387045D01*
X164911340Y-113387045D02*
X165006578Y-113434664D01*
X165006578Y-113434664D02*
X165054198Y-113482283D01*
X165054198Y-113482283D02*
X165101817Y-113577521D01*
X165101817Y-113577521D02*
X165101817Y-113863235D01*
X165101817Y-113863235D02*
X165054198Y-113958473D01*
X165054198Y-113958473D02*
X165006578Y-114006092D01*
X214223482Y-81157295D02*
X214223482Y-81871580D01*
X214223482Y-81871580D02*
X214175863Y-82014437D01*
X214175863Y-82014437D02*
X214080625Y-82109676D01*
X214080625Y-82109676D02*
X213937768Y-82157295D01*
X213937768Y-82157295D02*
X213842530Y-82157295D01*
X215223482Y-82157295D02*
X214652054Y-82157295D01*
X214937768Y-82157295D02*
X214937768Y-81157295D01*
X214937768Y-81157295D02*
X214842530Y-81300152D01*
X214842530Y-81300152D02*
X214747292Y-81395390D01*
X214747292Y-81395390D02*
X214652054Y-81443009D01*
X216080625Y-81157295D02*
X215890149Y-81157295D01*
X215890149Y-81157295D02*
X215794911Y-81204914D01*
X215794911Y-81204914D02*
X215747292Y-81252533D01*
X215747292Y-81252533D02*
X215652054Y-81395390D01*
X215652054Y-81395390D02*
X215604435Y-81585866D01*
X215604435Y-81585866D02*
X215604435Y-81966818D01*
X215604435Y-81966818D02*
X215652054Y-82062056D01*
X215652054Y-82062056D02*
X215699673Y-82109676D01*
X215699673Y-82109676D02*
X215794911Y-82157295D01*
X215794911Y-82157295D02*
X215985387Y-82157295D01*
X215985387Y-82157295D02*
X216080625Y-82109676D01*
X216080625Y-82109676D02*
X216128244Y-82062056D01*
X216128244Y-82062056D02*
X216175863Y-81966818D01*
X216175863Y-81966818D02*
X216175863Y-81728723D01*
X216175863Y-81728723D02*
X216128244Y-81633485D01*
X216128244Y-81633485D02*
X216080625Y-81585866D01*
X216080625Y-81585866D02*
X215985387Y-81538247D01*
X215985387Y-81538247D02*
X215794911Y-81538247D01*
X215794911Y-81538247D02*
X215699673Y-81585866D01*
X215699673Y-81585866D02*
X215652054Y-81633485D01*
X215652054Y-81633485D02*
X215604435Y-81728723D01*
X182190476Y-89454819D02*
X182190476Y-90169104D01*
X182190476Y-90169104D02*
X182142857Y-90311961D01*
X182142857Y-90311961D02*
X182047619Y-90407200D01*
X182047619Y-90407200D02*
X181904762Y-90454819D01*
X181904762Y-90454819D02*
X181809524Y-90454819D01*
X183190476Y-90454819D02*
X182619048Y-90454819D01*
X182904762Y-90454819D02*
X182904762Y-89454819D01*
X182904762Y-89454819D02*
X182809524Y-89597676D01*
X182809524Y-89597676D02*
X182714286Y-89692914D01*
X182714286Y-89692914D02*
X182619048Y-89740533D01*
X183523810Y-89454819D02*
X184142857Y-89454819D01*
X184142857Y-89454819D02*
X183809524Y-89835771D01*
X183809524Y-89835771D02*
X183952381Y-89835771D01*
X183952381Y-89835771D02*
X184047619Y-89883390D01*
X184047619Y-89883390D02*
X184095238Y-89931009D01*
X184095238Y-89931009D02*
X184142857Y-90026247D01*
X184142857Y-90026247D02*
X184142857Y-90264342D01*
X184142857Y-90264342D02*
X184095238Y-90359580D01*
X184095238Y-90359580D02*
X184047619Y-90407200D01*
X184047619Y-90407200D02*
X183952381Y-90454819D01*
X183952381Y-90454819D02*
X183666667Y-90454819D01*
X183666667Y-90454819D02*
X183571429Y-90407200D01*
X183571429Y-90407200D02*
X183523810Y-90359580D01*
X204954819Y-98595238D02*
X204478628Y-98928571D01*
X204954819Y-99166666D02*
X203954819Y-99166666D01*
X203954819Y-99166666D02*
X203954819Y-98785714D01*
X203954819Y-98785714D02*
X204002438Y-98690476D01*
X204002438Y-98690476D02*
X204050057Y-98642857D01*
X204050057Y-98642857D02*
X204145295Y-98595238D01*
X204145295Y-98595238D02*
X204288152Y-98595238D01*
X204288152Y-98595238D02*
X204383390Y-98642857D01*
X204383390Y-98642857D02*
X204431009Y-98690476D01*
X204431009Y-98690476D02*
X204478628Y-98785714D01*
X204478628Y-98785714D02*
X204478628Y-99166666D01*
X203954819Y-98309523D02*
X204954819Y-97976190D01*
X204954819Y-97976190D02*
X203954819Y-97642857D01*
X203954819Y-97404761D02*
X203954819Y-96785714D01*
X203954819Y-96785714D02*
X204335771Y-97119047D01*
X204335771Y-97119047D02*
X204335771Y-96976190D01*
X204335771Y-96976190D02*
X204383390Y-96880952D01*
X204383390Y-96880952D02*
X204431009Y-96833333D01*
X204431009Y-96833333D02*
X204526247Y-96785714D01*
X204526247Y-96785714D02*
X204764342Y-96785714D01*
X204764342Y-96785714D02*
X204859580Y-96833333D01*
X204859580Y-96833333D02*
X204907200Y-96880952D01*
X204907200Y-96880952D02*
X204954819Y-96976190D01*
X204954819Y-96976190D02*
X204954819Y-97261904D01*
X204954819Y-97261904D02*
X204907200Y-97357142D01*
X204907200Y-97357142D02*
X204859580Y-97404761D01*
X131738095Y-95004819D02*
X131738095Y-95814342D01*
X131738095Y-95814342D02*
X131785714Y-95909580D01*
X131785714Y-95909580D02*
X131833333Y-95957200D01*
X131833333Y-95957200D02*
X131928571Y-96004819D01*
X131928571Y-96004819D02*
X132119047Y-96004819D01*
X132119047Y-96004819D02*
X132214285Y-95957200D01*
X132214285Y-95957200D02*
X132261904Y-95909580D01*
X132261904Y-95909580D02*
X132309523Y-95814342D01*
X132309523Y-95814342D02*
X132309523Y-95004819D01*
X133309523Y-96004819D02*
X132738095Y-96004819D01*
X133023809Y-96004819D02*
X133023809Y-95004819D01*
X133023809Y-95004819D02*
X132928571Y-95147676D01*
X132928571Y-95147676D02*
X132833333Y-95242914D01*
X132833333Y-95242914D02*
X132738095Y-95290533D01*
X162937851Y-101841723D02*
X162461660Y-102175056D01*
X162937851Y-102413151D02*
X161937851Y-102413151D01*
X161937851Y-102413151D02*
X161937851Y-102032199D01*
X161937851Y-102032199D02*
X161985470Y-101936961D01*
X161985470Y-101936961D02*
X162033089Y-101889342D01*
X162033089Y-101889342D02*
X162128327Y-101841723D01*
X162128327Y-101841723D02*
X162271184Y-101841723D01*
X162271184Y-101841723D02*
X162366422Y-101889342D01*
X162366422Y-101889342D02*
X162414041Y-101936961D01*
X162414041Y-101936961D02*
X162461660Y-102032199D01*
X162461660Y-102032199D02*
X162461660Y-102413151D01*
X162937851Y-100889342D02*
X162937851Y-101460770D01*
X162937851Y-101175056D02*
X161937851Y-101175056D01*
X161937851Y-101175056D02*
X162080708Y-101270294D01*
X162080708Y-101270294D02*
X162175946Y-101365532D01*
X162175946Y-101365532D02*
X162223565Y-101460770D01*
X162937851Y-100413151D02*
X162937851Y-100222675D01*
X162937851Y-100222675D02*
X162890232Y-100127437D01*
X162890232Y-100127437D02*
X162842612Y-100079818D01*
X162842612Y-100079818D02*
X162699755Y-99984580D01*
X162699755Y-99984580D02*
X162509279Y-99936961D01*
X162509279Y-99936961D02*
X162128327Y-99936961D01*
X162128327Y-99936961D02*
X162033089Y-99984580D01*
X162033089Y-99984580D02*
X161985470Y-100032199D01*
X161985470Y-100032199D02*
X161937851Y-100127437D01*
X161937851Y-100127437D02*
X161937851Y-100317913D01*
X161937851Y-100317913D02*
X161985470Y-100413151D01*
X161985470Y-100413151D02*
X162033089Y-100460770D01*
X162033089Y-100460770D02*
X162128327Y-100508389D01*
X162128327Y-100508389D02*
X162366422Y-100508389D01*
X162366422Y-100508389D02*
X162461660Y-100460770D01*
X162461660Y-100460770D02*
X162509279Y-100413151D01*
X162509279Y-100413151D02*
X162556898Y-100317913D01*
X162556898Y-100317913D02*
X162556898Y-100127437D01*
X162556898Y-100127437D02*
X162509279Y-100032199D01*
X162509279Y-100032199D02*
X162461660Y-99984580D01*
X162461660Y-99984580D02*
X162366422Y-99936961D01*
X130761905Y-112468787D02*
X130761905Y-111468787D01*
X130761905Y-111468787D02*
X131000000Y-111468787D01*
X131000000Y-111468787D02*
X131142857Y-111516406D01*
X131142857Y-111516406D02*
X131238095Y-111611644D01*
X131238095Y-111611644D02*
X131285714Y-111706882D01*
X131285714Y-111706882D02*
X131333333Y-111897358D01*
X131333333Y-111897358D02*
X131333333Y-112040215D01*
X131333333Y-112040215D02*
X131285714Y-112230691D01*
X131285714Y-112230691D02*
X131238095Y-112325929D01*
X131238095Y-112325929D02*
X131142857Y-112421168D01*
X131142857Y-112421168D02*
X131000000Y-112468787D01*
X131000000Y-112468787D02*
X130761905Y-112468787D01*
X131714286Y-111564025D02*
X131761905Y-111516406D01*
X131761905Y-111516406D02*
X131857143Y-111468787D01*
X131857143Y-111468787D02*
X132095238Y-111468787D01*
X132095238Y-111468787D02*
X132190476Y-111516406D01*
X132190476Y-111516406D02*
X132238095Y-111564025D01*
X132238095Y-111564025D02*
X132285714Y-111659263D01*
X132285714Y-111659263D02*
X132285714Y-111754501D01*
X132285714Y-111754501D02*
X132238095Y-111897358D01*
X132238095Y-111897358D02*
X131666667Y-112468787D01*
X131666667Y-112468787D02*
X132285714Y-112468787D01*
X148333333Y-121454819D02*
X148000000Y-120978628D01*
X147761905Y-121454819D02*
X147761905Y-120454819D01*
X147761905Y-120454819D02*
X148142857Y-120454819D01*
X148142857Y-120454819D02*
X148238095Y-120502438D01*
X148238095Y-120502438D02*
X148285714Y-120550057D01*
X148285714Y-120550057D02*
X148333333Y-120645295D01*
X148333333Y-120645295D02*
X148333333Y-120788152D01*
X148333333Y-120788152D02*
X148285714Y-120883390D01*
X148285714Y-120883390D02*
X148238095Y-120931009D01*
X148238095Y-120931009D02*
X148142857Y-120978628D01*
X148142857Y-120978628D02*
X147761905Y-120978628D01*
X149190476Y-120454819D02*
X149000000Y-120454819D01*
X149000000Y-120454819D02*
X148904762Y-120502438D01*
X148904762Y-120502438D02*
X148857143Y-120550057D01*
X148857143Y-120550057D02*
X148761905Y-120692914D01*
X148761905Y-120692914D02*
X148714286Y-120883390D01*
X148714286Y-120883390D02*
X148714286Y-121264342D01*
X148714286Y-121264342D02*
X148761905Y-121359580D01*
X148761905Y-121359580D02*
X148809524Y-121407200D01*
X148809524Y-121407200D02*
X148904762Y-121454819D01*
X148904762Y-121454819D02*
X149095238Y-121454819D01*
X149095238Y-121454819D02*
X149190476Y-121407200D01*
X149190476Y-121407200D02*
X149238095Y-121359580D01*
X149238095Y-121359580D02*
X149285714Y-121264342D01*
X149285714Y-121264342D02*
X149285714Y-121026247D01*
X149285714Y-121026247D02*
X149238095Y-120931009D01*
X149238095Y-120931009D02*
X149190476Y-120883390D01*
X149190476Y-120883390D02*
X149095238Y-120835771D01*
X149095238Y-120835771D02*
X148904762Y-120835771D01*
X148904762Y-120835771D02*
X148809524Y-120883390D01*
X148809524Y-120883390D02*
X148761905Y-120931009D01*
X148761905Y-120931009D02*
X148714286Y-121026247D01*
X139474132Y-95446452D02*
X139521752Y-95494071D01*
X139521752Y-95494071D02*
X139569371Y-95636928D01*
X139569371Y-95636928D02*
X139569371Y-95732166D01*
X139569371Y-95732166D02*
X139521752Y-95875023D01*
X139521752Y-95875023D02*
X139426513Y-95970261D01*
X139426513Y-95970261D02*
X139331275Y-96017880D01*
X139331275Y-96017880D02*
X139140799Y-96065499D01*
X139140799Y-96065499D02*
X138997942Y-96065499D01*
X138997942Y-96065499D02*
X138807466Y-96017880D01*
X138807466Y-96017880D02*
X138712228Y-95970261D01*
X138712228Y-95970261D02*
X138616990Y-95875023D01*
X138616990Y-95875023D02*
X138569371Y-95732166D01*
X138569371Y-95732166D02*
X138569371Y-95636928D01*
X138569371Y-95636928D02*
X138616990Y-95494071D01*
X138616990Y-95494071D02*
X138664609Y-95446452D01*
X138569371Y-94589309D02*
X138569371Y-94779785D01*
X138569371Y-94779785D02*
X138616990Y-94875023D01*
X138616990Y-94875023D02*
X138664609Y-94922642D01*
X138664609Y-94922642D02*
X138807466Y-95017880D01*
X138807466Y-95017880D02*
X138997942Y-95065499D01*
X138997942Y-95065499D02*
X139378894Y-95065499D01*
X139378894Y-95065499D02*
X139474132Y-95017880D01*
X139474132Y-95017880D02*
X139521752Y-94970261D01*
X139521752Y-94970261D02*
X139569371Y-94875023D01*
X139569371Y-94875023D02*
X139569371Y-94684547D01*
X139569371Y-94684547D02*
X139521752Y-94589309D01*
X139521752Y-94589309D02*
X139474132Y-94541690D01*
X139474132Y-94541690D02*
X139378894Y-94494071D01*
X139378894Y-94494071D02*
X139140799Y-94494071D01*
X139140799Y-94494071D02*
X139045561Y-94541690D01*
X139045561Y-94541690D02*
X138997942Y-94589309D01*
X138997942Y-94589309D02*
X138950323Y-94684547D01*
X138950323Y-94684547D02*
X138950323Y-94875023D01*
X138950323Y-94875023D02*
X138997942Y-94970261D01*
X138997942Y-94970261D02*
X139045561Y-95017880D01*
X139045561Y-95017880D02*
X139140799Y-95065499D01*
X210359580Y-103857142D02*
X210407200Y-103904761D01*
X210407200Y-103904761D02*
X210454819Y-104047618D01*
X210454819Y-104047618D02*
X210454819Y-104142856D01*
X210454819Y-104142856D02*
X210407200Y-104285713D01*
X210407200Y-104285713D02*
X210311961Y-104380951D01*
X210311961Y-104380951D02*
X210216723Y-104428570D01*
X210216723Y-104428570D02*
X210026247Y-104476189D01*
X210026247Y-104476189D02*
X209883390Y-104476189D01*
X209883390Y-104476189D02*
X209692914Y-104428570D01*
X209692914Y-104428570D02*
X209597676Y-104380951D01*
X209597676Y-104380951D02*
X209502438Y-104285713D01*
X209502438Y-104285713D02*
X209454819Y-104142856D01*
X209454819Y-104142856D02*
X209454819Y-104047618D01*
X209454819Y-104047618D02*
X209502438Y-103904761D01*
X209502438Y-103904761D02*
X209550057Y-103857142D01*
X210454819Y-103428570D02*
X209788152Y-103428570D01*
X209454819Y-103428570D02*
X209502438Y-103476189D01*
X209502438Y-103476189D02*
X209550057Y-103428570D01*
X209550057Y-103428570D02*
X209502438Y-103380951D01*
X209502438Y-103380951D02*
X209454819Y-103428570D01*
X209454819Y-103428570D02*
X209550057Y-103428570D01*
X209788152Y-102952380D02*
X210454819Y-102952380D01*
X209883390Y-102952380D02*
X209835771Y-102904761D01*
X209835771Y-102904761D02*
X209788152Y-102809523D01*
X209788152Y-102809523D02*
X209788152Y-102666666D01*
X209788152Y-102666666D02*
X209835771Y-102571428D01*
X209835771Y-102571428D02*
X209931009Y-102523809D01*
X209931009Y-102523809D02*
X210454819Y-102523809D01*
X209883390Y-101904761D02*
X209835771Y-101999999D01*
X209835771Y-101999999D02*
X209788152Y-102047618D01*
X209788152Y-102047618D02*
X209692914Y-102095237D01*
X209692914Y-102095237D02*
X209645295Y-102095237D01*
X209645295Y-102095237D02*
X209550057Y-102047618D01*
X209550057Y-102047618D02*
X209502438Y-101999999D01*
X209502438Y-101999999D02*
X209454819Y-101904761D01*
X209454819Y-101904761D02*
X209454819Y-101714285D01*
X209454819Y-101714285D02*
X209502438Y-101619047D01*
X209502438Y-101619047D02*
X209550057Y-101571428D01*
X209550057Y-101571428D02*
X209645295Y-101523809D01*
X209645295Y-101523809D02*
X209692914Y-101523809D01*
X209692914Y-101523809D02*
X209788152Y-101571428D01*
X209788152Y-101571428D02*
X209835771Y-101619047D01*
X209835771Y-101619047D02*
X209883390Y-101714285D01*
X209883390Y-101714285D02*
X209883390Y-101904761D01*
X209883390Y-101904761D02*
X209931009Y-101999999D01*
X209931009Y-101999999D02*
X209978628Y-102047618D01*
X209978628Y-102047618D02*
X210073866Y-102095237D01*
X210073866Y-102095237D02*
X210264342Y-102095237D01*
X210264342Y-102095237D02*
X210359580Y-102047618D01*
X210359580Y-102047618D02*
X210407200Y-101999999D01*
X210407200Y-101999999D02*
X210454819Y-101904761D01*
X210454819Y-101904761D02*
X210454819Y-101714285D01*
X210454819Y-101714285D02*
X210407200Y-101619047D01*
X210407200Y-101619047D02*
X210359580Y-101571428D01*
X210359580Y-101571428D02*
X210264342Y-101523809D01*
X210264342Y-101523809D02*
X210073866Y-101523809D01*
X210073866Y-101523809D02*
X209978628Y-101571428D01*
X209978628Y-101571428D02*
X209931009Y-101619047D01*
X209931009Y-101619047D02*
X209883390Y-101714285D01*
X130761905Y-114974215D02*
X130761905Y-113974215D01*
X130761905Y-113974215D02*
X131000000Y-113974215D01*
X131000000Y-113974215D02*
X131142857Y-114021834D01*
X131142857Y-114021834D02*
X131238095Y-114117072D01*
X131238095Y-114117072D02*
X131285714Y-114212310D01*
X131285714Y-114212310D02*
X131333333Y-114402786D01*
X131333333Y-114402786D02*
X131333333Y-114545643D01*
X131333333Y-114545643D02*
X131285714Y-114736119D01*
X131285714Y-114736119D02*
X131238095Y-114831357D01*
X131238095Y-114831357D02*
X131142857Y-114926596D01*
X131142857Y-114926596D02*
X131000000Y-114974215D01*
X131000000Y-114974215D02*
X130761905Y-114974215D01*
X132285714Y-114974215D02*
X131714286Y-114974215D01*
X132000000Y-114974215D02*
X132000000Y-113974215D01*
X132000000Y-113974215D02*
X131904762Y-114117072D01*
X131904762Y-114117072D02*
X131809524Y-114212310D01*
X131809524Y-114212310D02*
X131714286Y-114259929D01*
X143464920Y-103467464D02*
X142988729Y-103800797D01*
X143464920Y-104038892D02*
X142464920Y-104038892D01*
X142464920Y-104038892D02*
X142464920Y-103657940D01*
X142464920Y-103657940D02*
X142512539Y-103562702D01*
X142512539Y-103562702D02*
X142560158Y-103515083D01*
X142560158Y-103515083D02*
X142655396Y-103467464D01*
X142655396Y-103467464D02*
X142798253Y-103467464D01*
X142798253Y-103467464D02*
X142893491Y-103515083D01*
X142893491Y-103515083D02*
X142941110Y-103562702D01*
X142941110Y-103562702D02*
X142988729Y-103657940D01*
X142988729Y-103657940D02*
X142988729Y-104038892D01*
X143464920Y-102991273D02*
X143464920Y-102800797D01*
X143464920Y-102800797D02*
X143417301Y-102705559D01*
X143417301Y-102705559D02*
X143369681Y-102657940D01*
X143369681Y-102657940D02*
X143226824Y-102562702D01*
X143226824Y-102562702D02*
X143036348Y-102515083D01*
X143036348Y-102515083D02*
X142655396Y-102515083D01*
X142655396Y-102515083D02*
X142560158Y-102562702D01*
X142560158Y-102562702D02*
X142512539Y-102610321D01*
X142512539Y-102610321D02*
X142464920Y-102705559D01*
X142464920Y-102705559D02*
X142464920Y-102896035D01*
X142464920Y-102896035D02*
X142512539Y-102991273D01*
X142512539Y-102991273D02*
X142560158Y-103038892D01*
X142560158Y-103038892D02*
X142655396Y-103086511D01*
X142655396Y-103086511D02*
X142893491Y-103086511D01*
X142893491Y-103086511D02*
X142988729Y-103038892D01*
X142988729Y-103038892D02*
X143036348Y-102991273D01*
X143036348Y-102991273D02*
X143083967Y-102896035D01*
X143083967Y-102896035D02*
X143083967Y-102705559D01*
X143083967Y-102705559D02*
X143036348Y-102610321D01*
X143036348Y-102610321D02*
X142988729Y-102562702D01*
X142988729Y-102562702D02*
X142893491Y-102515083D01*
X159141664Y-121178276D02*
X159094045Y-121225896D01*
X159094045Y-121225896D02*
X158951188Y-121273515D01*
X158951188Y-121273515D02*
X158855950Y-121273515D01*
X158855950Y-121273515D02*
X158713093Y-121225896D01*
X158713093Y-121225896D02*
X158617855Y-121130657D01*
X158617855Y-121130657D02*
X158570236Y-121035419D01*
X158570236Y-121035419D02*
X158522617Y-120844943D01*
X158522617Y-120844943D02*
X158522617Y-120702086D01*
X158522617Y-120702086D02*
X158570236Y-120511610D01*
X158570236Y-120511610D02*
X158617855Y-120416372D01*
X158617855Y-120416372D02*
X158713093Y-120321134D01*
X158713093Y-120321134D02*
X158855950Y-120273515D01*
X158855950Y-120273515D02*
X158951188Y-120273515D01*
X158951188Y-120273515D02*
X159094045Y-120321134D01*
X159094045Y-120321134D02*
X159141664Y-120368753D01*
X159998807Y-120606848D02*
X159998807Y-121273515D01*
X159760712Y-120225896D02*
X159522617Y-120940181D01*
X159522617Y-120940181D02*
X160141664Y-120940181D01*
X154454819Y-112809523D02*
X155169104Y-112809523D01*
X155169104Y-112809523D02*
X155311961Y-112857142D01*
X155311961Y-112857142D02*
X155407200Y-112952380D01*
X155407200Y-112952380D02*
X155454819Y-113095237D01*
X155454819Y-113095237D02*
X155454819Y-113190475D01*
X155454819Y-111809523D02*
X155454819Y-112380951D01*
X155454819Y-112095237D02*
X154454819Y-112095237D01*
X154454819Y-112095237D02*
X154597676Y-112190475D01*
X154597676Y-112190475D02*
X154692914Y-112285713D01*
X154692914Y-112285713D02*
X154740533Y-112380951D01*
X154454819Y-111190475D02*
X154454819Y-111095237D01*
X154454819Y-111095237D02*
X154502438Y-110999999D01*
X154502438Y-110999999D02*
X154550057Y-110952380D01*
X154550057Y-110952380D02*
X154645295Y-110904761D01*
X154645295Y-110904761D02*
X154835771Y-110857142D01*
X154835771Y-110857142D02*
X155073866Y-110857142D01*
X155073866Y-110857142D02*
X155264342Y-110904761D01*
X155264342Y-110904761D02*
X155359580Y-110952380D01*
X155359580Y-110952380D02*
X155407200Y-110999999D01*
X155407200Y-110999999D02*
X155454819Y-111095237D01*
X155454819Y-111095237D02*
X155454819Y-111190475D01*
X155454819Y-111190475D02*
X155407200Y-111285713D01*
X155407200Y-111285713D02*
X155359580Y-111333332D01*
X155359580Y-111333332D02*
X155264342Y-111380951D01*
X155264342Y-111380951D02*
X155073866Y-111428570D01*
X155073866Y-111428570D02*
X154835771Y-111428570D01*
X154835771Y-111428570D02*
X154645295Y-111380951D01*
X154645295Y-111380951D02*
X154550057Y-111333332D01*
X154550057Y-111333332D02*
X154502438Y-111285713D01*
X154502438Y-111285713D02*
X154454819Y-111190475D01*
X211304579Y-86412707D02*
X210971246Y-85936516D01*
X210733151Y-86412707D02*
X210733151Y-85412707D01*
X210733151Y-85412707D02*
X211114103Y-85412707D01*
X211114103Y-85412707D02*
X211209341Y-85460326D01*
X211209341Y-85460326D02*
X211256960Y-85507945D01*
X211256960Y-85507945D02*
X211304579Y-85603183D01*
X211304579Y-85603183D02*
X211304579Y-85746040D01*
X211304579Y-85746040D02*
X211256960Y-85841278D01*
X211256960Y-85841278D02*
X211209341Y-85888897D01*
X211209341Y-85888897D02*
X211114103Y-85936516D01*
X211114103Y-85936516D02*
X210733151Y-85936516D01*
X212256960Y-86412707D02*
X211685532Y-86412707D01*
X211971246Y-86412707D02*
X211971246Y-85412707D01*
X211971246Y-85412707D02*
X211876008Y-85555564D01*
X211876008Y-85555564D02*
X211780770Y-85650802D01*
X211780770Y-85650802D02*
X211685532Y-85698421D01*
X213114103Y-85746040D02*
X213114103Y-86412707D01*
X212876008Y-85365088D02*
X212637913Y-86079373D01*
X212637913Y-86079373D02*
X213256960Y-86079373D01*
X203834819Y-116738094D02*
X202834819Y-116738094D01*
X202834819Y-116738094D02*
X202834819Y-116499999D01*
X202834819Y-116499999D02*
X202882438Y-116357142D01*
X202882438Y-116357142D02*
X202977676Y-116261904D01*
X202977676Y-116261904D02*
X203072914Y-116214285D01*
X203072914Y-116214285D02*
X203263390Y-116166666D01*
X203263390Y-116166666D02*
X203406247Y-116166666D01*
X203406247Y-116166666D02*
X203596723Y-116214285D01*
X203596723Y-116214285D02*
X203691961Y-116261904D01*
X203691961Y-116261904D02*
X203787200Y-116357142D01*
X203787200Y-116357142D02*
X203834819Y-116499999D01*
X203834819Y-116499999D02*
X203834819Y-116738094D01*
X202834819Y-115261904D02*
X202834819Y-115738094D01*
X202834819Y-115738094D02*
X203311009Y-115785713D01*
X203311009Y-115785713D02*
X203263390Y-115738094D01*
X203263390Y-115738094D02*
X203215771Y-115642856D01*
X203215771Y-115642856D02*
X203215771Y-115404761D01*
X203215771Y-115404761D02*
X203263390Y-115309523D01*
X203263390Y-115309523D02*
X203311009Y-115261904D01*
X203311009Y-115261904D02*
X203406247Y-115214285D01*
X203406247Y-115214285D02*
X203644342Y-115214285D01*
X203644342Y-115214285D02*
X203739580Y-115261904D01*
X203739580Y-115261904D02*
X203787200Y-115309523D01*
X203787200Y-115309523D02*
X203834819Y-115404761D01*
X203834819Y-115404761D02*
X203834819Y-115642856D01*
X203834819Y-115642856D02*
X203787200Y-115738094D01*
X203787200Y-115738094D02*
X203739580Y-115785713D01*
X170857142Y-103954819D02*
X170523809Y-103478628D01*
X170285714Y-103954819D02*
X170285714Y-102954819D01*
X170285714Y-102954819D02*
X170666666Y-102954819D01*
X170666666Y-102954819D02*
X170761904Y-103002438D01*
X170761904Y-103002438D02*
X170809523Y-103050057D01*
X170809523Y-103050057D02*
X170857142Y-103145295D01*
X170857142Y-103145295D02*
X170857142Y-103288152D01*
X170857142Y-103288152D02*
X170809523Y-103383390D01*
X170809523Y-103383390D02*
X170761904Y-103431009D01*
X170761904Y-103431009D02*
X170666666Y-103478628D01*
X170666666Y-103478628D02*
X170285714Y-103478628D01*
X171238095Y-103050057D02*
X171285714Y-103002438D01*
X171285714Y-103002438D02*
X171380952Y-102954819D01*
X171380952Y-102954819D02*
X171619047Y-102954819D01*
X171619047Y-102954819D02*
X171714285Y-103002438D01*
X171714285Y-103002438D02*
X171761904Y-103050057D01*
X171761904Y-103050057D02*
X171809523Y-103145295D01*
X171809523Y-103145295D02*
X171809523Y-103240533D01*
X171809523Y-103240533D02*
X171761904Y-103383390D01*
X171761904Y-103383390D02*
X171190476Y-103954819D01*
X171190476Y-103954819D02*
X171809523Y-103954819D01*
X172142857Y-102954819D02*
X172761904Y-102954819D01*
X172761904Y-102954819D02*
X172428571Y-103335771D01*
X172428571Y-103335771D02*
X172571428Y-103335771D01*
X172571428Y-103335771D02*
X172666666Y-103383390D01*
X172666666Y-103383390D02*
X172714285Y-103431009D01*
X172714285Y-103431009D02*
X172761904Y-103526247D01*
X172761904Y-103526247D02*
X172761904Y-103764342D01*
X172761904Y-103764342D02*
X172714285Y-103859580D01*
X172714285Y-103859580D02*
X172666666Y-103907200D01*
X172666666Y-103907200D02*
X172571428Y-103954819D01*
X172571428Y-103954819D02*
X172285714Y-103954819D01*
X172285714Y-103954819D02*
X172190476Y-103907200D01*
X172190476Y-103907200D02*
X172142857Y-103859580D01*
X178857142Y-87776587D02*
X178523809Y-87300396D01*
X178285714Y-87776587D02*
X178285714Y-86776587D01*
X178285714Y-86776587D02*
X178666666Y-86776587D01*
X178666666Y-86776587D02*
X178761904Y-86824206D01*
X178761904Y-86824206D02*
X178809523Y-86871825D01*
X178809523Y-86871825D02*
X178857142Y-86967063D01*
X178857142Y-86967063D02*
X178857142Y-87109920D01*
X178857142Y-87109920D02*
X178809523Y-87205158D01*
X178809523Y-87205158D02*
X178761904Y-87252777D01*
X178761904Y-87252777D02*
X178666666Y-87300396D01*
X178666666Y-87300396D02*
X178285714Y-87300396D01*
X179238095Y-86871825D02*
X179285714Y-86824206D01*
X179285714Y-86824206D02*
X179380952Y-86776587D01*
X179380952Y-86776587D02*
X179619047Y-86776587D01*
X179619047Y-86776587D02*
X179714285Y-86824206D01*
X179714285Y-86824206D02*
X179761904Y-86871825D01*
X179761904Y-86871825D02*
X179809523Y-86967063D01*
X179809523Y-86967063D02*
X179809523Y-87062301D01*
X179809523Y-87062301D02*
X179761904Y-87205158D01*
X179761904Y-87205158D02*
X179190476Y-87776587D01*
X179190476Y-87776587D02*
X179809523Y-87776587D01*
X180285714Y-87776587D02*
X180476190Y-87776587D01*
X180476190Y-87776587D02*
X180571428Y-87728968D01*
X180571428Y-87728968D02*
X180619047Y-87681348D01*
X180619047Y-87681348D02*
X180714285Y-87538491D01*
X180714285Y-87538491D02*
X180761904Y-87348015D01*
X180761904Y-87348015D02*
X180761904Y-86967063D01*
X180761904Y-86967063D02*
X180714285Y-86871825D01*
X180714285Y-86871825D02*
X180666666Y-86824206D01*
X180666666Y-86824206D02*
X180571428Y-86776587D01*
X180571428Y-86776587D02*
X180380952Y-86776587D01*
X180380952Y-86776587D02*
X180285714Y-86824206D01*
X180285714Y-86824206D02*
X180238095Y-86871825D01*
X180238095Y-86871825D02*
X180190476Y-86967063D01*
X180190476Y-86967063D02*
X180190476Y-87205158D01*
X180190476Y-87205158D02*
X180238095Y-87300396D01*
X180238095Y-87300396D02*
X180285714Y-87348015D01*
X180285714Y-87348015D02*
X180380952Y-87395634D01*
X180380952Y-87395634D02*
X180571428Y-87395634D01*
X180571428Y-87395634D02*
X180666666Y-87348015D01*
X180666666Y-87348015D02*
X180714285Y-87300396D01*
X180714285Y-87300396D02*
X180761904Y-87205158D01*
%TO.C,R10*%
D12*
X158540000Y-88630000D02*
X158540000Y-88960000D01*
X158540000Y-91370000D02*
X158540000Y-91040000D01*
X165080000Y-88630000D02*
X158540000Y-88630000D01*
X165080000Y-88960000D02*
X165080000Y-88630000D01*
X165080000Y-91040000D02*
X165080000Y-91370000D01*
X165080000Y-91370000D02*
X158540000Y-91370000D01*
%TO.C,R20*%
X181522752Y-97949647D02*
X181852752Y-97949647D01*
X181522752Y-104489647D02*
X181522752Y-97949647D01*
X181852752Y-104489647D02*
X181522752Y-104489647D01*
X183932752Y-104489647D02*
X184262752Y-104489647D01*
X184262752Y-97949647D02*
X183932752Y-97949647D01*
X184262752Y-104489647D02*
X184262752Y-97949647D01*
%TO.C,C14*%
X215660000Y-118750000D02*
X214420000Y-118750000D01*
X215660000Y-118790000D02*
X214420000Y-118790000D01*
X215660000Y-118830000D02*
X214422000Y-118830000D01*
X215660000Y-118870000D02*
X214423000Y-118870000D01*
X215660000Y-118910000D02*
X214426000Y-118910000D01*
X215660000Y-118950000D02*
X214429000Y-118950000D01*
X215660000Y-118990000D02*
X214434000Y-118990000D01*
X215660000Y-119030000D02*
X214439000Y-119030000D01*
X215660000Y-119070000D02*
X214444000Y-119070000D01*
X215660000Y-119110000D02*
X214451000Y-119110000D01*
X215660000Y-119150000D02*
X214458000Y-119150000D01*
X215660000Y-119190000D02*
X214466000Y-119190000D01*
X215660000Y-119230000D02*
X214475000Y-119230000D01*
X215660000Y-119270000D02*
X214485000Y-119270000D01*
X215660000Y-119310000D02*
X214495000Y-119310000D01*
X215660000Y-119350000D02*
X214507000Y-119350000D01*
X215660000Y-119390000D02*
X214519000Y-119390000D01*
X215660000Y-119430000D02*
X214532000Y-119430000D01*
X215660000Y-119470000D02*
X214546000Y-119470000D01*
X215660000Y-119510000D02*
X214561000Y-119510000D01*
X215660000Y-119550000D02*
X214577000Y-119550000D01*
X215660000Y-119590000D02*
X214594000Y-119590000D01*
X215660000Y-119630000D02*
X214611000Y-119630000D01*
X215660000Y-119670000D02*
X214630000Y-119670000D01*
X215660000Y-119710000D02*
X214650000Y-119710000D01*
X215660000Y-119750000D02*
X214671000Y-119750000D01*
X215660000Y-119790000D02*
X214693000Y-119790000D01*
X215660000Y-119830000D02*
X214716000Y-119830000D01*
X215660000Y-119870000D02*
X214740000Y-119870000D01*
X215660000Y-119910000D02*
X214766000Y-119910000D01*
X215660000Y-119950000D02*
X214792000Y-119950000D01*
X215660000Y-119990000D02*
X214820000Y-119990000D01*
X215660000Y-120030000D02*
X214850000Y-120030000D01*
X215660000Y-120070000D02*
X214881000Y-120070000D01*
X215660000Y-120110000D02*
X214914000Y-120110000D01*
X215660000Y-120150000D02*
X214948000Y-120150000D01*
X215660000Y-120190000D02*
X214984000Y-120190000D01*
X215660000Y-120230000D02*
X215022000Y-120230000D01*
X215660000Y-120270000D02*
X215062000Y-120270000D01*
X215660000Y-120310000D02*
X215104000Y-120310000D01*
X216870000Y-120830000D02*
X216130000Y-120830000D01*
X217037000Y-120790000D02*
X215963000Y-120790000D01*
X217163000Y-120750000D02*
X215837000Y-120750000D01*
X217268000Y-120710000D02*
X215732000Y-120710000D01*
X217359000Y-120670000D02*
X215641000Y-120670000D01*
X217440000Y-120630000D02*
X215560000Y-120630000D01*
X217513000Y-120590000D02*
X215487000Y-120590000D01*
X217580000Y-120550000D02*
X215420000Y-120550000D01*
X217642000Y-120510000D02*
X215358000Y-120510000D01*
X217695000Y-116480199D02*
X217695000Y-116880199D01*
X217699000Y-120470000D02*
X215301000Y-120470000D01*
X217753000Y-120430000D02*
X215247000Y-120430000D01*
X217803000Y-120390000D02*
X215197000Y-120390000D01*
X217851000Y-120350000D02*
X215149000Y-120350000D01*
X217895000Y-116680199D02*
X217495000Y-116680199D01*
X217896000Y-120310000D02*
X217340000Y-120310000D01*
X217938000Y-120270000D02*
X217340000Y-120270000D01*
X217978000Y-120230000D02*
X217340000Y-120230000D01*
X218016000Y-120190000D02*
X217340000Y-120190000D01*
X218052000Y-120150000D02*
X217340000Y-120150000D01*
X218086000Y-120110000D02*
X217340000Y-120110000D01*
X218119000Y-120070000D02*
X217340000Y-120070000D01*
X218150000Y-120030000D02*
X217340000Y-120030000D01*
X218180000Y-119990000D02*
X217340000Y-119990000D01*
X218208000Y-119950000D02*
X217340000Y-119950000D01*
X218234000Y-119910000D02*
X217340000Y-119910000D01*
X218260000Y-119870000D02*
X217340000Y-119870000D01*
X218284000Y-119830000D02*
X217340000Y-119830000D01*
X218307000Y-119790000D02*
X217340000Y-119790000D01*
X218329000Y-119750000D02*
X217340000Y-119750000D01*
X218350000Y-119710000D02*
X217340000Y-119710000D01*
X218370000Y-119670000D02*
X217340000Y-119670000D01*
X218389000Y-119630000D02*
X217340000Y-119630000D01*
X218406000Y-119590000D02*
X217340000Y-119590000D01*
X218423000Y-119550000D02*
X217340000Y-119550000D01*
X218439000Y-119510000D02*
X217340000Y-119510000D01*
X218454000Y-119470000D02*
X217340000Y-119470000D01*
X218468000Y-119430000D02*
X217340000Y-119430000D01*
X218481000Y-119390000D02*
X217340000Y-119390000D01*
X218493000Y-119350000D02*
X217340000Y-119350000D01*
X218505000Y-119310000D02*
X217340000Y-119310000D01*
X218515000Y-119270000D02*
X217340000Y-119270000D01*
X218525000Y-119230000D02*
X217340000Y-119230000D01*
X218534000Y-119190000D02*
X217340000Y-119190000D01*
X218542000Y-119150000D02*
X217340000Y-119150000D01*
X218549000Y-119110000D02*
X217340000Y-119110000D01*
X218556000Y-119070000D02*
X217340000Y-119070000D01*
X218561000Y-119030000D02*
X217340000Y-119030000D01*
X218566000Y-118990000D02*
X217340000Y-118990000D01*
X218571000Y-118950000D02*
X217340000Y-118950000D01*
X218574000Y-118910000D02*
X217340000Y-118910000D01*
X218577000Y-118870000D02*
X217340000Y-118870000D01*
X218578000Y-118830000D02*
X217340000Y-118830000D01*
X218580000Y-118750000D02*
X217340000Y-118750000D01*
X218580000Y-118790000D02*
X217340000Y-118790000D01*
X218620000Y-118750000D02*
G75*
G02*
X214380000Y-118750000I-2120000J0D01*
G01*
X214380000Y-118750000D02*
G75*
G02*
X218620000Y-118750000I2120000J0D01*
G01*
%TO.C,J14*%
X197940000Y-119060000D02*
X197940000Y-118940000D01*
X197940000Y-121060000D02*
X197940000Y-120000000D01*
X199000000Y-121060000D02*
X197940000Y-121060000D01*
X200060000Y-118940000D02*
X197940000Y-118940000D01*
X200060000Y-119060000D02*
X200060000Y-118940000D01*
%TO.C,D9*%
X167730612Y-83891768D02*
X168790612Y-83891768D01*
X167730612Y-84951768D02*
X167730612Y-83891768D01*
X169790612Y-83891768D02*
X171850612Y-83891768D01*
X169790612Y-86011768D02*
X169790612Y-83891768D01*
X169790612Y-86011768D02*
X171850612Y-86011768D01*
X171850612Y-86011768D02*
X171850612Y-83891768D01*
%TO.C,Cin9*%
X203630000Y-86380000D02*
X203967000Y-86380000D01*
X203630000Y-91620000D02*
X203630000Y-86380000D01*
X203967000Y-91620000D02*
X203630000Y-91620000D01*
X206033000Y-86380000D02*
X206370000Y-86380000D01*
X206370000Y-86380000D02*
X206370000Y-91620000D01*
X206370000Y-91620000D02*
X206033000Y-91620000D01*
%TO.C,R11*%
X172540000Y-88630000D02*
X179080000Y-88630000D01*
X172540000Y-88960000D02*
X172540000Y-88630000D01*
X172540000Y-91040000D02*
X172540000Y-91370000D01*
X172540000Y-91370000D02*
X179080000Y-91370000D01*
X179080000Y-88630000D02*
X179080000Y-88960000D01*
X179080000Y-91370000D02*
X179080000Y-91040000D01*
%TO.C,R3*%
X117630000Y-106730000D02*
X117630000Y-113270000D01*
X117630000Y-113270000D02*
X117960000Y-113270000D01*
X117960000Y-106730000D02*
X117630000Y-106730000D01*
X120040000Y-106730000D02*
X120370000Y-106730000D01*
X120370000Y-106730000D02*
X120370000Y-113270000D01*
X120370000Y-113270000D02*
X120040000Y-113270000D01*
%TO.C,C1*%
X125880000Y-107630000D02*
X131120000Y-107630000D01*
X125880000Y-107967000D02*
X125880000Y-107630000D01*
X125880000Y-110370000D02*
X125880000Y-110033000D01*
X131120000Y-107630000D02*
X131120000Y-107967000D01*
X131120000Y-110033000D02*
X131120000Y-110370000D01*
X131120000Y-110370000D02*
X125880000Y-110370000D01*
%TO.C,R21*%
X186260640Y-88469823D02*
X186590640Y-88469823D01*
X186260640Y-95009823D02*
X186260640Y-88469823D01*
X186590640Y-95009823D02*
X186260640Y-95009823D01*
X188670640Y-95009823D02*
X189000640Y-95009823D01*
X189000640Y-88469823D02*
X188670640Y-88469823D01*
X189000640Y-95009823D02*
X189000640Y-88469823D01*
%TO.C,C13*%
X156551864Y-106235620D02*
X161791864Y-106235620D01*
X156551864Y-106572620D02*
X156551864Y-106235620D01*
X156551864Y-108975620D02*
X156551864Y-108638620D01*
X161791864Y-106235620D02*
X161791864Y-106572620D01*
X161791864Y-108638620D02*
X161791864Y-108975620D01*
X161791864Y-108975620D02*
X156551864Y-108975620D01*
%TO.C,R8*%
X157730000Y-110130000D02*
X164270000Y-110130000D01*
X157730000Y-110460000D02*
X157730000Y-110130000D01*
X157730000Y-112540000D02*
X157730000Y-112870000D01*
X157730000Y-112870000D02*
X164270000Y-112870000D01*
X164270000Y-110130000D02*
X164270000Y-110460000D01*
X164270000Y-112870000D02*
X164270000Y-112540000D01*
%TO.C,Cin1*%
X125380000Y-91630000D02*
X130620000Y-91630000D01*
X125380000Y-91967000D02*
X125380000Y-91630000D01*
X125380000Y-94370000D02*
X125380000Y-94033000D01*
X130620000Y-91630000D02*
X130620000Y-91967000D01*
X130620000Y-94033000D02*
X130620000Y-94370000D01*
X130620000Y-94370000D02*
X125380000Y-94370000D01*
%TO.C,C15*%
X162130000Y-93380000D02*
X162467000Y-93380000D01*
X162130000Y-98620000D02*
X162130000Y-93380000D01*
X162467000Y-98620000D02*
X162130000Y-98620000D01*
X164533000Y-93380000D02*
X164870000Y-93380000D01*
X164870000Y-93380000D02*
X164870000Y-98620000D01*
X164870000Y-98620000D02*
X164533000Y-98620000D01*
%TO.C,J3*%
X199376177Y-113718804D02*
X199376177Y-116318804D01*
X199376177Y-113718804D02*
X202036177Y-113718804D01*
X199376177Y-116318804D02*
X202036177Y-116318804D01*
X200706177Y-111118804D02*
X202036177Y-111118804D01*
X202036177Y-111118804D02*
X202036177Y-112448804D01*
X202036177Y-113718804D02*
X202036177Y-116318804D01*
%TO.C,C2*%
X136552595Y-107699530D02*
X141792595Y-107699530D01*
X136552595Y-108036530D02*
X136552595Y-107699530D01*
X136552595Y-110439530D02*
X136552595Y-110102530D01*
X141792595Y-107699530D02*
X141792595Y-108036530D01*
X141792595Y-110102530D02*
X141792595Y-110439530D01*
X141792595Y-110439530D02*
X136552595Y-110439530D01*
%TO.C,Cin7*%
X196776017Y-90824924D02*
X197113017Y-90824924D01*
X196776017Y-96064924D02*
X196776017Y-90824924D01*
X197113017Y-96064924D02*
X196776017Y-96064924D01*
X199179017Y-90824924D02*
X199516017Y-90824924D01*
X199516017Y-90824924D02*
X199516017Y-96064924D01*
X199516017Y-96064924D02*
X199179017Y-96064924D01*
%TO.C,Cin4*%
X138630000Y-85380000D02*
X138967000Y-85380000D01*
X138630000Y-90620000D02*
X138630000Y-85380000D01*
X138967000Y-90620000D02*
X138630000Y-90620000D01*
X141033000Y-85380000D02*
X141370000Y-85380000D01*
X141370000Y-85380000D02*
X141370000Y-90620000D01*
X141370000Y-90620000D02*
X141033000Y-90620000D01*
%TO.C,Cin5*%
X200130000Y-86380000D02*
X200467000Y-86380000D01*
X200130000Y-91620000D02*
X200130000Y-86380000D01*
X200467000Y-91620000D02*
X200130000Y-91620000D01*
X202533000Y-86380000D02*
X202870000Y-86380000D01*
X202870000Y-86380000D02*
X202870000Y-91620000D01*
X202870000Y-91620000D02*
X202533000Y-91620000D01*
%TO.C,R2*%
X209420000Y-112630000D02*
X215960000Y-112630000D01*
X209420000Y-112960000D02*
X209420000Y-112630000D01*
X209420000Y-115040000D02*
X209420000Y-115370000D01*
X209420000Y-115370000D02*
X215960000Y-115370000D01*
X215960000Y-112630000D02*
X215960000Y-112960000D01*
X215960000Y-115370000D02*
X215960000Y-115040000D01*
%TO.C,C8*%
X182207922Y-107770789D02*
X187447922Y-107770789D01*
X182207922Y-108107789D02*
X182207922Y-107770789D01*
X182207922Y-110510789D02*
X182207922Y-110173789D01*
X187447922Y-107770789D02*
X187447922Y-108107789D01*
X187447922Y-110173789D02*
X187447922Y-110510789D01*
X187447922Y-110510789D02*
X182207922Y-110510789D01*
%TO.C,J9*%
X203940000Y-107440000D02*
X203940000Y-107560000D01*
X203940000Y-107560000D02*
X206060000Y-107560000D01*
X205000000Y-105440000D02*
X206060000Y-105440000D01*
X206060000Y-105440000D02*
X206060000Y-106500000D01*
X206060000Y-107440000D02*
X206060000Y-107560000D01*
%TO.C,R1*%
X117630000Y-96350000D02*
X117630000Y-102890000D01*
X117630000Y-102890000D02*
X117960000Y-102890000D01*
X117960000Y-96350000D02*
X117630000Y-96350000D01*
X120040000Y-96350000D02*
X120370000Y-96350000D01*
X120370000Y-96350000D02*
X120370000Y-102890000D01*
X120370000Y-102890000D02*
X120040000Y-102890000D01*
%TO.C,R25*%
X197398144Y-99540000D02*
X197398144Y-106080000D01*
X197398144Y-106080000D02*
X197728144Y-106080000D01*
X197728144Y-99540000D02*
X197398144Y-99540000D01*
X199808144Y-99540000D02*
X200138144Y-99540000D01*
X200138144Y-99540000D02*
X200138144Y-106080000D01*
X200138144Y-106080000D02*
X199808144Y-106080000D01*
%TO.C,Cin2*%
X117630000Y-87690000D02*
X117967000Y-87690000D01*
X117630000Y-92930000D02*
X117630000Y-87690000D01*
X117967000Y-92930000D02*
X117630000Y-92930000D01*
X120033000Y-87690000D02*
X120370000Y-87690000D01*
X120370000Y-87690000D02*
X120370000Y-92930000D01*
X120370000Y-92930000D02*
X120033000Y-92930000D01*
%TO.C,C11*%
X213630000Y-87380000D02*
X213967000Y-87380000D01*
X213630000Y-92620000D02*
X213630000Y-87380000D01*
X213967000Y-92620000D02*
X213630000Y-92620000D01*
X216033000Y-87380000D02*
X216370000Y-87380000D01*
X216370000Y-87380000D02*
X216370000Y-92620000D01*
X216370000Y-92620000D02*
X216033000Y-92620000D01*
%TO.C,R16*%
X200630000Y-99420000D02*
X200960000Y-99420000D01*
X200630000Y-105960000D02*
X200630000Y-99420000D01*
X200960000Y-105960000D02*
X200630000Y-105960000D01*
X203040000Y-105960000D02*
X203370000Y-105960000D01*
X203370000Y-99420000D02*
X203040000Y-99420000D01*
X203370000Y-105960000D02*
X203370000Y-99420000D01*
%TO.C,Cin10*%
X172380000Y-112130000D02*
X177620000Y-112130000D01*
X172380000Y-112467000D02*
X172380000Y-112130000D01*
X172380000Y-114870000D02*
X172380000Y-114533000D01*
X177620000Y-112130000D02*
X177620000Y-112467000D01*
X177620000Y-114533000D02*
X177620000Y-114870000D01*
X177620000Y-114870000D02*
X172380000Y-114870000D01*
%TO.C,D3*%
X145540000Y-88500000D02*
X146190000Y-88500000D01*
X149590000Y-89620000D02*
X149590000Y-87380000D01*
X149710000Y-89620000D02*
X149710000Y-87380000D01*
X149830000Y-89620000D02*
X149830000Y-87380000D01*
X151080000Y-88500000D02*
X150430000Y-88500000D01*
X146190000Y-87380000D02*
X150430000Y-87380000D01*
X150430000Y-89620000D01*
X146190000Y-89620000D01*
X146190000Y-87380000D01*
%TO.C,C19*%
X179176157Y-92603130D02*
X184416157Y-92603130D01*
X179176157Y-92940130D02*
X179176157Y-92603130D01*
X179176157Y-95343130D02*
X179176157Y-95006130D01*
X184416157Y-92603130D02*
X184416157Y-92940130D01*
X184416157Y-95006130D02*
X184416157Y-95343130D01*
X184416157Y-95343130D02*
X179176157Y-95343130D01*
%TO.C,C18*%
X174926157Y-96853130D02*
X175263157Y-96853130D01*
X174926157Y-102093130D02*
X174926157Y-96853130D01*
X175263157Y-102093130D02*
X174926157Y-102093130D01*
X177329157Y-96853130D02*
X177666157Y-96853130D01*
X177666157Y-96853130D02*
X177666157Y-102093130D01*
X177666157Y-102093130D02*
X177329157Y-102093130D01*
%TO.C,J4*%
X119667408Y-83390709D02*
X119667408Y-83510709D01*
X119667408Y-83510709D02*
X121787408Y-83510709D01*
X120727408Y-81390709D02*
X121787408Y-81390709D01*
X121787408Y-81390709D02*
X121787408Y-82450709D01*
X121787408Y-83390709D02*
X121787408Y-83510709D01*
%TO.C,R28*%
X189544724Y-83613384D02*
X189544724Y-83943384D01*
X189544724Y-86353384D02*
X189544724Y-86023384D01*
X196084724Y-83613384D02*
X189544724Y-83613384D01*
X196084724Y-83943384D02*
X196084724Y-83613384D01*
X196084724Y-86023384D02*
X196084724Y-86353384D01*
X196084724Y-86353384D02*
X189544724Y-86353384D01*
%TO.C,R5*%
X135040000Y-117130000D02*
X141580000Y-117130000D01*
X135040000Y-117460000D02*
X135040000Y-117130000D01*
X135040000Y-119540000D02*
X135040000Y-119870000D01*
X135040000Y-119870000D02*
X141580000Y-119870000D01*
X141580000Y-117130000D02*
X141580000Y-117460000D01*
X141580000Y-119870000D02*
X141580000Y-119540000D01*
%TO.C,C5*%
X144380000Y-110472447D02*
X149620000Y-110472447D01*
X144380000Y-110809447D02*
X144380000Y-110472447D01*
X144380000Y-113212447D02*
X144380000Y-112875447D01*
X149620000Y-110472447D02*
X149620000Y-110809447D01*
X149620000Y-112875447D02*
X149620000Y-113212447D01*
X149620000Y-113212447D02*
X144380000Y-113212447D01*
%TO.C,R12*%
X150904652Y-92121474D02*
X150904652Y-92451474D01*
X150904652Y-94861474D02*
X150904652Y-94531474D01*
X157444652Y-92121474D02*
X150904652Y-92121474D01*
X157444652Y-92451474D02*
X157444652Y-92121474D01*
X157444652Y-94531474D02*
X157444652Y-94861474D01*
X157444652Y-94861474D02*
X150904652Y-94861474D01*
%TO.C,J15*%
X164440000Y-85940000D02*
X164440000Y-86060000D01*
X164440000Y-86060000D02*
X166560000Y-86060000D01*
X165500000Y-83940000D02*
X166560000Y-83940000D01*
X166560000Y-83940000D02*
X166560000Y-85000000D01*
X166560000Y-85940000D02*
X166560000Y-86060000D01*
%TO.C,C10*%
X118880000Y-117130000D02*
X124120000Y-117130000D01*
X118880000Y-117467000D02*
X118880000Y-117130000D01*
X118880000Y-119870000D02*
X118880000Y-119533000D01*
X124120000Y-117130000D02*
X124120000Y-117467000D01*
X124120000Y-119533000D02*
X124120000Y-119870000D01*
X124120000Y-119870000D02*
X118880000Y-119870000D01*
%TO.C,D8*%
X183230612Y-83891768D02*
X184290612Y-83891768D01*
X183230612Y-84951768D02*
X183230612Y-83891768D01*
X185290612Y-83891768D02*
X187350612Y-83891768D01*
X185290612Y-86011768D02*
X185290612Y-83891768D01*
X185290612Y-86011768D02*
X187350612Y-86011768D01*
X187350612Y-86011768D02*
X187350612Y-83891768D01*
%TO.C,D4*%
X145522930Y-85644496D02*
X146172930Y-85644496D01*
X146772930Y-84524496D02*
X146772930Y-86764496D01*
X146892930Y-84524496D02*
X146892930Y-86764496D01*
X147012930Y-84524496D02*
X147012930Y-86764496D01*
X151062930Y-85644496D02*
X150412930Y-85644496D01*
X146172930Y-84524496D02*
X150412930Y-84524496D01*
X150412930Y-86764496D01*
X146172930Y-86764496D01*
X146172930Y-84524496D01*
%TO.C,J17*%
X202306277Y-83425485D02*
X202306277Y-83545485D01*
X202306277Y-83545485D02*
X204426277Y-83545485D01*
X203366277Y-81425485D02*
X204426277Y-81425485D01*
X204426277Y-81425485D02*
X204426277Y-82485485D01*
X204426277Y-83425485D02*
X204426277Y-83545485D01*
%TO.C,C3*%
X126380000Y-117130000D02*
X131620000Y-117130000D01*
X126380000Y-117467000D02*
X126380000Y-117130000D01*
X126380000Y-119870000D02*
X126380000Y-119533000D01*
X131620000Y-117130000D02*
X131620000Y-117467000D01*
X131620000Y-119533000D02*
X131620000Y-119870000D01*
X131620000Y-119870000D02*
X126380000Y-119870000D01*
%TO.C,R7*%
X145429670Y-113788514D02*
X145429670Y-114118514D01*
X145429670Y-116528514D02*
X145429670Y-116198514D01*
X151969670Y-113788514D02*
X145429670Y-113788514D01*
X151969670Y-114118514D02*
X151969670Y-113788514D01*
X151969670Y-116198514D02*
X151969670Y-116528514D01*
X151969670Y-116528514D02*
X145429670Y-116528514D01*
%TO.C,U3*%
X188540000Y-97050000D02*
X188540000Y-107330000D01*
X188540000Y-107330000D02*
X190190000Y-107330000D01*
X192190000Y-107330000D02*
X193840000Y-107330000D01*
X193840000Y-97050000D02*
X188540000Y-97050000D01*
X193840000Y-107330000D02*
X193840000Y-97050000D01*
X186050000Y-96990000D02*
X196330000Y-96990000D01*
X196330000Y-107390000D01*
X186050000Y-107390000D01*
X186050000Y-96990000D01*
X190190000Y-107330000D02*
G75*
G02*
X192190000Y-107330000I1000000J0D01*
G01*
%TO.C,Cin11*%
X168880000Y-104630000D02*
X174120000Y-104630000D01*
X168880000Y-104967000D02*
X168880000Y-104630000D01*
X168880000Y-107370000D02*
X168880000Y-107033000D01*
X174120000Y-104630000D02*
X174120000Y-104967000D01*
X174120000Y-107033000D02*
X174120000Y-107370000D01*
X174120000Y-107370000D02*
X168880000Y-107370000D01*
%TO.C,C12*%
X209278804Y-118988804D02*
X208038804Y-118988804D01*
X209278804Y-119028804D02*
X208038804Y-119028804D01*
X209278804Y-119068804D02*
X208040804Y-119068804D01*
X209278804Y-119108804D02*
X208041804Y-119108804D01*
X209278804Y-119148804D02*
X208044804Y-119148804D01*
X209278804Y-119188804D02*
X208047804Y-119188804D01*
X209278804Y-119228804D02*
X208052804Y-119228804D01*
X209278804Y-119268804D02*
X208057804Y-119268804D01*
X209278804Y-119308804D02*
X208062804Y-119308804D01*
X209278804Y-119348804D02*
X208069804Y-119348804D01*
X209278804Y-119388804D02*
X208076804Y-119388804D01*
X209278804Y-119428804D02*
X208084804Y-119428804D01*
X209278804Y-119468804D02*
X208093804Y-119468804D01*
X209278804Y-119508804D02*
X208103804Y-119508804D01*
X209278804Y-119548804D02*
X208113804Y-119548804D01*
X209278804Y-119588804D02*
X208125804Y-119588804D01*
X209278804Y-119628804D02*
X208137804Y-119628804D01*
X209278804Y-119668804D02*
X208150804Y-119668804D01*
X209278804Y-119708804D02*
X208164804Y-119708804D01*
X209278804Y-119748804D02*
X208179804Y-119748804D01*
X209278804Y-119788804D02*
X208195804Y-119788804D01*
X209278804Y-119828804D02*
X208212804Y-119828804D01*
X209278804Y-119868804D02*
X208229804Y-119868804D01*
X209278804Y-119908804D02*
X208248804Y-119908804D01*
X209278804Y-119948804D02*
X208268804Y-119948804D01*
X209278804Y-119988804D02*
X208289804Y-119988804D01*
X209278804Y-120028804D02*
X208311804Y-120028804D01*
X209278804Y-120068804D02*
X208334804Y-120068804D01*
X209278804Y-120108804D02*
X208358804Y-120108804D01*
X209278804Y-120148804D02*
X208384804Y-120148804D01*
X209278804Y-120188804D02*
X208410804Y-120188804D01*
X209278804Y-120228804D02*
X208438804Y-120228804D01*
X209278804Y-120268804D02*
X208468804Y-120268804D01*
X209278804Y-120308804D02*
X208499804Y-120308804D01*
X209278804Y-120348804D02*
X208532804Y-120348804D01*
X209278804Y-120388804D02*
X208566804Y-120388804D01*
X209278804Y-120428804D02*
X208602804Y-120428804D01*
X209278804Y-120468804D02*
X208640804Y-120468804D01*
X209278804Y-120508804D02*
X208680804Y-120508804D01*
X209278804Y-120548804D02*
X208722804Y-120548804D01*
X210488804Y-121068804D02*
X209748804Y-121068804D01*
X210655804Y-121028804D02*
X209581804Y-121028804D01*
X210781804Y-120988804D02*
X209455804Y-120988804D01*
X210886804Y-120948804D02*
X209350804Y-120948804D01*
X210977804Y-120908804D02*
X209259804Y-120908804D01*
X211058804Y-120868804D02*
X209178804Y-120868804D01*
X211131804Y-120828804D02*
X209105804Y-120828804D01*
X211198804Y-120788804D02*
X209038804Y-120788804D01*
X211260804Y-120748804D02*
X208976804Y-120748804D01*
X211313804Y-116719003D02*
X211313804Y-117119003D01*
X211317804Y-120708804D02*
X208919804Y-120708804D01*
X211371804Y-120668804D02*
X208865804Y-120668804D01*
X211421804Y-120628804D02*
X208815804Y-120628804D01*
X211469804Y-120588804D02*
X208767804Y-120588804D01*
X211513804Y-116919003D02*
X211113804Y-116919003D01*
X211514804Y-120548804D02*
X210958804Y-120548804D01*
X211556804Y-120508804D02*
X210958804Y-120508804D01*
X211596804Y-120468804D02*
X210958804Y-120468804D01*
X211634804Y-120428804D02*
X210958804Y-120428804D01*
X211670804Y-120388804D02*
X210958804Y-120388804D01*
X211704804Y-120348804D02*
X210958804Y-120348804D01*
X211737804Y-120308804D02*
X210958804Y-120308804D01*
X211768804Y-120268804D02*
X210958804Y-120268804D01*
X211798804Y-120228804D02*
X210958804Y-120228804D01*
X211826804Y-120188804D02*
X210958804Y-120188804D01*
X211852804Y-120148804D02*
X210958804Y-120148804D01*
X211878804Y-120108804D02*
X210958804Y-120108804D01*
X211902804Y-120068804D02*
X210958804Y-120068804D01*
X211925804Y-120028804D02*
X210958804Y-120028804D01*
X211947804Y-119988804D02*
X210958804Y-119988804D01*
X211968804Y-119948804D02*
X210958804Y-119948804D01*
X211988804Y-119908804D02*
X210958804Y-119908804D01*
X212007804Y-119868804D02*
X210958804Y-119868804D01*
X212024804Y-119828804D02*
X210958804Y-119828804D01*
X212041804Y-119788804D02*
X210958804Y-119788804D01*
X212057804Y-119748804D02*
X210958804Y-119748804D01*
X212072804Y-119708804D02*
X210958804Y-119708804D01*
X212086804Y-119668804D02*
X210958804Y-119668804D01*
X212099804Y-119628804D02*
X210958804Y-119628804D01*
X212111804Y-119588804D02*
X210958804Y-119588804D01*
X212123804Y-119548804D02*
X210958804Y-119548804D01*
X212133804Y-119508804D02*
X210958804Y-119508804D01*
X212143804Y-119468804D02*
X210958804Y-119468804D01*
X212152804Y-119428804D02*
X210958804Y-119428804D01*
X212160804Y-119388804D02*
X210958804Y-119388804D01*
X212167804Y-119348804D02*
X210958804Y-119348804D01*
X212174804Y-119308804D02*
X210958804Y-119308804D01*
X212179804Y-119268804D02*
X210958804Y-119268804D01*
X212184804Y-119228804D02*
X210958804Y-119228804D01*
X212189804Y-119188804D02*
X210958804Y-119188804D01*
X212192804Y-119148804D02*
X210958804Y-119148804D01*
X212195804Y-119108804D02*
X210958804Y-119108804D01*
X212196804Y-119068804D02*
X210958804Y-119068804D01*
X212198804Y-118988804D02*
X210958804Y-118988804D01*
X212198804Y-119028804D02*
X210958804Y-119028804D01*
X212238804Y-118988804D02*
G75*
G02*
X207998804Y-118988804I-2120000J0D01*
G01*
X207998804Y-118988804D02*
G75*
G02*
X212238804Y-118988804I2120000J0D01*
G01*
%TO.C,J7*%
X163750000Y-119440000D02*
X163750000Y-119560000D01*
X163750000Y-119560000D02*
X165870000Y-119560000D01*
X164810000Y-117440000D02*
X165870000Y-117440000D01*
X165870000Y-117440000D02*
X165870000Y-118500000D01*
X165870000Y-119440000D02*
X165870000Y-119560000D01*
%TO.C,C17*%
X207130000Y-86380000D02*
X207467000Y-86380000D01*
X207130000Y-91620000D02*
X207130000Y-86380000D01*
X207467000Y-91620000D02*
X207130000Y-91620000D01*
X209533000Y-86380000D02*
X209870000Y-86380000D01*
X209870000Y-86380000D02*
X209870000Y-91620000D01*
X209870000Y-91620000D02*
X209533000Y-91620000D01*
%TO.C,Pot 1*%
X137170000Y-104170000D02*
X138500000Y-104170000D01*
X137170000Y-105500000D02*
X137170000Y-104170000D01*
X139770000Y-104170000D02*
X142370000Y-104170000D01*
X139770000Y-106830000D02*
X139770000Y-104170000D01*
X139770000Y-106830000D02*
X142370000Y-106830000D01*
X142370000Y-106830000D02*
X142370000Y-104170000D01*
%TO.C,C7*%
X140901011Y-95352726D02*
X146141011Y-95352726D01*
X140901011Y-95689726D02*
X140901011Y-95352726D01*
X140901011Y-98092726D02*
X140901011Y-97755726D01*
X146141011Y-95352726D02*
X146141011Y-95689726D01*
X146141011Y-97755726D02*
X146141011Y-98092726D01*
X146141011Y-98092726D02*
X140901011Y-98092726D01*
%TO.C,J6*%
X131940000Y-85940000D02*
X131940000Y-86060000D01*
X131940000Y-86060000D02*
X134060000Y-86060000D01*
X133000000Y-83940000D02*
X134060000Y-83940000D01*
X134060000Y-83940000D02*
X134060000Y-85000000D01*
X134060000Y-85940000D02*
X134060000Y-86060000D01*
%TO.C,J12*%
X201440000Y-119060000D02*
X201440000Y-118940000D01*
X201440000Y-121060000D02*
X201440000Y-120000000D01*
X202500000Y-121060000D02*
X201440000Y-121060000D01*
X203560000Y-118940000D02*
X201440000Y-118940000D01*
X203560000Y-119060000D02*
X203560000Y-118940000D01*
%TO.C,C16*%
X165630000Y-93380000D02*
X165967000Y-93380000D01*
X165630000Y-98620000D02*
X165630000Y-93380000D01*
X165967000Y-98620000D02*
X165630000Y-98620000D01*
X168033000Y-93380000D02*
X168370000Y-93380000D01*
X168370000Y-93380000D02*
X168370000Y-98620000D01*
X168370000Y-98620000D02*
X168033000Y-98620000D01*
%TO.C,RV2*%
X147839240Y-106796166D02*
X147839240Y-109456166D01*
X150439240Y-106796166D02*
X147839240Y-106796166D01*
X150439240Y-106796166D02*
X150439240Y-109456166D01*
X150439240Y-109456166D02*
X147839240Y-109456166D01*
X153039240Y-108126166D02*
X153039240Y-109456166D01*
X153039240Y-109456166D02*
X151709240Y-109456166D01*
%TO.C,J19*%
X205465000Y-83465000D02*
X205465000Y-83585000D01*
X205465000Y-83585000D02*
X207585000Y-83585000D01*
X206525000Y-81465000D02*
X207585000Y-81465000D01*
X207585000Y-81465000D02*
X207585000Y-82525000D01*
X207585000Y-83465000D02*
X207585000Y-83585000D01*
%TO.C,Cin6*%
X164130000Y-102380000D02*
X164467000Y-102380000D01*
X164130000Y-107620000D02*
X164130000Y-102380000D01*
X164467000Y-107620000D02*
X164130000Y-107620000D01*
X166533000Y-102380000D02*
X166870000Y-102380000D01*
X166870000Y-102380000D02*
X166870000Y-107620000D01*
X166870000Y-107620000D02*
X166533000Y-107620000D01*
%TO.C,J11*%
X166750000Y-117440000D02*
X166750000Y-119560000D01*
X166870000Y-117440000D02*
X166750000Y-117440000D01*
X166870000Y-119560000D02*
X166750000Y-119560000D01*
X168870000Y-118500000D02*
X168870000Y-119560000D01*
X168870000Y-119560000D02*
X167810000Y-119560000D01*
%TO.C,R4*%
X209420000Y-109630000D02*
X209420000Y-109960000D01*
X209420000Y-112370000D02*
X209420000Y-112040000D01*
X215960000Y-109630000D02*
X209420000Y-109630000D01*
X215960000Y-109960000D02*
X215960000Y-109630000D01*
X215960000Y-112040000D02*
X215960000Y-112370000D01*
X215960000Y-112370000D02*
X209420000Y-112370000D01*
%TO.C,J5*%
X205940000Y-102440000D02*
X205940000Y-102560000D01*
X205940000Y-102560000D02*
X208060000Y-102560000D01*
X207000000Y-100440000D02*
X208060000Y-100440000D01*
X208060000Y-100440000D02*
X208060000Y-101500000D01*
X208060000Y-102440000D02*
X208060000Y-102560000D01*
%TO.C,Rpull1*%
X126040000Y-87130000D02*
X132580000Y-87130000D01*
X126040000Y-87460000D02*
X126040000Y-87130000D01*
X126040000Y-89540000D02*
X126040000Y-89870000D01*
X126040000Y-89870000D02*
X132580000Y-89870000D01*
X132580000Y-87130000D02*
X132580000Y-87460000D01*
X132580000Y-89870000D02*
X132580000Y-89540000D01*
%TO.C,C21*%
X154880000Y-84130000D02*
X160120000Y-84130000D01*
X154880000Y-84467000D02*
X154880000Y-84130000D01*
X154880000Y-86870000D02*
X154880000Y-86533000D01*
X160120000Y-84130000D02*
X160120000Y-84467000D01*
X160120000Y-86533000D02*
X160120000Y-86870000D01*
X160120000Y-86870000D02*
X154880000Y-86870000D01*
%TO.C,C20*%
X190206713Y-93932050D02*
X195446713Y-93932050D01*
X190206713Y-94269050D02*
X190206713Y-93932050D01*
X190206713Y-96672050D02*
X190206713Y-96335050D01*
X195446713Y-93932050D02*
X195446713Y-94269050D01*
X195446713Y-96335050D02*
X195446713Y-96672050D01*
X195446713Y-96672050D02*
X190206713Y-96672050D01*
%TO.C,R22*%
X178121241Y-97618472D02*
X178451241Y-97618472D01*
X178121241Y-104158472D02*
X178121241Y-97618472D01*
X178451241Y-104158472D02*
X178121241Y-104158472D01*
X180531241Y-104158472D02*
X180861241Y-104158472D01*
X180861241Y-97618472D02*
X180531241Y-97618472D01*
X180861241Y-104158472D02*
X180861241Y-97618472D01*
%TO.C,C9*%
X121365684Y-105666300D02*
X121702684Y-105666300D01*
X121365684Y-110906300D02*
X121365684Y-105666300D01*
X121702684Y-110906300D02*
X121365684Y-110906300D01*
X123768684Y-105666300D02*
X124105684Y-105666300D01*
X124105684Y-105666300D02*
X124105684Y-110906300D01*
X124105684Y-110906300D02*
X123768684Y-110906300D01*
%TO.C,R24*%
X201727028Y-93146814D02*
X201727028Y-93476814D01*
X201727028Y-95886814D02*
X201727028Y-95556814D01*
X208267028Y-93146814D02*
X201727028Y-93146814D01*
X208267028Y-93476814D02*
X208267028Y-93146814D01*
X208267028Y-95556814D02*
X208267028Y-95886814D01*
X208267028Y-95886814D02*
X201727028Y-95886814D01*
%TO.C,Cin3*%
X157494650Y-113547454D02*
X162734650Y-113547454D01*
X157494650Y-113884454D02*
X157494650Y-113547454D01*
X157494650Y-116287454D02*
X157494650Y-115950454D01*
X162734650Y-113547454D02*
X162734650Y-113884454D01*
X162734650Y-115950454D02*
X162734650Y-116287454D01*
X162734650Y-116287454D02*
X157494650Y-116287454D01*
%TO.C,J16*%
X213973006Y-85142476D02*
X213973006Y-85262476D01*
X213973006Y-85262476D02*
X216093006Y-85262476D01*
X215033006Y-83142476D02*
X216093006Y-83142476D01*
X216093006Y-83142476D02*
X216093006Y-84202476D01*
X216093006Y-85142476D02*
X216093006Y-85262476D01*
%TO.C,U2*%
X147550000Y-98040000D02*
X147550000Y-99690000D01*
X147550000Y-101690000D02*
X147550000Y-103340000D01*
X147550000Y-103340000D02*
X157830000Y-103340000D01*
X157830000Y-98040000D02*
X147550000Y-98040000D01*
X157830000Y-103340000D02*
X157830000Y-98040000D01*
X147490000Y-95550000D02*
X157890000Y-95550000D01*
X157890000Y-105830000D01*
X147490000Y-105830000D01*
X147490000Y-95550000D01*
X147550000Y-99690000D02*
G75*
G02*
X147550000Y-101690000I0J-1000000D01*
G01*
%TO.C,J13*%
X183230612Y-88891768D02*
X183230612Y-89011768D01*
X183230612Y-89011768D02*
X185350612Y-89011768D01*
X184290612Y-86891768D02*
X185350612Y-86891768D01*
X185350612Y-86891768D02*
X185350612Y-87951768D01*
X185350612Y-88891768D02*
X185350612Y-89011768D01*
%TO.C,RV3*%
X205670000Y-96670000D02*
X207000000Y-96670000D01*
X205670000Y-98000000D02*
X205670000Y-96670000D01*
X208270000Y-96670000D02*
X213410000Y-96670000D01*
X208270000Y-99330000D02*
X208270000Y-96670000D01*
X208270000Y-99330000D02*
X213410000Y-99330000D01*
X213410000Y-99330000D02*
X213410000Y-96670000D01*
%TO.C,J18*%
X116515429Y-83388618D02*
X116515429Y-83508618D01*
X116515429Y-83508618D02*
X118635429Y-83508618D01*
X117575429Y-81388618D02*
X118635429Y-81388618D01*
X118635429Y-81388618D02*
X118635429Y-82448618D01*
X118635429Y-83388618D02*
X118635429Y-83508618D01*
%TO.C,U1*%
X127040000Y-96550000D02*
X127040000Y-106830000D01*
X127040000Y-106830000D02*
X132340000Y-106830000D01*
X128690000Y-96550000D02*
X127040000Y-96550000D01*
X132340000Y-96550000D02*
X130690000Y-96550000D01*
X132340000Y-106830000D02*
X132340000Y-96550000D01*
X124550000Y-96490000D02*
X134830000Y-96490000D01*
X134830000Y-106890000D01*
X124550000Y-106890000D01*
X124550000Y-96490000D01*
X130690000Y-96550000D02*
G75*
G02*
X128690000Y-96550000I-1000000J0D01*
G01*
%TO.C,R19*%
X158630000Y-97420000D02*
X158630000Y-103960000D01*
X158630000Y-103960000D02*
X158960000Y-103960000D01*
X158960000Y-97420000D02*
X158630000Y-97420000D01*
X161040000Y-97420000D02*
X161370000Y-97420000D01*
X161370000Y-97420000D02*
X161370000Y-103960000D01*
X161370000Y-103960000D02*
X161040000Y-103960000D01*
%TO.C,D2*%
X135038107Y-112013968D02*
X135688107Y-112013968D01*
X139088107Y-113133968D02*
X139088107Y-110893968D01*
X139208107Y-113133968D02*
X139208107Y-110893968D01*
X139328107Y-113133968D02*
X139328107Y-110893968D01*
X140578107Y-112013968D02*
X139928107Y-112013968D01*
X135688107Y-110893968D02*
X139928107Y-110893968D01*
X139928107Y-113133968D01*
X135688107Y-113133968D01*
X135688107Y-110893968D01*
%TO.C,R6*%
X145420000Y-117130000D02*
X151960000Y-117130000D01*
X145420000Y-117460000D02*
X145420000Y-117130000D01*
X145420000Y-119540000D02*
X145420000Y-119870000D01*
X145420000Y-119870000D02*
X151960000Y-119870000D01*
X151960000Y-117130000D02*
X151960000Y-117460000D01*
X151960000Y-119870000D02*
X151960000Y-119540000D01*
%TO.C,C6*%
X135244552Y-92659786D02*
X135581552Y-92659786D01*
X135244552Y-97899786D02*
X135244552Y-92659786D01*
X135581552Y-97899786D02*
X135244552Y-97899786D01*
X137647552Y-92659786D02*
X137984552Y-92659786D01*
X137984552Y-92659786D02*
X137984552Y-97899786D01*
X137984552Y-97899786D02*
X137647552Y-97899786D01*
%TO.C,Cin8*%
X211130000Y-100880000D02*
X211467000Y-100880000D01*
X211130000Y-106120000D02*
X211130000Y-100880000D01*
X211467000Y-106120000D02*
X211130000Y-106120000D01*
X213533000Y-100880000D02*
X213870000Y-100880000D01*
X213870000Y-100880000D02*
X213870000Y-106120000D01*
X213870000Y-106120000D02*
X213533000Y-106120000D01*
%TO.C,S2 PCB In*%
X166747607Y-114333728D02*
X166747607Y-116453728D01*
X166867607Y-114333728D02*
X166747607Y-114333728D01*
X166867607Y-116453728D02*
X166747607Y-116453728D01*
X168867607Y-115393728D02*
X168867607Y-116453728D01*
X168867607Y-116453728D02*
X167807607Y-116453728D01*
%TO.C,D1*%
X135040000Y-114759698D02*
X135690000Y-114759698D01*
X136290000Y-113639698D02*
X136290000Y-115879698D01*
X136410000Y-113639698D02*
X136410000Y-115879698D01*
X136530000Y-113639698D02*
X136530000Y-115879698D01*
X140580000Y-114759698D02*
X139930000Y-114759698D01*
X135690000Y-113639698D02*
X139930000Y-113639698D01*
X139930000Y-115879698D01*
X135690000Y-115879698D01*
X135690000Y-113639698D01*
%TO.C,R9*%
X144010101Y-100030798D02*
X144340101Y-100030798D01*
X144010101Y-106570798D02*
X144010101Y-100030798D01*
X144340101Y-106570798D02*
X144010101Y-106570798D01*
X146420101Y-106570798D02*
X146750101Y-106570798D01*
X146750101Y-100030798D02*
X146420101Y-100030798D01*
X146750101Y-106570798D02*
X146750101Y-100030798D01*
%TO.C,C4*%
X156690000Y-117130000D02*
X161930000Y-117130000D01*
X156690000Y-117467000D02*
X156690000Y-117130000D01*
X156690000Y-119870000D02*
X156690000Y-119533000D01*
X161930000Y-117130000D02*
X161930000Y-117467000D01*
X161930000Y-119533000D02*
X161930000Y-119870000D01*
X161930000Y-119870000D02*
X156690000Y-119870000D01*
%TO.C,J10*%
X151440000Y-112940000D02*
X151440000Y-113060000D01*
X151440000Y-113060000D02*
X153560000Y-113060000D01*
X152500000Y-110940000D02*
X153560000Y-110940000D01*
X153560000Y-110940000D02*
X153560000Y-112000000D01*
X153560000Y-112940000D02*
X153560000Y-113060000D01*
%TO.C,R14*%
X210630000Y-87920000D02*
X210960000Y-87920000D01*
X210630000Y-94460000D02*
X210630000Y-87920000D01*
X210960000Y-94460000D02*
X210630000Y-94460000D01*
X213040000Y-94460000D02*
X213370000Y-94460000D01*
X213370000Y-87920000D02*
X213040000Y-87920000D01*
X213370000Y-94460000D02*
X213370000Y-87920000D01*
%TO.C,D5*%
X204380000Y-117590000D02*
X206620000Y-117590000D01*
X204380000Y-117710000D02*
X206620000Y-117710000D01*
X204380000Y-117830000D02*
X206620000Y-117830000D01*
X205500000Y-113540000D02*
X205500000Y-114190000D01*
X205500000Y-119080000D02*
X205500000Y-118430000D01*
X204380000Y-114190000D02*
X206620000Y-114190000D01*
X206620000Y-118430000D01*
X204380000Y-118430000D01*
X204380000Y-114190000D01*
%TO.C,R23*%
X170130000Y-94040000D02*
X170460000Y-94040000D01*
X170130000Y-100580000D02*
X170130000Y-94040000D01*
X170460000Y-100580000D02*
X170130000Y-100580000D01*
X172540000Y-100580000D02*
X172870000Y-100580000D01*
X172870000Y-94040000D02*
X172540000Y-94040000D01*
X172870000Y-100580000D02*
X172870000Y-94040000D01*
%TO.C,R29*%
X174330612Y-83581768D02*
X174330612Y-83911768D01*
X174330612Y-86321768D02*
X174330612Y-85991768D01*
X180870612Y-83581768D02*
X174330612Y-83581768D01*
X180870612Y-83911768D02*
X180870612Y-83581768D01*
X180870612Y-85991768D02*
X180870612Y-86321768D01*
X180870612Y-86321768D02*
X174330612Y-86321768D01*
%TD*%
M02*
